<svg id="Layer_1" data-name="Layer 1" xmlns="http://www.w3.org/2000/svg" viewBox="0 0 24 24"><defs><style>.cls-1,.cls-2,.cls-3,.cls-4,.cls-5{fill:none;stroke:#000;stroke-miterlimit:10;}.cls-2{stroke-width:0.71px;}.cls-3{stroke-width:0.71px;}.cls-4{stroke-width:0.71px;}.cls-5{stroke-width:0.86px;}</style></defs><path class="cls-1" d="M9.66,4.43c.09-.17.15-.28.22-.39a1.17,1.17,0,0,1,1.61-.5l3.75,2a1.18,1.18,0,0,1,.49,1.6c-.17.34-.36.68-.53,1a2.35,2.35,0,0,0-.13.27l1.18-.7.38-.23a1.15,1.15,0,0,1,1.53.29,2.33,2.33,0,0,1,.17.26c.7,1.15,1.37,2.32,2.09,3.46A1.22,1.22,0,0,1,20,13.25l-1.57.93a.53.53,0,0,0-.19.18h1.51a1.83,1.83,0,0,1,.52.09A1.09,1.09,0,0,1,21,15.52c0,1.43,0,2.87,0,4.31A1.16,1.16,0,0,1,19.75,21H4.31A1.19,1.19,0,0,1,3,19.68V4.34a1.89,1.89,0,0,1,.11-.67A.93.93,0,0,1,4,3H8.37C9.12,3,9.58,3.52,9.66,4.43Z"/><path class="cls-2" d="M11.09,17.7c0,.29,0,.58,0,.87s-.09.36-.35.36H9c-.26,0-.35-.1-.35-.36,0-.59,0-1.19,0-1.78,0-.26.09-.36.35-.36h1.79c.26,0,.35.1.35.36Z"/><path class="cls-3" d="M13.77,16.43h.91c.23,0,.33.1.33.33V18.6a.29.29,0,0,1-.32.33H12.83a.28.28,0,0,1-.32-.31V16.75a.29.29,0,0,1,.32-.32Z"/><path class="cls-4" d="M16.43,17.67c0-.3,0-.61,0-.91s.1-.33.33-.33H18.6a.28.28,0,0,1,.32.32c0,.62,0,1.23,0,1.85,0,.22-.1.33-.32.33H16.75a.28.28,0,0,1-.32-.32C16.42,18.29,16.43,18,16.43,17.67Z"/><path class="cls-5" d="M5.2,17.67a1,1,0,0,1,1-1,1,1,0,0,1,0,2A1,1,0,0,1,5.2,17.67Z"/><line class="cls-1" x1="3" y1="14.41" x2="18.21" y2="14.36"/><line class="cls-1" x1="9.66" y1="4.43" x2="4.42" y2="14.38"/><line class="cls-1" x1="15.07" y1="8.43" x2="5.05" y2="14.41"/></svg>