<svg id="Layer_1" data-name="Layer 1" xmlns="http://www.w3.org/2000/svg" viewBox="0 0 24 24"><defs><style>.cls-1{fill:none;stroke:#000;stroke-linecap:round;stroke-linejoin:round;}</style></defs><path class="cls-1" d="M11.7,21c0-.68,0-1.37,0-2.05a1.36,1.36,0,0,1,1.43-1.44h4.74a1,1,0,0,0,1-.65,1,1,0,0,0-.23-1.15,1.13,1.13,0,0,0-.84-.31H6.48a1.36,1.36,0,1,1,0-2.71h4.17a1,1,0,0,0,1-.87,1.14,1.14,0,0,0,0-.26V9.4"/><path class="cls-1" d="M13.79,6.4a2,2,0,0,1-.92,2.1,1.86,1.86,0,0,1-2,0A2,2,0,0,1,9.9,6.4"/><path class="cls-1" d="M15,5.78H8.64"/><path class="cls-1" d="M10.64,3c0,.52,0,1,0,1.57"/><path class="cls-1" d="M13,3V4.57"/></svg>