<svg id="Layer_1" data-name="Layer 1" xmlns="http://www.w3.org/2000/svg" viewBox="0 0 24 24"><defs><style>.cls-1{fill:none;stroke:#000;stroke-linecap:round;stroke-linejoin:round;}</style></defs><g id="layer1"><g id="g4681"><path id="rect5659-6-9" class="cls-1" d="M3.76,12.62a7.35,7.35,0,0,0,4,3.92,8.85,8.85,0,0,1,.09.92C7.8,20.19,5.49,21,6.12,21H16.65a5.18,5.18,0,0,1-1.78-3.45c0-2.74,3.7-4.94,2.83-5H15Z"/><path id="rect5659-4-6" class="cls-1" d="M15.59,4.06V3.65A.65.65,0,0,1,16.24,3h2.91a.65.65,0,0,1,.65.65v8.2a.65.65,0,0,1-.65.65H16.24a.65.65,0,0,1-.65-.65V5.3"/></g></g></svg>