<svg id="Layer_1" data-name="Layer 1" xmlns="http://www.w3.org/2000/svg" viewBox="0 0 24 24"><defs><style>.cls-1,.cls-2{fill:none;}.cls-1{stroke:#e85a24;stroke-linecap:round;stroke-linejoin:round;}.cls-2{stroke:#000;}</style></defs><g id="Group"><path id="Path-8" class="cls-1" d="M10.24,20.23a4.85,4.85,0,0,0,3.1-2.49c.68-1.62.35-3.54-1.73-2.74q-1.75.67.73,4h0a2.14,2.14,0,0,0,3.39,0h0c1.08-1.45,3.05-1.86,4.55.85"/><path id="Path" class="cls-2" d="M5,1.75H17.12a5.12,5.12,0,0,1,5.13,5.13V22.25H8.16V6.8"/><path id="Rectangle-Copy" class="cls-2" d="M5,1.75A3.21,3.21,0,0,1,8.16,5V6.88H1.75V5A3.2,3.2,0,0,1,5,1.75Z"/><path id="Combined-Shape" class="cls-2" d="M10.74,5.74h8.33M10.74,8.3h5.13m-5.13,2.56h8.33"/></g></svg>