<svg id="Layer_1" data-name="Layer 1" xmlns="http://www.w3.org/2000/svg" viewBox="0 0 24 24"><defs><style>.cls-1,.cls-2{fill:none;stroke-miterlimit:10;}.cls-1{stroke:#020203;}.cls-2{stroke:#e85a24;}</style></defs><line class="cls-1" x1="1.85" y1="16.1" x2="1.85" y2="22.25"/><polyline class="cls-1" points="1.85 19.07 7.9 18.36 8.31 13.13"/><path class="cls-2" d="M20.2,9.13,22,9.85c.11,0,.11.1.11.2h0L21,12.92c0,.1-.1.1-.21.1h0l-3.48-1.33"/><path class="cls-2" d="M6.57,10.05l-.11.31a2,2,0,0,0,1.13,2.36l1.34.41A1.83,1.83,0,0,0,11.28,12h0l.1-.31"/><path class="cls-1" d="M2.37,8.52,4.62,1.85l.1-.1h0L21.64,7.59l.1.11h0L15.79,13h-.1L2.47,8.62Z"/></svg>