<svg id="Layer_1" data-name="Layer 1" xmlns="http://www.w3.org/2000/svg" viewBox="0 0 24 24"><defs><style>.cls-1,.cls-2{fill:none;stroke-linecap:round;}.cls-1{stroke:#e85a24;}.cls-2{stroke:#000;stroke-linejoin:round;}</style></defs><line class="cls-1" x1="11.99" y1="7.21" x2="11.99" y2="20.5"/><path class="cls-2" d="M4.65,4.9v-1a.37.37,0,0,1,.41-.4c.28,0,.57.06.85.1A10.58,10.58,0,0,1,9.24,4.72,7.21,7.21,0,0,1,12,7.17l0,0h0c.12-.17.23-.34.36-.5A7.4,7.4,0,0,1,15,4.6a10.91,10.91,0,0,1,3.47-1.06l.48,0a.38.38,0,0,1,.42.41v1h1.07a.38.38,0,0,1,.41.42,1.33,1.33,0,0,1,0,.2c0,.06,0,.08.08.08h.91a.39.39,0,0,1,.43.43V18.46a.39.39,0,0,1-.46.43,24.12,24.12,0,0,0-2.82,0,21.23,21.23,0,0,0-2.39.22,14.12,14.12,0,0,0-3.81,1.06c-.18.08-.35.19-.53.29a.51.51,0,0,1-.48,0c-.22-.12-.44-.25-.68-.36a12.6,12.6,0,0,0-3-.87,25.17,25.17,0,0,0-5.41-.36l-.53,0a.38.38,0,0,1-.43-.39V6a.37.37,0,0,1,.39-.4h.94c.07,0,.09,0,.09-.09a.74.74,0,0,1,0-.21.37.37,0,0,1,.39-.4H4.65Zm5.79,13.62,1.06,1-1-1.06a7.21,7.21,0,0,0-1.7-1.31,8.82,8.82,0,0,0-3.69-1c-.3,0-.42-.15-.42-.45V4.9m14.7-.1V15.73a.38.38,0,0,1-.39.42,9.84,9.84,0,0,0-1.63.23,7.64,7.64,0,0,0-3.5,1.81c-.12.11-1.23,1.23-1.34,1.34M20.83,5.44c0,3.55,0,8.1,0,11.64a.39.39,0,0,1-.4.42,14.52,14.52,0,0,0-2.19.23,14.17,14.17,0,0,0-3.06.84l-.08,0m-6.29,0a16.74,16.74,0,0,0-3-.83,15.74,15.74,0,0,0-2.28-.24.35.35,0,0,1-.36-.25.62.62,0,0,1,0-.19V5.54"/><rect x="11.5" y="19.5" width="1" height="1"/></svg>