<svg id="Layer_1" data-name="Layer 1" xmlns="http://www.w3.org/2000/svg" viewBox="0 0 24 24"><defs><style>.cls-1,.cls-2{fill:none;}.cls-1{stroke:#e85a24;stroke-linecap:square;stroke-width:0.79px;}.cls-2{stroke:#000;stroke-linecap:round;stroke-linejoin:round;}</style></defs><path class="cls-1" d="M17.49,16.05c-.06.21,0,.33.18.43a1.22,1.22,0,0,1,.67,1.42,1.26,1.26,0,0,1-2.45,0,.7.7,0,0,1,0-.14"/><path class="cls-2" d="M4.52,21.37H7.1V9.29H5.56l0,.43H1.75V6.34l.09,0A1.43,1.43,0,0,0,3,5.91c1.32-1,2.67-2,4-3.06a.78.78,0,0,1,.87-.12l10.26,4a1.55,1.55,0,0,0,.52.1h1.48a.6.6,0,0,1,.47.2c.48.54,1,1.06,1.45,1.59.13.14.26.27.17.47s-.27.23-.47.23H10.35V21.37h7.49M7.52,2.65l.14.27L9.89,6.57l.13.22m-2.5,0V2.63"/><path class="cls-2" d="M19.13,10.2l-.54,3.38c.36.09.33.37.28.65-.09.46-.16.91-.23,1.37s-.14.48-.56.48h-.24m-.72,0H16.7a.36.36,0,0,1-.35-.32c-.09-.59-.18-1.17-.26-1.76,0-.22.1-.35.31-.42l-.54-3.38"/><polyline class="cls-2" points="5.53 9.72 5.53 6.32 1.84 6.32"/><line class="cls-2" x1="16.39" y1="13.58" x2="18.6" y2="13.58"/><line class="cls-2" x1="17.12" y1="16.08" x2="17.87" y2="16.08"/><polyline class="cls-2" points="7.09 21.37 10.35 21.37 7.1 19.38 10.35 16.73 7.09 14.13 10.35 11.83 7.09 9.29 10.35 9.28"/><line class="cls-2" x1="18.78" y1="6.79" x2="5.53" y2="6.79"/></svg>