<svg id="Layer_1" data-name="Layer 1" xmlns="http://www.w3.org/2000/svg" viewBox="0 0 24 24"><defs><style>.cls-1,.cls-2{fill:none;stroke-width:0.79px;}.cls-1{stroke:#000;stroke-linecap:round;}.cls-2{stroke:#e85a24;stroke-linecap:square;}</style></defs><g id="icon_32_buildings" data-name="icon/32/buildings"><polygon id="Rectangle" class="cls-1" points="3.88 1.77 14.24 4.92 14.24 22.23 22.25 22.23 14.24 22.23 3.88 22.23 1.75 22.23 3.88 22.23 3.88 1.77"/><polyline id="Path" class="cls-2" points="7.66 21.05 7.66 16.96 10.81 16.96 10.81 21.05"/><line id="Path-6" class="cls-1" x1="6.18" y1="7.65" x2="11.59" y2="7.65"/><line id="Path-6-Copy-3" class="cls-1" x1="16.57" y1="11.89" x2="18.76" y2="11.89"/><line id="Path-6-Copy" class="cls-1" x1="6.18" y1="10.01" x2="11.59" y2="10.01"/><line id="Path-6-Copy-4" class="cls-1" x1="16.57" y1="14.26" x2="18.76" y2="14.26"/><line id="Path-6-Copy-2" class="cls-1" x1="6.18" y1="12.37" x2="11.59" y2="12.37"/><line id="Path-6-Copy-5" class="cls-1" x1="16.57" y1="16.62" x2="18.76" y2="16.62"/><polygon id="Rectangle-2" data-name="Rectangle" class="cls-1" points="14.35 8.06 21.19 9.53 21.19 22.23 14.35 22.23 14.35 8.06"/></g></svg>