<svg id="Layer_1" data-name="Layer 1" xmlns="http://www.w3.org/2000/svg" viewBox="0 0 24 24"><defs><style>.cls-1,.cls-2{fill:none;stroke-linecap:round;stroke-linejoin:round;}.cls-1{stroke:#e85a24;}.cls-2{stroke:#000;}</style></defs><polygon class="cls-1" points="11.79 7.13 13.54 10.21 17.13 10.62 14.66 13.18 15.48 16.66 12.21 15.23 9.13 16.97 9.54 13.49 6.88 11.03 10.36 10.41 11.79 7.13"/><path class="cls-2" d="M12.1,1.8a10.1,10.1,0,0,1,9.84,8.1c.11.72.21,1.33.31,2A10.36,10.36,0,0,1,13.43,22.1a5.49,5.49,0,0,1-1.33.1"/><path class="cls-2" d="M10.05,22.1a9.38,9.38,0,0,1-4.71-2.36c-.62-.62-1.23-1.33-1.74-1.95"/><path class="cls-2" d="M2.57,16.05a10.25,10.25,0,0,1-.82-3.9v-.82"/><path class="cls-2" d="M2.06,9.39A9.74,9.74,0,0,1,3.8,5.8"/><path class="cls-2" d="M5,4.47c.72-.52,1.43-1,2.25-1.54"/></svg>