<svg id="Layer_1" data-name="Layer 1" xmlns="http://www.w3.org/2000/svg" viewBox="0 0 24 24"><defs><style>.cls-1,.cls-2{fill:none;stroke-linecap:round;stroke-linejoin:round;}.cls-1{stroke:#000;}.cls-2{stroke:#e85a24;}</style></defs><path class="cls-1" d="M3.86,4.15v16A2.12,2.12,0,0,0,6,22.25H19.67a.49.49,0,0,0,.47-.47v-16"/><path class="cls-1" d="M5.91,1.75H20.12a3.25,3.25,0,0,0-.76,2.07,3.27,3.27,0,0,0,.76,2.07H5.91A2.22,2.22,0,0,1,3.86,3.82,2.22,2.22,0,0,1,5.91,1.75Z"/><path id="Path" class="cls-2" d="M7.58,10.73h8.84"/><path id="Path-2" data-name="Path" class="cls-2" d="M7.58,14.49h8.84"/><path id="Path-3" data-name="Path" class="cls-2" d="M7.58,18.25h8.84"/></svg>