<?xml version="1.0" encoding="utf-8"?>
<!-- Generator: Adobe Illustrator 26.0.1, SVG Export Plug-In . SVG Version: 6.00 Build 0)  -->
<svg version="1.1" id="Layer_1" xmlns="http://www.w3.org/2000/svg" xmlns:xlink="http://www.w3.org/1999/xlink" x="0px" y="0px"
	 viewBox="0 0 24 24" style="enable-background:new 0 0 24 24;" xml:space="preserve">
<style type="text/css">
	.st0{fill:none;stroke:#000000;stroke-linecap:round;stroke-linejoin:round;}
	.st1{fill:#FFFFFF;stroke:#000000;}
	.st2{fill:none;stroke:#E85A24;stroke-width:0.5;stroke-linecap:round;stroke-linejoin:round;}
</style>
<path id="Path" class="st0" d="M5.9,1.8h10.5c2.4,0,4.4,2,4.4,4.4l0,0v16.1H8.7V6.1"/>
<path id="Path-2" class="st0" d="M5.9,1.8c1.5,0,2.8,1.2,2.8,2.8l0,0v1.7H3.1V4.5C3.1,3,4.4,1.8,5.9,1.8z"/>
<path id="Shape" class="st0" d="M10.9,9.6h7.2"/>
<path id="Path-3" class="st1" d="M8.7,20c2.1,0,3.9-1.7,3.9-3.9c0-2.1-1.7-3.9-3.9-3.9c-2.1,0-3.9,1.7-3.9,3.9c0,0,0,0,0,0
	C4.8,18.3,6.6,20,8.7,20z"/>
<line class="st2" x1="7.4" y1="14.4" x2="9.9" y2="14.4"/>
<path class="st2" d="M9.1,17.9l-1.6-1.5v-0.1h0.7c0,0,1.2,0.1,1.2-1s-1.2-0.9-1.2-0.9H7.4"/>
<line class="st2" x1="7.4" y1="15.3" x2="9.9" y2="15.3"/>
<line class="st0" x1="10.9" y1="7.4" x2="18.1" y2="7.4"/>
<line class="st0" x1="10.9" y1="5.2" x2="18.1" y2="5.2"/>
</svg>
