<svg id="Layer_1" data-name="Layer 1" xmlns="http://www.w3.org/2000/svg" viewBox="0 0 24 24"><defs><style>.cls-1{fill:none;stroke:#000;stroke-linecap:round;stroke-linejoin:round;}.cls-2{fill:#e85a24;}</style></defs><line class="cls-1" x1="1.75" y1="16.1" x2="22.25" y2="16.1"/><path class="cls-1" d="M19.35,16.1a7.73,7.73,0,0,1-14.7,0"/><line class="cls-1" x1="1.75" y1="7.9" x2="13.61" y2="7.9"/><line class="cls-1" x1="16.91" y1="7.9" x2="22.25" y2="7.9"/><path class="cls-1" d="M19.35,7.9a7.73,7.73,0,0,0-14.7,0"/><path class="cls-2" d="M3.38,14.52v-5h1.8a2.15,2.15,0,0,1,1,.2,1.37,1.37,0,0,1,.58.56,1.68,1.68,0,0,1,.19.82,1.62,1.62,0,0,1-.19.81,1.29,1.29,0,0,1-.58.55,2.2,2.2,0,0,1-1,.19H3.81V12H5.1a1.51,1.51,0,0,0,.61-.11.69.69,0,0,0,.34-.31,1,1,0,0,0,.11-.48,1,1,0,0,0-.11-.49.8.8,0,0,0-.35-.33,1.43,1.43,0,0,0-.6-.11h-1v4.39Zm2.49-2.27,1.24,2.27H6.25L5,12.25Z"/><path class="cls-2" d="M7.85,14.52v-5H11v.65H8.61v1.54h2.23v.65H8.61v1.55H11v.65Z"/><path class="cls-2" d="M12,14.52v-5h1.79a2.19,2.19,0,0,1,1,.2,1.37,1.37,0,0,1,.58.56,1.8,1.8,0,0,1,.19.82,1.62,1.62,0,0,1-.2.81,1.24,1.24,0,0,1-.58.55,2.12,2.12,0,0,1-1,.19H12.46V12h1.29a1.43,1.43,0,0,0,.6-.11.65.65,0,0,0,.34-.31.9.9,0,0,0,.11-.48.94.94,0,0,0-.11-.49.73.73,0,0,0-.34-.33,1.48,1.48,0,0,0-.61-.11h-1v4.39Zm2.48-2.27,1.25,2.27h-.87l-1.22-2.27Z"/><path class="cls-2" d="M16.92,14.52h-.81l1.82-5h.88l1.81,5h-.81L18.39,10.4h0Zm.14-2h2.62v.64H17.06Z"/></svg>