<svg id="Layer_1" data-name="Layer 1" xmlns="http://www.w3.org/2000/svg" viewBox="0 0 24 24"><defs><style>.cls-1,.cls-2{fill:none;stroke-linecap:round;stroke-linejoin:round;}.cls-1{stroke:#e85a24;}.cls-2{stroke:#020203;}</style></defs><path class="cls-1" d="M9.65,16.59,11,15.27,11,15.2s0-.08-.07-.08L9.65,13.8"/><path class="cls-1" d="M6.86,8.88c-2.58.66-4,1.69-4,2.86C2.82,13.51,6.34,15,11,15.2"/><path class="cls-1" d="M13.54,15.2h0c4.49-.3,7.64-1.69,7.64-3.46,0-1.17-1.39-2.2-3.82-2.79h-.22"/><path class="cls-2" d="M17.07,9.39,15.6,10.86a.25.25,0,0,1-.15.07c-.07,0-.07,0-.14-.07L13.84,9.39"/><path class="cls-2" d="M8.4,6.23c.73-2.86,1.91-4.48,3.23-4.48,2,0,3.6,3.89,3.82,9.11"/><path class="cls-2" d="M8.4,17.77V18h0c.73,2.72,1.84,4.26,3.16,4.26,1.91,0,3.45-3.45,3.82-8.45h0"/></svg>