<svg id="Layer_1" data-name="Layer 1" xmlns="http://www.w3.org/2000/svg" viewBox="0 0 24 24"><defs><style>.cls-1,.cls-2{fill:none;stroke:#000;stroke-linecap:round;stroke-linejoin:round;}.cls-2{stroke-width:0.75px;}</style></defs><path class="cls-1" d="M21,10.78V17.1a.25.25,0,0,1-.18.27l-5.73,2.42a.39.39,0,0,1-.3,0L9.18,17.42a.31.31,0,0,0-.23,0L3.34,19.78l-.11,0A.18.18,0,0,1,3,19.64V6.93c0-.22,0-.24.22-.32L8.83,4.25a.55.55,0,0,1,.47,0l5.54,2.33a.22.22,0,0,0,.21,0l5.51-2.32.18-.07a.18.18,0,0,1,.26.17v6.42Z"/><path class="cls-2" d="M10.25,13.18l3.67,1.55"/><path class="cls-2" d="M10.2,11c.19.07.38.16.56.24l3.17,1.33"/><path class="cls-2" d="M10.21,6.8l3.73,1.56"/><path class="cls-2" d="M10.28,15.32l3.65,1.54"/><path class="cls-2" d="M10.22,8.93l3.71,1.55"/><path class="cls-2" d="M15.9,12.63l.39-.17,3.34-1.4.06,0"/><path class="cls-2" d="M15.92,8.37l.7-.3,3-1.26"/><path class="cls-2" d="M15.91,16.87l.51-.21,3.22-1.36"/><path class="cls-2" d="M15.92,10.5l.8-.34,2.91-1.22"/><path class="cls-2" d="M15.91,14.75l.54-.23,3.18-1.34"/><path class="cls-2" d="M4.16,10.5l.5-.21L7.87,8.94l.09,0"/><path class="cls-2" d="M4.14,12.64l.29-.13,3.41-1.44L8,11"/><path class="cls-2" d="M4.18,14.74l.64-.27,3.05-1.29.14,0"/><path class="cls-2" d="M4.25,8.34,7.89,6.81"/><path class="cls-2" d="M4.16,16.87l.44-.18L7.9,15.3a.31.31,0,0,1,.13,0"/><line class="cls-1" x1="9.05" y1="4.2" x2="9.05" y2="17.4"/><line class="cls-1" x1="14.92" y1="6.6" x2="14.92" y2="19.83"/></svg>