<svg id="Layer_1" data-name="Layer 1" xmlns="http://www.w3.org/2000/svg" viewBox="0 0 24 24"><defs><style>.cls-1,.cls-2{fill:none;stroke:#000;stroke-linecap:round;stroke-linejoin:round;}.cls-1{fill-rule:evenodd;}</style></defs><path class="cls-1" d="M13.81,20.37H4.1A1.11,1.11,0,0,1,3,19.26V4.74A1.11,1.11,0,0,1,4.1,3.63H17.65a1.11,1.11,0,0,1,1.11,1.11v6.63"/><line class="cls-2" x1="16.42" y1="14.07" x2="21" y2="14.07"/><path class="cls-2" d="M19.47,20.37,16.61,17.7v-.19H18s2.1.19,2.1-1.72c0-1.72-2.1-1.72-2.1-1.72H16.42"/><line class="cls-2" x1="16.42" y1="15.72" x2="21" y2="15.72"/><line class="cls-2" x1="9.07" y1="8.53" x2="14.1" y2="8.53"/><line class="cls-2" x1="6.68" y1="8.53" x2="6.68" y2="8.53"/><line class="cls-2" x1="9.07" y1="12.02" x2="14.1" y2="12.02"/><line class="cls-2" x1="6.68" y1="12.02" x2="6.68" y2="12.02"/><line class="cls-2" x1="9.07" y1="15.52" x2="14.1" y2="15.52"/><line class="cls-2" x1="6.68" y1="15.52" x2="6.68" y2="15.52"/></svg>