<svg id="Layer_1" data-name="Layer 1" xmlns="http://www.w3.org/2000/svg" viewBox="0 0 24 24"><defs><style>.cls-1{fill:none;stroke:#000;stroke-linecap:round;stroke-linejoin:round;}</style></defs><path class="cls-1" d="M5.75,13.55v-3.1h1.1c.67,0,1.07.32,1.07.85s-.39.92-1,.92h0a.71.71,0,0,1,.58.4l.55.92"/><line class="cls-1" x1="6.83" y1="12.23" x2="5.75" y2="12.23"/><polyline class="cls-1" points="11.01 10.62 9.21 10.62 9.21 13.38 11.01 13.38"/><line class="cls-1" x1="9.21" y1="12" x2="10.9" y2="12"/><path class="cls-1" d="M12.21,13.55v-3.1h1.11c.67,0,1.07.32,1.07.85s-.39.92-1.05.92h0a.69.69,0,0,1,.58.4l.56.92"/><line class="cls-1" x1="13.3" y1="12.23" x2="12.22" y2="12.23"/><polyline class="cls-1" points="15.68 13.6 16.88 10.37 18.25 13.63"/><line class="cls-1" x1="16.05" y1="12.59" x2="17.81" y2="12.59"/><path class="cls-1" d="M18.66,20.8H21V3.2H3V20.8H14.7"/></svg>