<svg id="Layer_1" data-name="Layer 1" xmlns="http://www.w3.org/2000/svg" viewBox="0 0 24 24"><defs><style>.cls-1,.cls-2{fill:none;stroke:#000;stroke-linecap:round;stroke-linejoin:round;}.cls-1{stroke-width:1.2px;}</style></defs><path class="cls-1" d="M4.5,9.08V5.36H5.83c.8,0,1.28.38,1.28,1s-.47,1.1-1.26,1.1h0a.85.85,0,0,1,.7.48l.67,1.11"/><line class="cls-1" x1="5.8" y1="7.49" x2="4.51" y2="7.49"/><polyline class="cls-1" points="10.82 5.56 8.66 5.56 8.66 8.88 10.82 8.88"/><line class="cls-1" x1="8.66" y1="7.22" x2="10.69" y2="7.22"/><path class="cls-1" d="M12.26,9.08V5.36h1.32c.8,0,1.28.38,1.28,1s-.46,1.1-1.25,1.1h0a.86.86,0,0,1,.7.48L15,9.08"/><line class="cls-1" x1="13.56" y1="7.49" x2="12.26" y2="7.49"/><polyline class="cls-1" points="16.41 9.14 17.85 5.27 19.5 9.17"/><line class="cls-1" x1="16.86" y1="7.93" x2="18.97" y2="7.93"/><path class="cls-2" d="M6.08,16.44H2.3V2H21.7V16.44H18"/><path class="cls-2" d="M10.49,15.28l1,1.35,1.48-1.76.57-.68"/><polyline class="cls-2" points="10.38 18.98 10.39 22 12.04 20.68 13.63 22 13.63 18.99"/><circle class="cls-2" cx="12" cy="15.41" r="3.94"/></svg>