<svg id="Layer_1" data-name="Layer 1" xmlns="http://www.w3.org/2000/svg" viewBox="0 0 24 24"><defs><style>.cls-1{fill:none;stroke:#000;stroke-linecap:round;stroke-linejoin:round;}</style></defs><path class="cls-1" d="M5.75,11.55V8.45h1.1c.67,0,1.07.32,1.07.85s-.39.92-1,.92h0a.71.71,0,0,1,.58.4l.55.92"/><line class="cls-1" x1="6.83" y1="10.23" x2="5.75" y2="10.23"/><polyline class="cls-1" points="11.01 8.62 9.21 8.62 9.21 11.38 11.01 11.38"/><line class="cls-1" x1="9.21" y1="10" x2="10.9" y2="10"/><path class="cls-1" d="M12.21,11.55V8.45h1.11c.67,0,1.07.32,1.07.85s-.39.92-1.05.92h0a.69.69,0,0,1,.58.4l.56.92"/><line class="cls-1" x1="13.3" y1="10.23" x2="12.22" y2="10.23"/><polyline class="cls-1" points="15.68 11.6 16.88 8.37 18.25 11.63"/><line class="cls-1" x1="16.05" y1="10.59" x2="17.81" y2="10.59"/><path class="cls-1" d="M17.66,20.8H21V3.2H3V20.8H7.7"/><polyline class="cls-1" points="18.3 14.33 11.9 20.72 9 17.81"/></svg>