<?xml version="1.0" encoding="utf-8"?>
<!-- Generator: Adobe Illustrator 26.0.1, SVG Export Plug-In . SVG Version: 6.00 Build 0)  -->
<svg version="1.1" id="Layer_1" xmlns="http://www.w3.org/2000/svg" xmlns:xlink="http://www.w3.org/1999/xlink" x="0px" y="0px"
	 viewBox="0 0 24 24" style="enable-background:new 0 0 24 24;" xml:space="preserve">
<style type="text/css">
	.st0{fill:none;stroke:#000000;stroke-width:0.5;stroke-linecap:round;stroke-linejoin:round;}
</style>
<g>
	<path class="st0" d="M21,10.8v6.3c0,0.1-0.1,0.2-0.2,0.3l-5.7,2.4c-0.1,0-0.2,0-0.3,0l-5.6-2.4c-0.1,0-0.2,0-0.2,0l-5.6,2.4H3.2
		c-0.1,0-0.2,0-0.2-0.1c0,0,0,0,0,0V6.9c0-0.2,0-0.2,0.2-0.3l5.6-2.4c0.1-0.1,0.3-0.1,0.5,0l5.5,2.3c0.1,0,0.1,0,0.2,0l5.5-2.3
		l0.2-0.1c0.1,0,0.2,0,0.2,0.1c0,0,0,0.1,0,0.1C21,4.4,21,10.8,21,10.8z"/>
	<path class="st0" d="M10.2,13.2l3.7,1.6"/>
	<path class="st0" d="M10.2,11c0.2,0.1,0.4,0.2,0.6,0.2l3.2,1.3"/>
	<path class="st0" d="M10.2,6.8l3.7,1.6"/>
	<path class="st0" d="M10.3,15.3l3.7,1.5"/>
	<path class="st0" d="M10.2,8.9l3.7,1.6"/>
	<path class="st0" d="M15.9,12.6l0.4-0.2l3.3-1.4h0.1"/>
	<path class="st0" d="M15.9,8.4l0.7-0.3l3-1.3"/>
	<path class="st0" d="M15.9,16.9l0.5-0.2l3.2-1.4"/>
	<path class="st0" d="M15.9,10.5l0.8-0.3l2.9-1.2"/>
	<path class="st0" d="M15.9,14.8l0.5-0.2l3.2-1.3"/>
	<path class="st0" d="M4.2,10.5l0.5-0.2l3.2-1.4H8"/>
	<path class="st0" d="M4.1,12.6l0.3-0.1l3.4-1.4L8,11"/>
	<path class="st0" d="M4.2,14.7l0.6-0.3l3.1-1.3H8"/>
	<path class="st0" d="M4.2,8.3l3.6-1.5"/>
	<path class="st0" d="M4.2,16.9l0.4-0.2l3.3-1.4c0,0,0.1,0,0.1,0"/>
	<line class="st0" x1="9.1" y1="4.2" x2="9.1" y2="17.4"/>
	<line class="st0" x1="14.9" y1="6.6" x2="14.9" y2="19.8"/>
</g>
</svg>
