<?xml version="1.0" encoding="utf-8"?>
<!-- Generator: Adobe Illustrator 26.0.1, SVG Export Plug-In . SVG Version: 6.00 Build 0)  -->
<svg version="1.1" id="Layer_1" xmlns="http://www.w3.org/2000/svg" xmlns:xlink="http://www.w3.org/1999/xlink" x="0px" y="0px"
	 viewBox="0 0 24 24" style="enable-background:new 0 0 24 24;" xml:space="preserve">
<style type="text/css">
	.st0{fill:none;stroke:#000000;stroke-width:0.5;stroke-linecap:round;stroke-linejoin:round;}
	.st1{fill:none;stroke:#000000;stroke-width:0.75;stroke-linecap:round;stroke-linejoin:round;}
</style>
<path class="st0" d="M13.8,20.4H4.1c-0.6,0-1.1-0.5-1.1-1.1V4.7c0-0.6,0.5-1.1,1.1-1.1h13.5c0.6,0,1.1,0.5,1.1,1.1l0,0v6.6"/>
<line class="st0" x1="16.4" y1="14.1" x2="21" y2="14.1"/>
<path class="st0" d="M19.5,20.4l-2.9-2.7v-0.2H18c0,0,2.1,0.2,2.1-1.7c0-1.7-2.1-1.7-2.1-1.7h-1.6"/>
<line class="st0" x1="16.4" y1="15.7" x2="21" y2="15.7"/>
<line class="st0" x1="9.1" y1="8.5" x2="14.1" y2="8.5"/>
<line class="st1" x1="6.7" y1="8.5" x2="6.7" y2="8.5"/>
<line class="st0" x1="9.1" y1="12" x2="14.1" y2="12"/>
<line class="st1" x1="6.7" y1="12" x2="6.7" y2="12"/>
<line class="st0" x1="9.1" y1="15.5" x2="14.1" y2="15.5"/>
<line class="st1" x1="6.7" y1="15.5" x2="6.7" y2="15.5"/>
</svg>
