<?xml version="1.0" encoding="utf-8"?>
<!-- Generator: Adobe Illustrator 26.0.1, SVG Export Plug-In . SVG Version: 6.00 Build 0)  -->
<svg version="1.1" id="Layer_1" xmlns="http://www.w3.org/2000/svg" xmlns:xlink="http://www.w3.org/1999/xlink" x="0px" y="0px"
	 viewBox="0 0 24 24" style="enable-background:new 0 0 24 24;" xml:space="preserve">
<style type="text/css">
	.st0{fill:none;stroke:#000000;stroke-width:0.5;stroke-linecap:round;stroke-linejoin:round;}
</style>
<path class="st0" d="M5.8,11.6V8.4h1.1c0.7,0,1.1,0.3,1.1,0.9s-0.4,0.9-1,0.9l0,0c0.3,0,0.5,0.2,0.6,0.4l0.6,0.9"/>
<line class="st0" x1="6.8" y1="10.2" x2="5.8" y2="10.2"/>
<polyline class="st0" points="11,8.6 9.2,8.6 9.2,11.4 11,11.4 "/>
<line class="st0" x1="9.2" y1="10" x2="10.9" y2="10"/>
<path class="st0" d="M12.2,11.6V8.4h1.1c0.7,0,1.1,0.3,1.1,0.9s-0.4,0.9-1.1,0.9l0,0c0.3,0,0.5,0.2,0.6,0.4l0.6,0.9"/>
<line class="st0" x1="13.3" y1="10.2" x2="12.2" y2="10.2"/>
<polyline class="st0" points="15.7,11.6 16.9,8.4 18.2,11.6 "/>
<line class="st0" x1="16" y1="10.6" x2="17.8" y2="10.6"/>
<path class="st0" d="M17.7,20.8H21V3.2H3v17.6h4.7"/>
<polyline class="st0" points="18.3,14.3 11.9,20.7 9,17.8 "/>
</svg>
