<svg id="Layer_1" data-name="Layer 1" xmlns="http://www.w3.org/2000/svg" viewBox="0 0 218 75"><defs><style>.cls-1{fill:#e1a019;}.cls-1,.cls-2,.cls-3,.cls-4,.cls-5{fill-rule:evenodd;}.cls-2{fill:#e8d7b2;}.cls-3{fill:#fefefe;}.cls-4{fill:#171f23;}.cls-5,.cls-6{fill:#fff;}</style></defs><path class="cls-1" d="M56.47,58.57a39.68,39.68,0,0,0,1.68-3.66H35.25a9,9,0,0,1-9-9V15.05a21.1,21.1,0,0,0-4.43.92V45.75a9,9,0,0,1-9,9H2.42A38.66,38.66,0,0,0,4.1,58.42H56.47Z"/><path class="cls-1" d="M7.61,63.61c.76.92,1.53,1.68,2.29,2.44H50.82a32,32,0,0,0,2.29-2.44Z"/><path class="cls-1" d="M45.94,69.72a38.48,38.48,0,0,0,4-2.9H10.66a24.26,24.26,0,0,0,4,2.9Z"/><path class="cls-1" d="M5,60.1a22.08,22.08,0,0,0,1.67,2.44h47A13,13,0,0,0,55.4,60.1Z"/><path class="cls-1" d="M15.09,70a29.74,29.74,0,0,0,30.24,0Z"/><path class="cls-2" d="M29.9,45.9a5.48,5.48,0,0,0,5.5,5.5h24a32.56,32.56,0,0,0,.77-6.88A29.66,29.66,0,0,0,30.52,14.9h-.46v31Z"/><path class="cls-2" d="M12.8,51.24a5.47,5.47,0,0,0,5.5-5.49V17.34A29.43,29.43,0,0,0,.59,44.52a35.1,35.1,0,0,0,.76,6.88H12.8Z"/><path class="cls-3" d="M18.15,41.78h0L18,37.65h-.45V36.28H16.31v2h-.45v7.49h0v-.46l-.16.46v.3h-.15l-.15.15V44.37l-.61-.15H11.73V41h-.61c0-.46-.15-.91-.15-1.37-.15-.31-.15-.77-.31-1.07s-.3-.92-.61-.76c-.15,0-.3.45-.3.61a6.77,6.77,0,0,0-.61,3c0,.15-.15.61-.15.76v2.29l-1.07.31v.92H7.15V43.61H7v-.77l-.15-.15H6.24l-.16.15v.46H5.93v-.15H5v-.61s-.46-.92-.77-.92-.76.61-.91.77v1.07L3,43.61v.61H.59v.46a34.92,34.92,0,0,0,.76,6.87H12.8a5.48,5.48,0,0,0,5.5-5.5V41.78Z"/><path class="cls-3" d="M59.22,45.9l-.15-.61h-.31V41.16h-.15V41H58v-.46h-.61v.31h-.46v4.27H56V43.61H55.1V43.3H54v.92H52.5v.3h-.61v.92l-.46-.31v-.3h-.76V45h-.15V43.46l-.15-.16v-.46h-.62v-.91h-.61v.61h-.45v.3h-.16l-.15.31-.15-.61h-.77v-.46l-.15-.3v-.92h-.15v.92l-.31.3v.46h-.3l-.15.76-.16-.3V41.47H45.17L45,41.32H44v-.61l-.15,1.22h-.15v.76h-.31v2l-.3.15V43.3h.15v-.76h-.31v-.76l-.15-.31v-.76a2.92,2.92,0,0,0-.61-1.22l-.31-.16V39h-.15V37.5l-.15-.15v-.46l-.15-.15V36s-.16-.3-.16-.15c-.15.15,0,.15,0,.15v.77l-.15.15v.3l-.15.31v1.22l-.15.15v.31a.48.48,0,0,0-.31.15c-.15.16-.31.31-.31.46a3.7,3.7,0,0,0-.3,1.22l-.15.31v.91h-.31l-.15.77h.15v.76H38.15s-.31,0-.31.61v.31h-.61v-.46H35.55v.3H34.18v-.3h-.92v1.37H32.5c-.15,0-.31-.15-.46-.3h-.46v-.16h-.45v.31l-.92.61v-.61l-.15-.31H29.9v.92a5.48,5.48,0,0,0,5.5,5.5h24a29.6,29.6,0,0,0,.77-5.35h-.92Z"/><path class="cls-4" d="M59.22,51.24h-24a5.47,5.47,0,0,1-5.5-5.49V6.5L26.24.85V45.9a9.13,9.13,0,0,0,9,9H64.87Z"/><path class="cls-5" d="M82.43,17.8V45.29H99.38V50H77.24V17.8Z"/><path class="cls-5" d="M126.56,43.3H109.15L106.1,50h-5.5L115.11,17.8h5.65L135.26,50h-5.49Zm-8.7-20L111,38.57h13.58Z"/><path class="cls-5" d="M159.08,17.8h5.65v.31L153.89,33.68l11.3,16.19V50h-5.8l-8.7-12.67L141.83,50H136v-.15l11.3-16.19L136.48,18.11V17.8h5.65l8.56,12.52Z"/><path class="cls-5" d="M197.72,25.44l-11,15.27h-1.07L174.81,25.44V50.17h-5.19V18h5.95l10.69,15.11L196.8,18h5.95V50.17h-5.19V25.44Z"/><rect class="cls-6" x="210.85" y="17.8" width="5.04" height="32.22"/><path class="cls-5" d="M83.19,67v-2.6h5.65v6.26a7.34,7.34,0,0,1-2.44,1.68,8.15,8.15,0,0,1-3.05.77A6.16,6.16,0,0,1,80,72.16a6.89,6.89,0,0,1-2.29-2.75,11.1,11.1,0,0,1,0-8.85A6.89,6.89,0,0,1,80,57.81a6.08,6.08,0,0,1,6.87.3,6,6,0,0,1,1.83,3.36l-2.59.61A3.72,3.72,0,0,0,85,60.25a2.44,2.44,0,0,0-1.84-.61,3.83,3.83,0,0,0-2.74,1.22,6.87,6.87,0,0,0-1.07,4,6.8,6.8,0,0,0,1.07,4.28A2.87,2.87,0,0,0,83,70.33,5.21,5.21,0,0,0,84.57,70a13.75,13.75,0,0,0,1.53-.91v-2H83.19Zm27.18,5.8V57h5.5a7.64,7.64,0,0,1,3.06.46A3.72,3.72,0,0,1,120.45,59a6.32,6.32,0,0,1,.61,2.44,4.4,4.4,0,0,1-.91,2.9,3.58,3.58,0,0,1-2.45,1.38,4,4,0,0,1,1.38,1.37,25,25,0,0,1,1.52,2.6l1.53,3h-3l-1.83-3.36a10.9,10.9,0,0,0-1.38-2.29,2.71,2.71,0,0,0-.76-.61,3.49,3.49,0,0,0-1.38-.15h-.61v6.57h-2.75Zm2.6-9h2a7.72,7.72,0,0,0,2.29-.15A1.49,1.49,0,0,0,118,63a2.92,2.92,0,0,0,.3-1.22,2.88,2.88,0,0,0-.3-1.22,1.49,1.49,0,0,0-.76-.61,20.36,20.36,0,0,0-2.14-.16h-2v4ZM141.83,65a13,13,0,0,1,.76-4.58,6.59,6.59,0,0,1,2.14-2.74,5.6,5.6,0,0,1,3.21-.92,5.42,5.42,0,0,1,4.43,2.14c1.22,1.37,1.67,3.36,1.67,5.95a9.41,9.41,0,0,1-1.83,6.11,5.91,5.91,0,0,1-8.85,0,10.63,10.63,0,0,1-1.53-6Zm2.75-.15c0,1.83.3,3.21,1.07,4a3,3,0,0,0,2.59,1.38,3.2,3.2,0,0,0,2.6-1.38,7.39,7.39,0,0,0,1.07-4.12,6.61,6.61,0,0,0-.92-4,2.86,2.86,0,0,0-2.59-1.22,3.21,3.21,0,0,0-2.6,1.37c-.92.92-1.22,2.14-1.22,4ZM175.42,57H178v8.4a10.43,10.43,0,0,0,.15,2.6,3.66,3.66,0,0,0,.76,1.53,3.26,3.26,0,0,0,1.68.61,2.63,2.63,0,0,0,1.53-.46,2.68,2.68,0,0,0,.76-1.07,13.53,13.53,0,0,0,.16-3.05V56.89h2.59v8.25a29.46,29.46,0,0,1-.3,4.58A3.92,3.92,0,0,1,183.82,72a4.84,4.84,0,0,1-3,.92,6.17,6.17,0,0,1-3.21-.77,5.39,5.39,0,0,1-1.68-2,17,17,0,0,1-.46-4.89Zm32.22,15.73V57h4.12a13.58,13.58,0,0,1,3.06.16,3.56,3.56,0,0,1,1.83,1.52,6,6,0,0,1,.76,3.06,5.78,5.78,0,0,1-.61,2.9,4.2,4.2,0,0,1-1.52,1.68,8.35,8.35,0,0,1-3.36.46h-1.68v6Zm2.6-13v4.43h1.37a6.49,6.49,0,0,0,2-.15,2,2,0,0,0,.91-.76,3.13,3.13,0,0,0,.31-1.38,4.46,4.46,0,0,0-.31-1.37,1.58,1.58,0,0,0-.91-.77,7.09,7.09,0,0,0-2.14-.15h-1.22Z"/></svg>