<?xml version="1.0" encoding="utf-8"?>
<!-- Generator: Adobe Illustrator 25.4.1, SVG Export Plug-In . SVG Version: 6.00 Build 0)  -->
<svg version="1.1" id="Layer_1" xmlns="http://www.w3.org/2000/svg" xmlns:xlink="http://www.w3.org/1999/xlink" x="0px" y="0px"
	 viewBox="0 0 362 100" style="enable-background:new 0 0 362 100;" xml:space="preserve">
<style type="text/css">
	.st0{fill:#4D4D4F;}
	.st1{fill:#DF9D26;}
	.st2{fill:#E2D0AA;}
	.st3{fill:#FFFFFF;}
</style>
<g>
	<path class="st0" d="M76.8,38.3v11h6.8v1.9h-8.9v-13L76.8,38.3z"/>
	<path class="st0" d="M94.6,48.6h-7l-1.2,2.7h-2.2l5.8-13h2.2l5.8,13h-2.2L94.6,48.6z M91.1,40.5l-2.7,6.2h5.5L91.1,40.5z"/>
	<path class="st0" d="M107.7,38.3h2.3v0.1l-4.4,6.3l4.6,6.5v0.1h-2.4l-3.5-5.1l-3.5,5.1h-2.4v-0.1l4.6-6.5l-4.4-6.3v-0.1h2.3l3.4,5
		L107.7,38.3z"/>
	<path class="st0" d="M123.2,41.3l-4.4,6.1h-0.4l-4.3-6.1v10h-2.1v-13h2.4l4.3,6.1l4.3-6.1h2.4v13h-2.1L123.2,41.3z"/>
	<path class="st0" d="M128.5,51.3v-13h2v13H128.5z"/>
	<path class="st0" d="M148,41.3c-0.9-0.9-2.2-1.4-3.5-1.4c-2.6-0.1-4.7,2-4.8,4.6c0,0.1,0,0.3,0,0.4c-0.1,2.4,1.7,4.5,4.1,4.7
		c0.2,0,0.4,0,0.6,0c1.2,0,2.3-0.4,3.2-1.1v-2.6H144V44h5.5v5.3c-1.3,1.5-3.1,2.3-5.1,2.3c-4.8,0-6.8-3.2-6.8-6.6
		c0-3.7,2.4-6.9,6.8-6.9c1.8,0,3.5,0.7,4.8,2L148,41.3z"/>
	<path class="st0" d="M164.7,44.8c0,3.5-2.1,6.7-6.6,6.7s-6.6-3.3-6.6-6.7c-0.2-3.6,2.6-6.6,6.2-6.8c0.2,0,0.3,0,0.5,0
		C162.5,38.1,164.7,41.3,164.7,44.8z M158,49.6c3.2,0,4.6-2.3,4.6-4.8s-1.3-4.9-4.5-4.9c-3,0-4.6,2.1-4.6,4.9
		C153.5,47.2,154.9,49.6,158,49.6z"/>
	<path class="st0" d="M169.2,38.3v11h6.8v1.9h-8.9v-13L169.2,38.3z"/>
	<path class="st0" d="M182.9,38.3c3.4-0.2,6.3,2.4,6.5,5.8c0,0.2,0,0.4,0,0.6c0.3,3.4-2.3,6.3-5.7,6.6c-0.3,0-0.6,0-0.8,0H178v-13
		L182.9,38.3z M180.1,49.3h2.9c2.3,0.1,4.3-1.7,4.5-4c0-0.2,0-0.4,0-0.6c0.1-2.3-1.7-4.3-4-4.4c-0.1,0-0.3,0-0.4,0h-2.9V49.3z"/>
	<path class="st0" d="M208.5,45.1c0,3.4-2.1,6.5-6.4,6.5s-6.4-3.2-6.4-6.4c-0.2-3.4,2.5-6.4,5.9-6.5c0.2,0,0.3,0,0.5,0
		C206.4,38.6,208.5,41.7,208.5,45.1z M202.1,49.7c3.1,0,4.4-2.2,4.4-4.6s-1.3-4.7-4.4-4.7c-2.9,0-4.4,2-4.4,4.7
		C197.7,47.3,199,49.7,202.1,49.7z"/>
	<path class="st0" d="M221.6,51.3h-2.3l-3.8-4.3h-2.6v4.3h-2V38.8h5.8c2.2-0.2,4.2,1.5,4.4,3.7c0,0.1,0,0.2,0,0.4
		c0.1,2-1.4,3.7-3.4,3.9l3.7,4.2L221.6,51.3z M212.8,40.6v4.5h3.8c1.2,0.1,2.2-0.7,2.4-1.9c0-0.1,0-0.2,0-0.3c0-1.2-0.9-2.3-2.1-2.3
		c-0.1,0-0.2,0-0.2,0H212.8z"/>
	<path class="st0" d="M232.3,47.7v-8.9h2v12.5h-1.5l-7.1-8.8v8.8h-2V38.8h1.5L232.3,47.7z"/>
	<path class="st0" d="M246.1,48.7h-6.8l-1.2,2.6H236l5.6-12.5h2.2l5.6,12.5h-2.1L246.1,48.7z M242.7,40.9l-2.6,6h5.3L242.7,40.9z"/>
	<path class="st0" d="M263.7,51.3v-5.2H257v5.2h-2V38.8h2v5.4h6.6v-5.4h2v12.5H263.7z"/>
	<path class="st0" d="M280.8,45.1c0,3.4-2.1,6.5-6.4,6.5s-6.4-3.2-6.4-6.4c-0.2-3.4,2.5-6.4,5.9-6.5c0.2,0,0.3,0,0.5,0
		C278.7,38.6,280.8,41.7,280.8,45.1z M274.4,49.7c3.1,0,4.4-2.2,4.4-4.6s-1.3-4.7-4.4-4.7c-2.9,0-4.4,2-4.4,4.7
		C270,47.3,271.3,49.7,274.4,49.7L274.4,49.7z"/>
	<path class="st0" d="M293.6,38.8v7.3c0,3.7-2.4,5.5-5.5,5.4c-2.8,0.1-5.1-2.1-5.2-4.8c0-0.2,0-0.4,0-0.6v-7.3h2v7.3
		c0,2.3,1.3,3.5,3.2,3.6c2,0.1,3.5-1.2,3.5-3.6v-7.3H293.6z"/>
	<path class="st0" d="M304,41.5c-0.8-0.9-1.9-1.4-3.1-1.4c-1.7,0-2.9,0.7-2.9,1.9s1.4,1.6,3,1.8c2.6,0.4,5,1.1,5,3.9
		s-2.6,3.9-5.2,3.9c-2.4,0-4.2-0.7-5.4-2.8l1.5-1c0.8,1.3,2.3,2.1,3.9,2c1.5,0,3.2-0.5,3.2-2.1c0-1.4-1.5-1.8-3.2-2
		c-2.5-0.3-4.8-1-4.8-3.6s2.6-3.6,4.8-3.6c1.8,0,3.6,0.4,4.7,2.1L304,41.5z"/>
	<path class="st0" d="M317.6,51.3h-9.2V38.8h9.2v1.9h-7.2v3.4h6.9V46h-6.9v3.4h7.2V51.3z"/>
	<path class="st0" d="M326.6,38.8v10.6h6.6v1.9h-8.6V38.8H326.6z"/>
	<path class="st0" d="M336.2,40.6h-4.1v-1.8h10.2v1.8h-4.1v10.7h-2L336.2,40.6z"/>
	<path class="st0" d="M348.9,38.8c3.3-0.2,6.1,2.3,6.3,5.6c0,0.2,0,0.4,0,0.6c0.2,3.3-2.2,6.1-5.4,6.3c-0.3,0-0.5,0-0.8,0h-4.7V38.8
		H348.9z M346.2,49.3h2.8c2.2,0.1,4.2-1.6,4.3-3.8c0-0.2,0-0.4,0-0.6c0.1-2.2-1.6-4.1-3.9-4.2c-0.1,0-0.3,0-0.4,0h-2.8V49.3z"/>
	<path class="st0" d="M359,50.3c0.1,0.6-0.4,1.2-1,1.2c-0.6,0.1-1.2-0.4-1.2-1c0-0.1,0-0.1,0-0.2c0.1-0.6,0.6-1.1,1.2-1
		C358.5,49.3,359,49.8,359,50.3z"/>
	<path class="st0" d="M82.4,67.3c-1,0.9-2.3,1.5-3.6,1.4c-2.6,0.2-4.9-1.7-5.1-4.3c0-0.2,0-0.4,0-0.6c-0.1-2.7,2-4.9,4.6-5
		c0.2,0,0.3,0,0.5,0c1.3,0,2.6,0.5,3.5,1.5l-1,1c-0.7-0.6-1.6-1-2.5-1c-1.9-0.1-3.4,1.3-3.5,3.2c0,0.1,0,0.3,0,0.4
		c-0.1,1.8,1.3,3.4,3.1,3.5c0.1,0,0.3,0,0.4,0c0.9,0,1.9-0.4,2.6-1L82.4,67.3z"/>
	<path class="st0" d="M84,68.6V59h1.5v9.6L84,68.6z"/>
	<path class="st0" d="M94.5,65.8V59H96v9.6h-1.1l-5.4-6.8v6.8h-1.6V59h1.2L94.5,65.8z"/>
	<path class="st0" d="M103.3,63.8c-0.1,0.5-0.5,0.8-1,0.8c-0.4,0-0.7-0.4-0.8-0.8c0.1-0.5,0.5-0.8,1-0.8
		C102.9,63.1,103.3,63.4,103.3,63.8z M103.3,67.8c-0.1,0.5-0.5,0.8-1,0.8c-0.4,0-0.7-0.4-0.8-0.8c0.1-0.5,0.5-0.8,1-0.8
		C102.9,67.1,103.3,67.4,103.3,67.8L103.3,67.8z"/>
	<path class="st0" d="M116.9,59v5.6c0.2,2.1-1.4,4-3.5,4.2c-0.2,0-0.5,0-0.7,0c-2.1,0.1-3.9-1.6-4-3.7c0-0.1,0-0.3,0-0.4V59h1.5v5.6
		c-0.1,1.4,0.9,2.7,2.3,2.8c1.4,0.1,2.7-0.9,2.8-2.3c0-0.2,0-0.3,0-0.5V59H116.9z"/>
	<path class="st0" d="M121,64.3V63h1.4c1.2,0,2.2-0.5,2.2-1.4c0-0.7-0.6-1.5-2.2-1.5c-0.9,0-2.2,0.3-2.2,1.4h-1.5
		c0-2.1,2-2.8,3.8-2.8c1.9,0,3.7,1,3.7,2.8c0,0.9-0.6,1.8-1.5,2c1,0.2,1.7,1.1,1.7,2.1c0,2.1-2,3-4,3c-1.8,0-3.9-0.7-3.9-2.8h1.6
		c0,1.2,1.5,1.5,2.3,1.5c1.2,0,2.3-0.5,2.3-1.6c0-0.7-0.5-1.5-2.3-1.5L121,64.3z"/>
	<path class="st0" d="M129.7,63.5c0.6-0.7,1.5-1.1,2.4-1.1c1.9,0,3.9,0.8,3.9,3.1c0,2.2-2,3.1-3.9,3.1s-3.9-1-3.9-3.2v-3.7
		c0-2,2-3,3.9-3s3.8,0.8,3.8,2.7h-1.5c0-0.9-1.1-1.4-2.3-1.4s-2.4,0.5-2.4,1.7L129.7,63.5z M134.5,65.5c0-1.2-1.1-1.8-2.4-1.8
		s-2.4,0.6-2.4,1.8s1.2,1.8,2.4,1.8S134.5,66.8,134.5,65.5L134.5,65.5z"/>
	<path class="st0" d="M143.8,64c-0.6,0.7-1.5,1.2-2.5,1.1c-1.9,0-3.9-0.8-3.9-3.2c0-2.1,2-3.1,3.9-3.1s3.9,1,3.9,3.2v3.7
		c0,2.1-1.9,3-3.9,3s-3.9-0.8-3.9-2.7h1.5c0,0.9,1.2,1.4,2.4,1.4c1,0,2.4-0.6,2.4-1.7L143.8,64z M138.9,62c0,1.2,1.1,1.8,2.4,1.8
		s2.4-0.6,2.4-1.8s-1.2-1.7-2.4-1.7S138.9,60.7,138.9,62L138.9,62z"/>
	<path class="st0" d="M146.9,67.3h1.7v-6.5l-1.6,0.5V60l3.2-1v8.3h1.7v1.3h-4.9V67.3z"/>
	<path class="st0" d="M152.9,67.3h1.7v-6.5l-1.6,0.5V60l3.2-1v8.3h1.7v1.3h-4.9V67.3z"/>
	<path class="st0" d="M166.4,61.2c-0.7-0.6-1.6-1-2.6-1c-1.9,0-3.5,1.5-3.6,3.4c0,0.1,0,0.2,0,0.3c-0.1,1.8,1.3,3.4,3.1,3.5
		c0.2,0,0.3,0,0.5,0c0.9,0,1.7-0.3,2.3-0.8v-2h-2.7v-1.3h4.1v3.9c-0.9,1.1-2.3,1.7-3.8,1.7c-3.5,0-5-2.3-5-4.9
		c-0.2-2.7,1.9-5,4.5-5.1c0.2,0,0.3,0,0.5,0c1.3,0,2.6,0.5,3.6,1.5L166.4,61.2z"/>
	<path class="st0" d="M177,59v5.6c0.1,2.1-1.5,4-3.6,4.2c-0.2,0-0.3,0-0.5,0c-2.1,0.2-3.9-1.4-4.1-3.5c0-0.2,0-0.4,0-0.5h1.5
		c-0.2,1.3,0.8,2.5,2.1,2.6c0.2,0,0.4,0,0.5,0c1.4,0.1,2.5-1,2.6-2.3c0-0.1,0-0.3,0-0.4v-4.2h-3.1V59H177z"/>
	<path class="st0" d="M178.9,61.7c0.1-2.2,2.1-2.8,3.9-2.8s3.7,0.7,3.7,2.9s-1.9,2.9-3.8,2.9c-0.9,0-2.4,0.2-2.4,1.5v1h6.2v1.4h-7.7
		v-2.4c0-2.2,2-2.8,3.9-2.8c0.9,0,2.3-0.3,2.3-1.5s-1-1.6-2.2-1.6s-2.4,0.4-2.4,1.5H178.9z"/>
	<path class="st0" d="M188.1,62.9c0-2.2,1.8-4,4-4s4,1.8,4,4v1.7c0,2.2-1.8,4-4,4s-4-1.8-4-4V62.9z M189.6,64.6
		c0,1.4,1.1,2.5,2.5,2.5s2.5-1.1,2.5-2.5v-1.7c0-1.4-1.1-2.5-2.5-2.5s-2.5,1.1-2.5,2.5l0,0V64.6z"/>
	<path class="st0" d="M197.6,67.3h1.7v-6.5l-1.6,0.5V60l3.2-1v8.3h1.7v1.3h-4.9V67.3z"/>
	<path class="st0" d="M203.7,62.9c0-2.2,1.8-4,4-4c2.2,0,4,1.8,4,4v1.7c0,2.2-1.8,4-4,4c-2.2,0-4-1.8-4-4V62.9z M205.2,64.6
		c0,1.4,1.1,2.5,2.5,2.5s2.5-1.1,2.5-2.5v-1.7c0-1.4-1.1-2.5-2.5-2.5s-2.5,1.1-2.5,2.5l0,0V64.6z"/>
	<path class="st0" d="M215.2,65.6v2.9h-1.5V59h4.4c1.8-0.1,3.4,1.3,3.5,3.2s-1.3,3.4-3.2,3.5c-0.1,0-0.2,0-0.4,0L215.2,65.6z
		 M215.2,64.2h2.9c1.1,0,1.9-0.9,1.9-1.9c0-1.1-0.9-1.9-1.9-1.9h-2.9V64.2z"/>
	<path class="st0" d="M224.7,59v8.2h5.1v1.4h-6.6V59H224.7z"/>
	<path class="st0" d="M239.1,67.3c-1,0.9-2.3,1.5-3.6,1.4c-2.6,0.2-4.9-1.8-5.1-4.4c0-0.2,0-0.4,0-0.6c-0.1-2.7,2-4.9,4.6-5
		c0.1,0,0.3,0,0.4,0c1.3,0,2.6,0.5,3.5,1.4l-1,1c-0.7-0.7-1.6-1-2.5-1c-1.9-0.1-3.4,1.3-3.5,3.2c0,0.1,0,0.3,0,0.4
		c-0.1,1.8,1.3,3.4,3.1,3.5c0.1,0,0.3,0,0.4,0c0.9,0,1.9-0.4,2.6-1L239.1,67.3z"/>
	<path class="st0" d="M240.2,62.9c0-2.2,1.8-4,4-4s4,1.8,4,4v1.7c0,2.2-1.8,4-4,4s-4-1.8-4-4V62.9z M241.8,64.6
		c0,1.4,1.1,2.5,2.5,2.5s2.5-1.1,2.5-2.5v-1.7c0-1.4-1.1-2.5-2.5-2.5s-2.5,1.1-2.5,2.5l0,0V64.6z"/>
	<path class="st0" d="M256.9,60.4h-5.4v2h2.2c2.2,0,3.8,1,3.8,3.1c0,2.1-1.7,3.2-3.8,3.2s-3.9-0.7-3.9-2.9h1.5
		c0,1.2,1.3,1.5,2.3,1.5c1.2,0,2.2-0.6,2.2-1.7s-0.9-1.6-2.2-1.6H250V59h6.9L256.9,60.4z"/>
	<path class="st0" d="M265.1,64c-0.6,0.7-1.5,1.2-2.5,1.1c-1.9,0-3.9-0.8-3.9-3.2c0-2.1,2-3.1,3.9-3.1s4,1,4,3.2v3.7
		c0,2.1-2,3-3.9,3s-3.9-0.8-3.9-2.7h1.5c0,0.9,1.2,1.4,2.4,1.4c1,0,2.4-0.6,2.4-1.7L265.1,64z M260.3,62c0,1.2,1.1,1.8,2.4,1.8
		s2.4-0.6,2.4-1.8s-1.2-1.7-2.4-1.7S260.3,60.7,260.3,62L260.3,62z"/>
	<path class="st0" d="M268.3,67.3h1.8v-6.5l-1.6,0.5V60l3.2-1v8.3h1.7v1.3h-4.9L268.3,67.3z"/>
	<path class="st0" d="M274.4,61.7c0.1-2.2,2.1-2.8,3.9-2.8s3.7,0.7,3.7,2.9s-1.9,2.9-3.8,2.9c-0.9,0-2.4,0.2-2.4,1.5v1h6.2v1.4h-7.7
		v-2.4c0-2.2,2-2.8,3.9-2.8c0.9,0,2.3-0.3,2.3-1.5s-1-1.6-2.2-1.6s-2.3,0.4-2.4,1.5H274.4z"/>
	<path class="st0" d="M284,68.6l4.2-8.1h-5V59h7l0.1,0.9l-4.5,8.7L284,68.6z"/>
	<path class="st1" d="M56,70c0.6-1.1,1.1-2.3,1.6-3.5H35.9c-4.7,0-8.5-3.8-8.5-8.5V28.7c-1.4,0.2-2.9,0.5-4.3,0.9v28.3
		c0,4.7-3.8,8.5-8.5,8.5H4.8c0.4,1.2,1,2.4,1.6,3.6H56z"/>
	<path class="st1" d="M9.6,74.7c0.7,0.8,1.4,1.6,2.2,2.3h38.8c0.8-0.7,1.5-1.5,2.2-2.3L9.6,74.7z"/>
	<path class="st1" d="M46.1,80.5c1.3-0.8,2.6-1.8,3.8-2.8H12.5c1.2,1,2.4,2,3.8,2.8H46.1z"/>
	<path class="st1" d="M7.3,71.5c0.5,0.8,1,1.6,1.6,2.3h44.6c0.6-0.7,1.1-1.5,1.6-2.3H7.3z"/>
	<path class="st1" d="M16.8,80.8c8.9,5.2,19.9,5.2,28.7,0H16.8z"/>
	<path class="st2" d="M30.8,57.9c0,2.8,2.3,5.1,5.1,5.2h22.7c0.5-2.1,0.7-4.3,0.7-6.5c0-15.6-12.6-28.2-28.2-28.2h0h-0.4V57.9z"/>
	<path class="st2" d="M14.6,63.1c2.8,0,5.1-2.3,5.1-5.2v-27c-12.4,5.5-19.1,19-16,32.2L14.6,63.1z"/>
	<path class="st3" d="M23.1,57.9v-0.2h-0.5l-0.1,0.2h-0.3l-0.2,0.2h-0.2l-0.1,0.2l-0.1-0.2l-0.2-0.3l-0.1-0.1v-3.2h-0.8v-0.4h-1
		v-3.9h-0.5v-1.3H18v1.9h-0.4V58l-0.2-0.1l-0.1-0.4l-0.1,0.4v0.2h-0.2L17,58.3v-1.8l-0.5-0.1h-2.9v-3h-0.5C13,53,13,52.5,12.9,52
		s-0.2-0.7-0.3-1s-0.3-0.8-0.6-0.7s-0.3,0.4-0.4,0.6c-0.3,0.9-0.5,1.9-0.6,2.8c0,0.2-0.1,0.5-0.1,0.7s0,0.7,0,0.7v1.5l-1,0.3v0.8
		H9.3v-2H9.1v-0.7l-0.1,0H8.4l-0.1,0.1v0.5H8.1v-0.2H7.3v-0.6c0,0-0.4-0.8-0.7-0.8s-0.8,0.5-0.9,0.7s0,0.2,0,0.2v0.8l-0.3,0.1v0.6H3
		v8.1h17.3C22.1,62.6,23.1,60.3,23.1,57.9"/>
	<path class="st3" d="M58.7,58l-0.2-0.5h-0.3v-4H58v-0.2h-0.6v-0.4h-0.6v0.3h-0.4v4.1h-0.9v-1.5h-1v-0.3h-1.1v0.8h-1.2v0.3h-0.6v0.8
		l-0.3-0.2V57h-0.8v0.2h-0.2v-1.4l-0.2-0.2v-0.5h-0.5v-0.8h-0.5v0.6h-0.5v0.3h-0.2l-0.1,0.3l-0.2-0.5h-0.8v-0.5l-0.1-0.3v-0.9h-0.2
		V54L47,54.3v0.5h-0.3l-0.2,0.6l-0.2-0.2v-1.5h-1l-0.2-0.2h-1v-0.6L44,54.1h-0.2v0.7h-0.2v1.8l-0.3,0.1v-1.5h0.1l-0.1-0.7H43v-0.8
		l-0.1-0.3c0-0.1,0-0.1,0-0.2c0-0.2,0-0.4-0.1-0.5c-0.1-0.4-0.3-0.8-0.6-1.1c0,0-0.2-0.2-0.2-0.1v-0.4l-0.1-0.1v-1.1l-0.1-0.2v-0.5
		l-0.1-0.1v-0.6v-0.2c0,0-0.1-0.3-0.2-0.1s0,0.2,0,0.2v0.7l-0.1,0.2v0.3L41.3,50v1.1l-0.2,0.1v0.3c0,0-0.1,0-0.3,0.2
		c-0.1,0.1-0.2,0.3-0.3,0.4c-0.2,0.4-0.3,0.8-0.3,1.2l-0.1,0.4v0.8h-0.4l-0.1,0.7h0.1v0.7h-1.2c0,0-0.3,0.1-0.3,0.5v0.3h-0.4v-0.5
		h-1.6v0.3h-1.4v-0.3h-0.9v1.3h-0.8c-0.1,0-0.2-0.2-0.4-0.2c-0.1,0-0.2,0-0.3,0h-0.1v-0.3h-0.4v0.3L31,58v-0.6l-0.2-0.3h-0.4v-0.3
		H29V57h-0.4l-0.2,0.3l-0.2-0.3v-1.4L28.2,55L28,55.7v1.2l-0.2,0.3h-0.4v-2.4l0.1-0.1v-0.5h-0.1v3.8c0,2.4,1,4.7,2.9,6.4h29.1V58
		H58.7z"/>
	<path class="st0" d="M58.7,63.1H35.9c-2.8,0-5.1-2.3-5.1-5.2V20.5l-3.4-5.3v42.7c0,4.7,3.8,8.5,8.5,8.5h28.1L58.7,63.1z"/>
</g>
</svg>
