<?xml version="1.0" encoding="utf-8"?>
<!-- Generator: Adobe Illustrator 25.4.1, SVG Export Plug-In . SVG Version: 6.00 Build 0)  -->
<svg version="1.1" id="Layer_1" xmlns="http://www.w3.org/2000/svg" xmlns:xlink="http://www.w3.org/1999/xlink" x="0px" y="0px"
	 viewBox="0 0 362 100" style="enable-background:new 0 0 362 100;" xml:space="preserve">
<style type="text/css">
	.st0{fill:#231F20;}
	.st1{fill-rule:evenodd;clip-rule:evenodd;fill:url(#SVGID_1_);}
	.st2{fill-rule:evenodd;clip-rule:evenodd;fill:url(#SVGID_00000085210531991896530570000006045045605661238146_);}
	.st3{fill-rule:evenodd;clip-rule:evenodd;fill:url(#SVGID_00000116947210845330253170000002585389231972424875_);}
	.st4{fill-rule:evenodd;clip-rule:evenodd;fill:url(#SVGID_00000018943105613470193970000011444011637152543131_);}
	.st5{fill-rule:evenodd;clip-rule:evenodd;fill:url(#SVGID_00000044873436827551325380000015138361629666419879_);}
	.st6{fill-rule:evenodd;clip-rule:evenodd;fill:url(#SVGID_00000069377999258944465600000008371690214759963813_);}
	.st7{fill-rule:evenodd;clip-rule:evenodd;fill:url(#SVGID_00000083805856147777239150000015299082617912274584_);}
	.st8{fill:#EB008B;}
</style>
<g>
	<path class="st0" d="M44.1,70.7V29.1h6.2v36.8h8.8v4.8H44.1z"/>
	<path class="st0" d="M72.4,71.2c-6.8,0-10.1-3.5-10.1-9.1c0-7.7,6-10,13.5-11v-1.2c0-3.5-1.8-4.9-4.7-4.9c-2.1,0-4.2,0.6-6.1,1.7
		l-1.3-3.9c2.5-1.5,5.4-2.3,8.3-2.2c5.1,0,9.3,2.6,9.3,10.3V69C79.4,70.4,76.5,71.2,72.4,71.2z M75.8,54.7c-5.3,0.8-8.1,2.4-8.1,7.2
		c0,3.5,1.8,5.3,4.9,5.3c1.1,0,2.2-0.2,3.1-0.7V54.7z"/>
	<path class="st0" d="M100.1,70.7l-4.5-10.4h-0.1l-4.8,10.4H85l7.7-15l-6.9-14.6h6l4.1,9.5h0.1l4.4-9.5h5.3l-7,13.8l7.8,15.8H100.1z
		"/>
	<path class="st0" d="M137.9,70.7V49.6c0-3-1.5-4.7-4-4.7c-1.5,0-2.9,0.7-3.9,1.8v24h-5.8V49.6c0-2.7-1.6-4.7-4.4-4.7
		c-1.2-0.1-2.4,0.2-3.5,0.7v25.1h-5.9V42.7c2.3-1.3,5-2.2,9.4-2.2c4.1,0,6.5,1.3,7.8,3c1.8-1.9,4.2-3,7.8-3c4.7,0,8.2,3.2,8.2,9
		v21.1H137.9z"/>
	<path class="st0" d="M153.1,35.8c-1.8,0-3.3-1.5-3.2-3.3c0-1.8,1.5-3.3,3.3-3.2c1.8,0,3.3,1.5,3.2,3.3c0,0,0,0,0,0
		C156.4,34.3,154.9,35.8,153.1,35.8C153.1,35.8,153.1,35.8,153.1,35.8z M150.1,70.7V41.1h5.9v29.6H150.1z"/>
	<path class="st0" d="M46.3,86v-5.3c-0.5,0.2-1.1,0.4-1.7,0.4l-0.1-0.7c0.8,0,1.6-0.4,2.2-1h0.8V86H46.3z"/>
	<path class="st0" d="M61.1,82.2v3.6c-0.6,0.3-1.3,0.4-2,0.4c-1.6,0-2.6-0.7-2.6-1.9c0-0.9,0.7-1.7,1.6-1.9l0,0
		c-0.7-0.1-1.2-0.7-1.2-1.4c0-0.9,0.8-1.6,1.9-1.6c0.5,0,1.1,0.1,1.5,0.4L60,80.3c-0.3-0.2-0.6-0.2-0.9-0.3c-0.7,0-1,0.3-1,0.9
		s0.5,0.9,1.1,0.9c0.9-0.1,1.8-0.3,2.5-0.8l0.4,0.7C61.8,81.9,61.4,82.1,61.1,82.2z M59.9,82.4c-1.5,0.3-2.1,0.8-2.1,1.7
		c0,0.8,0.4,1.3,1.4,1.3c0.3,0,0.5,0,0.7-0.1V82.4z"/>
	<path class="st0" d="M69.6,86l2.3-3.3c0.4-0.4,0.6-1,0.6-1.5c0-0.7-0.4-1.1-1.2-1.1c-0.4,0-0.8,0.1-1.2,0.3l-0.3-0.8
		c0.6-0.3,1.2-0.4,1.8-0.4c1.5,0,2.2,0.9,2.2,1.8c-0.1,0.7-0.4,1.4-0.9,2l-1.6,2.1h2.5v1L69.6,86z"/>
	<path class="st0" d="M84.3,86.1c-0.7,0-1.4-0.1-2-0.4v-6.2c0.6-0.3,1.3-0.4,1.9-0.4c1.6,0,2.4,0.8,2.4,1.7c0,0.7-0.5,1.4-1.3,1.5
		l0,0c0.8,0.2,1.4,0.9,1.5,1.7C86.8,85.5,85.8,86.1,84.3,86.1z M84.2,79.9c-0.3,0-0.5,0-0.7,0.1v2.2h0.4c1.2,0,1.6-0.4,1.6-1.2
		S85,79.9,84.2,79.9z M83.8,82.8h-0.4v2.4c0.2,0.1,0.5,0.1,0.8,0.1c0.8,0,1.4-0.3,1.4-1.2S85.1,82.8,83.8,82.8z"/>
	<path class="st0" d="M93.5,86v-3h-2.1v3h-1.2v-6.7h1.2v2.9h2.1v-2.9h1.2V86H93.5z"/>
	<path class="st0" d="M101.5,86l-1.9-3.4l0,0V86h-1.3v-6.7h1.2v3.1l0,0l1.9-3.1h1.3l-2.1,3.1l2.2,3.6H101.5z"/>
	<path class="st0" d="M110.7,86v-6.7h1.3v5.9h1.9V86H110.7z"/>
	<path class="st0" d="M119,86.1c-1.4,0-2-0.6-2-1.8v-3.6h1.2v3.7c0,0.4,0.3,0.8,0.7,0.9c0.1,0,0.1,0,0.2,0c0.3,0,0.5,0,0.8-0.2v-4.4
		h1.1v5C120.4,86,119.7,86.2,119,86.1z"/>
	<path class="st0" d="M127.2,86l-1-1.9l0,0l-1,1.9H124l1.6-2.7l-1.5-2.5h1.3l0.9,1.7l0,0l0.9-1.7h1.1l-1.5,2.5l1.7,2.8H127.2z"/>
	<path class="st0" d="M133.5,86.1c-1.4,0-2-0.6-2-1.8v-3.6h1.2v3.7c0,0.5,0.3,0.8,0.7,0.9c0,0,0.1,0,0.1,0c0.3,0,0.5,0,0.8-0.2v-4.4
		h1.2v5C134.9,86.1,134.2,86.2,133.5,86.1z"/>
	<path class="st0" d="M141.3,81.5c-0.4-0.2-0.8-0.2-1.1,0V86H139v-5c0.8-0.3,1.7-0.5,2.5-0.4L141.3,81.5z"/>
	<path class="st0" d="M145.1,79.9c-0.3,0-0.6-0.2-0.6-0.6c0-0.4,0.4-0.6,0.7-0.6c0.3,0,0.5,0.3,0.6,0.6
		C145.7,79.6,145.4,79.9,145.1,79.9z M144.5,86v-5.2h1.2V86H144.5z"/>
	<path class="st0" d="M151.2,86.1c-1.5,0-2.2-1.2-2.2-2.7s0.7-2.7,2.2-2.7s2.2,1.2,2.2,2.7S152.6,86.1,151.2,86.1z M151.2,81.4
		c-0.8,0-1,1-1,2s0.2,1.9,1,1.9s1-0.9,1-1.9S152,81.4,151.2,81.4z"/>
	<path class="st0" d="M158.6,86.1c-1.4,0-2-0.6-2-1.8v-3.6h1.2v3.7c0,0.4,0.3,0.8,0.7,0.9c0.1,0,0.1,0,0.2,0c0.3,0,0.5,0,0.8-0.2
		v-4.4h1.2v5C160.1,86.1,159.4,86.2,158.6,86.1z"/>
	<path class="st0" d="M165.2,86.1c-0.5,0-1-0.1-1.5-0.4l0.3-0.8c0.3,0.2,0.6,0.3,1,0.3c0.4,0,0.8-0.3,0.8-0.7c0,0,0,0,0-0.1
		c0-0.4-0.2-0.7-0.8-0.9c-1-0.4-1.2-0.9-1.2-1.5c0-0.9,0.7-1.5,1.6-1.5c0,0,0.1,0,0.1,0c0.5,0,1,0.1,1.4,0.3l-0.3,0.7
		c-0.2-0.2-0.5-0.3-0.8-0.3c-0.4,0-0.7,0.2-0.8,0.6c0,0,0,0,0,0.1c0,0.4,0.3,0.7,0.8,0.8c1,0.4,1.3,0.9,1.3,1.6
		c0,0.9-0.8,1.7-1.7,1.7C165.4,86.1,165.3,86.1,165.2,86.1z"/>
	<path class="st0" d="M179,86l-0.5-1.7h-2.2l-0.5,1.7h-1.1l2.2-6.7h1.2l2.2,6.7H179z M177.6,81.2c-0.1-0.3-0.1-0.5-0.2-0.8l0,0
		c0,0.3-0.1,0.5-0.2,0.8l-0.7,2.4h1.8L177.6,81.2z"/>
	<path class="st0" d="M184.7,81.5V86h-1.2v-4.5h-0.6v-0.8h0.6v-0.6c-0.1-0.9,0.7-1.7,1.6-1.8c0.2,0,0.3,0,0.5,0v0.8
		c-0.4-0.1-0.8,0.2-0.9,0.7c0,0.1,0,0.1,0,0.2v0.8h0.9v0.8L184.7,81.5z"/>
	<path class="st0" d="M190,81.5V86h-1.2v-4.5h-0.6v-0.8h0.6v-0.6c-0.1-0.9,0.7-1.7,1.6-1.8c0.2,0,0.3,0,0.5,0v0.8
		c-0.5,0-0.9,0.2-0.9,0.9v0.8h0.9v0.8L190,81.5z"/>
	<path class="st0" d="M195.9,86.1c-1.5,0-2.2-1.2-2.2-2.7s0.7-2.7,2.2-2.7s2.2,1.2,2.2,2.7S197.3,86.1,195.9,86.1z M195.9,81.4
		c-0.8,0-1,1-1,2s0.2,1.9,1,1.9s1-0.9,1-1.9S196.7,81.4,195.9,81.4z"/>
	<path class="st0" d="M203.6,81.5c-0.4-0.2-0.8-0.2-1.1,0V86h-1.2v-5c0.8-0.3,1.7-0.5,2.5-0.4L203.6,81.5z"/>
	<path class="st0" d="M208.9,86.1c-1.3,0.1-2.4-0.9-2.5-2.2c0-0.1,0-0.3,0-0.4c0-1.7,0.9-2.7,2.3-2.7c0.3,0,0.5,0,0.8,0.1v-2.5h1.2
		v7.4C210.2,86,209.5,86.2,208.9,86.1z M209.5,81.5c-0.2,0-0.4-0.1-0.5-0.1c-1,0-1.4,0.9-1.4,2s0.4,2,1.3,2c0.2,0,0.4,0,0.6-0.1
		V81.5z"/>
	<path class="st0" d="M216.1,86.1c-1.4,0-2.1-0.6-2.1-1.6c0-1.4,1.3-1.8,2.9-2v-0.2c0-0.7-0.4-0.9-1-0.9c-0.5,0-0.9,0.1-1.3,0.3
		l-0.3-0.7c0.6-0.3,1.2-0.4,1.8-0.4c1.1,0,1.9,0.5,1.9,1.8v3.3C217.4,86,216.7,86.2,216.1,86.1z M216.9,83.1
		c-1.1,0.1-1.8,0.4-1.8,1.3c0,0.7,0.4,1,1.1,1c0.2,0,0.5,0,0.7-0.2V83.1z"/>
	<path class="st0" d="M223.2,86.1c-0.6,0-1.2-0.1-1.7-0.4v-7.4h1.2v2.6c0.3-0.1,0.7-0.2,1-0.2c1.2,0,2.1,1,2.1,2.6
		C225.7,85,224.8,86.1,223.2,86.1z M223.3,81.4c-0.3,0-0.5,0-0.7,0.2v3.7c0.2,0.1,0.4,0.1,0.6,0.1c0.9,0,1.3-0.8,1.3-2.1
		C224.5,82.2,224.2,81.4,223.3,81.4z"/>
	<path class="st0" d="M229,86v-7.6h1.2V86H229z"/>
	<path class="st0" d="M234.6,83.8c0.1,1,0.6,1.5,1.4,1.5c0.5,0,0.9-0.1,1.3-0.3l0.3,0.8c-0.5,0.3-1.1,0.4-1.7,0.4
		c-1.5,0-2.4-1-2.4-2.8s0.9-2.7,2.3-2.7s2.2,0.9,2.1,2.7L234.6,83.8z M235.7,81.4c-0.7,0-1.2,0.6-1.1,1.8l2.2-0.3
		C236.8,81.8,236.4,81.4,235.7,81.4z"/>
	<path class="st0" d="M247.3,80.1v2h1.8V83h-1.8v3H246v-6.7h3.3v0.8H247.3z"/>
	<path class="st0" d="M252.6,86v-7.6h1.2V86H252.6z"/>
	<path class="st0" d="M259.1,86.1c-1.4,0-2.1-0.6-2.1-1.6c0-1.4,1.3-1.8,2.9-2v-0.2c0-0.7-0.4-0.9-1-0.9c-0.5,0-0.9,0.1-1.3,0.3
		l-0.3-0.7c0.6-0.3,1.2-0.4,1.8-0.4c1.1,0,1.9,0.5,1.9,1.8v3.3C260.5,86,259.8,86.2,259.1,86.1z M259.9,83.1
		c-1.1,0.1-1.8,0.4-1.8,1.3c0,0.7,0.4,1,1.1,1c0.2,0,0.5,0,0.7-0.2L259.9,83.1z"/>
	<path class="st0" d="M266.2,86.1c-0.7,0.1-1.4-0.5-1.4-1.2c0-0.1,0-0.2,0-0.2v-3.1h-0.6v-0.8h0.6v-1.2l1.2-0.3v1.5h0.9v0.8h-0.9
		v3.1c0,0.4,0.2,0.7,0.6,0.7c0.1,0,0.2,0,0.3-0.1V86C266.6,86.1,266.4,86.1,266.2,86.1z"/>
	<path class="st0" d="M271.1,86.1c-0.5,0-1-0.1-1.5-0.4l0.3-0.8c0.3,0.2,0.6,0.3,1,0.3c0.4,0,0.8-0.3,0.8-0.7c0,0,0,0,0-0.1
		c0-0.4-0.2-0.7-0.8-0.9c-1-0.4-1.2-0.9-1.2-1.5c0-0.9,0.7-1.5,1.6-1.5c0,0,0.1,0,0.1,0c0.5,0,1,0.1,1.4,0.4l-0.3,0.7
		c-0.2-0.2-0.5-0.3-0.8-0.3c-0.4,0-0.7,0.2-0.7,0.6c0,0,0,0.1,0,0.1c0,0.4,0.3,0.7,0.8,0.8c1,0.4,1.3,0.9,1.3,1.6
		c0,0.9-0.8,1.7-1.8,1.6C271.1,86.1,271.1,86.1,271.1,86.1z"/>
	
		<linearGradient id="SVGID_1_" gradientUnits="userSpaceOnUse" x1="436.2855" y1="509.3439" x2="449.2555" y2="502.1539" gradientTransform="matrix(0.9817 -0.1906 -0.1906 -0.9817 -47.4233 611.0968)">
		<stop  offset="0" style="stop-color:#EB008B"/>
		<stop  offset="0.13" style="stop-color:#E5018B"/>
		<stop  offset="0.3" style="stop-color:#D30689"/>
		<stop  offset="0.5" style="stop-color:#B60C87"/>
		<stop  offset="0.72" style="stop-color:#8E1684"/>
		<stop  offset="0.96" style="stop-color:#5B2281"/>
		<stop  offset="1" style="stop-color:#512480"/>
	</linearGradient>
	<path class="st1" d="M277.4,23.8c-3.7,4.8,2,8.4,2,8.4l0,0c6.2,4.6,15.5-0.4,15.5-0.4c-4.2-4.9-6.5-7.2-6.5-7.2l0,0
		c-3.1-2.8-5.6-3.2-7.5-2.9l0,0C279.6,22,278.4,22.7,277.4,23.8L277.4,23.8z"/>
	
		<linearGradient id="SVGID_00000109004579499959728880000009530615987283217562_" gradientUnits="userSpaceOnUse" x1="463.6982" y1="511.139" x2="451.2382" y2="503.939" gradientTransform="matrix(0.9817 -0.1906 -0.1906 -0.9817 -47.4233 611.0968)">
		<stop  offset="0" style="stop-color:#EB008B"/>
		<stop  offset="0.13" style="stop-color:#E5018B"/>
		<stop  offset="0.3" style="stop-color:#D30689"/>
		<stop  offset="0.5" style="stop-color:#B60C87"/>
		<stop  offset="0.72" style="stop-color:#8E1684"/>
		<stop  offset="0.96" style="stop-color:#5B2281"/>
		<stop  offset="1" style="stop-color:#512480"/>
	</linearGradient>
	<path style="fill-rule:evenodd;clip-rule:evenodd;fill:url(#SVGID_00000109004579499959728880000009530615987283217562_);" d="
		M307.9,15.9c-7.1,3.1-7.4,13.7-7.4,13.7c6.3-1.2,9.5-2,9.5-2l0,0c8.8-2.8,6.2-9.2,6.2-9.2l0,0c-1.4-3.4-4.2-3.6-6.1-3.2l0,0
		C309.3,15.3,308.6,15.6,307.9,15.9L307.9,15.9z"/>
	
		<linearGradient id="SVGID_00000080170850825568908550000012442635800427506351_" gradientUnits="userSpaceOnUse" x1="450.4019" y1="484.6645" x2="450.6519" y2="498.8845" gradientTransform="matrix(0.9817 -0.1906 -0.1906 -0.9817 -47.4233 611.0968)">
		<stop  offset="0" style="stop-color:#EB008B"/>
		<stop  offset="0.13" style="stop-color:#E5018B"/>
		<stop  offset="0.3" style="stop-color:#D30689"/>
		<stop  offset="0.5" style="stop-color:#B60C87"/>
		<stop  offset="0.72" style="stop-color:#8E1684"/>
		<stop  offset="0.96" style="stop-color:#5B2281"/>
		<stop  offset="1" style="stop-color:#512480"/>
	</linearGradient>
	<path style="fill-rule:evenodd;clip-rule:evenodd;fill:url(#SVGID_00000080170850825568908550000012442635800427506351_);" d="
		M296.6,44.6c-1.9,9,4.8,9.9,4.8,9.9l0,0c5.9,0.8,6.3-5.9,6.3-5.9l0,0c0.9-7.7-8.1-13.3-8.1-13.3l0,0
		C297.5,41.5,296.6,44.6,296.6,44.6L296.6,44.6z"/>
	
		<linearGradient id="SVGID_00000027603893871171122010000003155036414273879730_" gradientUnits="userSpaceOnUse" x1="449.7711" y1="503.0644" x2="450.7312" y2="521.3743" gradientTransform="matrix(0.9817 -0.1906 -0.1906 -0.9817 -47.4233 611.0968)">
		<stop  offset="0" style="stop-color:#86D0D0"/>
		<stop  offset="0.42" style="stop-color:#3F93C0"/>
		<stop  offset="0.73" style="stop-color:#0066B2"/>
		<stop  offset="0.86" style="stop-color:#0063A4"/>
		<stop  offset="1" style="stop-color:#006EAC"/>
	</linearGradient>
	<path style="fill-rule:evenodd;clip-rule:evenodd;fill:url(#SVGID_00000027603893871171122010000003155036414273879730_);" d="
		M296.4,30.7L296.4,30.7c0.4-0.5,0.9-0.8,1.6-0.9l0,0c0.2,0,0.5,0,0.8,0l0,0c0.4-2.5,1-5,1.8-7.4l0,0c1.1-2.5,2.5-4.8,4.4-6.7l0,0
		c0,0,1.6-1.7-1.4-1.8l0,0c-4.2-0.1-11.6,1.1-13.4,1.2l0,0c-0.3,0-0.5,0.1-0.8,0.1l0,0c-3.6,0.7-2.2,3.7-2.2,3.7l0,0
		c1,2.5,2.3,4.7,4.1,6.7l0,0C292.7,27.5,294.5,29.2,296.4,30.7z"/>
	
		<linearGradient id="SVGID_00000005982713084464313310000010545314737439590039_" gradientUnits="userSpaceOnUse" x1="448.485" y1="503.2059" x2="465.015" y2="492.4659" gradientTransform="matrix(0.9817 -0.1906 -0.1906 -0.9817 -47.4233 611.0968)">
		<stop  offset="0" style="stop-color:#86D0D0"/>
		<stop  offset="0.42" style="stop-color:#3F93C0"/>
		<stop  offset="0.73" style="stop-color:#0066B2"/>
		<stop  offset="0.86" style="stop-color:#0063A4"/>
		<stop  offset="1" style="stop-color:#006EAC"/>
	</linearGradient>
	<path style="fill-rule:evenodd;clip-rule:evenodd;fill:url(#SVGID_00000005982713084464313310000010545314737439590039_);" d="
		M300.6,31.3c0.1,0.2,0.1,0.4,0.1,0.5l0,0c0.1,0.7-0.1,1.4-0.5,1.9l0,0c2,1.6,3.8,3.3,5.5,5.3l0,0c1.6,2.2,2.9,4.6,3.7,7.2l0,0
		c0,0,0.7,2.2,2.2-0.3l0,0c2.2-3.6,4.8-10.6,5.6-12.3l0,0c2-4.2-1.8-4.5-1.8-4.5l0,0c-2.6-0.4-5.2-0.3-7.8,0.2l0,0l-0.6,0.1l0,0
		C304.9,29.9,302.7,30.6,300.6,31.3L300.6,31.3z"/>
	
		<linearGradient id="SVGID_00000019663803555591204200000005923819536268365192_" gradientUnits="userSpaceOnUse" x1="425.0092" y1="495.3859" x2="454.1992" y2="493.8559" gradientTransform="matrix(0.9817 -0.1906 -0.1906 -0.9817 -47.4233 611.0968)">
		<stop  offset="0" style="stop-color:#006EAC"/>
		<stop  offset="0.14" style="stop-color:#0063A4"/>
		<stop  offset="0.27" style="stop-color:#0066B2"/>
		<stop  offset="0.58" style="stop-color:#3F93C0"/>
		<stop  offset="1" style="stop-color:#86D0D0"/>
	</linearGradient>
	<path style="fill-rule:evenodd;clip-rule:evenodd;fill:url(#SVGID_00000019663803555591204200000005923819536268365192_);" d="
		M279.8,37c2,3.7,6.8,9.5,7.8,11l0,0c2.7,3.8,4.8,0.7,4.8,0.7l0,0c1.6-2.1,2.9-4.4,3.8-6.9l0,0c0.8-2.3,1.4-4.7,1.8-7.1
		c-0.9-0.1-1.7-0.7-2-1.6l0,0c-2.4,0.9-4.8,1.6-7.3,2.1l0,0c-2.7,0.3-5.4,0.2-8-0.4l0,0c-0.2,0-0.5,0-0.7,0l0,0
		C279.4,35,279,35.4,279.8,37L279.8,37z"/>
	
		<linearGradient id="SVGID_00000102536583817316458360000012022115637901541279_" gradientUnits="userSpaceOnUse" x1="448.4969" y1="502.262" x2="451.2269" y2="502.262" gradientTransform="matrix(0.9817 -0.1906 -0.1906 -0.9817 -47.4233 611.0968)">
		<stop  offset="0" style="stop-color:#EB008B"/>
		<stop  offset="0.13" style="stop-color:#E5018B"/>
		<stop  offset="0.3" style="stop-color:#D30689"/>
		<stop  offset="0.5" style="stop-color:#B60C87"/>
		<stop  offset="0.72" style="stop-color:#8E1684"/>
		<stop  offset="0.96" style="stop-color:#5B2281"/>
		<stop  offset="1" style="stop-color:#512480"/>
	</linearGradient>
	<path style="fill-rule:evenodd;clip-rule:evenodd;fill:url(#SVGID_00000102536583817316458360000012022115637901541279_);" d="
		M297.1,32.5c0.1,0.7,0.8,1.3,1.5,1.2c0,0,0,0,0,0l0,0c0.7-0.1,1.3-0.8,1.1-1.5l0,0c-0.1-0.7-0.8-1.3-1.6-1.2c0,0,0,0,0,0h-0.1
		C297.5,31.1,297,31.8,297.1,32.5L297.1,32.5z"/>
	<polygon class="st8" points="186.6,70.7 167.7,45.6 167.8,70.7 164,70.7 164,41 168.8,41 187,64.9 186.8,41 190.6,41 190.6,70.7 	
		"/>
	<rect x="198.2" y="40.7" class="st8" width="4.2" height="29.9"/>
	<path class="st8" d="M217.3,70.7l-10.1-29.9h4.5l7.2,23c0,0.2,0.1,0.3,0.1,0.5c0.1-0.2,0.1-0.3,0.1-0.5l7.2-23h4l-9.8,29.9
		L217.3,70.7z"/>
	<path class="st8" d="M242.8,71.2c-6.8,0-10.7-3.2-10.7-8.8c0-8.5,8.4-10.7,16-11.5v-1.4c0-4.1-1.9-5.9-6.3-5.9
		c-2.2,0-4.4,0.7-6.3,1.8l-0.6,0.4l-1.3-3.1l0.5-0.3c2.5-1.4,5.2-2.1,8.1-2.2c6.4,0,10,3.4,10,9.4v19.3l-0.3,0.2
		C249,70.6,245.9,71.3,242.8,71.2z M248.1,53.9c-8,1.1-11.9,2.8-11.9,8.4c0,3.9,2.2,5.8,6.9,5.8c1.7,0,3.4-0.3,4.9-0.9V53.9z"/>
	<path class="st8" d="M264.6,71.1c-2.6,0.1-5.1-0.6-7.2-2l-0.4-0.3l1.4-3.3l0.7,0.6c1.6,1.1,3.5,1.6,5.4,1.6c3.3,0,5.6-2.1,5.6-5.2
		s-1.7-4.4-4.9-5.5c-6.4-2.3-7.2-5.9-7.2-8.7c0-4.6,3.7-8,8.7-8c2.3,0,4.5,0.7,6.4,2l0.4,0.3l-1.5,3.1l-0.6-0.5
		c-1.3-1-2.9-1.5-4.6-1.6c-3.6,0-4.9,2.5-4.9,4.7c0,2.8,2,4,4.9,5.1c5.1,1.8,7.4,4.7,7.4,9.1C274.2,66.6,270.4,71.1,264.6,71.1z"/>
</g>
</svg>
