<?xml version="1.0" encoding="utf-8"?>
<!-- Generator: Adobe Illustrator 26.0.1, SVG Export Plug-In . SVG Version: 6.00 Build 0)  -->
<svg version="1.1" id="Layer_1" xmlns="http://www.w3.org/2000/svg" xmlns:xlink="http://www.w3.org/1999/xlink" x="0px" y="0px"
	 viewBox="0 0 28 26" style="enable-background:new 0 0 28 26;" xml:space="preserve">
<style type="text/css">
	.st0{fill:#383887;}
	.st1{fill:#3B3B3B;}
	.st2{fill:#E3EAEC;}
	.st3{fill:#CCD7D8;}
	.st4{fill:#B5BCBC;}
	.st5{fill:#10093A;}
	.st6{fill:#FFFFFF;}
	.st7{fill:none;stroke:#383887;stroke-width:2;stroke-miterlimit:10;}
	.st8{fill:none;stroke:#E3EAEC;stroke-width:2;stroke-miterlimit:10;}
</style>
<g>
	<g>
		<g>
			<path class="st3" d="M20.4,0h-7.8c-2.2,0-4,1.8-4,4v18c0,2.2,1.8,4,4,4H24c2.1,0,3.9-1.7,4-3.8l0-14.5"/>
		</g>
		<g>
			<path class="st4" d="M27.8,7.7h-4.7c-1.5,0-2.7-1.2-2.7-2.7V0.2c0-0.1,0.1-0.1,0.1-0.1l7.4,7.4C27.9,7.6,27.9,7.7,27.8,7.7z"/>
		</g>
	</g>
	<g>
		<g>
			<path class="st5" d="M16.6,21.5H4c-2.2,0-4-1.8-4-4v-4.8c0-2.2,1.8-4,4-4h12.6c2.2,0,4,1.8,4,4v4.8
				C20.7,19.7,18.8,21.5,16.6,21.5z"/>
		</g>
		<g>
			<g>
				<path class="st6" d="M8.5,15.1c0-0.9,0-1.8,0-2.8c0-0.6,0.3-0.9,0.9-0.9c0.4,0,0.7,0,1.1,0c0.8,0,1.3,0.3,1.7,0.9
					c0.4,0.6,0.6,1.3,0.7,2c0.1,1,0,2.1-0.4,3c-0.2,0.4-0.4,0.7-0.7,1c-0.3,0.3-0.6,0.4-1,0.4c-0.5,0-1,0-1.4,0
					c-0.5,0-0.8-0.3-0.8-0.8C8.5,17,8.5,16,8.5,15.1z M10,12.9c0,1.5,0,2.9,0,4.4c0.8,0.1,1,0,1.2-0.8c0.3-0.9,0.3-1.9,0-2.8
					C11,12.9,10.9,12.9,10,12.9z"/>
			</g>
			<g>
				<path class="st6" d="M4.8,15.8c0,0.7,0,1.3,0,1.9c0,0.1,0,0.2,0,0.4c0,0.4-0.3,0.7-0.8,0.7c-0.4,0-0.7-0.3-0.7-0.7
					c0-0.1,0-0.2,0-0.3c0-1.8,0-3.6,0-5.4c0-0.7,0.2-1,1-1c0.4,0,0.9,0,1.3,0c1.2,0,2.2,1,2.2,2.2c0,1.2-0.9,2.2-2.2,2.2
					C5.4,15.9,5.1,15.8,4.8,15.8z M4.9,14.4c0.3,0,0.5,0,0.8,0c0.4,0,0.7-0.3,0.7-0.7c0-0.3-0.2-0.7-0.6-0.7c-0.3,0-0.6,0-0.9,0
					C4.9,13.4,4.9,13.9,4.9,14.4z"/>
			</g>
			<g>
				<path class="st6" d="M15.2,12.9c0,0.3,0,0.5,0,0.7c0.4,0,0.8,0,1.2,0c0.6,0,1,0.3,1,0.7c0,0.5-0.3,0.7-1,0.7c-0.4,0-0.7,0-1.1,0
					c0,0-0.1,0-0.1,0c0,0.1,0,0.3,0,0.4c0,0.8,0,1.6,0,2.4c0,0.5-0.3,0.8-0.7,0.8c-0.4,0-0.8-0.3-0.8-0.8c0-1.9,0-3.8,0-5.8
					c0-0.5,0.3-0.8,0.8-0.8c0.9,0,1.9,0,2.8,0c0.5,0,0.8,0.3,0.8,0.7c0,0.4-0.3,0.8-0.8,0.8C16.6,12.9,15.9,12.9,15.2,12.9z"/>
			</g>
		</g>
	</g>
</g>
</svg>
