<svg xmlns="http://www.w3.org/2000/svg" xmlns:xlink="http://www.w3.org/1999/xlink" viewBox="0 0 362 100"><defs><style>.cls-1{isolation:isolate;}.cls-2{fill:#e6e7e8;}.cls-3{fill:url(#linear-gradient);}.cls-4{mix-blend-mode:multiply;fill:url(#linear-gradient-2);}.cls-5{fill:none;stroke:#fff;stroke-linecap:round;stroke-linejoin:round;stroke-width:4.2px;}.cls-6{fill:#dbdcdd;}.cls-7{fill:#4d4d4f;}</style><linearGradient id="linear-gradient" x1="123.41" y1="74.6" x2="170.34" y2="-9.25" gradientUnits="userSpaceOnUse"><stop offset="0" stop-color="#ffca05"/><stop offset="0.16" stop-color="#f9a51a"/><stop offset="0.34" stop-color="#f26f21"/><stop offset="0.54" stop-color="#ec1c24"/><stop offset="0.72" stop-color="#ec1f77"/><stop offset="1" stop-color="#a4238d"/></linearGradient><linearGradient id="linear-gradient-2" x1="106.68" y1="76.15" x2="153.41" y2="-5.46" xlink:href="#linear-gradient"/></defs><g class="cls-1"><g id="Layer_1" data-name="Layer 1"><polygon class="cls-2" points="128.41 98.5 96.87 44.43 120.43 3.48 168.65 3.58 175.55 15.69 166.5 32.05 135.7 32.04 129.45 42.44 161.75 98.42 128.41 98.5"/><polygon class="cls-3" points="125.53 96.62 94.2 42.45 117.75 1.5 165.38 1.5 173.58 15.77 165.44 30.05 134.52 30.05 127.06 42.46 158.29 96.62 125.53 96.62"/><path class="cls-4" d="M126.25,95.45l-29.72-53,22.4-38.93h45.28l.59-1H118.34l-23,39.94,30.76,53.16Z"/><polygon class="cls-5" points="118.63 82.54 125.96 69.14 133.95 82.54 118.63 82.54"/><polygon class="cls-5" points="149.49 29.04 157.19 15.78 164.86 29.04 149.49 29.04"/><polygon class="cls-5" points="164.8 2.51 157.19 15.78 149.38 2.51 164.8 2.51"/><polygon class="cls-5" points="157.19 15.78 149.49 29.04 141.66 15.78 157.19 15.78"/><polygon class="cls-5" points="172.41 15.78 164.86 29.04 157.19 15.78 172.41 15.78"/><polygon class="cls-5" points="149.38 2.51 157.19 15.78 141.66 15.78 149.38 2.51"/><polygon class="cls-5" points="164.8 2.51 172.41 15.78 157.19 15.78 164.8 2.51"/><polygon class="cls-5" points="118.45 29.04 126.15 15.78 133.94 29.04 118.45 29.04"/><polygon class="cls-5" points="118.45 29.04 110.68 42.45 103.06 29.04 118.45 29.04"/><polygon class="cls-5" points="133.94 29.04 141.66 15.78 149.49 29.04 133.94 29.04"/><polygon class="cls-5" points="133.85 2.51 126.15 15.78 118.34 2.51 133.85 2.51"/><polygon class="cls-5" points="133.94 29.04 125.89 42.45 118.45 29.04 133.94 29.04"/><polygon class="cls-5" points="149.38 2.51 141.66 15.78 133.85 2.51 149.38 2.51"/><polygon class="cls-5" points="126.15 15.78 118.45 29.04 110.68 15.78 126.15 15.78"/><polygon class="cls-5" points="125.89 42.45 118.48 55.75 110.68 42.45 125.89 42.45"/><polygon class="cls-5" points="111.04 69.14 118.48 55.75 125.96 69.14 111.04 69.14"/><polygon class="cls-5" points="141.66 15.78 133.94 29.04 126.15 15.78 141.66 15.78"/><polygon class="cls-5" points="118.34 2.51 126.15 15.78 110.68 15.78 118.34 2.51"/><polygon class="cls-5" points="118.45 29.04 125.89 42.45 110.68 42.45 118.45 29.04"/><polygon class="cls-5" points="110.68 15.78 118.45 29.04 103.06 29.04 110.68 15.78"/><polygon class="cls-5" points="103.06 29.04 110.68 42.45 95.36 42.45 103.06 29.04"/><polygon class="cls-5" points="110.68 42.45 118.48 55.75 103.08 55.75 110.68 42.45"/><polygon class="cls-5" points="118.48 55.75 111.04 69.14 103.08 55.75 118.48 55.75"/><polygon class="cls-5" points="125.96 69.14 118.63 82.54 111.04 69.14 125.96 69.14"/><polygon class="cls-5" points="103.08 55.75 95.36 42.45 110.68 42.45 103.08 55.75"/><polygon class="cls-5" points="133.85 2.51 141.66 15.78 126.15 15.78 133.85 2.51"/><polygon class="cls-5" points="133.95 82.54 141.41 95.61 126.12 95.61 133.95 82.54"/><polygon class="cls-5" points="156.54 95.61 141.41 95.61 148.82 82.54 156.54 95.61"/><polygon class="cls-5" points="141.41 95.61 133.95 82.54 148.82 82.54 141.41 95.61"/><polygon class="cls-5" points="126.12 95.61 118.63 82.54 133.95 82.54 126.12 95.61"/><polygon class="cls-5" points="125.96 69.14 133.55 55.75 141.18 69.14 125.96 69.14"/><polygon class="cls-5" points="133.95 82.54 141.18 69.14 148.82 82.54 133.95 82.54"/><polygon class="cls-5" points="118.48 55.75 125.89 42.45 133.55 55.75 118.48 55.75"/><polygon class="cls-5" points="133.55 55.75 125.96 69.14 118.48 55.75 133.55 55.75"/><polygon class="cls-5" points="133.95 82.54 125.96 69.14 141.18 69.14 133.95 82.54"/><path class="cls-6" d="M156.19,60.36a3.15,3.15,0,0,0,2-.62,2.37,2.37,0,0,0,.95-1.51l.43-2.36a1.13,1.13,0,0,0-.2-1.1,4.13,4.13,0,0,0-1.31-.68l-5.19-1.86a4.14,4.14,0,0,1-2.3-1.6,3.38,3.38,0,0,1-.45-2.46l.58-3.33a6,6,0,0,1,1.09-2.53,9,9,0,0,1,2.09-2.08,10,10,0,0,1,2.84-1.39,11.32,11.32,0,0,1,3.35-.5h4.84l1.67,4.18h-7.13a3.43,3.43,0,0,0-2.09.62,2.34,2.34,0,0,0-1,1.51L156,47.09a1.16,1.16,0,0,0,.17,1.1,3.94,3.94,0,0,0,1.3.68l5.23,1.86A4.16,4.16,0,0,1,165,52.35a3.45,3.45,0,0,1,.4,2.44L164.82,58a6.16,6.16,0,0,1-1.06,2.54,8.93,8.93,0,0,1-2.09,2.07A10.2,10.2,0,0,1,158.8,64a10.94,10.94,0,0,1-3.34.5H150l-1.63-4.18Z"/><path class="cls-6" d="M177.44,64.54l1-5.57a1.77,1.77,0,0,0-.35-1.59,7.12,7.12,0,0,0-1.43-1.2l-2.83-1.74,6.93-8.55h5.66l-5.93,6.89a10.48,10.48,0,0,1,2.93,2.71A4.55,4.55,0,0,1,184,59l-1,5.57Z"/><path class="cls-6" d="M205.93,45.89l-3.37,19.23a5.94,5.94,0,0,1-1.08,2.54,8.84,8.84,0,0,1-2.11,2.07,9.94,9.94,0,0,1-2.85,1.39,10.89,10.89,0,0,1-3.36.51h-4.92l-1.62-4.18h7.08a3.64,3.64,0,0,0,2.13-.62,2.33,2.33,0,0,0,1-1.51l3.41-19.43Zm-11,0-2.13,12.23a1.91,1.91,0,0,0,.21,1.53,2.76,2.76,0,0,0,1.53.87l2.83.77-3.53,3.56-3.17-1a4.85,4.85,0,0,1-3.15-2.29,6,6,0,0,1-.37-3.6l2.13-12.07Z"/><path class="cls-6" d="M215.57,43.12a2.5,2.5,0,0,0-1,1.49l-2.4,13.62a1.6,1.6,0,0,0,.49,1.51,2.54,2.54,0,0,0,1.87.62h6.28l-3.1,4.18h-3.91a9.47,9.47,0,0,1-3.18-.5,6.71,6.71,0,0,1-2.38-1.39,5.32,5.32,0,0,1-1.37-2.07,4.91,4.91,0,0,1-.19-2.54L209,44.84a6.12,6.12,0,0,1,1.06-2.53,8.83,8.83,0,0,1,2.1-2.08A10.28,10.28,0,0,1,215,38.84a11.44,11.44,0,0,1,3.39-.5h3.9l1.63,4.18h-6.27A3.43,3.43,0,0,0,215.57,43.12Z"/><path class="cls-6" d="M224.52,50.41h5.62l-2.42,14.13h-5.61Zm7-7.54L230.67,48h-5.61l.82-5.11Z"/><path class="cls-6" d="M242.12,45.5,244.21,49l-4,1.12a2.46,2.46,0,0,0-1,.53,2,2,0,0,0-.5,1.1l-1.16,6.46a1.57,1.57,0,0,0,.48,1.51,2.57,2.57,0,0,0,1.88.62h3.87l-3.18,4.18H239.1a9.57,9.57,0,0,1-3.21-.5,6.62,6.62,0,0,1-2.38-1.39,5.33,5.33,0,0,1-1.37-2,4.83,4.83,0,0,1-.2-2.52l2.71-15.33,5.89-1.55-.89,5.07Z"/><path class="cls-6" d="M264,45.89l-3.37,19.23a6.08,6.08,0,0,1-1.09,2.54,8.66,8.66,0,0,1-2.11,2.07,9.88,9.88,0,0,1-2.84,1.39,11,11,0,0,1-3.37.51h-4.92l-1.62-4.18h7.08a3.64,3.64,0,0,0,2.13-.62,2.31,2.31,0,0,0,1.05-1.51l3.4-19.43Zm-11,0-2.13,12.23a1.87,1.87,0,0,0,.22,1.53,2.76,2.76,0,0,0,1.52.87l2.83.77-3.52,3.56-3.18-1a4.87,4.87,0,0,1-3.15-2.29,6,6,0,0,1-.37-3.6l2.13-12.07Z"/><path class="cls-6" d="M170.26,40.85a15.72,15.72,0,0,1,.48-1.94,6.69,6.69,0,0,1,.82-1.65A5.27,5.27,0,0,1,173,35.91a8.51,8.51,0,0,1,2.22-1l3-.92,2.2,3.6-2.74.77a2,2,0,0,0-1.07.6A3.28,3.28,0,0,0,176,40.3l-4.16,23.86h-5.61Z"/><path class="cls-7" d="M157.32,60.88a3.18,3.18,0,0,0,2-.62,2.39,2.39,0,0,0,.94-1.51l.43-2.36a1.16,1.16,0,0,0-.19-1.1,4.11,4.11,0,0,0-1.32-.68L154,52.75a4.14,4.14,0,0,1-2.3-1.6,3.37,3.37,0,0,1-.44-2.46l.57-3.33A6,6,0,0,1,153,42.83,9.17,9.17,0,0,1,155,40.75a10.15,10.15,0,0,1,2.84-1.39,11.32,11.32,0,0,1,3.35-.5h4.84L167.74,43h-7.13a3.43,3.43,0,0,0-2.09.62,2.29,2.29,0,0,0-1,1.51l-.43,2.44a1.22,1.22,0,0,0,.17,1.1,3.83,3.83,0,0,0,1.3.68l5.23,1.85a4.22,4.22,0,0,1,2.34,1.63,3.51,3.51,0,0,1,.41,2.44L166,58.56a6.37,6.37,0,0,1-1.07,2.54,8.75,8.75,0,0,1-2.09,2.07,10.14,10.14,0,0,1-2.86,1.39,11,11,0,0,1-3.35.5h-5.42l-1.63-4.18Z"/><path class="cls-7" d="M178.57,65.06l1-5.57a1.77,1.77,0,0,0-.35-1.59,7.12,7.12,0,0,0-1.43-1.2L174.93,55l6.93-8.55h5.66l-5.93,6.89A10.29,10.29,0,0,1,184.51,56a4.56,4.56,0,0,1,.65,3.48l-1,5.57Z"/><path class="cls-7" d="M207.06,46.41,203.7,65.64a6.08,6.08,0,0,1-1.09,2.54,8.66,8.66,0,0,1-2.11,2.07,10.15,10.15,0,0,1-2.84,1.39,11,11,0,0,1-3.37.51h-4.92L187.75,68h7.08a3.64,3.64,0,0,0,2.13-.62,2.36,2.36,0,0,0,1-1.51l3.4-19.43Zm-11,0-2.13,12.23a1.91,1.91,0,0,0,.21,1.53,2.84,2.84,0,0,0,1.53.87l2.83.77L195,65.37l-3.18-1a4.85,4.85,0,0,1-3.15-2.29,6,6,0,0,1-.37-3.6l2.13-12.07Z"/><path class="cls-7" d="M216.7,43.64a2.5,2.5,0,0,0-1,1.49l-2.4,13.62a1.6,1.6,0,0,0,.49,1.51,2.57,2.57,0,0,0,1.88.62h6.27l-3.1,4.18h-3.91a9.37,9.37,0,0,1-3.17-.5,6.54,6.54,0,0,1-2.38-1.39A5.35,5.35,0,0,1,208,61.1a4.92,4.92,0,0,1-.19-2.54l2.32-13.2a6.12,6.12,0,0,1,1.06-2.53,9,9,0,0,1,2.09-2.08,10.48,10.48,0,0,1,2.87-1.39,11.44,11.44,0,0,1,3.39-.5h3.91L225.06,43h-6.27A3.43,3.43,0,0,0,216.7,43.64Z"/><path class="cls-7" d="M225.66,50.93h5.61l-2.41,14.13h-5.62Zm7-7.54-.82,5.11h-5.61l.82-5.11Z"/><path class="cls-7" d="M243.26,46l2.08,3.52-4,1.12a2.53,2.53,0,0,0-1,.53,2,2,0,0,0-.5,1.1l-1.16,6.46a1.59,1.59,0,0,0,.48,1.51,2.57,2.57,0,0,0,1.88.62h3.87l-3.17,4.18h-1.48a9.57,9.57,0,0,1-3.21-.5,6.62,6.62,0,0,1-2.38-1.39,5.33,5.33,0,0,1-1.37-2.05,4.83,4.83,0,0,1-.2-2.52l2.71-15.33,5.89-1.55-.89,5.07Z"/><path class="cls-7" d="M265.09,46.41l-3.37,19.23a6.19,6.19,0,0,1-1.08,2.54,9,9,0,0,1-2.11,2.07,10.21,10.21,0,0,1-2.85,1.39,11,11,0,0,1-3.37.51H247.4L245.77,68h7.09a3.63,3.63,0,0,0,2.12-.62,2.32,2.32,0,0,0,1-1.51l3.4-19.43Zm-11,0L252,58.64a1.9,1.9,0,0,0,.22,1.53,2.76,2.76,0,0,0,1.53.87l2.82.77L253,65.37l-3.17-1a4.87,4.87,0,0,1-3.16-2.29,6,6,0,0,1-.37-3.6l2.13-12.07Z"/><path class="cls-7" d="M171.39,41.37a15.72,15.72,0,0,1,.48-1.94,6.69,6.69,0,0,1,.82-1.65,5.43,5.43,0,0,1,1.39-1.35,8.44,8.44,0,0,1,2.23-1l2.94-.92,2.21,3.6-2.75.77a2,2,0,0,0-1.07.6,3.28,3.28,0,0,0-.52,1.37L173,64.68h-5.61Z"/><path class="cls-7" d="M168.23,80.59c.37.15.39.62.25,1l-.1.31c-.36,1-1,1.28-2.29,1.28H166l-.81,0,.18-.54.91,0c.75,0,1.16-.2,1.36-.77l.09-.28c.2-.56,0-.72-.53-.72h-.82l.2-.56h.81a1,1,0,0,0,1-.72l.11-.33c.25-.71-.21-.72-.83-.72h-.11l-.81,0L167,78l.93,0c1,0,1.81.07,1.41,1.22l-.13.38A1.61,1.61,0,0,1,168.23,80.59Z"/><path class="cls-7" d="M174.9,79.3l-.13.38h.37l-.2.58h-.38l-.77,2.22a8.44,8.44,0,0,1-1.38.15c-1.13,0-1.41-.43-1.15-1.3l.1-.32a1.78,1.78,0,0,1,1-1.05c-.32-.22-.44-.43-.28-1l.11-.33a2,2,0,0,1,2.1-1.25,7,7,0,0,1,1.14.11l-.18.51c-.59,0-1-.08-1.22-.08a1,1,0,0,0-1.08.76l-.09.28c-.19.54,0,.73.56.73h.65l.13-.38Zm-2.86,2c-.21.61.12.81.61.81a4.25,4.25,0,0,0,.6-.07l.62-1.77h-.65a1,1,0,0,0-1.08.74Z"/><path class="cls-7" d="M180.38,81.86h-.77l-.55,1.59h-.73l.55-1.59h-2.31l.19-.53,3-3h1.07l-1,2.94h.77Zm-1.28-.59.78-2.27-2.24,2.27Z"/><path class="cls-7" d="M182.66,82.56l1.8-5.17h1.4c1,0,1.84.11,1.44,1.26l-.12.34a1.5,1.5,0,0,1-.93,1c.36.16.37.63.24,1l-.11.32c-.35,1-1,1.26-2.32,1.26Zm1-.53h.67c.74,0,1.15-.2,1.36-.78l.1-.28c.18-.54-.07-.7-.55-.7h-1Zm1.42-4.1-.61,1.75h1a1,1,0,0,0,1-.7l.1-.27c.26-.73-.14-.78-.82-.78Z"/><path class="cls-7" d="M190.07,82.56l.82-2.36h-2.21l-.82,2.36h-.77l1.8-5.17h.77l-.77,2.23h2.2l.78-2.23h.78l-1.8,5.17Z"/><path class="cls-7" d="M192.1,82.56l1.8-5.17h.75l-.78,2.25h.75l2.12-2.25h.85l-2.38,2.5.65,2.67H195l-.59-2.34h-.77l-.81,2.34Z"/><path class="cls-7" d="M201.28,82.56l.82-2.36h-2.21l-.82,2.36h-.77l1.8-5.17h.77l-.78,2.23h2.21l.78-2.23h.78l-1.8,5.17Z"/><path class="cls-7" d="M203.24,82.56l1.35-3.87h.76L204,82.56Zm2.18-5.2c.4,0,.43,0,.31.39s-.19.41-.58.41-.4-.09-.29-.41S205,77.36,205.42,77.36Z"/><path class="cls-7" d="M205.92,80.1h2l-.2.58h-1.95Z"/><path class="cls-7" d="M208.15,82.56l1.8-5.17h3.16l-.22.61H210.5l-.57,1.61h2.2l-.22.63h-2.19l-.6,1.72h2.4l-.21.6Z"/><path class="cls-7" d="M214.61,82.56l1-3c.07-.21,0-.33-.22-.33a4.74,4.74,0,0,0-1.32.26l-1.06,3.06h-.75l1.35-3.88h.62l0,.28a4.72,4.72,0,0,1,1.51-.34c.59,0,.88.29.66.93l-1,3Z"/><path class="cls-7" d="M217.12,80.34c.46-1.24.9-1.74,1.8-1.74.29,0,.59,0,1,.07l.52-1.5h.74l-1.87,5.38h-.57l0-.28a3.28,3.28,0,0,1-1.29.33c-.78,0-.92-.6-.43-2Zm.7,1.67a3,3,0,0,0,1-.28l.86-2.47a5.36,5.36,0,0,0-.87-.07h0c-.53,0-.76.63-.94,1.17C217.46,81.57,217.4,82,217.82,82Z"/><path class="cls-7" d="M221.49,82.56,225,77.4h1.11l-.1,5.16h-.76V81.37h-2.15l-.8,1.19Zm2-1.83h1.74l0-2.66Z"/><path class="cls-7" d="M230.22,80.89c-.46,1.24-.89,1.75-1.8,1.75-.3,0-.59,0-1-.07l-.52,1.5h-.74L228,78.68h.57l0,.28a3.33,3.33,0,0,1,1.29-.32c.78,0,.93.59.43,2Zm-.7-1.66a3,3,0,0,0-1,.27L227.63,82a4.27,4.27,0,0,0,.86.07h0c.53,0,.76-.63.94-1.16C229.89,79.67,229.94,79.23,229.52,79.23Z"/><path class="cls-7" d="M233.47,82.56h-.64c0-.1,0-.2,0-.3a4.28,4.28,0,0,1-1.38.38c-.81,0-.88-.58-.64-1.27.31-.88,1-1,1.8-1h.85l.24-.68c.15-.43-.06-.47-.47-.47a11.07,11.07,0,0,0-1.35.12s.07-.52.08-.55a9.52,9.52,0,0,1,1.59-.15c.85,0,1.19.18.89,1.07Zm-.15-1.71c-1.2,0-1.56,0-1.75.55-.12.35-.12.63.22.63a5.94,5.94,0,0,0,1.24-.34Z"/><path class="cls-7" d="M237.93,78.61l-.2.6a5.54,5.54,0,0,0-1.37.33l-1.05,3h-.75l1.35-3.88h.65l-.05.27A5.28,5.28,0,0,1,237.93,78.61Z"/><path class="cls-7" d="M238.4,81.08l.64-1.85h-.88l.19-.55h.89l.33-1h.75l-.34,1h.92l-.19.55h-.92l-.73,2.1c-.21.62-.12.76.3.76a2.43,2.43,0,0,0,.44,0l-.16.49a3.46,3.46,0,0,1-.56.08C237.93,82.63,238.08,82,238.4,81.08Z"/><path class="cls-7" d="M245,82.56l1-3c.08-.22,0-.34-.19-.34a6.61,6.61,0,0,0-1.26.19c-.36,1-.72,2.1-1.08,3.12h-.76l1-3c.08-.21,0-.33-.19-.33a4.82,4.82,0,0,0-1.33.27l-1.06,3h-.75l1.35-3.87h.61V79a4.52,4.52,0,0,1,1.5-.33.75.75,0,0,1,.66.32,5.29,5.29,0,0,1,1.59-.32c.65,0,.86.33.64.95l-1,3Z"/><path class="cls-7" d="M250.48,80.82h-2.43c-.4,1.25-.15,1.25.63,1.25.2,0,.66,0,1.14-.07l-.17.48a10.11,10.11,0,0,1-1.52.14c-1.21,0-1.26-.5-.73-2s.89-2,2.28-2,1.42.45.87,2Zm-2.23-.54h1.69c.32-1,.28-1.14-.45-1.14S248.56,79.48,248.25,80.28Z"/><path class="cls-7" d="M253.13,82.56l1-3c.08-.21,0-.33-.21-.33a4.74,4.74,0,0,0-1.32.26l-1.06,3.06h-.75l1.35-3.88h.62l0,.28a4.72,4.72,0,0,1,1.51-.34c.59,0,.88.29.66.93l-1,3Z"/><path class="cls-7" d="M256,81.08l.64-1.85h-.88l.19-.55h.88l.34-1H258l-.33,1h.91l-.19.55h-.92l-.72,2.1c-.22.62-.12.76.29.76a2.48,2.48,0,0,0,.45,0l-.16.49a3.62,3.62,0,0,1-.56.08C255.57,82.63,255.71,82,256,81.08Z"/><path class="cls-7" d="M261.05,81.54a1.58,1.58,0,0,1-1.59,1,12.22,12.22,0,0,1-1.37-.07l.2-.56s.57.06,1.27.06c.38,0,.6-.11.71-.42.28-.79-1.88-.6-1.42-1.92a1.59,1.59,0,0,1,1.6-1.06,12.45,12.45,0,0,1,1.37.07l-.2.58s-.63-.07-1.34-.07a.58.58,0,0,0-.64.42C259.38,80.35,261.51,80.21,261.05,81.54Z"/><path class="cls-6" d="M230.77,28.24l-1.65,9.39h3.73l-.31,1.78h-6.13l2-11.17Z"/><path class="cls-6" d="M238.28,33.5a1.2,1.2,0,0,0-.82-.26h-2.8L236,31.46h1.87a4.13,4.13,0,0,1,1.36.21,2.87,2.87,0,0,1,1,.59,2.25,2.25,0,0,1,.58.89,2.05,2.05,0,0,1,.08,1.08l-.44,2.51a2.71,2.71,0,0,1-.46,1.11,3.54,3.54,0,0,1-.91.9,4.42,4.42,0,0,1-1.23.61,4.94,4.94,0,0,1-1.45.22,4.25,4.25,0,0,1-1.32-.2,3,3,0,0,1-1-.54,2.14,2.14,0,0,1-.62-.79,1.62,1.62,0,0,1-.09-1,2.64,2.64,0,0,1,.75-1.41,3.7,3.7,0,0,1,1.67-1l1.46-.43.87,1.55-1.44.35a1.42,1.42,0,0,0-.64.31,1.09,1.09,0,0,0-.33.55.62.62,0,0,0,.22.6,1.14,1.14,0,0,0,.77.26,1.46,1.46,0,0,0,.85-.27,1,1,0,0,0,.46-.64l.49-2.79A.69.69,0,0,0,238.28,33.5Z"/><polygon class="cls-6" points="246.96 35.42 249.63 31.43 247.23 31.43 245.34 34.71 244.33 31.43 241.94 31.43 243.5 35.42 243.5 35.42 240.82 39.41 243.22 39.41 245.12 36.13 246.12 39.41 248.52 39.41 246.95 35.42 246.96 35.42"/><path class="cls-6" d="M264,31.46h2.39L265,39.41h-2.39Zm3-3.22-.39,2.21h-2.4l.4-2.21Z"/><path class="cls-6" d="M262.14,33a2.29,2.29,0,0,0-.61-.88,2.83,2.83,0,0,0-1-.59,3.94,3.94,0,0,0-1.37-.22,4,4,0,0,0-1.42.25,4.38,4.38,0,0,0-1,.5,2.82,2.82,0,0,0-1-.53,3.94,3.94,0,0,0-1.37-.22,4.19,4.19,0,0,0-1.17.17h-2.41l-.92,5.27-.47,2.68h2.42l1-5.64a1.11,1.11,0,0,1,.38-.49,1.48,1.48,0,0,1,.9-.26,1.14,1.14,0,0,1,.81.26.63.63,0,0,1,.19.64l-1,5.49h2.41l.63-3.66.3-1.69v0l0-.1a1.07,1.07,0,0,1,.43-.64,1.47,1.47,0,0,1,.89-.26,1.15,1.15,0,0,1,.82.26.63.63,0,0,1,.19.64l-1,5.49h2.4l.94-5.35A2.18,2.18,0,0,0,262.14,33Z"/><path class="cls-7" d="M231.61,27.57,230,37h3.73l-.31,1.78h-6.13l2-11.18Z"/><path class="cls-7" d="M239.12,32.84a1.18,1.18,0,0,0-.82-.27h-2.81l1.34-1.78h1.87a3.92,3.92,0,0,1,1.36.22,2.82,2.82,0,0,1,1,.59,2.24,2.24,0,0,1,.59.88,2.07,2.07,0,0,1,.08,1.08l-.45,2.51a2.67,2.67,0,0,1-.46,1.12,3.66,3.66,0,0,1-.9.9,5,5,0,0,1-1.23.6,4.63,4.63,0,0,1-1.45.22,4.25,4.25,0,0,1-1.32-.19,3.35,3.35,0,0,1-1-.54,2.19,2.19,0,0,1-.61-.79,1.74,1.74,0,0,1-.1-1A2.87,2.87,0,0,1,235,35a3.89,3.89,0,0,1,1.68-1l1.45-.43.88,1.56-1.44.34a1.39,1.39,0,0,0-.64.32.91.91,0,0,0-.33.54.6.6,0,0,0,.22.6,1.12,1.12,0,0,0,.77.26,1.52,1.52,0,0,0,.85-.26,1,1,0,0,0,.45-.65l.5-2.79A.67.67,0,0,0,239.12,32.84Z"/><polygon class="cls-7" points="247.79 34.76 250.47 30.77 248.07 30.77 246.17 34.05 245.17 30.77 242.77 30.77 244.34 34.76 244.33 34.76 241.66 38.75 244.05 38.75 245.95 35.47 246.96 38.75 249.35 38.75 247.78 34.76 247.79 34.76"/><path class="cls-7" d="M264.83,30.79h2.4l-1.39,8h-2.39Zm3-3.22-.39,2.21H265l.39-2.21Z"/><path class="cls-7" d="M263,32.32a2.1,2.1,0,0,0-.6-.88,2.79,2.79,0,0,0-1-.6,4.24,4.24,0,0,0-1.37-.21,4.19,4.19,0,0,0-1.42.24,5.49,5.49,0,0,0-1,.5,3,3,0,0,0-.94-.53,4.24,4.24,0,0,0-1.37-.21,4.13,4.13,0,0,0-1.17.16h-2.41l-.92,5.28-.47,2.68h2.41l1-5.64a1,1,0,0,1,.38-.49,1.4,1.4,0,0,1,.89-.26,1.12,1.12,0,0,1,.82.26.64.64,0,0,1,.19.63l-1,5.5h2.4l.64-3.66.3-1.69v0l0-.1a1,1,0,0,1,.43-.63,1.4,1.4,0,0,1,.89-.26,1.12,1.12,0,0,1,.82.26.64.64,0,0,1,.19.63l-1,5.5h2.39l.94-5.35A2,2,0,0,0,263,32.32Z"/></g></g></svg>