<svg id="Layer_1" data-name="Layer 1" xmlns="http://www.w3.org/2000/svg" viewBox="0 0 23 23"><defs><style>.cls-1,.cls-2{fill:none;stroke:#000;}.cls-1{stroke-linecap:round;stroke-linejoin:round;}.cls-2{stroke-miterlimit:10;}</style></defs><path class="cls-1" d="M8.55,15.5l.06.06,1.61,1.62a.65.65,0,0,1,0,1L8.61,19.81"/><path class="cls-1" d="M10.47,17.74l-1-.12a15.46,15.46,0,0,1-5.11-1.51A6,6,0,0,1,2,14.19a3.71,3.71,0,0,1-.52-1.31v-.69c.05-.19.1-.39.16-.57a4.2,4.2,0,0,1,1.6-2c.2-.15.41-.29.62-.42"/><path class="cls-1" d="M19.46,9.58a4.23,4.23,0,0,1,1.84,2.18,2.57,2.57,0,0,1,.2.89,3.58,3.58,0,0,1-1.28,2.5,9.06,9.06,0,0,1-3.15,1.76,17,17,0,0,1-3.66.83"/><path class="cls-2" d="M18.44,3.62A.43.43,0,0,0,18,3.19a.43.43,0,1,0,.43.43Z"/><path class="cls-1" d="M5,5.44H8.39V6L7,7.85a1.91,1.91,0,0,1,1.15.54,1.57,1.57,0,0,1,.45,1.17,1.64,1.64,0,0,1-.56,1.31,2.08,2.08,0,0,1-1.39.48,2.22,2.22,0,0,1-1.15-.3,1.61,1.61,0,0,1-.72-.86"/><path class="cls-1" d="M10.7,7.56a2.42,2.42,0,0,1,.47,0,1.9,1.9,0,0,1,1.4.54,1.84,1.84,0,0,1,.55,1.38,1.81,1.81,0,0,1-.55,1.38,1.9,1.9,0,0,1-1.4.54,1.94,1.94,0,0,1-1.41-.54,1.84,1.84,0,0,1-.54-1.38,2,2,0,0,1,.35-1.16l1.91-2.83"/><path class="cls-1" d="M17.61,10.53a2,2,0,0,1-3.25,0,3.74,3.74,0,0,1-.58-2.19,3.78,3.78,0,0,1,.58-2.19,2,2,0,0,1,3.25,0,3.78,3.78,0,0,1,.58,2.19A3.74,3.74,0,0,1,17.61,10.53Z"/></svg>