<?xml version="1.0" encoding="utf-8"?>
<!-- Generator: Adobe Illustrator 26.0.1, SVG Export Plug-In . SVG Version: 6.00 Build 0)  -->
<svg version="1.1" id="Layer_1" xmlns="http://www.w3.org/2000/svg" xmlns:xlink="http://www.w3.org/1999/xlink" x="0px" y="0px"
	 viewBox="0 0 60 60" style="enable-background:new 0 0 60 60;" xml:space="preserve">
<style type="text/css">
	.st0{fill:none;stroke:#333333;stroke-width:2;stroke-linecap:round;stroke-miterlimit:10;}
	.st1{fill:none;stroke:#333333;stroke-width:1.8717;stroke-linecap:round;stroke-miterlimit:10;}
	.st2{fill:none;stroke:#333333;stroke-width:1.8976;stroke-linecap:round;stroke-miterlimit:10;}
</style>
<g>
	<g>
		<path class="st0" d="M1.9,59c0.2-0.1,0.4-0.2,0.6-0.3c1.9-1,4.1-1.7,6.3-2.3c5.9-1.6,12.1-2.3,18.4-2.5c6.2-0.2,12.3,0.1,18.3,1.2
			c3.9,0.7,7.7,1.6,11.1,3.2c0.5,0.2,1,0.5,1.5,0.7"/>
		<g>
			<path class="st0" d="M19.9,44.4c0.3,0,0.5-0.1,0.7-0.1c0.8-0.1,1.7-0.2,2.5-0.4c3.9-1.1,6.7-3.4,8.1-7.3c0.9-2.4,0.9-4.8,0.6-7.3
				c-0.4-2.7-1-5.3-1.8-7.9c-1-3.2-2.2-6.2-4-9c-0.9-1.4-2-2.8-3.4-3.7C20.2,7,17.6,7,15.3,8.6c-1.5,1-2.6,2.4-3.5,3.9
				C10.1,15.1,8.9,18,8,20.9c-1,3.3-2,6.6-2.1,10c-0.1,1.9,0.2,3.8,0.9,5.5c1.7,4.1,4.9,6.4,9.1,7.5c0.6,0.2,1.3,0.2,2,0.4"/>
			<line class="st0" x1="18.9" y1="20.2" x2="18.9" y2="54"/>
			<line class="st0" x1="14.2" y1="24.4" x2="18.9" y2="28.2"/>
			<line class="st0" x1="11" y1="30.3" x2="18.9" y2="36.6"/>
			<line class="st0" x1="23.7" y1="24.4" x2="18.9" y2="28.2"/>
			<line class="st0" x1="26.8" y1="30.3" x2="18.9" y2="36.6"/>
		</g>
		<g>
			<path class="st0" d="M41.9,52.1c0-2.6,0-5.1,0-7.7c0.1,0,0.1,0,0.2,0c0.1,0.1,0.3,0.1,0.4,0.2c2.1,0.9,4.3,1.1,6.5,0.6
				c4.3-1.1,7.8-5.3,7.1-10.7c-0.5-3.2-2.2-5.5-5-7c-0.4-0.2-0.6-0.5-0.7-0.9c-0.4-1-0.8-1.9-1.3-2.8c-2.4-3.8-6.9-5.4-11.1-4
				c-1,0.3-1.9,0.8-2.7,1.5"/>
			<line class="st0" x1="41.9" y1="53.9" x2="41.9" y2="30"/>
			<line class="st0" x1="41.9" y1="35.7" x2="46.3" y2="33.8"/>
			<line class="st0" x1="41.8" y1="39.6" x2="36.6" y2="36.6"/>
			<path class="st0" d="M41.9,44.4c0,0-5.5,3-9.8-0.5"/>
		</g>
		<g>
			<g>
				<line class="st0" x1="47" y1="1.1" x2="48" y2="3.5"/>
				<line class="st0" x1="51.6" y1="11.9" x2="52.6" y2="14.3"/>
			</g>
			<g>
				<line class="st0" x1="52.5" y1="1" x2="51.5" y2="3.5"/>
				<line class="st0" x1="48.1" y1="11.9" x2="47.1" y2="14.3"/>
			</g>
			<g>
				<line class="st0" x1="56.4" y1="4.9" x2="54" y2="5.9"/>
				<line class="st0" x1="45.6" y1="9.5" x2="43.2" y2="10.5"/>
			</g>
			<g>
				<line class="st0" x1="56.5" y1="10.4" x2="54" y2="9.4"/>
				<line class="st0" x1="45.6" y1="6" x2="43.1" y2="5"/>
			</g>
			<path class="st0" d="M45.9,7.7c0,2.2,1.7,4,3.9,4c2.2,0,4-1.7,4-3.9c0-2.2-1.7-4-3.9-4C47.7,3.7,45.9,5.4,45.9,7.7z"/>
		</g>
	</g>
</g>
</svg>
