<?xml version="1.0" encoding="utf-8"?>
<!-- Generator: Adobe Illustrator 26.0.1, SVG Export Plug-In . SVG Version: 6.00 Build 0)  -->
<svg version="1.1" id="Layer_1" xmlns="http://www.w3.org/2000/svg" xmlns:xlink="http://www.w3.org/1999/xlink" x="0px" y="0px"
	 viewBox="0 0 60 60" style="enable-background:new 0 0 60 60;" xml:space="preserve">
<style type="text/css">
	.st0{fill:none;stroke:#333333;stroke-width:2;stroke-linecap:round;stroke-miterlimit:10;}
	.st1{fill:none;stroke:#333333;stroke-width:1.8717;stroke-linecap:round;stroke-miterlimit:10;}
	.st2{fill:none;stroke:#333333;stroke-width:1.8976;stroke-linecap:round;stroke-miterlimit:10;}
</style>
<g>
	<g>
		<g>
			<g>
				<g>
					<path class="st0" d="M30,1c3.5,0.1,6.9,0.2,10.3,0.8c3.1,0.5,6.2,1.4,8.9,3c3.4,2,5.7,5,7.2,8.6c1.2,3,1.8,6.2,2.1,9.4
						c0.5,4.5,0.5,9.1,0.3,13.6c-0.2,3.7-0.8,7.4-2.2,10.9c-1.8,4.4-5,7.4-9.4,9.2c-2.8,1.2-5.8,1.7-8.8,2.1
						c-4.6,0.5-9.2,0.5-13.8,0.3c-3.9-0.2-7.8-0.8-11.4-2.2c-5-2-8.4-5.5-10.2-10.6c-1.1-3-1.6-6-1.8-9.2c-0.3-4-0.4-8-0.1-12
						c0.2-4,0.8-7.9,2.3-11.7C5.4,8.2,9,4.9,14,3.2c3-1.1,6.1-1.6,9.3-1.8C25.5,1.2,27.8,1.1,30,1z"/>
				</g>
			</g>
			<line class="st0" x1="37.1" y1="58" x2="37.1" y2="40.5"/>
			<line class="st0" x1="1" y1="26.4" x2="22.9" y2="26.4"/>
			<line class="st0" x1="37.1" y1="1.6" x2="37.1" y2="15"/>
		</g>
	</g>
	<line class="st0" x1="22.9" y1="20.2" x2="22.9" y2="32.6"/>
</g>
</svg>
