<?xml version="1.0" encoding="utf-8"?>
<!-- Generator: Adobe Illustrator 26.0.1, SVG Export Plug-In . SVG Version: 6.00 Build 0)  -->
<svg version="1.1" id="Layer_1" xmlns="http://www.w3.org/2000/svg" xmlns:xlink="http://www.w3.org/1999/xlink" x="0px" y="0px"
	 viewBox="0 0 28 46" style="enable-background:new 0 0 28 46;" xml:space="preserve">
<style type="text/css">
	.st0{fill:#FFFFFF;}
</style>
<g>
	<g>
		<path class="st0" d="M28,33.8C16.4,38.9,15.1,45.5,15,46c0,0,0,0,0,0l-1-0.1h0l-1-0.1c0-0.1,0.2-1.2,1-2.9c0.3-0.5,0.6-1.1,1-1.7
			c1.8-2.7,5.4-6.2,12.2-9.2L28,33.8z"/>
	</g>
	<g>
		<path class="st0" d="M15,45.8l-1,0.1h0L13,46v0c0,0,0,0,0,0c-0.1-0.5-1.4-7-13-12.1l0,0l0.8-1.8c6.8,3,10.3,6.5,12.1,9.2
			c0.4,0.6,0.7,1.2,1,1.7C14.8,44.5,15,45.6,15,45.8z"/>
	</g>
	<g>
		<rect x="13" class="st0" width="2" height="46"/>
	</g>
</g>
</svg>
