<?xml version="1.0" encoding="utf-8"?>
<!-- Generator: Adobe Illustrator 26.0.1, SVG Export Plug-In . SVG Version: 6.00 Build 0)  -->
<svg version="1.1" id="Layer_1" xmlns="http://www.w3.org/2000/svg" xmlns:xlink="http://www.w3.org/1999/xlink" x="0px" y="0px"
	 viewBox="0 0 32 32" style="enable-background:new 0 0 32 32;" xml:space="preserve">
<style type="text/css">
	.st0{fill:#FFFFFF;}
</style>
<g>
	<g>
		<g>
			<path class="st0" d="M16,23.7c-0.6,0-1-0.4-1-1V1c0-0.6,0.4-1,1-1s1,0.4,1,1v21.7C17,23.3,16.6,23.7,16,23.7z"/>
		</g>
		<g>
			<g>
				<path class="st0" d="M16.1,23.7c-1.5,0-2.9-0.6-4-1.8L6,15.5c-0.4-0.4-0.4-1,0-1.4s1-0.4,1.4,0l6.1,6.4c0.7,0.7,1.6,1.1,2.6,1.1
					l0,0c0.9,0,1.9-0.4,2.6-1.2l6-6.3c0.4-0.4,1-0.4,1.4,0s0.4,1,0,1.4l-6,6.3C19,23.1,17.5,23.7,16.1,23.7L16.1,23.7z"/>
			</g>
		</g>
	</g>
	<g>
		<path class="st0" d="M16.1,32c-1.1,0-2.2-0.1-3.3-0.2c-2-0.2-3.7-0.7-5.2-1.4c-2.4-1.2-4.1-3.2-5-6c-0.2-0.6-0.4-1.3-0.5-2
			c-0.1-0.5,0.2-1.1,0.8-1.2c0.4-0.1,1,0.2,1.1,0.8c0.1,0.7,0.3,1.2,0.5,1.8c0.8,2.3,2.1,3.9,4,4.8c1.3,0.6,2.7,1,4.5,1.2
			c2.5,0.3,4.9,0.2,7.1-0.1c1.2-0.2,2.3-0.5,3.3-1c2.2-1,3.6-2.9,4.4-5.6c0.1-0.4,0.2-0.8,0.3-1.2c0.1-0.5,0.6-0.9,1.2-0.8
			c0.5,0.1,0.9,0.6,0.8,1.2c-0.1,0.4-0.2,0.9-0.3,1.3c-0.9,3.3-2.7,5.6-5.4,6.8c-1.2,0.5-2.4,0.9-3.8,1.1C19,31.9,17.5,32,16.1,32z"
			/>
	</g>
</g>
</svg>
