<svg id="Layer_1" data-name="Layer 1" xmlns="http://www.w3.org/2000/svg" viewBox="0 0 24 24"><defs><style>.cls-1{fill:none;stroke:#fff;stroke-linecap:round;stroke-linejoin:round;}</style></defs><line class="cls-1" x1="15.18" y1="6.09" x2="15.18" y2="15.46"/><line class="cls-1" x1="15.18" y1="21.09" x2="15.18" y2="14.46"/><line class="cls-1" x1="15.18" y1="14.46" x2="18.64" y2="16.18"/><path class="cls-1" d="M18.64,21V6.18a1.44,1.44,0,0,0-.37-1.09,19.93,19.93,0,0,0-2.54-1.81c-.37-.28-.82-.46-1.18-.19L6,7.28a1.87,1.87,0,0,0-.91,1.27v8.27"/><line class="cls-1" x1="5.27" y1="12.28" x2="15.18" y2="9"/><path class="cls-1" d="M3.09,21.09V18.46A1.44,1.44,0,0,1,4,17l1.09-.27,10.09-2.36h0"/><path class="cls-1" d="M18.64,9l1.91,1.91A1.69,1.69,0,0,1,21,12v8.91"/><line class="cls-1" x1="22" y1="21.09" x2="2" y2="21.09"/></svg>