<?xml version="1.0" encoding="utf-8"?>
<!-- Generator: Adobe Illustrator 26.0.1, SVG Export Plug-In . SVG Version: 6.00 Build 0)  -->
<svg version="1.1" id="Layer_1" xmlns="http://www.w3.org/2000/svg" xmlns:xlink="http://www.w3.org/1999/xlink" x="0px" y="0px"
	 viewBox="0 0 23 23" style="enable-background:new 0 0 23 23;" xml:space="preserve">
<style type="text/css">
	.st0{opacity:0.5;fill:#333333;}
	.st1{fill:#FFFFFF;}
	.st2{fill:none;stroke:#333333;stroke-width:2;stroke-linecap:round;stroke-miterlimit:10;}
	.st3{opacity:0.2;fill:#FFFFFF;}
	.st4{fill:none;stroke:#FFFFFF;stroke-width:2;stroke-miterlimit:10;}
	.st5{fill:none;stroke:#FFFFFF;stroke-linecap:round;stroke-miterlimit:10;}
	.st6{fill:#131516;}
	.st7{fill:none;stroke:#E85A24;stroke-miterlimit:10;}
	.st8{fill:#333333;}
	.st9{fill:none;stroke:#B6B7B7;stroke-width:2;stroke-linecap:round;stroke-miterlimit:10;}
	.st10{fill:none;stroke:#E85A24;stroke-linecap:round;stroke-miterlimit:10;}
</style>
<g>
	<g>
		<line class="st5" x1="15" y1="5" x2="15" y2="15.3"/>
		<line class="st5" x1="15" y1="21.5" x2="15" y2="14.2"/>
		<line class="st5" x1="15" y1="14.2" x2="18.8" y2="16.1"/>
		<path class="st5" d="M18.8,21.4l0-16.3c0-0.5-0.1-0.9-0.4-1.2c-0.7-0.6-1.8-1.4-2.8-2c-0.4-0.3-0.9-0.5-1.3-0.2L4.9,6.3
			c-0.5,0.3-0.9,0.8-1,1.4c0,0.1,0,0.1,0,0.2v8.9"/>
		<line class="st5" x1="4.1" y1="11.8" x2="15" y2="8.2"/>
		<path class="st5" d="M1.7,21.5v-2.9c0-0.8,0.4-1.4,1-1.6l1.2-0.3L15,14.1l0,0"/>
		<path class="st5" d="M18.8,8.2l2.1,2.1c0.3,0.3,0.5,0.8,0.5,1.2v9.8"/>
	</g>
	<line class="st5" x1="22.5" y1="21.5" x2="0.5" y2="21.5"/>
</g>
</svg>
