<?xml version="1.0" encoding="utf-8"?>
<!-- Generator: Adobe Illustrator 26.0.1, SVG Export Plug-In . SVG Version: 6.00 Build 0)  -->
<svg version="1.1" id="Layer_1" xmlns="http://www.w3.org/2000/svg" xmlns:xlink="http://www.w3.org/1999/xlink" x="0px" y="0px"
	 viewBox="0 0 32 32" style="enable-background:new 0 0 32 32;" xml:space="preserve">
<style type="text/css">
	.st0{fill:none;stroke:#414242;stroke-miterlimit:10;}
</style>
<g>
	<g>
		<line class="st0" x1="20.7" y1="7.8" x2="20.7" y2="20.8"/>
		<line class="st0" x1="20.7" y1="28.7" x2="20.7" y2="19.4"/>
		<line class="st0" x1="20.7" y1="19.4" x2="25.6" y2="21.8"/>
		<path class="st0" d="M25.6,28.5l0-20.6c0-0.6-0.2-1.1-0.5-1.5c-0.9-0.7-2.4-1.7-3.6-2.6c-0.6-0.4-1.1-0.6-1.7-0.2L7.6,9.4
			c-0.7,0.3-1.2,1-1.3,1.8c0,0.1,0,0.2,0,0.2v11.2"/>
		<line class="st0" x1="6.5" y1="16.4" x2="20.7" y2="11.9"/>
		<path class="st0" d="M3.5,28.6v-3.7c0-1,0.5-1.8,1.3-2l1.6-0.3l14.4-3.3l0,0"/>
		<path class="st0" d="M25.6,11.9l2.7,2.7c0.4,0.4,0.6,1,0.6,1.6v12.5"/>
	</g>
	<line class="st0" x1="2" y1="28.7" x2="30" y2="28.7"/>
</g>
</svg>
