<?xml version="1.0" encoding="utf-8"?>
<!-- Generator: Adobe Illustrator 26.0.1, SVG Export Plug-In . SVG Version: 6.00 Build 0)  -->
<svg version="1.1" id="Layer_1" xmlns="http://www.w3.org/2000/svg" xmlns:xlink="http://www.w3.org/1999/xlink" x="0px" y="0px"
	 viewBox="0 0 60 60" style="enable-background:new 0 0 60 60;" xml:space="preserve">
<style type="text/css">
	.st0{fill:none;stroke:#333333;stroke-width:2;stroke-linecap:round;stroke-miterlimit:10;}
</style>
<g>
	<g>
		<g>
			<line class="st0" x1="36.8" y1="11.4" x2="36.8" y2="41.1"/>
			<line class="st0" x1="36.8" y1="59" x2="36.8" y2="37.8"/>
			<line class="st0" x1="36.8" y1="37.8" x2="49.3" y2="43.4"/>
			<path class="st0" d="M49.4,58.6V11.7c0.1-1.3-0.3-2.6-1.1-3.5c-1.9-1.7-6.4-4.3-8.9-6.2c-1.1-0.9-2.3-1.4-3.4-0.5L13.1,15.1
				c-1.4,0.8-2.4,2.3-2.6,4c0,0.2,0,0.3,0,0.5v25.6"/>
			<line class="st0" x1="10.9" y1="31.1" x2="36.8" y2="20.7"/>
			<path class="st0" d="M4.8,58.9v-8.4c0-2.2,1.1-4.2,2.6-4.5l3.2-0.8L37,37.7l0,0"/>
			<path class="st0" d="M49.3,20.7l5.4,6.2c0.8,1,1.2,2.3,1.2,3.6v28.4"/>
		</g>
		<line class="st0" x1="59" y1="59" x2="1" y2="59"/>
	</g>
</g>
</svg>
