<?xml version="1.0" encoding="utf-8"?>
<!-- Generator: Adobe Illustrator 26.0.1, SVG Export Plug-In . SVG Version: 6.00 Build 0)  -->
<svg version="1.1" id="Layer_1" xmlns="http://www.w3.org/2000/svg" xmlns:xlink="http://www.w3.org/1999/xlink" x="0px" y="0px"
	 viewBox="0 0 32 32" style="enable-background:new 0 0 32 32;" xml:space="preserve">
<g>
	<g>
		<path d="M23.9,32c-0.1,0-0.1,0-0.2,0l0,0c-2.1-0.1-4.1-0.6-6-1.5c-3.5-1.7-6.7-4-9.4-6.9c-2.7-2.6-4.9-5.7-6.6-9.2
			c-0.9-2-1.4-4-1.6-6.2c-0.3-4,2.5-7.5,6.4-8.2c1-0.2,2,0,2.9,0.3c1,0.4,1.8,1.2,2.2,2.3l1.8,5.4c0.5,1.3,0.1,2.9-0.9,3.8
			c-0.1,0.1-0.3,0.3-0.5,0.5c-0.5,0.5-0.6,1.3-0.2,1.9c1.5,2.5,3.7,4.5,6.2,5.9c0.2,0.1,0.5,0.1,0.6-0.1c0.3-0.2,0.5-0.5,0.7-0.6
			c0.9-1,2.4-1.5,3.8-1l5.8,1.4c1.6,0.4,2.9,1.8,3,3.5c0.3,2-0.4,4.1-1.8,5.6c-1.1,1.3-2.6,2.2-4.3,2.7C25.2,31.9,24.5,32,23.9,32z
			 M23.7,30c0.6,0,1.1,0,1.6-0.2c1.3-0.3,2.4-1.1,3.3-2.1c1.1-1.1,1.5-2.6,1.3-4c-0.1-0.9-0.7-1.6-1.5-1.8l-5.9-1.5
			c-0.7-0.2-1.3,0-1.8,0.5c-0.2,0.2-0.5,0.5-0.9,0.8c-0.8,0.7-2,0.8-2.9,0.3c-2.8-1.5-5.2-3.8-6.9-6.6c-0.8-1.4-0.6-3.2,0.5-4.3
			c0.2-0.2,0.4-0.4,0.5-0.6c0.5-0.5,0.7-1.1,0.4-1.7L9.6,3.3c-0.2-0.5-0.5-0.9-1-1.1C8,2,7.4,1.9,6.8,2C3.9,2.5,1.8,5.1,2,8.1
			c0.2,1.9,0.7,3.8,1.4,5.5c1.5,3.2,3.6,6.1,6.2,8.6c2.6,2.7,5.6,4.8,8.9,6.5C20.2,29.5,22,29.9,23.7,30z"/>
	</g>
</g>
</svg>
