<svg id="Layer_1" data-name="Layer 1" xmlns="http://www.w3.org/2000/svg" viewBox="0 0 78 64"><defs><style>.cls-1{fill:none;stroke:#000;stroke-linecap:round;stroke-linejoin:round;stroke-width:4px;}</style></defs><g id="HbKWC7.tif"><path class="cls-1" d="M31.55,62V34.19c0-.16-.05-.21-.21-.21h-7C24,34,24,34,24,33.64V24c0-.31,0-.31.31-.31h6.92c.29,0,.29,0,.29-.28,0-1.25,0-2.52,0-3.77s.17-2.3.3-3.44a20.59,20.59,0,0,1,.79-3.76,16.79,16.79,0,0,1,3.11-6,10.09,10.09,0,0,1,3.73-2.67A17.93,17.93,0,0,1,43,2.65a28.9,28.9,0,0,1,3.6-.52A52.06,52.06,0,0,1,53,2.07l.7,0c.15,0,.23,0,.22.21v9.78c0,.4,0,.38-.41.36-1.21,0-2.41-.11-3.62-.11a10.39,10.39,0,0,0-3.46.54,5.09,5.09,0,0,0-3.59,4.88c-.08,1.89-.13,3.78-.18,5.67,0,.32,0,.32.31.32H53.65c.32,0,.32,0,.32.33v9.61c0,.32,0,.32-.34.32H43.05c-.36,0-.36,0-.36.36v27.3c0,.12,0,.22,0,.33C39,62,35.26,62,31.55,62Z"/></g></svg>