<?xml version="1.0" encoding="utf-8"?>
<!-- Generator: Adobe Illustrator 26.0.1, SVG Export Plug-In . SVG Version: 6.00 Build 0)  -->
<svg version="1.1" id="Layer_1" xmlns="http://www.w3.org/2000/svg" xmlns:xlink="http://www.w3.org/1999/xlink" x="0px" y="0px"
	 viewBox="0 0 78 64" style="enable-background:new 0 0 78 64;" xml:space="preserve">
<style type="text/css">
	.st0{fill:#666666;}
</style>
<g id="HbKWC7.tif">
	<path class="st0" d="M31.5,62V34.2c0-0.2,0-0.2-0.2-0.2h-7C24,34,24,34,24,33.6V24c0-0.3,0-0.3,0.3-0.3h6.9c0.3,0,0.3,0,0.3-0.3
		c0-1.2,0-2.5,0-3.8s0.2-2.3,0.3-3.4c0.1-1.3,0.4-2.5,0.8-3.8c0.6-2.2,1.7-4.2,3.1-6c1-1.2,2.3-2.1,3.7-2.7c1.1-0.5,2.3-0.9,3.5-1.1
		c1.2-0.2,2.4-0.4,3.6-0.5C48.7,2,50.9,2,53,2.1h0.7c0.2,0,0.2,0,0.2,0.2v9.8c0,0.4,0,0.4-0.4,0.4c-1.2,0-2.4-0.1-3.6-0.1
		c-1.2,0-2.3,0.2-3.5,0.5c-2.1,0.7-3.6,2.6-3.6,4.9c-0.1,1.9-0.1,3.8-0.2,5.7c0,0.3,0,0.3,0.3,0.3h10.7c0.3,0,0.3,0,0.3,0.3v9.6
		c0,0.3,0,0.3-0.3,0.3H43c-0.4,0-0.4,0-0.4,0.4v27.3c0,0.1,0,0.2,0,0.3C39,62,35.3,62,31.5,62z"/>
</g>
</svg>
