<?xml version="1.0" encoding="utf-8"?>
<!-- Generator: Adobe Illustrator 26.0.1, SVG Export Plug-In . SVG Version: 6.00 Build 0)  -->
<svg version="1.1" id="Layer_1" xmlns="http://www.w3.org/2000/svg" xmlns:xlink="http://www.w3.org/1999/xlink" x="0px" y="0px"
	 viewBox="0 0 34 34" style="enable-background:new 0 0 34 34;" xml:space="preserve">
<style type="text/css">
	.st0{fill:#FFFFFF;}
	.st1{fill:none;stroke:#FFFFFF;stroke-width:2;stroke-linecap:round;stroke-miterlimit:10;}
</style>
<g>
	<g>
		<g>
			<g>
				<path class="st0" d="M17.1,34c-1.01,0-2.04-0.03-3.1-0.1c-2.72-0.16-4.75-0.56-6.61-1.29c-3-1.18-5.08-3.34-6.18-6.44
					c-0.54-1.53-0.88-3.22-1.06-5.31c-0.18-2.18-0.21-4.46-0.07-6.78c0.11-1.89,0.37-4.37,1.33-6.76c1.19-2.95,3.35-4.99,6.43-6.08
					c1.61-0.57,3.37-0.91,5.37-1.05c0.86-0.06,1.73-0.1,2.59-0.14L17,0l0.04,0c1.87,0.04,3.87,0.12,5.84,0.44
					c2.12,0.34,3.8,0.9,5.27,1.77c1.98,1.17,3.45,2.93,4.37,5.24c0.63,1.57,1.02,3.3,1.24,5.45c0.26,2.55,0.31,5.13,0.15,7.68
					c-0.16,2.61-0.57,4.57-1.31,6.34c-1.1,2.62-3.03,4.51-5.71,5.61c-1.48,0.61-3.1,0.99-5.11,1.22C20.26,33.92,18.71,34,17.1,34z
					 M17.03,2l-1.12,0.05c-0.85,0.04-1.7,0.08-2.55,0.14c-1.82,0.13-3.4,0.43-4.84,0.94c-2.55,0.9-4.26,2.51-5.24,4.94
					c-0.86,2.12-1.09,4.39-1.19,6.13c-0.13,2.22-0.11,4.4,0.06,6.49c0.16,1.92,0.46,3.45,0.95,4.81c0.91,2.56,2.56,4.28,5.02,5.25
					c1.65,0.65,3.5,1,6,1.15c2.65,0.16,5.08,0.12,7.43-0.14c1.82-0.2,3.27-0.54,4.57-1.08c2.21-0.91,3.73-2.39,4.63-4.54
					c0.66-1.56,1.01-3.32,1.16-5.69c0.15-2.44,0.1-4.91-0.14-7.35c-0.2-1.96-0.55-3.52-1.1-4.91c-0.76-1.91-1.92-3.31-3.53-4.26
					c-1.25-0.74-2.7-1.22-4.57-1.52C20.83,2.14,19.09,2.05,17.03,2z"/>
			</g>
		</g>
	</g>
	<g>
		<path class="st0" d="M32.4,25.27c-0.53,0-0.97-0.42-1-0.96c-0.07-1.55-0.94-3.22-2.23-4.26c-1.19-0.96-2.96-1.08-4.03-0.29
			c-0.52,0.39-0.93,0.99-1.35,1.62c-0.34,0.5-0.69,1.02-1.14,1.5c-1.19,1.27-2.97,1.96-4.87,1.86c-1.9-0.09-3.61-0.93-4.68-2.31
			c-0.87-1.12-1.32-2.45-1.75-3.74c-0.52-1.55-1.01-3.01-2.17-3.74c-1.01-0.63-2.51-0.58-3.83,0.12c-1.1,0.58-3.17,2.55-3.17,5.86
			c0,0.55-0.45,1-1,1s-1-0.45-1-1c0-4.25,2.66-6.79,4.23-7.63c1.97-1.04,4.2-1.07,5.83-0.05c1.77,1.1,2.4,2.98,3.01,4.8
			c0.4,1.18,0.77,2.3,1.43,3.14c0.71,0.91,1.88,1.48,3.2,1.54c1.33,0.05,2.53-0.39,3.32-1.23c0.33-0.36,0.63-0.79,0.94-1.25
			c0.5-0.74,1.02-1.51,1.82-2.1c1.79-1.33,4.58-1.19,6.47,0.33c1.75,1.4,2.89,3.6,2.98,5.73c0.02,0.55-0.4,1.02-0.96,1.04
			C32.43,25.27,32.41,25.27,32.4,25.27z"/>
	</g>
	<g>
		<path class="st0" d="M22.43,14.53c-2.22,0-4.03-1.81-4.03-4.03s1.81-4.03,4.03-4.03s4.03,1.81,4.03,4.03S24.65,14.53,22.43,14.53z
			 M22.43,8.47c-1.12,0-2.03,0.91-2.03,2.03c0,1.12,0.91,2.03,2.03,2.03c1.12,0,2.03-0.91,2.03-2.03
			C24.46,9.38,23.55,8.47,22.43,8.47z"/>
	</g>
</g>
</svg>
