<?xml version="1.0" encoding="utf-8"?>
<!-- Generator: Adobe Illustrator 26.0.1, SVG Export Plug-In . SVG Version: 6.00 Build 0)  -->
<svg version="1.1" id="Layer_1" xmlns="http://www.w3.org/2000/svg" xmlns:xlink="http://www.w3.org/1999/xlink" x="0px" y="0px"
	 viewBox="0 0 32 32" style="enable-background:new 0 0 32 32;" xml:space="preserve">
<style type="text/css">
	.st0{fill:#FFFFFF;}
</style>
<g>
	<g>
		<path class="st0" d="M22.5,27.7h-1.7c-0.1,0-0.6,0-1.2,0c-1.4,0-3.6,0-3.9,0l0,0c-0.5,0-1-0.4-1-1s0.4-1,1-1c0.3,0,2.5,0,3.9,0
			c0.7,0,1.2,0,1.2,0h1.7c4.3,0,7.5-2.9,7.5-6.7V9.3c0-4-3.3-7.3-7.3-7.3H9.3C5.3,2,2,5.3,2,9.3V19c0,0.6-0.4,1-1,1s-1-0.4-1-1V9.3
			C0,4.2,4.2,0,9.3,0h13.4C27.8,0,32,4.2,32,9.3V19C32,24,27.9,27.7,22.5,27.7z"/>
	</g>
	<g>
		<path class="st0" d="M2.3,32c-0.5,0-1-0.2-1.4-0.5C0.3,31.1,0,30.4,0,29.7V16.2c0-0.6,0.4-1,1-1s1,0.4,1,1v13.5
			c0,0.1,0.1,0.2,0.1,0.2s0.1,0,0.1,0.1c0.9-0.7,4.6-3.2,7-3.7c2.1-0.5,4.7-0.6,6.4-0.6H16c0.3,0,0.6,0,0.8,0H17l0,0
			c0.6,0,1,0.4,1,1v1h-1h-0.3c-0.2,0-0.4,0-0.8,0h-0.4c-1.7,0-4.1,0.1-6,0.6C7.6,28.7,4.1,31,3,31.9l0,0H2.8C2.6,32,2.5,32,2.3,32z"
			/>
	</g>
</g>
<g>
	<path class="st0" d="M23.2,18.8h-6.4c-0.6,0-1-0.4-1-1s0.4-1,1-1h6.4c0.6,0,1,0.4,1,1S23.7,18.8,23.2,18.8z"/>
</g>
<g>
	<path class="st0" d="M22.6,13H11c-0.6,0-1-0.4-1-1s0.4-1,1-1h11.7c0.6,0,1,0.4,1,1S23.2,13,22.6,13z"/>
</g>
</svg>
