<svg id="Layer_1" data-name="Layer 1" xmlns="http://www.w3.org/2000/svg" viewBox="0 0 78 64"><defs><style>.cls-1{fill:none;stroke:#000;stroke-linecap:round;stroke-linejoin:round;stroke-width:4px;}</style></defs><g id="IEbfqx.tif"><path class="cls-1" d="M30,59.86c0-2.21,0-4.41,0-6.62,0-1.84,0-3.66,0-5.51,0-3.25,0-6.52,0-9.78,0-2.35,0-4.7,0-7.05s0-4.78,0-7.17q0-.57,0-1.14V22.3c.17,0,12.25-.06,12.5,0v5.17l.05,0,.14-.2a14.35,14.35,0,0,1,2.38-2.83,11.57,11.57,0,0,1,5.15-2.69,16.47,16.47,0,0,1,8.48.35,12.39,12.39,0,0,1,7.41,6.38,18,18,0,0,1,1.58,4.7,22.65,22.65,0,0,1,.35,2.57,4.52,4.52,0,0,1,0,.52,2,2,0,0,0,0,.26v23.3H55.67V39.66a15.89,15.89,0,0,0-.23-2.83,9.14,9.14,0,0,0-.86-2.65A5.17,5.17,0,0,0,52,31.72a6.6,6.6,0,0,0-2.15-.49,7.65,7.65,0,0,0-2.29.21,6.39,6.39,0,0,0-3.45,2.35,7.14,7.14,0,0,0-1.34,2.63,9.3,9.3,0,0,0-.22,2.17V59.83C38.36,59.86,34.19,59.86,30,59.86Z"/><path class="cls-1" d="M10.63,59.86V22.29H23.14V59.57c0,.09,0,.2,0,.29Z"/><path class="cls-1" d="M17.69,4.16l.62.09a6.59,6.59,0,0,1,3.32,1.41A6.18,6.18,0,0,1,23.76,9.1a6.46,6.46,0,0,1-.34,4.18,6.19,6.19,0,0,1-3.78,3.44,7.89,7.89,0,0,1-2.63.44,7.63,7.63,0,0,1-3.58-.74A6.14,6.14,0,0,1,10,11.85l-.13-.59V10c0-.21.09-.41.13-.62a6.09,6.09,0,0,1,2.24-3.76,7,7,0,0,1,3.39-1.42l.6-.09C16.72,4.16,17.2,4.16,17.69,4.16Z"/></g></svg>