<?xml version="1.0" encoding="utf-8"?>
<!-- Generator: Adobe Illustrator 26.0.1, SVG Export Plug-In . SVG Version: 6.00 Build 0)  -->
<svg version="1.1" id="Layer_1" xmlns="http://www.w3.org/2000/svg" xmlns:xlink="http://www.w3.org/1999/xlink" x="0px" y="0px"
	 viewBox="0 0 78 64" style="enable-background:new 0 0 78 64;" xml:space="preserve">
<style type="text/css">
	.st0{fill:#666666;}
</style>
<g id="IEbfqx.tif">
	<path class="st0" d="M30,59.9c0-2.2,0-4.4,0-6.6c0-1.8,0-3.7,0-5.5c0-3.2,0-6.5,0-9.8c0-2.3,0-4.7,0-7s0-4.8,0-7.2
		c0-0.4,0-0.8,0-1.1v-0.3c0.2,0,12.2-0.1,12.5,0v5.2l0,0l0.1-0.2c0.7-1,1.5-2,2.4-2.8c1.5-1.3,3.2-2.2,5.2-2.7
		c2.8-0.6,5.7-0.5,8.5,0.4c3.2,1,5.9,3.3,7.4,6.4c0.7,1.5,1.3,3.1,1.6,4.7c0.2,0.8,0.3,1.7,0.3,2.6c0,0.2,0,0.3,0,0.5
		c0,0.1,0,0.2,0,0.3v23.3H55.7V39.7c0-0.9-0.1-1.9-0.2-2.8c-0.1-0.9-0.4-1.8-0.9-2.7c-0.5-1.1-1.5-2-2.6-2.5
		c-0.7-0.3-1.4-0.4-2.2-0.5c-0.8,0-1.5,0-2.3,0.2c-1.4,0.4-2.6,1.2-3.5,2.3c-0.6,0.8-1.1,1.7-1.3,2.6c-0.2,0.7-0.2,1.4-0.2,2.2v21.2
		C38.4,59.9,34.2,59.9,30,59.9z"/>
	<path class="st0" d="M10.6,59.9V22.3h12.5v37.3c0,0.1,0,0.2,0,0.3C23.1,59.9,10.6,59.9,10.6,59.9z"/>
	<path class="st0" d="M17.7,4.2l0.6,0.1c1.2,0.2,2.4,0.6,3.3,1.4c1.1,0.9,1.8,2.1,2.1,3.4c0.4,1.4,0.2,2.9-0.3,4.2
		c-0.7,1.6-2.1,2.9-3.8,3.4c-0.8,0.3-1.7,0.4-2.6,0.4c-1.2,0-2.5-0.2-3.6-0.7c-1.8-0.9-3.1-2.6-3.4-4.6l-0.1-0.6V10
		c0-0.2,0.1-0.4,0.1-0.6c0.3-1.5,1.1-2.8,2.2-3.8c1-0.8,2.2-1.3,3.4-1.4l0.6-0.1C16.7,4.2,17.2,4.2,17.7,4.2z"/>
</g>
</svg>
