<?xml version="1.0" encoding="utf-8"?>
<!-- Generator: Adobe Illustrator 26.0.1, SVG Export Plug-In . SVG Version: 6.00 Build 0)  -->
<svg version="1.1" id="Layer_1" xmlns="http://www.w3.org/2000/svg" xmlns:xlink="http://www.w3.org/1999/xlink" x="0px" y="0px"
	 viewBox="0 0 45.2 52" style="enable-background:new 0 0 45.2 52;" xml:space="preserve">
<style type="text/css">
	.st0{fill:none;stroke:#FFFFFF;stroke-width:3;stroke-miterlimit:10;}
</style>
<g>
	<path class="st0" d="M1.6,23C1.5,12.9,8.5,4.3,18.4,2.4c11.5-2.2,22.3,5,24.7,15.8c1.4,6.5,0,12.3-4.4,17.5c-2,2.4-4.3,4.5-6.6,6.6
		c-2.1,2-4.3,4.1-6.3,6.3c-1.6,1.8-4.6,1.9-6.3,0.1c-3.3-3.6-7-6.7-10.5-10.1c-1.6-1.6-3.2-3.3-4.4-5.3C2.6,30.1,1.6,26.5,1.6,23z"
		/>
	<path class="st0" d="M29.9,22.6c0,4-3.4,7.3-7.4,7.2c-4.1,0-7.3-3.3-7.3-7.2c0-4,3.4-7.2,7.3-7.2C26.7,15.4,29.9,18.6,29.9,22.6z"
		/>
</g>
</svg>
