<svg id="Layer_1" data-name="Layer 1" xmlns="http://www.w3.org/2000/svg" viewBox="0 0 23 23"><defs><style>.cls-1{fill:none;stroke:#fff;stroke-linecap:round;stroke-linejoin:round;}</style></defs><path class="cls-1" d="M2.75,10.25a8.58,8.58,0,0,1,7-8.58A8.76,8.76,0,0,1,20,8.25a8.07,8.07,0,0,1-1.84,7.29,27.46,27.46,0,0,1-2.75,2.75c-.87.83-1.79,1.71-2.62,2.63a1.82,1.82,0,0,1-2.63,0c-1.37-1.5-2.91-2.79-4.37-4.21A11.82,11.82,0,0,1,4,14.54,8.05,8.05,0,0,1,2.75,10.25Z"/><path class="cls-1" d="M14.54,10.08a3.07,3.07,0,1,1-3.09-3A3,3,0,0,1,14.54,10.08Z"/></svg>