<?xml version="1.0" encoding="utf-8"?>
<!-- Generator: Adobe Illustrator 26.0.1, SVG Export Plug-In . SVG Version: 6.00 Build 0)  -->
<svg version="1.1" id="Layer_1" xmlns="http://www.w3.org/2000/svg" xmlns:xlink="http://www.w3.org/1999/xlink" x="0px" y="0px"
	 viewBox="0 0 60 60" style="enable-background:new 0 0 60 60;" xml:space="preserve">
<style type="text/css">
	.st0{fill:none;stroke:#FFFFFF;stroke-width:2;stroke-miterlimit:10;}
</style>
<g id="Icons" transform="translate(-58.18 -62.92)">
	<g id="Group_667" transform="translate(58.18 64.92)">
		<g id="Group_666" transform="translate(0 19.063)">
			<path id="Path_14354" class="st0" d="M27.3,36.1c-1.1,1.1-2.9,1.1-3.9-0.1c-1.1-1.1-1.1-2.9,0.1-3.9l8.1-8.2
				c1.1-1.1,2.9-1.1,3.9,0.1c1.1,1.1,1.1,2.9-0.1,3.9l0,0L27.3,36.1z"/>
			<path id="Path_14355" class="st0" d="M39.3,18.6l0.1,11.5c0,1.5-1.3,2.7-2.8,2.7c-1.5,0-2.7-1.3-2.7-2.8"/>
			<path id="Path_14356" class="st0" d="M44.9,15.9L45,27.4c0,1.5-1.3,2.7-2.8,2.7c-1.5,0-2.7-1.3-2.7-2.8"/>
			<path id="Path_14357" class="st0" d="M22.4,33.3c-1.1,1.1-2.9,1.1-3.9-0.1c-1.1-1.1-1.1-2.9,0.1-3.9l13.1-13.1
				c1.1-1.1,2.9-1.1,3.9,0.1c1.1,1.1,1.1,2.9-0.1,3.9L22.4,33.3z"/>
			<path id="Path_14358" class="st0" d="M17.4,30.4c-1.1,1.1-2.9,1.1-3.9-0.1s-1.1-2.9,0.1-3.9l12.2-12.3c1.1-1.1,2.9-1.1,3.9,0.1
				c1.1,1.1,1.1,2.9-0.1,3.9L17.4,30.4z"/>
			<path id="Path_14359" class="st0" d="M12.4,27.6c-1.1,1.1-2.9,1.1-3.9-0.1s-1.1-2.9,0.1-3.9l7.2-7.2c1.1-1.1,2.9-1.1,3.9,0.1
				c1.1,1.1,1.1,2.9-0.1,3.9L12.4,27.6z"/>
			<path id="Path_14360" class="st0" d="M45,24.6c0,1.5,1.2,2.8,2.7,2.8s2.8-1.2,2.8-2.7l-0.1-11.5L39.5,1.7C38,0.1,35.3,0,33.7,1.6
				c-0.1,0.1-0.1,0.1-0.2,0.2l-5.7,6.1c-1.9,2.1-5.1,2.2-7.2,0.3c0,0,0,0-0.1-0.1l7.9-13.3c4.1-3.3,10-3.7,14.5-0.8l10.8,6.8H59"/>
			<path id="Path_14361" class="st0" d="M1,0.7h9l5.2-3.8c2.7-2,6.2-2.6,9.5-1.8"/>
			<path id="Line_189" class="st0" d="M1,23.7h3.6"/>
			<path id="Line_190" class="st0" d="M53.5,23.7h5.4"/>
		</g>
		<path id="Path_14362" class="st0" d="M48.1,6.3c-10.6-8.4-25.6-8.4-36.3,0"/>
	</g>
</g>
</svg>
