<?xml version="1.0" encoding="utf-8"?>
<!-- Generator: Adobe Illustrator 26.0.1, SVG Export Plug-In . SVG Version: 6.00 Build 0)  -->
<svg version="1.1" id="Layer_1" xmlns="http://www.w3.org/2000/svg" xmlns:xlink="http://www.w3.org/1999/xlink" x="0px" y="0px"
	 viewBox="0 0 110.39 110.39" style="enable-background:new 0 0 110.39 110.39;" xml:space="preserve">
<style type="text/css">
	.st0{fill:#FFFFFF;}
</style>
<g>
	<g>
		<g>
			<g>
				<path class="st0" d="M27.19,62.36h-1.51V50.89h1.51V62.36z M30.29,58.49h-4.11v-1.34h3.87c0.47,0,0.91-0.07,1.32-0.21
					c0.41-0.14,0.75-0.38,1.02-0.73c0.27-0.35,0.4-0.83,0.4-1.45c0-0.7-0.13-1.23-0.4-1.59s-0.61-0.62-1.02-0.75
					c-0.41-0.14-0.85-0.21-1.32-0.21h-3.87v-1.34h4.11c0.75,0,1.44,0.14,2.05,0.42c0.61,0.28,1.1,0.71,1.46,1.28
					c0.36,0.57,0.54,1.3,0.54,2.19c0,0.82-0.18,1.5-0.54,2.05c-0.36,0.54-0.85,0.96-1.46,1.24C31.72,58.35,31.04,58.49,30.29,58.49z
					"/>
				<path class="st0" d="M37.38,62.36h-1.49V50.89h1.49V62.36z"/>
				<path class="st0" d="M46.64,62.36h-0.96c-0.29,0-0.54-0.05-0.76-0.15s-0.4-0.27-0.52-0.5c-0.13-0.23-0.19-0.54-0.19-0.92v-3.44
					l-0.05-0.22c0-0.53-0.13-0.97-0.39-1.33c-0.26-0.36-0.73-0.54-1.43-0.54c-0.59,0-1.09,0.15-1.48,0.45
					c-0.39,0.3-0.7,0.68-0.92,1.14l-1.03-1.04c0.18-0.29,0.44-0.57,0.76-0.86s0.73-0.53,1.21-0.73c0.48-0.19,1.02-0.29,1.63-0.29
					c1,0,1.78,0.28,2.32,0.84c0.54,0.56,0.81,1.34,0.81,2.35v3.39c0,0.18,0.04,0.31,0.12,0.38c0.08,0.08,0.2,0.11,0.36,0.11h0.51
					V62.36z M41.32,62.53c-0.69,0-1.22-0.18-1.6-0.55s-0.57-0.82-0.57-1.37s0.19-1,0.57-1.37c0.38-0.37,0.86-0.68,1.46-0.96
					l3.27-1.47l0.21,1.01l-2.86,1.35c-0.39,0.18-0.67,0.37-0.86,0.55s-0.27,0.41-0.27,0.67c0,0.29,0.1,0.51,0.29,0.67
					c0.19,0.16,0.49,0.24,0.87,0.24c0.35,0,0.68-0.05,0.97-0.16c0.29-0.11,0.54-0.26,0.75-0.45c0.21-0.19,0.38-0.42,0.5-0.67
					c0.12-0.25,0.18-0.53,0.18-0.84l0.05,0.8c-0.07,0.38-0.22,0.76-0.45,1.16c-0.23,0.39-0.55,0.73-0.96,0.99
					C42.45,62.4,41.93,62.53,41.32,62.53z"/>
				<path class="st0" d="M49.6,65.08c-0.39,0-0.74-0.07-1.06-0.2c-0.32-0.13-0.59-0.3-0.81-0.5c-0.22-0.21-0.4-0.42-0.54-0.65
					l0.82-1.11c0.19,0.32,0.41,0.59,0.66,0.81c0.25,0.22,0.56,0.33,0.95,0.33c0.33,0,0.61-0.1,0.85-0.29
					c0.23-0.19,0.44-0.54,0.61-1.04l0.33-1.01l0.34,0.5H50.3l-2.79-7.82h1.59l1.8,5.32l0.56,1.76l0.58-1.76l1.76-5.32h1.59
					l-3.18,8.95c-0.27,0.75-0.63,1.28-1.08,1.58S50.18,65.08,49.6,65.08z"/>
				<path class="st0" d="M62.05,62.36h-1.51V50.89h1.34L67,58.2l1.18,1.78l-0.1-1.76v-7.33h1.51v11.47h-1.33l-5.26-7.47l-1.03-1.54
					l0.09,1.52V62.36z"/>
				<path class="st0" d="M75.34,62.53c-0.78,0-1.46-0.18-2.05-0.53s-1.05-0.85-1.39-1.5c-0.34-0.65-0.5-1.41-0.5-2.29
					s0.17-1.64,0.5-2.28c0.34-0.64,0.8-1.14,1.39-1.49s1.27-0.53,2.05-0.53c0.76,0,1.44,0.18,2.02,0.53s1.04,0.85,1.37,1.49
					c0.33,0.64,0.5,1.4,0.5,2.28s-0.17,1.64-0.5,2.29c-0.33,0.64-0.79,1.14-1.37,1.5S76.1,62.53,75.34,62.53z M75.32,61.28
					c0.48,0,0.9-0.11,1.26-0.33c0.36-0.22,0.64-0.56,0.85-1.01s0.31-1.02,0.31-1.72s-0.1-1.27-0.31-1.72s-0.49-0.79-0.85-1.01
					s-0.78-0.33-1.26-0.33c-0.46,0-0.87,0.11-1.23,0.33s-0.65,0.56-0.85,1.01c-0.2,0.45-0.3,1.02-0.3,1.72s0.1,1.27,0.3,1.72
					c0.2,0.45,0.48,0.79,0.85,1.01C74.45,61.17,74.86,61.28,75.32,61.28z"/>
				<path class="st0" d="M84.29,62.36h-1.93l-2.16-8.27h1.66l1.06,5.1l0.41,2.09l0.51-2.09l1.51-5.1h1.83l1.49,5.1l0.53,2.09
					l0.39-2.09l1.06-5.1h1.66l-2.16,8.27h-1.93l-1.42-4.85l-0.53-2.21l-0.57,2.21L84.29,62.36z"/>
			</g>
		</g>
	</g>
	<g>
		<g>
			<path class="st0" d="M55.19,107.69c-28.95,0-52.5-23.55-52.5-52.5c0-28.95,23.55-52.5,52.5-52.5c28.95,0,52.5,23.55,52.5,52.5
				C107.69,84.14,84.14,107.69,55.19,107.69z M55.19,3.64c-28.42,0-51.55,23.13-51.55,51.55c0,28.42,23.12,51.55,51.55,51.55
				s51.55-23.12,51.55-51.55C106.74,26.77,83.62,3.64,55.19,3.64z"/>
		</g>
	</g>
</g>
</svg>
