<?xml version="1.0" encoding="utf-8"?>
<!-- Generator: Adobe Illustrator 26.0.1, SVG Export Plug-In . SVG Version: 6.00 Build 0)  -->
<svg version="1.1" id="Layer_1" xmlns="http://www.w3.org/2000/svg" xmlns:xlink="http://www.w3.org/1999/xlink" x="0px" y="0px"
	 viewBox="0 0 78 64" style="enable-background:new 0 0 78 64;" xml:space="preserve">
<style type="text/css">
	.st0{fill:#666666;}
</style>
<g id="_592u79.tif">
	<path class="st0" d="M50.5,5.9h1.7h0.2L53.6,6C56,6.4,58.2,7.4,60,9c0.3,0.3,0.6,0.6,1,0.9c0.1,0.1,0.2,0.1,0.3,0.1h0.1
		c2.7-0.6,5.4-1.6,7.8-3c0.1-0.1,0.1-0.1,0.2-0.1l0,0c-1,3-3,5.5-5.6,7.2c0.2,0,0.5,0,0.7-0.1c2.2-0.3,4.4-0.9,6.5-1.8
		c0.1,0,0.2-0.1,0.3-0.1v0.1L71,12.3c-1.4,2-3,3.8-4.9,5.4l-1.4,1.1v0.4c0.1,1.8,0,3.5-0.2,5.2c-0.2,1.6-0.4,3.2-0.8,4.7
		c-1.4,5.9-4.1,11.3-8,15.9c-3.3,4-7.5,7.3-12.3,9.5c-4.4,2-9.1,3.2-13.9,3.4c-0.1,0-0.2,0-0.3,0h-3.9c-0.1,0-0.2,0-0.2,0
		c-1.1-0.1-2.2-0.2-3.3-0.3c-2-0.3-4-0.7-5.9-1.3c-3.1-1-6-2.3-8.7-4L7,52.2c3.4,0.4,6.9,0.1,10.2-0.8c3.3-0.9,6.4-2.5,9.1-4.6
		c-1.8-0.1-3.6-0.5-5.2-1.2c-1.7-0.8-3.1-1.9-4.3-3.2c-1.2-1.4-2.1-3-2.7-4.7c1,0.2,1.9,0.3,2.9,0.2c1,0,1.9-0.2,2.9-0.5
		C13.6,36,9.3,30.5,9.4,24.3c0.9,0.5,1.9,0.9,2.8,1.1c1,0.3,2,0.4,3,0.4c-5.7-3.9-7.4-11.6-3.9-17.5c3.3,4.1,7.4,7.4,12.1,9.8
		s9.8,3.7,15,4c0-0.1,0-0.2,0-0.2c-0.1-0.4-0.2-0.8-0.2-1.3C38,19,38.1,17.5,38.5,16c1.3-5.4,5.8-9.4,11.3-10
		C50.1,6,50.3,5.9,50.5,5.9z"/>
</g>
</svg>
