<svg id="Layer_1" data-name="Layer 1" xmlns="http://www.w3.org/2000/svg" viewBox="0 0 78 64"><defs><style>.cls-1{fill:none;stroke:#000;stroke-linecap:round;stroke-linejoin:round;stroke-width:4px;}</style></defs><g id="_592u79.tif" data-name="592u79.tif"><path class="cls-1" d="M50.54,5.88h1.7l.21,0,1.15.14A13,13,0,0,1,60,9c.34.29.64.59,1,.89a.21.21,0,0,0,.27.07l.14,0a27.07,27.07,0,0,0,7.8-3,1.34,1.34,0,0,1,.23-.13l0,0a13.48,13.48,0,0,1-5.64,7.18c.23,0,.46,0,.67-.07a26.34,26.34,0,0,0,6.46-1.83,1.65,1.65,0,0,0,.26-.14v.11l-.16.21a27.34,27.34,0,0,1-4.91,5.39l-1.45,1.15v.39a34.1,34.1,0,0,1-.2,5.25,35.86,35.86,0,0,1-.83,4.72,39,39,0,0,1-8,15.93,35.14,35.14,0,0,1-12.31,9.5,37.16,37.16,0,0,1-13.94,3.41c-.1,0-.19,0-.3,0H25.18a1.07,1.07,0,0,0-.25,0c-1.1-.06-2.18-.16-3.28-.32a38.09,38.09,0,0,1-5.89-1.35,37.83,37.83,0,0,1-8.73-4l-.17-.13a27.25,27.25,0,0,0,10.25-.83,26.12,26.12,0,0,0,9.13-4.63A14.19,14.19,0,0,1,21,45.53a13.24,13.24,0,0,1-4.33-3.24A13,13,0,0,1,14,37.6a12.25,12.25,0,0,0,2.89.22,11.16,11.16,0,0,0,2.87-.45A13.19,13.19,0,0,1,9.39,24.27a13.42,13.42,0,0,0,2.84,1.15,9.78,9.78,0,0,0,3,.43A13.18,13.18,0,0,1,11.29,8.31,38,38,0,0,0,23.4,18.08a37.48,37.48,0,0,0,15,4c0-.11,0-.18,0-.25-.08-.43-.15-.84-.2-1.26A12.66,12.66,0,0,1,38.49,16,13.2,13.2,0,0,1,49.84,6C50.11,6,50.32,5.91,50.54,5.88Z"/></g></svg>