<?xml version="1.0" encoding="utf-8"?>
<!-- Generator: Adobe Illustrator 26.0.1, SVG Export Plug-In . SVG Version: 6.00 Build 0)  -->
<svg version="1.1" id="Layer_1" xmlns="http://www.w3.org/2000/svg" xmlns:xlink="http://www.w3.org/1999/xlink" x="0px" y="0px"
	 viewBox="0 0 32 32" style="enable-background:new 0 0 32 32;" xml:space="preserve">
<style type="text/css">
	.st0{fill:none;stroke:#131516;stroke-miterlimit:10;}
</style>
<g>
	<g>
		<path class="st0" d="M15.1,23.4h-3.7C7.3,23.4,4,20.1,4,16c0-2.1,0.8-3.9,2.2-5.3c1.3-1.3,3.2-2.2,5.3-2.2h3.4"/>
		<path class="st0" d="M11.5,5.1l3.3,3.3c0.1,0.1,0.1,0.2,0,0.3L11.5,12"/>
	</g>
	<g>
		<path class="st0" d="M16.9,8.6h3.7c4.1,0,7.5,3.3,7.5,7.4c0,2.1-0.8,3.9-2.2,5.3c-1.4,1.4-3.2,2.2-5.3,2.2h-3.4"/>
		<path class="st0" d="M20.5,26.9l-3.3-3.3c-0.1-0.1-0.1-0.2,0-0.3l3.3-3.3"/>
	</g>
</g>
</svg>
