<svg id="Layer_1" data-name="Layer 1" xmlns="http://www.w3.org/2000/svg" viewBox="0 0 78 64"><defs><style>.cls-1{fill:none;stroke:#000;stroke-linecap:round;stroke-linejoin:round;stroke-width:4px;}</style></defs><path class="cls-1" d="M75.38,16.16s-.72-5.47-2.95-7.87A10.29,10.29,0,0,0,65,4.94c-10.4-.8-26-.8-26-.8h0s-15.59,0-26,.8A10.29,10.29,0,0,0,5.51,8.29c-2.21,2.42-2.95,7.87-2.95,7.87s-.7,6.41-.7,12.82v6A128.11,128.11,0,0,0,2.6,47.8s.72,5.47,2.95,7.87c2.84,3.15,6.53,3,8.19,3.39,6,.6,25.25.8,25.25.8s15.61,0,26-.82a10.29,10.29,0,0,0,7.45-3.35c2.21-2.4,3-7.87,3-7.87A128.11,128.11,0,0,0,76.14,35V29C76.12,22.57,75.38,16.16,75.38,16.16Z"/><polygon class="cls-1" points="29.71 18.06 29.71 45.92 52.92 31.99 29.71 18.06"/></svg>