<?xml version="1.0" encoding="utf-8"?>
<!-- Generator: Adobe Illustrator 26.0.1, SVG Export Plug-In . SVG Version: 6.00 Build 0)  -->
<svg version="1.1" id="Layer_1" xmlns="http://www.w3.org/2000/svg" xmlns:xlink="http://www.w3.org/1999/xlink" x="0px" y="0px"
	 viewBox="0 0 78 64" style="enable-background:new 0 0 78 64;" xml:space="preserve">
<style type="text/css">
	.st0{fill:#666666;}
</style>
<path class="st0" d="M75.4,16.2c0,0-0.7-5.5-3-7.9C70.5,6.2,67.8,5,65,4.9C54.6,4.1,39,4.1,39,4.1s-15.6,0-26,0.8
	c-2.9,0-5.6,1.2-7.5,3.3c-2.2,2.4-3,7.9-3,7.9S1.9,22.6,1.9,29v6c0,4.3,0.3,8.6,0.7,12.8c0,0,0.7,5.5,3,7.9c2.8,3.2,6.5,3,8.2,3.4
	c6,0.6,25.2,0.8,25.2,0.8s15.6,0,26-0.8c2.8,0,5.5-1.3,7.5-3.3c2.2-2.4,3-7.9,3-7.9c0.4-4.3,0.7-8.5,0.7-12.8v-6
	C76.1,22.6,75.4,16.2,75.4,16.2z M29.7,45.9V18.1L52.9,32L29.7,45.9z"/>
</svg>
