<?xml version="1.0" encoding="utf-8"?>
<!-- Generator: Adobe Illustrator 26.0.1, SVG Export Plug-In . SVG Version: 6.00 Build 0)  -->
<svg version="1.1" id="Layer_1" xmlns="http://www.w3.org/2000/svg" xmlns:xlink="http://www.w3.org/1999/xlink" x="0px" y="0px"
	 viewBox="0 0 96 96" style="enable-background:new 0 0 96 96;" xml:space="preserve">
<style type="text/css">
	.st0{fill:none;stroke:#000000;stroke-width:5;stroke-linecap:round;stroke-linejoin:round;}
</style>
<line class="st0" x1="58" y1="29.3" x2="58" y2="58.8"/>
<line class="st0" x1="58" y1="76.6" x2="58" y2="55.7"/>
<line class="st0" x1="58" y1="55.7" x2="68.9" y2="61.1"/>
<path class="st0" d="M68.9,76.3V29.6c0.1-1.3-0.3-2.5-1.2-3.4c-2.5-2.1-5.2-4-8-5.7c-1.2-0.9-2.6-1.5-3.7-0.6L29.1,33.1
	c-1.5,0.9-2.5,2.3-2.9,4v26"/>
<line class="st0" x1="26.8" y1="48.8" x2="58" y2="38.5"/>
<path class="st0" d="M19.9,76.6v-8.3c-0.2-2,1-3.9,2.9-4.6l3.4-0.8L58,55.4l0,0"/>
<path class="st0" d="M68.9,38.5l6,6c0.9,0.9,1.4,2.2,1.4,3.4V76"/>
<line class="st0" x1="79.5" y1="76.6" x2="16.5" y2="76.6"/>
</svg>
