<svg id="Layer_1" data-name="Layer 1" xmlns="http://www.w3.org/2000/svg" viewBox="0 0 96 96"><defs><style>.cls-1{fill:none;stroke:#000;stroke-linecap:round;stroke-linejoin:round;stroke-width:7px;}</style></defs><path class="cls-1" d="M34.51,48.22A28.66,28.66,0,0,0,47.89,61.56a2.72,2.72,0,0,0,2.71-.21l8.57-5.72a2.68,2.68,0,0,1,2.61-.24l16,6.89a2.72,2.72,0,0,1,1.65,2.85A16.47,16.47,0,0,1,63.15,79.5,46.66,46.66,0,0,1,16.5,32.85,16.47,16.47,0,0,1,30.87,16.52a2.72,2.72,0,0,1,2.85,1.65l6.89,16.09a2.73,2.73,0,0,1-.2,2.57l-5.73,8.71A2.75,2.75,0,0,0,34.51,48.22Z"/></svg>