<?xml version="1.0" encoding="utf-8"?>
<!-- Generator: Adobe Illustrator 26.0.1, SVG Export Plug-In . SVG Version: 6.00 Build 0)  -->
<svg version="1.1" id="Layer_1" xmlns="http://www.w3.org/2000/svg" xmlns:xlink="http://www.w3.org/1999/xlink" x="0px" y="0px"
	 viewBox="0 0 24 24" style="enable-background:new 0 0 24 24;" xml:space="preserve">
<style type="text/css">
	.st0{fill:none;stroke:#000000;stroke-linecap:round;stroke-linejoin:round;}
</style>
<path class="st0" d="M8.1,12.1c0.8,1.7,2.2,3,3.9,3.8c0.2,0.1,0.5,0.1,0.8,0l2.4-1.6c0.2-0.2,0.5-0.2,0.8-0.1l4.6,2
	c0.3,0.1,0.5,0.5,0.5,0.8c-0.3,2.3-2.3,4-4.7,4C9,21,3,15,3,7.7C3,5.3,4.8,3.3,7.1,3c0.3-0.1,0.7,0.1,0.8,0.5l2,4.6
	C10,8.3,10,8.6,9.9,8.8l-1.7,2.5C8,11.5,8,11.8,8.1,12.1z"/>
</svg>
