<svg id="Layer_1" data-name="Layer 1" xmlns="http://www.w3.org/2000/svg" viewBox="0 0 96 96"><defs><style>.cls-1{fill:none;stroke-linecap:round;stroke-linejoin:round;stroke-width:7px;}.cls-1,.cls-2{stroke:#000;}.cls-2{stroke-miterlimit:10;stroke-width:4px;}</style></defs><path class="cls-1" d="M17.74,80a.91.91,0,0,1-.71-.3.81.81,0,0,1-.21-1L21.4,64.87a30.87,30.87,0,0,1-4.68-16.36A31.47,31.47,0,1,1,31.86,75.44L18,79.91A.37.37,0,0,1,17.74,80Z"/><path class="cls-2" d="M36.33,35a.81.81,0,0,0-.51.2,8,8,0,0,0-3.25,6.61,15.34,15.34,0,0,0,2.44,7A27.26,27.26,0,0,0,47,59.49c4.57,2.13,8.33,2.94,11.08,2.44a8,8,0,0,0,5.69-4.78.46.46,0,0,0,0-.51l-.31-1.83a.76.76,0,0,0-.71-.61l-7.21-1.11a.94.94,0,0,0-.82.4L53.3,55.63a3,3,0,0,1-3.15,1.22,9.84,9.84,0,0,1-1.32-.51,22.72,22.72,0,0,1-8.64-6.81c-.4-.51-.61-.81-.81-1.12a2.9,2.9,0,0,1,.41-3.35l1.72-1.93a1,1,0,0,0,.21-.92L39,35.51a.79.79,0,0,0-.81-.51ZM64.78,57.56Z"/></svg>