<?xml version="1.0" encoding="utf-8"?>
<!-- Generator: Adobe Illustrator 26.0.1, SVG Export Plug-In . SVG Version: 6.00 Build 0)  -->
<svg version="1.1" id="Layer_1" xmlns="http://www.w3.org/2000/svg" xmlns:xlink="http://www.w3.org/1999/xlink" x="0px" y="0px"
	 viewBox="0 0 74 74" style="enable-background:new 0 0 74 74;" xml:space="preserve">
<style type="text/css">
	.st0{fill:#FFFFFF;}
</style>
<path id="Layer_2_7_" class="st0" d="M21.4,42.2h4.5c0.4,0,0.8,0.4,0.8,0.8v28.4c0,1.5,1.2,2.7,2.6,2.7h10.3c1.5,0,2.7-1.2,2.7-2.7
	V43c0-0.4,0.4-0.8,0.8-0.8h7.4c1.3,0,2.5-0.9,2.7-2.2l1.7-10.3c0.3-1.6-1.1-3.2-2.7-3.2h-8.8c-0.7,0-1.2-0.5-1.2-1.2v-6.6
	c0-1.7,0.9-2.6,2.7-2.6h7.8c1.5,0,2.7-1.2,2.7-2.6V2.7c0-1.5-1.2-2.7-2.7-2.7h-9.4C26.1,0,26.5,13.9,26.5,15.9v9.7
	c0,0.4-0.4,0.8-0.8,0.8h-4.5c-1.5,0-2.6,1.2-2.6,2.6v10.3C18.7,41,19.9,42.2,21.4,42.2z"/>
</svg>
