<?xml version="1.0" encoding="utf-8"?>
<!-- Generator: Adobe Illustrator 26.0.1, SVG Export Plug-In . SVG Version: 6.00 Build 0)  -->
<svg version="1.1" id="Layer_1" xmlns="http://www.w3.org/2000/svg" xmlns:xlink="http://www.w3.org/1999/xlink" x="0px" y="0px"
	 viewBox="0 0 74 74" style="enable-background:new 0 0 74 74;" xml:space="preserve">
<style type="text/css">
	.st0{fill:#FFFFFF;}
</style>
<path class="st0" d="M0,72.2c0,1,0.8,1.8,1.8,1.8h12.7c1,0,1.8-0.8,1.8-1.8V28.1c0-1-0.8-1.8-1.8-1.8H1.8c-1,0-1.8,0.8-1.8,1.8V72.2
	z M55.5,28c-6.2,0-10.5,2.5-12.9,5.1c-0.5,0.5-1.5,0.1-1.5-0.7v-4.2c0-1-0.8-1.8-1.8-1.8H26.5c-1,0-1.8,0.8-1.8,1.8
	c0.1,7.8,0,36.7,0,44c0,1,0.8,1.8,1.8,1.8h13c1,0,1.8-0.8,1.8-1.8V49.4c0-1.4,0-2.7,0.4-3.7c1.1-2.7,3.6-5.6,7.8-5.6
	c5.6,0,8.2,4.2,8.2,10.4v21.8c0,1,0.8,1.8,1.8,1.8h12.7c1,0,1.8-0.8,1.8-1.8V48.7C73.9,34.6,65.8,28,55.5,28z M8.1,14.9
	c5.2,0,8.3-3.3,8.3-7.4C16.3,3.2,13.3,0,8.2,0S0,3.2,0,7.4S3.2,14.9,8.1,14.9z"/>
</svg>
