<?xml version="1.0" encoding="utf-8"?>
<!-- Generator: Adobe Illustrator 26.0.1, SVG Export Plug-In . SVG Version: 6.00 Build 0)  -->
<svg version="1.1" id="Layer_1" xmlns="http://www.w3.org/2000/svg" xmlns:xlink="http://www.w3.org/1999/xlink" x="0px" y="0px"
	 viewBox="0 0 74 74" style="enable-background:new 0 0 74 74;" xml:space="preserve">
<style type="text/css">
	.st0{fill:#FFFFFF;}
</style>
<path id="Layer_2_3_" class="st0" d="M19.5,74h35c10.8,0,19.6-8.9,19.6-19.9V19.9C73.9,8.9,65.1,0,54.3,0H19.5
	C8.7,0-0.1,8.9-0.1,19.9v34.2C-0.1,65.1,8.7,74,19.5,74z M58.5,12.3c2.5,0,4.5,2,4.5,4.6s-2,4.6-4.5,4.6S54,19.6,54,17
	S56,12.3,58.5,12.3z M36.9,18.5c10,0,18,8.3,18,18.5s-8,18.5-18,18.5s-18-8.3-18-18.5S26.9,18.5,36.9,18.5z"/>
</svg>
