<?xml version="1.0" encoding="utf-8"?>
<!-- Generator: Adobe Illustrator 26.0.1, SVG Export Plug-In . SVG Version: 6.00 Build 0)  -->
<svg version="1.1" id="Layer_1" xmlns="http://www.w3.org/2000/svg" xmlns:xlink="http://www.w3.org/1999/xlink" x="0px" y="0px"
	 viewBox="0 0 74 74" style="enable-background:new 0 0 74 74;" xml:space="preserve">
<style type="text/css">
	.st0{fill:#FFFFFF;}
</style>
<path id="Layer_2_5_" class="st0" d="M7,29.5C7.2,29.5,7.2,29.5,7,29.5c-1.3,0-2.5-0.3-3.7-0.6c-1.8-0.6-3.5,1.1-3,2.8
	C2,37.8,6.8,42.6,12.8,43.8c-1.4,0.4-2.8,0.6-4.2,0.6s-2.4,1.5-1.7,2.8c2.7,4.9,7.9,8.3,13.7,8.5H22c1.5,0,2.8,1.3,2.8,2.8
	s-1.3,2.8-2.8,2.8c-1.8,0-4.1-0.1-6.3-0.7c-1.4-0.3-2.8-0.3-4.1,0.1c-2.4,0.8-4.9,1.5-7.6,1.8c-1,0.1-1.7,0.8-1.7,1.8
	c0,0.7,0.4,1.4,1.1,1.7c5.5,2.4,11.7,3.8,18.2,3.8c29.7,0,46-25.2,46-47.2c0-1.3,0.6-2.5,1.6-3.4c1.7-1.4,3.2-3,4.7-4.8
	c0.6-0.7-0.1-1.7-1-1.4c-1.7,0.6-3.4,1-5.2,1.3c-0.3,0-0.4-0.3-0.1-0.6c2.1-1.6,3.9-3.7,5.1-6.1c0.2-0.5,0.1-1-0.4-1.3
	c-0.3-0.2-0.6-0.2-0.9,0c-1.6,0.8-3.2,1.4-4.9,2s-3.7,0.1-5.1-1c-2.7-2.1-6.2-3.4-9.9-3.4c-7.5,0-13.8,5.2-15.6,12.4
	c-0.3,1.3,0.7,2.4,2,2.4c2.2-0.1,4.5-0.4,6.2-0.7c1.4-0.3,2.8,0.4,3.4,1.7c0.7,1.7-0.3,3.4-1.8,3.8c-6.5,1.8-13.7,0.6-13.7,0.6
	C21.2,22.7,11.3,17.6,4.1,9.6c-1-1.1-2.8-0.7-3.2,0.6C0.3,11.9,0,13.7,0,15.7C0,21.4,2.8,26.5,7,29.5z"/>
</svg>
