<?xml version="1.0" encoding="utf-8"?>
<!-- Generator: Adobe Illustrator 26.0.1, SVG Export Plug-In . SVG Version: 6.00 Build 0)  -->
<svg version="1.1" id="Layer_1" xmlns="http://www.w3.org/2000/svg" xmlns:xlink="http://www.w3.org/1999/xlink" x="0px" y="0px"
	 viewBox="0 0 74 74" style="enable-background:new 0 0 74 74;" xml:space="preserve">
<style type="text/css">
	.st0{fill:#FFFFFF;}
</style>
<path id="Layer_2_1_" class="st0" d="M62.1,6.9C54.2,5.9,45.7,5.3,37,5.3S19.8,5.9,11.9,7.1C5.2,8,0,13.7,0,20.5v32.9
	c0,7,5.2,12.7,11.9,13.6c7.9,1.1,16.3,1.6,25.1,1.6s17.2-0.5,25.1-1.6C69,66.1,74,60.3,74,53.5V20.5C74,13.7,68.8,7.9,62.1,6.9z
	 M49.3,41.5L35,50.7c-4.2,2.8-9.7-0.4-9.7-5.3V28.6c0-5,5.5-7.9,9.7-5.3l14.3,9.2C52.6,34.5,52.6,39.3,49.3,41.5z"/>
<path id="Layer_2_2_" class="st0" d="M62.1,6.9C54.2,5.9,45.7,5.3,37,5.3S19.8,5.9,11.9,7.1C5.2,8,0,13.7,0,20.5v32.9
	c0,7,5.2,12.7,11.9,13.6c7.9,1.1,16.3,1.6,25.1,1.6s17.2-0.5,25.1-1.6C69,66.1,74,60.3,74,53.5V20.5C74,13.7,68.8,7.9,62.1,6.9z
	 M49.3,41.5L35,50.7c-4.2,2.8-9.7-0.4-9.7-5.3V28.6c0-5,5.5-7.9,9.7-5.3l14.3,9.2C52.6,34.5,52.6,39.3,49.3,41.5z"/>
</svg>
