<?xml version="1.0" encoding="utf-8"?>
<!-- Generator: Adobe Illustrator 25.4.1, SVG Export Plug-In . SVG Version: 6.00 Build 0)  -->
<svg version="1.1" id="Layer_1" xmlns="http://www.w3.org/2000/svg" xmlns:xlink="http://www.w3.org/1999/xlink" x="0px" y="0px"
	 viewBox="0 0 76 62" style="enable-background:new 0 0 76 62;" xml:space="preserve">
<style type="text/css">
	.st0{fill:none;stroke:#000000;stroke-width:3;stroke-linecap:round;stroke-miterlimit:10;}
</style>
<path class="st0" d="M32.9,43.7h3.1c2.7,0,4.8-2.2,4.8-4.8v-15c0-2.7-2.2-4.8-4.8-4.8H23.3c-2.7,0-4.8,2.2-4.8,4.8c0,0,0,0,0,0v15
	c0,2.7,2.2,4.8,4.8,4.8h3.1"/>
<line class="st0" x1="31.5" y1="24.1" x2="36.5" y2="24.1"/>
<line class="st0" x1="41.6" y1="14.3" x2="32.9" y2="14.3"/>
<line class="st0" x1="26.4" y1="14.3" x2="17.7" y2="14.3"/>
<circle class="st0" cx="29.7" cy="14.3" r="3.3"/>
<path class="st0" d="M29.7,32.1L29.7,32.1c1.8,0,3.3,1.5,3.3,3.3v13c0,1.8-1.5,3.3-3.3,3.3l0,0c-1.8,0-3.3-1.5-3.3-3.3v-13
	C26.4,33.5,27.9,32.1,29.7,32.1z"/>
<path class="st0" d="M3,52.4h70.1c0.2,0,0.4,0.2,0.4,0.5v3.4c0,0.2-0.2,0.5-0.4,0.5H3c-0.2,0-0.5-0.2-0.5-0.5v-3.4
	C2.5,52.6,2.7,52.4,3,52.4z"/>
<line class="st0" x1="60.5" y1="27.3" x2="60.5" y2="52.4"/>
<path class="st0" d="M51.8,11.5h17.6c0.3,0,0.5,0.2,0.5,0.5v14.9c0,0.3-0.2,0.5-0.5,0.5H51.8c-0.3,0-0.5-0.2-0.5-0.5V11.9
	C51.3,11.7,51.5,11.5,51.8,11.5z"/>
<line class="st0" x1="58.4" y1="16.1" x2="58.4" y2="23.4"/>
<path class="st0" d="M58.6,15.4h3.8c0.1,0,0.3,0.1,0.3,0.3v3.8c0,0.1-0.1,0.3-0.3,0.3h-3.8c-0.1,0-0.3-0.1-0.3-0.3v-3.8
	C58.4,15.5,58.5,15.4,58.6,15.4z"/>
</svg>
