<?xml version="1.0" encoding="utf-8"?>
<!-- Generator: Adobe Illustrator 25.4.1, SVG Export Plug-In . SVG Version: 6.00 Build 0)  -->
<svg version="1.1" id="Layer_1" xmlns="http://www.w3.org/2000/svg" xmlns:xlink="http://www.w3.org/1999/xlink" x="0px" y="0px"
	 viewBox="0 0 76 62" style="enable-background:new 0 0 76 62;" xml:space="preserve">
<style type="text/css">
	.st0{fill:none;stroke:#000000;stroke-width:3;stroke-linecap:round;stroke-miterlimit:10;}
</style>
<path class="st0" d="M17.7,59.5V20.1c0-4-0.8-8.2,1.2-11.9c1.5-3,4.4-5.1,7.8-5.7c0,0,6.3-1,9.2,4.2l3.9,8.3"/>
<path class="st0" d="M37.4,16.5l4.9-1.9c3-1.2,6.3,0.3,7.5,3.3l0,0c0.1,0.3,0,0.7-0.3,0.8l-14.6,5.6c-0.3,0.1-0.7,0-0.8-0.3l0,0
	C32.9,21.1,34.4,17.7,37.4,16.5z"/>
<line class="st0" x1="44" y1="25.8" x2="45.7" y2="30.4"/>
<line class="st0" x1="38.2" y1="28.1" x2="39.9" y2="32.7"/>
<line class="st0" x1="49.8" y1="23.5" x2="51.5" y2="28.1"/>
<line class="st0" x1="48" y1="35.6" x2="49.8" y2="40.3"/>
<line class="st0" x1="42.2" y1="38.5" x2="44" y2="43.2"/>
<line class="st0" x1="53.3" y1="33.3" x2="55" y2="38"/>
<line class="st0" x1="51.5" y1="45.5" x2="53.3" y2="50.1"/>
<line class="st0" x1="45.7" y1="48.4" x2="47.5" y2="53"/>
<line class="st0" x1="56.7" y1="43.2" x2="58.5" y2="47.8"/>
</svg>
