<?xml version="1.0" encoding="utf-8"?>
<!-- Generator: Adobe Illustrator 25.4.1, SVG Export Plug-In . SVG Version: 6.00 Build 0)  -->
<svg version="1.1" id="Layer_1" xmlns="http://www.w3.org/2000/svg" xmlns:xlink="http://www.w3.org/1999/xlink" x="0px" y="0px"
	 viewBox="0 0 76 62" style="enable-background:new 0 0 76 62;" xml:space="preserve">
<style type="text/css">
	.st0{fill:none;stroke:#000000;stroke-width:3;stroke-linecap:round;stroke-miterlimit:10;}
	.st1{fill:none;stroke:#000000;stroke-width:3;stroke-miterlimit:10;}
</style>
<line class="st0" x1="10.4" y1="7.2" x2="64.5" y2="7.2"/>
<line class="st1" x1="37.7" y1="6.6" x2="37.7" y2="50.2"/>
<line class="st1" x1="61" y1="6.6" x2="61" y2="50.2"/>
<line class="st1" x1="15" y1="6.6" x2="15" y2="50.2"/>
<line class="st0" x1="22.6" y1="2.5" x2="22.6" y2="7.2"/>
<line class="st0" x1="30.1" y1="23.4" x2="22.6" y2="23.4"/>
<line class="st0" x1="30.1" y1="29.3" x2="22.6" y2="29.3"/>
<line class="st0" x1="30.1" y1="35.7" x2="22.6" y2="35.7"/>
<line class="st0" x1="29.6" y1="2.5" x2="29.6" y2="7.2"/>
<line class="st0" x1="45.8" y1="2.5" x2="45.8" y2="7.2"/>
<line class="st0" x1="52.8" y1="2.5" x2="52.8" y2="7.2"/>
<path class="st1" d="M13.9,50.2h48.3c2.2,0,4.1,1.8,4.1,4.1v5.1c0,0.1-0.1,0.2-0.2,0.2l0,0H9.9c-0.1,0-0.1-0.1-0.1-0.2l0,0v-5.1
	C9.8,52,11.6,50.2,13.9,50.2L13.9,50.2L13.9,50.2z"/>
<path class="st0" d="M49.2,24l-2.3,4.7c0,0,0,0.1,0,0.1c0,0,0,0,0,0h5.5c0,0,0.1,0,0.1,0.1c0,0,0,0,0,0l-2.8,5.6"/>
</svg>
