<?xml version="1.0" encoding="utf-8"?>
<!-- Generator: Adobe Illustrator 25.4.1, SVG Export Plug-In . SVG Version: 6.00 Build 0)  -->
<svg version="1.1" id="Layer_1" xmlns="http://www.w3.org/2000/svg" xmlns:xlink="http://www.w3.org/1999/xlink" x="0px" y="0px"
	 viewBox="0 0 76 62" style="enable-background:new 0 0 76 62;" xml:space="preserve">
<style type="text/css">
	.st0{fill:none;stroke:#000000;stroke-width:3;stroke-linecap:round;stroke-linejoin:round;}
</style>
<path class="st0" d="M9.5,31V4.2c0-1.2,0.4-1.7,1.6-1.7H65c1,0,1.5,0.5,1.5,1.6c0,18,0,35.9,0,53.9c0,1.1-0.5,1.6-1.5,1.6H11
	c-0.7,0.1-1.4-0.4-1.5-1.1c0-0.1,0-0.2,0-0.4C9.5,49,9.5,40,9.5,31z"/>
<path class="st0" d="M66.5,51.9c0-0.5-0.3-0.5-0.6-0.5c-3.7-0.4-7.1,2.3-7.5,6.1c0,0.5,0,0.9,0,1.4c0,0.5,0.2,0.6,0.7,0.6"/>
<path class="st0" d="M17.1,59.5c0.5,0,0.5-0.3,0.5-0.6c0.4-3.7-2.3-7.1-6-7.5c-0.5-0.1-1-0.1-1.4,0c-0.5,0-0.6,0.2-0.6,0.7"/>
<path class="st0" d="M66.5,10.1c0,0.5-0.3,0.5-0.6,0.5c-3.7,0.4-7.1-2.3-7.5-6.1c0-0.5,0-0.9,0-1.4c0-0.5,0.2-0.6,0.7-0.6"/>
<path class="st0" d="M17.1,2.5c0.5,0,0.5,0.3,0.5,0.6c0.4,3.7-2.3,7.1-6,7.5c-0.5,0.1-1,0.1-1.4,0c-0.5,0-0.6-0.2-0.6-0.7"/>
<line class="st0" x1="49.2" y1="29.4" x2="49.2" y2="32.6"/>
<path class="st0" d="M31.5,20.8c0,2.6-2.1,4.8-4.7,4.8s-4.8-2.1-4.8-4.7s2.1-4.8,4.7-4.8c0,0,0,0,0,0C29.4,16.1,31.5,18.2,31.5,20.8
	C31.5,20.8,31.5,20.8,31.5,20.8z"/>
<path class="st0" d="M49.2,16.1c2.6,0,4.7,2.1,4.8,4.7c0,2.6-2.1,4.7-4.7,4.8c-2.6,0-4.7-2.1-4.8-4.7c0,0,0,0,0,0
	C44.4,18.2,46.5,16.1,49.2,16.1C49.1,16.1,49.2,16.1,49.2,16.1z"/>
<line class="st0" x1="36.4" y1="20.8" x2="39.6" y2="20.8"/>
<path class="st0" d="M31.5,41.2c0,2.6-2.1,4.8-4.7,4.8s-4.8-2.1-4.8-4.7c0-2.6,2.1-4.8,4.7-4.8c0,0,0,0,0,0
	C29.4,36.4,31.5,38.5,31.5,41.2C31.6,41.1,31.6,41.1,31.5,41.2z"/>
<path class="st0" d="M49.2,36.4c2.6,0,4.7,2.1,4.8,4.7c0,2.6-2.1,4.7-4.7,4.8c-2.6,0-4.7-2.1-4.8-4.7c0,0,0,0,0,0
	C44.4,38.5,46.6,36.4,49.2,36.4C49.2,36.4,49.2,36.4,49.2,36.4z"/>
<line class="st0" x1="36.4" y1="41.2" x2="39.6" y2="41.2"/>
<line class="st0" x1="26.8" y1="29.4" x2="26.8" y2="32.6"/>
</svg>
