<?xml version="1.0" encoding="utf-8"?>
<!-- Generator: Adobe Illustrator 25.4.1, SVG Export Plug-In . SVG Version: 6.00 Build 0)  -->
<svg version="1.1" id="Layer_1" xmlns="http://www.w3.org/2000/svg" xmlns:xlink="http://www.w3.org/1999/xlink" x="0px" y="0px"
	 viewBox="0 0 76 62" style="enable-background:new 0 0 76 62;" xml:space="preserve">
<style type="text/css">
	.st0{fill:none;stroke:#000000;stroke-width:3;stroke-linecap:round;stroke-miterlimit:10;}
	.st1{fill:#FFFFFF;stroke:#000000;stroke-width:3;stroke-linecap:round;stroke-miterlimit:10;}
	.st2{fill:none;stroke:#000000;stroke-width:3;stroke-miterlimit:10;}
</style>
<path class="st0" d="M2.8,36h70.3c0.2,0,0.3,0.2,0.3,0.3v8.9c0,0.2-0.2,0.3-0.3,0.3H2.8c-0.2,0-0.3-0.2-0.3-0.3v-8.9
	C2.5,36.2,2.7,36,2.8,36z"/>
<path class="st1" d="M8.1,33h7.2c0.2,0,0.4,0.2,0.4,0.3v15.1c0,0.2-0.2,0.3-0.4,0.3H8.1c-0.2,0-0.4-0.2-0.4-0.3V33.3
	C7.8,33.1,7.9,33,8.1,33z"/>
<path class="st1" d="M32.3,33h11.4c1,0,1.7,0.8,1.7,1.7V47c0,1-0.8,1.7-1.7,1.7H32.3c-1,0-1.7-0.8-1.7-1.7V34.7
	C30.5,33.7,31.3,33,32.3,33z"/>
<path class="st1" d="M60.7,33h7.2c0.2,0,0.3,0.2,0.3,0.3v15.1c0,0.2-0.2,0.3-0.3,0.3h-7.2c-0.2,0-0.3-0.2-0.3-0.3V33.3
	C60.3,33.1,60.5,33,60.7,33z"/>
<line class="st2" x1="34.9" y1="32.5" x2="34.9" y2="28"/>
<line class="st2" x1="41.1" y1="28" x2="41.1" y2="32.5"/>
<path class="st2" d="M54.2,20.3h14c1.9,0.1,3.6-1.3,3.8-3.2s-1.3-3.6-3.2-3.8c-0.2,0-0.4,0-0.5,0h-14c-2.4,0-4.7,0.8-6.6,2.3
	c-0.8,0.8-1.5,1.7-2.1,2.8c-0.4,0.7-0.8,1.4-1.3,2.1c-1.3,1.4-4.3,0.8-6,0.8h-4.6c-1.8,0.1-3.2,1.7-3.1,3.5
	c-0.1,1.8,1.3,3.4,3.1,3.5h5.2c3.5,0,6.3,0,9.1-2.5C50.2,23.7,50.6,20.3,54.2,20.3z"/>
</svg>
