<?xml version="1.0" encoding="utf-8"?>
<!-- Generator: Adobe Illustrator 25.4.1, SVG Export Plug-In . SVG Version: 6.00 Build 0)  -->
<svg version="1.1" id="Layer_1" xmlns="http://www.w3.org/2000/svg" xmlns:xlink="http://www.w3.org/1999/xlink" x="0px" y="0px"
	 viewBox="0 0 76 62" style="enable-background:new 0 0 76 62;" xml:space="preserve">
<style type="text/css">
	.st0{fill:none;stroke:#000000;stroke-width:3;stroke-miterlimit:10;}
	.st1{fill:none;stroke:#000000;stroke-width:3;stroke-linecap:round;stroke-miterlimit:10;}
</style>
<path class="st0" d="M9.5,23.3h57c0.3,0,0.5,0.2,0.5,0.5v6.5c0,0.3-0.2,0.5-0.5,0.5h-57c-0.3,0-0.5-0.2-0.5-0.5v-6.5
	C9,23.6,9.2,23.3,9.5,23.3z"/>
<path class="st0" d="M18.8,2.5h17.8c0.2,0,0.4,0.2,0.4,0.4v11.6c0,0.2-0.2,0.4-0.4,0.4H18.8c-0.2,0-0.4-0.2-0.4-0.4V2.9
	C18.4,2.7,18.6,2.5,18.8,2.5z"/>
<path class="st0" d="M53.5,3.8h2.7c0.6,0,1.2,0.5,1.2,1.2v12.8c0,0.6-0.5,1.2-1.2,1.2h-2.7c-0.6,0-1.2-0.5-1.2-1.2V4.9
	C52.3,4.3,52.8,3.8,53.5,3.8z"/>
<path class="st0" d="M61.8,18.9h-2.1c-0.7,0-1.3-0.6-1.4-1.3c0,0,0,0,0,0V7.3C58.4,6.6,59,6,59.7,6c0,0,0,0,0,0h2.1
	c0.7,0,1.3,0.6,1.4,1.3c0,0,0,0,0,0v10.3C63.2,18.3,62.6,18.9,61.8,18.9C61.9,18.9,61.9,18.9,61.8,18.9z"/>
<path class="st0" d="M49.4,30.8h14c0.3,0,0.5,0.2,0.5,0.5V59c0,0.3-0.2,0.5-0.5,0.5h-14c-0.3,0-0.5-0.2-0.5-0.5V31.3
	C48.9,31,49.1,30.8,49.4,30.8z"/>
<line class="st0" x1="48.7" y1="40.2" x2="63.6" y2="40.2"/>
<line class="st0" x1="48.5" y1="49.5" x2="63.9" y2="49.5"/>
<line class="st1" x1="10.9" y1="30.8" x2="10.9" y2="59.5"/>
<line class="st1" x1="49.5" y1="18.9" x2="66" y2="18.9"/>
<line class="st1" x1="55.8" y1="34.6" x2="57.6" y2="34.6"/>
<line class="st1" x1="55.8" y1="43.9" x2="57.6" y2="43.9"/>
<line class="st1" x1="55.8" y1="53.3" x2="57.6" y2="53.3"/>
<line class="st1" x1="14.2" y1="18.9" x2="41.3" y2="18.9"/>
</svg>
