<?xml version="1.0" encoding="utf-8"?>
<!-- Generator: Adobe Illustrator 25.4.1, SVG Export Plug-In . SVG Version: 6.00 Build 0)  -->
<svg version="1.1" id="Layer_1" xmlns="http://www.w3.org/2000/svg" xmlns:xlink="http://www.w3.org/1999/xlink" x="0px" y="0px"
	 viewBox="0 0 76 62" style="enable-background:new 0 0 76 62;" xml:space="preserve">
<style type="text/css">
	.st0{fill:none;stroke:#000000;stroke-width:3;stroke-linecap:round;stroke-linejoin:round;}
</style>
<path class="st0" d="M36.8,16L36.8,16c7.1,0,12.8,5.7,12.8,12.8v30.3c0,0.2-0.2,0.4-0.4,0.4H24.4c-0.2,0-0.4-0.2-0.4-0.4V28.8
	C24,21.7,29.7,16,36.8,16z"/>
<path class="st0" d="M49.6,51.6h-9.3c-0.2,0-0.4-0.2-0.4-0.4c0,0,0,0,0,0V29.8c0-0.2,0.2-0.4,0.4-0.4l0,0h9.3"/>
<line class="st0" x1="36.8" y1="7.7" x2="36.8" y2="16"/>
<line class="st0" x1="20.5" y1="49.9" x2="24" y2="49.9"/>
<line class="st0" x1="40" y1="51.2" x2="40" y2="29.8"/>
<path class="st0" d="M20.2,59.5V25.9c0-7.6,6.1-13.7,13.7-13.7l0,0h6"/>
<path class="st0" d="M42.7,6.9c0,0,8.5-0.6,8.7,8.7"/>
<path class="st0" d="M42.7,2.5c0,0,12.5-0.6,13.1,13.1"/>
</svg>
