<?xml version="1.0" encoding="utf-8"?>
<!-- Generator: Adobe Illustrator 25.4.1, SVG Export Plug-In . SVG Version: 6.00 Build 0)  -->
<svg version="1.1" id="Layer_1" xmlns="http://www.w3.org/2000/svg" xmlns:xlink="http://www.w3.org/1999/xlink" x="0px" y="0px"
	 viewBox="0 0 76 62" style="enable-background:new 0 0 76 62;" xml:space="preserve">
<style type="text/css">
	.st0{fill:none;stroke:#000000;stroke-width:2;stroke-linecap:round;stroke-linejoin:round;}
</style>
<line class="st0" x1="35.2" y1="2.5" x2="40.8" y2="2.5"/>
<line class="st0" x1="38" y1="3.5" x2="38" y2="6"/>
<path class="st0" d="M26.1,11.4c0,0,2.3-5.6,11.8-5.4c0,0,9.1-0.6,12,5.4L26.1,11.4z"/>
<path class="st0" d="M40.3,12c0.1,1.3-0.9,2.5-2.2,2.5c-1.3,0.1-2.5-0.9-2.5-2.2c0-0.1,0-0.2,0-0.3"/>
<line class="st0" x1="31.9" y1="15.9" x2="29.5" y2="22.5"/>
<line class="st0" x1="36.1" y1="18.2" x2="35.5" y2="23.5"/>
<line class="st0" x1="39.9" y1="18.2" x2="41.5" y2="22.5"/>
<line class="st0" x1="44.1" y1="16" x2="47.5" y2="22.5"/>
<path class="st0" d="M31.1,46.5h17.7"/>
<path class="st0" d="M37.8,32.8h0.1l3.8-0.8c0.6-0.1,1.1-0.5,1.5-0.9c0.5-0.5,0.7-1.3,0.7-2h-0.2c-1.2,0.2-2.3,0.5-3.5,0.7
	c-0.4,0.1-0.7,0.2-1.1,0.4C38.3,30.8,37.7,31.8,37.8,32.8z"/>
<path class="st0" d="M33.1,30.3c-0.1-1.3-1.2-2.4-2.5-2.5c-1-0.1-2-0.1-3.1-0.2l-1,0c0.1,1.3,1.1,2.3,2.3,2.5c1,0.1,2,0.2,3,0.2
	L33.1,30.3z"/>
<path class="st0" d="M36,39.6c-0.5-1.3-1.9-2-3.3-1.7l-2,0.5l-1.8,0.4c0.4,0.9,1.2,1.5,2.1,1.7c0.5,0.1,1,0.1,1.5-0.1L36,39.6z"/>
<path class="st0" d="M42.1,40.5h3.8c0.9,0,1.7-0.3,2.3-1c0.3-0.4,0.5-0.8,0.6-1.3h-0.2c-1.3,0-2.5,0-3.8,0c-0.2,0-0.4,0-0.6,0.1
	C43.2,38.4,42.3,39.3,42.1,40.5z"/>
<path class="st0" d="M40.1,46.5c0,0-1.3-12.8-6.8-16.4"/>
<path class="st0" d="M35.7,39.5c1.8,0.6,3.3,2,3.9,3.8"/>
<path class="st0" d="M39.8,44.4c0.1-1.6,1-3.1,2.3-4"/>
<path class="st0" d="M37.6,36.2c-0.2-1.3,0.1-2.7,0.8-3.8"/>
<polyline class="st0" points="30.5,46.5 34.5,59.5 44.5,59.5 49.5,46.5 "/>
</svg>
