<?xml version="1.0" encoding="utf-8"?>
<!-- Generator: Adobe Illustrator 25.4.1, SVG Export Plug-In . SVG Version: 6.00 Build 0)  -->
<svg version="1.1" id="Layer_1" xmlns="http://www.w3.org/2000/svg" xmlns:xlink="http://www.w3.org/1999/xlink" x="0px" y="0px"
	 viewBox="0 0 76 62" style="enable-background:new 0 0 76 62;" xml:space="preserve">
<style type="text/css">
	.st0{fill:none;stroke:#747777;stroke-width:1.5;stroke-linecap:round;stroke-linejoin:round;}
	.st1{fill:none;stroke:#000000;stroke-width:3;stroke-linecap:round;stroke-linejoin:round;}
	.st2{fill:none;stroke:#000000;stroke-width:3;stroke-miterlimit:10;}
	.st3{fill:none;stroke:#000000;stroke-width:3;stroke-linecap:round;stroke-linejoin:round;stroke-miterlimit:10;}
</style>
<line class="st0" x1="-65.8" y1="-10" x2="-64.5" y2="-9.1"/>
<g>
	<polygon class="st1" points="63.1,59.5 12.9,59.5 12.9,24.1 38,2.5 63.1,24.1 	"/>
	<g>
		<g>
			<path class="st2" d="M44.7,27.4h-0.5v-4c0-1.9-1.5-3.4-3.4-3.4h-5.7c-1.9,0-3.4,1.5-3.4,3.4v4h-0.5c-2,0-3.6,1.6-3.6,3.6v14.1
				c0,2,1.6,3.6,3.6,3.6h0.5v2.4c0,0.4,0.4,0.8,0.8,0.8s0.8-0.4,0.8-0.8v-2.4h9.2v2.4c0,0.4,0.4,0.8,0.8,0.8c0.4,0,0.8-0.4,0.8-0.8
				v-2.4h0.5c2,0,3.6-1.6,3.6-3.6V31C48.4,29,46.7,27.4,44.7,27.4L44.7,27.4z"/>
			<polyline class="st2" points="44.2,48.8 42.6,48.8 31.7,48.8 			"/>
			<line class="st2" x1="31.8" y1="27.4" x2="44.2" y2="27.4"/>
		</g>
		<line class="st3" x1="38" y1="31.9" x2="38" y2="43.2"/>
		<line class="st3" x1="42.5" y1="31.9" x2="42.5" y2="43.2"/>
		<line class="st3" x1="33.5" y1="31.9" x2="33.5" y2="43.2"/>
	</g>
</g>
</svg>
