<?xml version="1.0" encoding="utf-8"?>
<!-- Generator: Adobe Illustrator 25.4.1, SVG Export Plug-In . SVG Version: 6.00 Build 0)  -->
<svg version="1.1" id="Layer_1" xmlns="http://www.w3.org/2000/svg" xmlns:xlink="http://www.w3.org/1999/xlink" x="0px" y="0px"
	 viewBox="0 0 76 62" style="enable-background:new 0 0 76 62;" xml:space="preserve">
<style type="text/css">
	.st0{fill:none;stroke:#000000;stroke-width:3;stroke-linecap:round;stroke-linejoin:round;}
	.st1{fill:#FFFFFF;stroke:#000000;stroke-width:3;stroke-linecap:round;stroke-linejoin:round;}
</style>
<polyline class="st0" points="4.9,33.5 4.9,40.8 71.1,40.8 71.1,33.5 "/>
<line class="st0" x1="2.5" y1="49.1" x2="73.5" y2="49.1"/>
<line class="st0" x1="11.9" y1="41" x2="11.9" y2="48"/>
<line class="st0" x1="16.1" y1="41" x2="16.1" y2="48"/>
<line class="st0" x1="59.9" y1="40.8" x2="59.9" y2="47.8"/>
<line class="st0" x1="64.1" y1="40.8" x2="64.1" y2="47.8"/>
<path class="st0" d="M7.8,20.9h60.3c1.7,0,3,1.3,3,3v9.4l0,0H4.9l0,0v-9.4C4.9,22.3,6.2,21,7.8,20.9z"/>
<path class="st1" d="M16.6,12.9h42.8c1.8,0,3.3,1.5,3.3,3.3v0v17.1l0,0H13.3l0,0V16.2C13.3,14.4,14.8,12.9,16.6,12.9L16.6,12.9z"/>
<line class="st0" x1="38" y1="13.4" x2="38" y2="32.8"/>
<line class="st0" x1="13.6" y1="27.9" x2="61.9" y2="27.9"/>
</svg>
