<?xml version="1.0" encoding="utf-8"?>
<!-- Generator: Adobe Illustrator 25.4.1, SVG Export Plug-In . SVG Version: 6.00 Build 0)  -->
<svg version="1.1" id="Layer_1" xmlns="http://www.w3.org/2000/svg" xmlns:xlink="http://www.w3.org/1999/xlink" x="0px" y="0px"
	 viewBox="0 0 76 62" style="enable-background:new 0 0 76 62;" xml:space="preserve">
<style type="text/css">
	.st0{fill:none;stroke:#000000;stroke-width:3;stroke-linecap:round;stroke-linejoin:round;}
</style>
<path class="st0" d="M41.9,2.5h2.5c12.1,0,21.9,9.8,21.9,21.9v9.9c0,4.9-4,8.9-8.9,8.9H28.1c-4.9,0-8.9-4-8.9-8.9v-8.3"/>
<polyline class="st0" points="66.3,26.1 41.9,26.1 41.9,2.5 "/>
<polyline class="st0" points="19.2,26.1 41.9,26.1 66.3,26.1 "/>
<circle class="st0" cx="29.5" cy="53.4" r="6.1"/>
<circle class="st0" cx="57.4" cy="53.4" r="6.1"/>
<line class="st0" x1="33.9" y1="49.2" x2="39" y2="43.3"/>
<path class="st0" d="M53,49.2L29,18.8c0,0-2.1-2.9-5-2.7H13.6c-2.3,0.2-4.1,2.1-3.9,4.5c0,0.1,0,0.2,0,0.4"/>
</svg>
