<?xml version="1.0" encoding="utf-8"?>
<!-- Generator: Adobe Illustrator 25.4.1, SVG Export Plug-In . SVG Version: 6.00 Build 0)  -->
<svg version="1.1" id="Layer_1" xmlns="http://www.w3.org/2000/svg" xmlns:xlink="http://www.w3.org/1999/xlink" x="0px" y="0px"
	 viewBox="0 0 76 62" style="enable-background:new 0 0 76 62;" xml:space="preserve">
<style type="text/css">
	.st0{fill:none;stroke:#000000;stroke-width:3;stroke-linecap:round;stroke-miterlimit:10;}
</style>
<path class="st0" d="M4.8,31.1H22l0,0v24.4l0,0H2.5l0,0V33.4C2.5,32.2,3.5,31.1,4.8,31.1z"/>
<path class="st0" d="M73.5,55.6H54l0,0V31.1l0,0h17.2c1.3,0,2.3,1,2.3,2.3V55.6L73.5,55.6z"/>
<path class="st0" d="M31.4,13.5h-8c-0.8,0-1.4,0.7-1.4,1.5v40.5h32V15c0-0.8-0.7-1.5-1.5-1.5h-8"/>
<line class="st0" x1="26.8" y1="23.4" x2="49" y2="23.4"/>
<line class="st0" x1="26.9" y1="28.9" x2="49" y2="28.9"/>
<line class="st0" x1="26.9" y1="34.4" x2="49" y2="34.4"/>
<line class="st0" x1="26.9" y1="39.9" x2="49" y2="39.9"/>
<line class="st0" x1="8.4" y1="36.6" x2="21.7" y2="36.6"/>
<line class="st0" x1="8.4" y1="41.3" x2="21.7" y2="41.3"/>
<line class="st0" x1="8.4" y1="45.7" x2="21.7" y2="45.7"/>
<line class="st0" x1="8.4" y1="50.1" x2="21.7" y2="50.1"/>
<line class="st0" x1="54" y1="36.6" x2="67.3" y2="36.6"/>
<line class="st0" x1="54" y1="41.3" x2="67.3" y2="41.3"/>
<line class="st0" x1="54" y1="45.7" x2="67.3" y2="45.7"/>
<line class="st0" x1="54" y1="50.1" x2="67.3" y2="50.1"/>
<path class="st0" d="M32.8,45.7h10.3c0.1,0,0.2,0.1,0.2,0.2c0,0,0,0,0,0v9.7l0,0H32.6l0,0v-9.6C32.6,45.8,32.7,45.7,32.8,45.7
	C32.8,45.7,32.8,45.7,32.8,45.7z"/>
<line class="st0" x1="38" y1="45.7" x2="38" y2="55.5"/>
<path class="st0" d="M35.8,10.8V6.9c0-0.3,0.2-0.5,0.5-0.5h3.5c0.3,0,0.5,0.2,0.5,0.5c0,0,0,0,0,0v3.8"/>
<path class="st0" d="M40.2,15.2V19c0,0.3-0.2,0.5-0.5,0.5c0,0,0,0,0,0h-3.5c-0.3,0-0.5-0.2-0.5-0.5v-3.8"/>
<path class="st0" d="M40.2,10.8H44c0.3,0,0.5,0.2,0.5,0.5c0,0,0,0,0,0v3.5c0,0.3-0.2,0.5-0.4,0.5c0,0,0,0,0,0h-3.8"/>
<path class="st0" d="M35.8,15.2h-3.8c-0.3,0-0.5-0.2-0.5-0.5v-3.5c0-0.3,0.2-0.5,0.5-0.5h3.8"/>
</svg>
