<?xml version="1.0" encoding="utf-8"?>
<!-- Generator: Adobe Illustrator 25.4.1, SVG Export Plug-In . SVG Version: 6.00 Build 0)  -->
<svg version="1.1" id="Layer_1" xmlns="http://www.w3.org/2000/svg" xmlns:xlink="http://www.w3.org/1999/xlink" x="0px" y="0px"
	 viewBox="0 0 76 62" style="enable-background:new 0 0 76 62;" xml:space="preserve">
<style type="text/css">
	.st0{fill:none;stroke:#000000;stroke-width:3;stroke-miterlimit:10;}
	.st1{fill:none;stroke:#000000;stroke-width:3;stroke-linecap:round;stroke-linejoin:round;}
</style>
<circle class="st0" cx="41.4" cy="53.2" r="3.4"/>
<circle class="st0" cx="59.1" cy="53.2" r="3.4"/>
<path class="st0" d="M9.2,5.3h3c0.8,0,1.5,0.7,1.5,1.5l0,0c0,0.8-0.7,1.5-1.5,1.5h-3c-0.8,0-1.5-0.7-1.5-1.5l0,0
	C7.7,6,8.4,5.3,9.2,5.3z"/>
<line class="st0" x1="67.9" y1="25.6" x2="24.7" y2="25.6"/>
<path class="st1" d="M23.2,20.3h41.1c2.2,0,4,1.8,4,4"/>
<line class="st1" x1="37.7" y1="30.6" x2="37.7" y2="41.2"/>
<line class="st1" x1="46.3" y1="30.6" x2="46.3" y2="41.2"/>
<line class="st1" x1="54.8" y1="30.6" x2="54.8" y2="41.2"/>
<path class="st0" d="M13.6,6.8h2.8C18.1,7,19.6,8,20.3,9.5l11.3,41.6l0.6,2H38"/>
<line class="st0" x1="45.4" y1="53.2" x2="55.6" y2="53.2"/>
<line class="st0" x1="62.5" y1="53.2" x2="67" y2="53.2"/>
<polyline class="st0" points="30.3,46.4 62.5,46.4 68.3,24.2 "/>
</svg>
