<?xml version="1.0" encoding="utf-8"?>
<!-- Generator: Adobe Illustrator 25.4.1, SVG Export Plug-In . SVG Version: 6.00 Build 0)  -->
<svg version="1.1" id="Layer_1" xmlns="http://www.w3.org/2000/svg" xmlns:xlink="http://www.w3.org/1999/xlink" x="0px" y="0px"
	 viewBox="0 0 76 62" style="enable-background:new 0 0 76 62;" xml:space="preserve">
<style type="text/css">
	.st0{fill:none;stroke:#000000;stroke-width:3;stroke-linecap:round;stroke-linejoin:round;}
	.st1{fill:none;stroke:#000000;stroke-width:2;stroke-linecap:round;stroke-linejoin:round;}
	.st2{fill:none;stroke:#000000;stroke-linecap:round;stroke-linejoin:round;}
</style>
<rect x="36.1" y="25.4" class="st0" width="4.9" height="10.9"/>
<line class="st1" x1="6.5" y1="2.5" x2="35.3" y2="24.7"/>
<line class="st1" x1="69.5" y1="2.5" x2="40.7" y2="24.7"/>
<line class="st1" x1="6.5" y1="59.5" x2="35.3" y2="37.3"/>
<line class="st1" x1="69.5" y1="59.5" x2="40.7" y2="37.3"/>
<polygon class="st0" points="67.8,46.8 61.9,44.2 61.6,15.9 67.4,12.2 "/>
<polygon class="st1" points="57.5,41.9 53.7,40.2 53.5,21.5 57.3,19.1 "/>
<polygon class="st2" points="50.4,39 48.1,37.8 48,24.7 50.3,23 "/>
<polygon class="st0" points="8.2,46.4 14.2,43.8 14.4,15.5 8.7,11.9 "/>
<polygon class="st1" points="18.5,41.5 22.4,39.8 22.5,21.1 18.8,18.7 "/>
<polygon class="st2" points="25.7,38.6 28,37.4 28.1,24.3 25.8,22.6 "/>
</svg>
