<?xml version="1.0" encoding="utf-8"?>
<!-- Generator: Adobe Illustrator 25.4.1, SVG Export Plug-In . SVG Version: 6.00 Build 0)  -->
<svg version="1.1" id="Layer_1" xmlns="http://www.w3.org/2000/svg" xmlns:xlink="http://www.w3.org/1999/xlink" x="0px" y="0px"
	 viewBox="0 0 76 62" style="enable-background:new 0 0 76 62;" xml:space="preserve">
<style type="text/css">
	.st0{fill:none;stroke:#000000;stroke-width:3;stroke-linecap:round;stroke-miterlimit:10;}
</style>
<rect x="2.5" y="20" class="st0" width="19.3" height="14.5"/>
<rect x="32" y="16.8" class="st0" width="35.9" height="16.6"/>
<path class="st0" d="M73.5,53.1H26.4V15.4c0-13.1,16.7-13,26-13c8.3,0,21.1,2.3,21.1,13L73.5,53.1z"/>
<circle class="st0" cx="38.1" cy="42.7" r="3.8"/>
<circle class="st0" cx="61.5" cy="42.7" r="3.8"/>
<line class="st0" x1="12.3" y1="34.5" x2="12.3" y2="58.2"/>
<line class="st0" x1="5.2" y1="58.9" x2="18.7" y2="58.9"/>
<line class="st0" x1="40.4" y1="9.9" x2="59.2" y2="9.9"/>
<line class="st0" x1="50" y1="16.8" x2="50" y2="33.3"/>
<line class="st0" x1="46.2" y1="42.7" x2="53.5" y2="42.7"/>
<path class="st0" d="M32,53.1h7.7l0,0v4.1c0,1.3-1.1,2.4-2.4,2.4l0,0h-3c-1.3,0-2.3-1.1-2.3-2.4V53.1L32,53.1z"/>
<path class="st0" d="M61.2,53.1h7.7l0,0v4.1c0,1.3-1.1,2.4-2.4,2.4h-3c-1.3,0-2.4-1.1-2.4-2.4l0,0L61.2,53.1L61.2,53.1z"/>
</svg>
