<?xml version="1.0" encoding="utf-8"?>
<!-- Generator: Adobe Illustrator 25.4.1, SVG Export Plug-In . SVG Version: 6.00 Build 0)  -->
<svg version="1.1" id="Layer_1" xmlns="http://www.w3.org/2000/svg" xmlns:xlink="http://www.w3.org/1999/xlink" x="0px" y="0px"
	 viewBox="0 0 76 62" style="enable-background:new 0 0 76 62;" xml:space="preserve">
<style type="text/css">
	.st0{fill:none;stroke:#000000;stroke-width:3;stroke-linecap:round;stroke-linejoin:round;}
</style>
<path class="st0" d="M67.6,59.5H8.4c-1.5,0-2.8-1.3-2.8-2.8c0-0.2,0-0.5,0.1-0.7L17.8,8.8c0.3-1.2,1.4-2.1,2.7-2.1h35.2
	c1.3,0,2.4,0.9,2.7,2.1L70.3,56c0.4,1.5-0.5,3-2,3.4C68.1,59.5,67.8,59.5,67.6,59.5z"/>
<line class="st0" x1="6.5" y1="54.7" x2="69.1" y2="54.7"/>
<path class="st0" d="M24.6,25.6c0,0,2.8,0.1,4,1.1c0.9,0.6,2,0.7,3,0.4l1.8-0.9c1.4-0.9,3.2-1,4.6-0.1c0,0,2.5,2.2,5.2,0.7
	c1.7-1.3,4-1.3,5.7,0c0.8,0.4,1.6,0.7,2.5,0.6"/>
<line class="st0" x1="34.9" y1="11.2" x2="44.6" y2="11.2"/>
<line class="st0" x1="35" y1="15.8" x2="44.6" y2="15.8"/>
<path class="st0" d="M30.2,2.9l2-0.3c1-0.4,2.2,0.1,2.6,1.1c0,0.1,0.1,0.2,0.1,0.3v14.2"/>
<path class="st0" d="M39.9,2.9l2-0.3c1-0.4,2.2,0.1,2.6,1.1c0,0.1,0.1,0.2,0.1,0.3v14.2"/>
</svg>
