<?xml version="1.0" encoding="utf-8"?>
<!-- Generator: Adobe Illustrator 25.4.1, SVG Export Plug-In . SVG Version: 6.00 Build 0)  -->
<svg version="1.1" id="Layer_1" xmlns="http://www.w3.org/2000/svg" xmlns:xlink="http://www.w3.org/1999/xlink" x="0px" y="0px"
	 viewBox="0 0 76 62" style="enable-background:new 0 0 76 62;" xml:space="preserve">
<style type="text/css">
	.st0{fill:none;stroke:#000000;stroke-width:3;stroke-linecap:round;stroke-linejoin:round;}
</style>
<rect x="6.5" y="2.5" class="st0" width="63" height="4.9"/>
<line class="st0" x1="9.2" y1="32.3" x2="16" y2="32.3"/>
<line class="st0" x1="9.2" y1="37" x2="16" y2="37"/>
<path class="st0" d="M9.2,7.4v51.9c0,0,4.8,1.3,9.8-3.1c0,0,0.9-4.1-2.4-18.1l-0.1-5.6c0-0.5,0.2-1,0.7-1.3
	c2.6-1.7,11.8-8.8,14-23.3"/>
<line class="st0" x1="66.4" y1="32.3" x2="59.5" y2="32.3"/>
<line class="st0" x1="66.4" y1="37" x2="59.5" y2="37"/>
<path class="st0" d="M66.4,7.4v51.9c0,0-4.8,1.3-9.8-3.1c0,0-0.9-4.1,2.4-18.1l0.1-5.6c0-0.5-0.2-1-0.7-1.3
	c-2.7-1.7-11.8-8.8-14-23.3"/>
<path class="st0" d="M26.5,21.1c0,0,12.1,6.5,22.3-0.3"/>
</svg>
