<?xml version="1.0" encoding="utf-8"?>
<!-- Generator: Adobe Illustrator 25.4.1, SVG Export Plug-In . SVG Version: 6.00 Build 0)  -->
<svg version="1.1" id="Layer_1" xmlns="http://www.w3.org/2000/svg" xmlns:xlink="http://www.w3.org/1999/xlink" x="0px" y="0px"
	 viewBox="0 0 76 62" style="enable-background:new 0 0 76 62;" xml:space="preserve">
<style type="text/css">
	.st0{fill:none;stroke:#000000;stroke-width:3;stroke-linecap:round;stroke-linejoin:round;}
</style>
<line class="st0" x1="13.2" y1="2.5" x2="13.2" y2="10.6"/>
<line class="st0" x1="17.2" y1="6.5" x2="9.2" y2="6.5"/>
<line class="st0" x1="65.6" y1="6.5" x2="57.5" y2="6.5"/>
<path class="st0" d="M11.5,16.6h3.6c0.9,0,1.7,0.8,1.7,1.7l0,0v4l0,0h-7l0,0v-4C9.9,17.4,10.6,16.6,11.5,16.6z"/>
<path class="st0" d="M61,16.6h3.6c0.9,0,1.7,0.8,1.7,1.7l0,0v4l0,0h-7l0,0v-4C59.3,17.4,60,16.6,61,16.6C61,16.6,61,16.6,61,16.6z"
	/>
<path class="st0" d="M33,16.6h10.3c3.1,0,5.7,2.6,5.7,5.7l0,0l0,0H27.4l0,0l0,0C27.3,19.2,29.9,16.6,33,16.6z"/>
<path class="st0" d="M8.3,22.3h59.4c0.7,0,1.2,0.5,1.2,1.2V29c0,0.7-0.5,1.2-1.2,1.2H8.3c-0.7,0-1.2-0.5-1.2-1.2v-5.5
	C7.1,22.8,7.6,22.3,8.3,22.3z"/>
<path class="st0" d="M9.2,30.1h57.1l0,0v28.1c0,0.7-0.5,1.2-1.2,1.2H10.4c-0.7,0-1.2-0.5-1.2-1.2l0,0L9.2,30.1L9.2,30.1z"/>
<path d="M33,45.6L40.3,34h0.1L39,44.8l0,0l5.4-0.4 M44.4,44.5l-10,11.4 M34.3,55.8l2-10.4l0,0L33,45.8L34.3,55.8z"/>
</svg>
