<?xml version="1.0" encoding="utf-8"?>
<!-- Generator: Adobe Illustrator 25.4.1, SVG Export Plug-In . SVG Version: 6.00 Build 0)  -->
<svg version="1.1" id="Layer_1" xmlns="http://www.w3.org/2000/svg" xmlns:xlink="http://www.w3.org/1999/xlink" x="0px" y="0px"
	 viewBox="0 0 76 62" style="enable-background:new 0 0 76 62;" xml:space="preserve">
<style type="text/css">
	.st0{fill:none;stroke:#000000;stroke-width:3;stroke-linecap:round;stroke-miterlimit:10;}
</style>
<line class="st0" x1="9.8" y1="42.5" x2="9.8" y2="59.5"/>
<path class="st0" d="M11.3,21.2l6.2-18.6c0-0.1,0.2-0.2,0.3-0.2c0,0,0,0,0,0l47,16.3c0.1,0.1,0.2,0.2,0.2,0.3c0,0,0,0.1-0.1,0.1
	L48.3,34c-0.1,0.1-0.2,0.1-0.3,0L11.5,21.6C11.4,21.5,11.3,21.4,11.3,21.2z"/>
<polyline class="st0" points="9.8,50.7 26.5,48.8 27.7,34 "/>
<path class="st0" d="M60.8,22.9l5,2c0.3,0.1,0.4,0.4,0.3,0.7c0,0,0,0,0,0l-3.1,8c-0.1,0.3-0.4,0.4-0.7,0.3c0,0,0,0,0,0l-9.7-3.7"/>
<path class="st0" d="M23,25.5l-0.3,0.7c-0.9,2.6,0.4,5.6,3.1,6.5l3.6,1.3c2.6,1,5.6-0.4,6.5-3.1c0,0,0,0,0,0l0.3-0.9"/>
</svg>
