<?xml version="1.0" encoding="utf-8"?>
<!-- Generator: Adobe Illustrator 25.4.1, SVG Export Plug-In . SVG Version: 6.00 Build 0)  -->
<svg version="1.1" id="Layer_1" xmlns="http://www.w3.org/2000/svg" xmlns:xlink="http://www.w3.org/1999/xlink" x="0px" y="0px"
	 viewBox="0 0 76 62" style="enable-background:new 0 0 76 62;" xml:space="preserve">
<style type="text/css">
	.st0{fill:none;stroke:#000000;stroke-width:3;stroke-linecap:round;stroke-miterlimit:10;}
	.st1{fill:none;stroke:#000000;stroke-width:2;stroke-linecap:round;stroke-miterlimit:10;}
</style>
<path class="st0" d="M2.7,54.6h70.6c0.1,0,0.2,0.1,0.2,0.2v4c0,0.1-0.1,0.2-0.2,0.2H2.7c-0.1,0-0.2-0.1-0.2-0.2v-4
	C2.5,54.7,2.6,54.6,2.7,54.6z"/>
<path class="st1" d="M17.9,46.7h40.4c0.1,0,0.2,0.1,0.2,0.2v2.7c0,0.1-0.1,0.2-0.2,0.2H17.9c-0.1,0-0.2-0.1-0.2-0.2v-2.7
	C17.7,46.7,17.8,46.7,17.9,46.7z"/>
<path class="st1" d="M30.8,39.8h14.4c0.1,0,0.2,0.1,0.2,0.2v3.4c0,0.1-0.1,0.2-0.2,0.2H30.8c-0.1,0-0.2-0.1-0.2-0.2V40
	C30.6,39.9,30.7,39.8,30.8,39.8z"/>
<path class="st1" d="M21,49.7h5.3c0.1,0,0.2,0.1,0.2,0.2l0,0v2.6c0,0.9-0.7,1.7-1.7,1.7h-2.3c-0.9,0-1.7-0.7-1.7-1.7v-2.6
	C20.8,49.8,20.9,49.7,21,49.7C21,49.7,21,49.7,21,49.7z"/>
<path class="st1" d="M49.9,49.9h5.3c0.1,0,0.2,0.1,0.2,0.2l0,0v2.6c0,0.9-0.7,1.7-1.7,1.7h-2.3c-0.9,0-1.7-0.7-1.7-1.7v-2.6
	C49.7,50,49.8,49.9,49.9,49.9L49.9,49.9z"/>
<path class="st1" d="M34.3,19.6H42c0.1,0,0.2,0.1,0.2,0.2v2.7c0,0.1-0.1,0.2-0.2,0.2h-7.6c-0.1,0-0.2-0.1-0.2-0.2v-2.7
	C34.2,19.7,34.2,19.6,34.3,19.6z"/>
<path class="st0" d="M22.6,36.4h30.9c1.7,0,3.1,1.4,3.1,3.1v7.2l0,0H19.5l0,0v-7.2C19.5,37.8,20.9,36.4,22.6,36.4z"/>
<path class="st0" d="M54,36.4H22.2l1.5-8.8c0-0.6,0.2-1.1,0.4-1.6c0.8-1.5,2.3-2.4,4-2.4h20.7c1.9,0.2,3.4,1.7,3.6,3.6L54,36.4z"/>
<circle class="st1" cx="25.2" cy="41.6" r="2.2"/>
<circle class="st1" cx="51" cy="41.6" r="2.2"/>
<path class="st1" d="M19,36.8h-1.7c-0.1,0-0.3-0.1-0.3-0.2c0,0,0,0,0,0v-1.2c0-1.3,1.1-2.4,2.4-2.4c0,0,0,0,0,0h2.2"/>
<path class="st1" d="M57.1,36.8h1.6c0.1,0,0.3-0.1,0.3-0.3c0,0,0,0,0,0v-1.2c0.1-1.3-1-2.4-2.2-2.4h-2"/>
<path class="st1" d="M31.6,7.4C31.3,7.6,31.1,7.8,31,8l-1.7,2.6c-0.2,0.3-0.3,0.6-0.4,0.9c-0.1,0.9,0.3,1.7,1,2.2
	c0.5,0.3,1,0.4,1.6,0.3l0,0"/>
<path class="st1" d="M31.6,7.4C31.8,7.5,32,7.7,32.1,8l1.6,2.6c0,0.1,0.1,0.1,0.1,0.2c0.1,0.2,0.2,0.5,0.2,0.8
	c0.1,0.9-0.3,1.7-1.1,2.2c-0.6,0.3-0.6,0.3-1.5,0.3"/>
<path class="st1" d="M38.4,3c-0.2,0.2-0.4,0.4-0.6,0.6l-1.7,2.6c-0.2,0.3-0.3,0.6-0.3,0.9c-0.1,0.9,0.3,1.7,1,2.2
	c0.5,0.3,1,0.4,1.6,0.4l0,0"/>
<path class="st1" d="M38.4,3c0.2,0.2,0.4,0.4,0.5,0.6l1.6,2.6c0,0.1,0.1,0.1,0.1,0.2c0.1,0.2,0.2,0.5,0.2,0.8
	c0.1,0.9-0.3,1.7-1.1,2.2c-0.6,0.3-0.6,0.3-1.5,0.3"/>
<path class="st1" d="M45.8,7.8c-0.2,0.2-0.4,0.4-0.6,0.6L43.5,11c-0.2,0.3-0.3,0.6-0.3,0.9c-0.1,0.9,0.3,1.7,1,2.2
	c0.5,0.3,1,0.4,1.6,0.3l0,0"/>
<path class="st1" d="M45.8,7.8c0.2,0.2,0.4,0.4,0.6,0.6L48,11c0,0.1,0.1,0.1,0.1,0.2c0.1,0.2,0.2,0.5,0.2,0.8
	c0.1,0.9-0.3,1.7-1.1,2.2c-0.6,0.3-0.6,0.3-1.5,0.3"/>
</svg>
