<?xml version="1.0" encoding="utf-8"?>
<!-- Generator: Adobe Illustrator 25.4.1, SVG Export Plug-In . SVG Version: 6.00 Build 0)  -->
<svg version="1.1" id="Layer_1" xmlns="http://www.w3.org/2000/svg" xmlns:xlink="http://www.w3.org/1999/xlink" x="0px" y="0px"
	 viewBox="0 0 76 62" style="enable-background:new 0 0 76 62;" xml:space="preserve">
<style type="text/css">
	.st0{fill:none;stroke:#000000;stroke-width:3;stroke-linecap:round;stroke-linejoin:round;}
</style>
<path class="st0" d="M5.4,36.9h65.1c1.6,0,2.9,1.3,2.9,2.9v12.5c0,1.6-1.3,2.9-2.9,2.9H5.4c-1.6,0-2.9-1.3-2.9-2.9V39.9
	C2.5,38.2,3.8,36.9,5.4,36.9z"/>
<path class="st0" d="M12.5,43.4h21c1.4,0,2.5,1.1,2.5,2.5l0,0c0,1.4-1.1,2.5-2.5,2.5h-21c-1.4,0-2.5-1.1-2.5-2.5l0,0
	C9.9,44.5,11.1,43.4,12.5,43.4z"/>
<path class="st0" d="M5.7,55.3h8.4l0,0v3.3c0,0.6-0.4,1-1,1H6.7c-0.6,0-1-0.4-1-1V55.3L5.7,55.3z"/>
<path class="st0" d="M61.7,55.3h8.4l0,0v3.3c0,0.6-0.4,1-1,1h-6.4c-0.6,0-1-0.4-1-1L61.7,55.3L61.7,55.3z"/>
<circle class="st0" cx="60.2" cy="11.6" r="3.7"/>
<line class="st0" x1="57" y1="36.2" x2="58.8" y2="15"/>
<line class="st0" x1="63.4" y1="36.2" x2="61.6" y2="15"/>
<path class="st0" d="M52.2,2.7c0,0-8.9,7.8,0,17.8"/>
<path class="st0" d="M68.2,2.5c0,0,8.9,7.8,0,17.8"/>
</svg>
