<?xml version="1.0" encoding="utf-8"?>
<!-- Generator: Adobe Illustrator 25.4.1, SVG Export Plug-In . SVG Version: 6.00 Build 0)  -->
<svg version="1.1" id="Layer_1" xmlns="http://www.w3.org/2000/svg" xmlns:xlink="http://www.w3.org/1999/xlink" x="0px" y="0px"
	 viewBox="0 0 76 62" style="enable-background:new 0 0 76 62;" xml:space="preserve">
<style type="text/css">
	.st0{fill:none;stroke:#000000;stroke-width:3;stroke-linecap:round;stroke-miterlimit:10;}
</style>
<path class="st0" d="M23.2,37.6h8c2,0,3.6,1.6,3.6,3.6v3.6c0,0.4-0.3,0.7-0.7,0.7H20.3c-0.4,0-0.7-0.3-0.7-0.7v-3.6
	C19.6,39.2,21.2,37.6,23.2,37.6L23.2,37.6z"/>
<path class="st0" d="M44.8,37.6h8c2,0,3.6,1.6,3.6,3.6v3.6c0,0.4-0.3,0.7-0.7,0.7H41.8c-0.4,0-0.7-0.3-0.7-0.7v-3.6
	C41.1,39.2,42.8,37.6,44.8,37.6z"/>
<path class="st0" d="M12.8,51.6h8c2,0,3.6,1.6,3.6,3.6v3.6c0,0.4-0.3,0.7-0.7,0.7H9.9c-0.4,0-0.7-0.3-0.7-0.7v-3.6
	C9.2,53.2,10.8,51.6,12.8,51.6z"/>
<path class="st0" d="M34,51.6h8c2,0,3.6,1.6,3.6,3.6v3.6c0,0.4-0.3,0.7-0.7,0.7H31.1c-0.4,0-0.7-0.3-0.7-0.7v-3.6
	C30.4,53.2,32,51.6,34,51.6L34,51.6z"/>
<path class="st0" d="M55.5,51.6h8c2,0,3.6,1.6,3.6,3.6v3.6c0,0.4-0.3,0.7-0.7,0.7l0,0H52.6c-0.4,0-0.7-0.3-0.7-0.7v-3.6
	C51.9,53.2,53.5,51.6,55.5,51.6z"/>
<path class="st0" d="M8.5,41.3v-38c0,0,0.3-1.1,2.1-0.6c0,0,25.9,9.2,54,0.2c0,0,2.3-1.3,2.8,0.8V41"/>
</svg>
