<?xml version="1.0" encoding="utf-8"?>
<!-- Generator: Adobe Illustrator 25.4.1, SVG Export Plug-In . SVG Version: 6.00 Build 0)  -->
<svg version="1.1" id="Layer_1" xmlns="http://www.w3.org/2000/svg" xmlns:xlink="http://www.w3.org/1999/xlink" x="0px" y="0px"
	 viewBox="0 0 76 62" style="enable-background:new 0 0 76 62;" xml:space="preserve">
<style type="text/css">
	.st0{fill-rule:evenodd;clip-rule:evenodd;}
	.st1{fill:none;stroke:#000000;stroke-width:2;stroke-linecap:round;stroke-linejoin:round;}
</style>
<path class="st0" d="M44.3,42.7c-0.7,0.9-1.8,0.8-4.4,2.4c-1,0.5-3.9-2.5-4-2.6c-0.3-1,2-1.8,1.6-2.7c-1.2,0.1-1.7,1.6-2.2,2
	c-0.3-0.5-1.1-0.9-1.4-1.4c-0.8-1.2,3.2-3.3,2.5-3.8s-2.9,1.6-3.3,2c-1.9-3.2-1-7.3,1.7-7.5c0.8-0.5,1.6-0.8,1.3-1.1
	c-0.6-0.5-3.3,1-3.8,1.3c-1.3-4.7,8-9.9,9.4-4.9c6.4-2.6,10.3,5.4,6.9,7c-0.4-1.3-3.7-3.7-4.8-3.5c-0.1,0.2,7.3,5.5,4,8
	c-1.4-1.2-2.9-2.3-4.5-3.3c1,2.3,3.7,2.5,4.2,4.3c0.3,1.2-0.8,2-1.5,2.8c-1.3-2.5-4.8-4.3-4.2-3.1C42,39.4,45.7,41.2,44.3,42.7
	L44.3,42.7z"/>
<path class="st0" d="M52.5,40.7c0.7,0.7,1.3,0.3,3.2,1.5c0.7,0.2,1.6-3,1.5-3.2c-0.1-1-1.6-1.4-1.6-2.2c0.7-0.1,1.4,1.2,1.8,1.4
	c0.2-0.5,0.3-1,0.4-1.6c0.1-1.3-2.8-2.6-2.5-3.1s2.1,1,2.4,1.4c0.2-3.4-1.6-7.2-3.1-6.9c-0.6-0.3-1.2-0.5-1.1-0.8
	c0.2-0.7,2.2,0.3,2.5,0.5c-0.3-1.8-1.3-3.4-2.8-4.5c-0.7,0.2-1.3,0.3-2,0.3L51.1,24c-0.2,0.7-0.8,1.3-1.4,1.6
	c-0.8,0.4-1.6,0.7-2.5,0.8c-0.1,0.1-0.3,0.1-0.4,0.1c0.6,0.3,1.1,0.8,1.6,1.3c0.2,0.2,0.4,0.5,0.6,0.7c0.1,0,0.1-0.1,0.2-0.1
	c0,0-0.1,0.1-0.1,0.3c0.3,0.5,0.6,1.1,0.8,1.8c0.2,0.9,0.1,1.8-0.4,2.6c-0.2,0.4-0.6,0.6-1,0.8l-0.3,0.1L48,33.6
	c0,0.3,0,0.5,0.1,0.8c0.3,0.6,0.5,1.2,0.6,1.8c0.1,0.2,0.3,0.3,0.5,0.5c0.4-1.3,1-2.6,1.6-3.9c0.1,2.4-1.4,2.9-1.2,4.9
	c0.2,1,0.8,1.8,1.6,2.4c0.1-2.6,1.5-5,1.6-3.7C52.8,37.1,51.2,39.4,52.5,40.7L52.5,40.7z M46.9,32c0.1,0.1,0.2,0.1,0.3,0.2
	S46.9,32.1,46.9,32z"/>
<path class="st0" d="M58.3,17.9c0.6-0.7,0.2-1.3,1.1-3.4c0.1-0.7-3.3-1.1-3.4-1c-1,0.2-1.2,1.8-2,1.9c-0.3-0.7,1-1.6,1.2-2
	c-0.5,0-1.1-0.2-1.6-0.2c-1.3,0.1-2.3,3.1-2.8,2.9s0.7-2.2,1-2.6c-3.3,0.3-6.9,2.5-6.5,4c-0.2,0.7-0.4,1.2-0.6,1.1
	c-0.7-0.1,0.1-2.2,0.2-2.6c-4.3,1.2-6.8,7.5-3,7.3c-0.3,0.6-0.5,1.3-0.8,2c0.2,0.3,0.4,0.6,0.5,0.9c0.1-0.1,0.2-0.1,0.3-0.1
	c0.2-0.7,0.5-1.5,0.7-2.2c0.1,0.8,0.5,1.5,1.2,1.8c0.5,0,1,0,1.4,0.1c0.3,0.1,0.5,0.2,0.7,0.3c2.1,0,4.4-1,4.7-2.2
	c-1.3,0.3-4.3-0.5-4.3-1.1c0.1-0.1,6.8,1.6,8.2-1.1c-1.4-0.2-2.7-0.6-4-1.1c2.3-0.4,3.1,1,5,0.5c0.9-0.4,1.7-1.1,2.2-2
	c-2.5,0.2-5.1-0.9-3.9-1C54.8,17.9,57.3,19.2,58.3,17.9L58.3,17.9z"/>
<path class="st0" d="M22.4,37.1c-1.1,0.4-1.8-0.3-4.8-0.1c-1-0.1-1.1-3.6-1-3.7c0.5-1,2.8-0.5,3-1.4c-0.9-0.5-2.3,0.4-3,0.5
	c0.1-0.5-0.1-1.1,0-1.7c0.3-1.2,4.7-1.1,4.5-1.7s-3.2-0.1-3.8,0.1c0.9-3.3,4.5-6,6.6-5c1,0.1,1.7,0.1,1.7-0.2
	c-0.1-0.7-3-0.7-3.6-0.7c2.4-4.1,12.8-4.1,10.1,0.3c1.3,0,2.4,0.7,3.2,1.7c-0.3,0.2-0.6,0.3-0.8,0.5c-1.1,0.8-1.9,1.8-2.4,3.1
	c-0.2-0.9-0.5-1.6-1-1.8c-0.2,0.1,1.2,7.3-2.9,7.9c-0.2-1.5-0.5-3-0.9-4.4c-1,2.2,0.9,3.4-0.1,5.1c-0.6,1-2,1.2-3.1,1.6
	c0.8-2.4-0.3-5.4-0.8-4.2C23.1,33.6,24.6,36.6,22.4,37.1L22.4,37.1z"/>
<path class="st0" d="M25.8,8c-0.2-1.2,0.5-1.8,0.9-5c0.3-1.1,3.7-0.8,3.9-0.7c0.8,0.5,0.1,2.9,0.9,3.1c0.6-0.8-0.1-2.4-0.1-3.1
	c0.6,0,1.1,0.1,1.7,0.2c1.2,0.4,0.4,4.9,1,4.7s0.5-3.3,0.5-3.9c3.1,1.2,5.3,5.2,4,7.2c-0.2,0.9-0.3,1.7-0.1,1.7c0.7,0,1.2-3,1.2-3.6
	c3.6,2.6,2.3,12.4-1.3,10.7c0.7,1.6,1.3,3.3,1.6,5c-0.3-0.1-0.7-0.2-1.1-0.2c-0.3-1.5-0.8-2.9-1.4-4.3c-0.6,2-2.7,3.2-4.7,2.7
	c0,0,0,0-0.1,0c0-0.3,0-0.6-0.1-1c-0.6-0.9-1.6-1.5-2.7-1.5h-0.3c-0.2-0.5-0.3-1.1-0.1-1.7c1,0.8,4.4,0.4,4.8-0.5
	c-0.1-0.3-7.5,0.6-7.3-3.7c1.5-0.1,3-0.2,4.5-0.5c-2-1.1-3.6,0.7-5.2-0.5c-1-0.7-0.9-2.2-1-3.3c2.3,1,5.4,0.1,4.3-0.5
	C29.2,9,26,10.2,25.8,8z"/>
<polyline class="st1" points="46.5,42.8 51.5,42.8 51.5,47.8 27.5,47.8 27.5,42.8 34.5,42.8 "/>
<polyline class="st1" points="28.3,47.8 31.3,59.8 48.3,59.8 50.7,48 "/>
</svg>
