<?xml version="1.0" encoding="utf-8"?>
<!-- Generator: Adobe Illustrator 25.4.1, SVG Export Plug-In . SVG Version: 6.00 Build 0)  -->
<svg version="1.1" id="Layer_1" xmlns="http://www.w3.org/2000/svg" xmlns:xlink="http://www.w3.org/1999/xlink" x="0px" y="0px"
	 viewBox="0 0 76 62" style="enable-background:new 0 0 76 62;" xml:space="preserve">
<style type="text/css">
	.st0{fill:none;stroke:#000000;stroke-width:3;stroke-miterlimit:10;}
	.st1{fill:none;stroke:#000000;stroke-width:3;stroke-linecap:round;stroke-miterlimit:10;}
</style>
<path class="st0" d="M56.3,21c8,10.5,6,25.6-4.5,33.6s-25.6,6-33.6-4.5s-6-25.6,4.5-33.6c6.4-4.9,14.8-6.2,22.4-3.6"/>
<path class="st0" d="M41.5,18.9l9.3-15.7c0.4-0.7,1.3-0.9,1.9-0.5c0.2,0.1,0.4,0.3,0.5,0.5l9.3,15.7c0.4,0.7,0.2,1.5-0.5,1.9
	c-0.2,0.1-0.5,0.2-0.7,0.2H42.8c-0.8,0-1.4-0.6-1.4-1.4C41.4,19.3,41.4,19.1,41.5,18.9z"/>
<line class="st1" x1="22.9" y1="31.4" x2="22.9" y2="43"/>
<line class="st1" x1="30" y1="26.2" x2="30" y2="48.8"/>
<line class="st1" x1="52.1" y1="30.9" x2="52.1" y2="42.5"/>
<line class="st1" x1="45" y1="25.7" x2="45" y2="48.3"/>
<line class="st1" x1="37.2" y1="23" x2="37.2" y2="51.8"/>
<line class="st1" x1="22.9" y1="37.4" x2="52" y2="37.4"/>
<line class="st1" x1="52" y1="8.8" x2="52" y2="13.5"/>
<circle class="st1" cx="52" cy="17.1" r="0.1"/>
</svg>
