<?xml version="1.0" encoding="utf-8"?>
<!-- Generator: Adobe Illustrator 25.4.1, SVG Export Plug-In . SVG Version: 6.00 Build 0)  -->
<svg version="1.1" id="Layer_1" xmlns="http://www.w3.org/2000/svg" xmlns:xlink="http://www.w3.org/1999/xlink" x="0px" y="0px"
	 viewBox="0 0 76 62" style="enable-background:new 0 0 76 62;" xml:space="preserve">
<style type="text/css">
	.st0{fill:none;stroke:#000000;stroke-width:3;stroke-linecap:round;stroke-linejoin:round;}
</style>
<circle class="st0" cx="21.9" cy="34.3" r="6.1"/>
<circle class="st0" cx="45" cy="47.7" r="6.1"/>
<path class="st0" d="M22.1,32.2c0.9,0.3,1.6,1,2,1.9"/>
<path class="st0" d="M45.1,45.5c1,0.3,1.9,1.1,2.3,2.1"/>
<path class="st0" d="M18,24.4c0,0-7.6,1.5-8.5-7.3c0-0.1,0.1-0.2,0.2-0.2c0,0,0,0,0.1,0c2.2,0.5,4.5,0.3,6.6-0.6"/>
<path class="st0" d="M34.6,36.7c0,0,13.6,0.7,19.5-1.8c0.1-0.1,0.2,0,0.3,0.1c0,0,0,0,0,0.1c0.3,1.7,1.3,9.9-3,12.7"/>
<path class="st0" d="M28,45.5c0,0,2.1,6.5,11.5,5.3"/>
<path class="st0" d="M20.8,27.7c-4.3-4.2-5.8-10.5-3.7-16.1c1-3.1,3.2-5.8,6-7.5c4.8-2.6,10.7-1.9,14.7,1.8c1.9,1.7,3.3,3.8,4,6.2
	c0.6,2.1,0.7,4.3,0.2,6.4c-0.3,1.4-0.7,2.7-1.4,3.9c-0.8,1.2-1.7,2.3-2.7,3.3c-0.3,0.5-1,1.4-0.9,2c0.1,0.2,0.3,0.4,0.5,0.4
	c2.9,0.2,5.8,0.2,8.7,0c0,0,9.3,0.3,16.9-10.1c0,0,0.1-0.1,0.1,0c0,0,0,0,0,0c0.6,1.8,6.9,20.3,0.6,31c-3.1,5.6-8.6,9.4-15,10.1
	c-5.5,0.7-11.3,0-16.8,0.1c-2.4,0-4.8-0.8-6.8-2.2c-2.3-1.4-4.2-3.3-5.7-5.5c-2.1-3.6-2.6-7.9-1.5-11.9"/>
<path class="st0" d="M25,13.3c2.3-4.8,9.2-0.6,6.1,3.9"/>
</svg>
