<?xml version="1.0" encoding="utf-8"?>
<!-- Generator: Adobe Illustrator 25.4.1, SVG Export Plug-In . SVG Version: 6.00 Build 0)  -->
<svg version="1.1" id="Layer_1" xmlns="http://www.w3.org/2000/svg" xmlns:xlink="http://www.w3.org/1999/xlink" x="0px" y="0px"
	 viewBox="0 0 76 62" style="enable-background:new 0 0 76 62;" xml:space="preserve">
<style type="text/css">
	.st0{fill:none;stroke:#000000;stroke-width:3;stroke-linecap:round;stroke-linejoin:round;}
</style>
<path class="st0" d="M47.7,43.2c0-0.1-0.1-0.1-0.2,0c0,0,0,0,0,0c-2.4,2.9-5.3,6.3-5.3,10.4c-0.2,3.1,2.2,5.8,5.3,6
	c0.3,0,0.6,0,0.9,0c2.9-0.2,5.5-3.3,5.2-6.5C53.3,49.3,50.1,45.6,47.7,43.2z"/>
<path class="st0" d="M21.5,34.7c-1.2,2.1-1.8,4.4-1.2,6.6c0.7,2.7,3.3,4.5,6.1,4.2c3.4-0.2,5.3-3.7,5.1-6.8c-0.1-1.4-0.5-2.8-1.2-4"
	/>
<path class="st0" d="M67.2,16.6c-1-0.7-2.1-1.3-3.3-1.7c-0.1,0-1.4-0.4-1.5-0.4C60.5,4.6,48.3-0.2,39.7,4.1C38,4.9,36.4,5.9,35,7.2
	c-0.1,0.1-1.6,1.6-1.7,1.5c-12.8-7-16.2,6.6-16.2,6.6c-8.6-2.7-12.5,6.5-12.5,6.5C2.3,33,13.2,34.7,13.2,34.7h8.3
	c1.2-2,2.5-3.8,4-5.5c0-0.1,0.1-0.1,0.2,0c0,0,0,0,0,0c1.8,1.6,3.4,3.5,4.6,5.5h32.1c3.9-0.1,7.4-2.7,8.7-6.3
	C72.8,23.9,70.9,19.3,67.2,16.6z"/>
</svg>
