<?xml version="1.0" encoding="utf-8"?>
<!-- Generator: Adobe Illustrator 25.4.1, SVG Export Plug-In . SVG Version: 6.00 Build 0)  -->
<svg version="1.1" id="Layer_1" xmlns="http://www.w3.org/2000/svg" xmlns:xlink="http://www.w3.org/1999/xlink" x="0px" y="0px"
	 viewBox="0 0 76 62" style="enable-background:new 0 0 76 62;" xml:space="preserve">
<style type="text/css">
	.st0{fill:none;stroke:#000000;stroke-width:3;stroke-linecap:round;stroke-linejoin:round;}
	.st1{fill:none;stroke:#000000;stroke-width:2.17;stroke-linecap:round;stroke-linejoin:round;}
</style>
<path class="st0" d="M72.4,59.5H3.6c-0.7,0-1.3-0.5-1.3-1.2c0,0,0,0,0,0V46.4c0-0.7,0.6-1.3,1.3-1.3h5.5V21.7H3.6
	c-0.7,0-1.3-0.5-1.3-1.2c0,0,0,0,0,0v-5.9c0-0.1,0-0.1,0-0.2c0-0.2,0.1-0.4,0.3-0.6c0.1-0.1,0.2-0.2,0.3-0.3
	c0.1-0.1,0.2-0.1,0.3-0.1L37.6,2.6c0.2-0.1,0.5-0.1,0.8,0l34.4,10.8c0.6,0.2,0.9,0.7,0.9,1.3v5.8c0,0.7-0.5,1.3-1.2,1.3c0,0,0,0,0,0
	h-5.5v23.4h5.5c0.7,0,1.3,0.5,1.3,1.2c0,0,0,0,0,0v11.8C73.7,58.9,73.1,59.5,72.4,59.5C72.4,59.5,72.4,59.5,72.4,59.5z"/>
<path class="st1" d="M38.2,47.4c6.3,0,11.5-5.2,11.5-11.5c0-6.3-5.2-11.5-11.5-11.5c-6.3,0-11.5,5.2-11.5,11.5c0,3,1.2,6,3.4,8.1
	C32.2,46.2,35.2,47.4,38.2,47.4z"/>
<polyline class="st1" points="57,52.1 57,20 52.8,20 52.8,36.4 56.1,36.4 "/>
<line class="st1" x1="22" y1="19.9" x2="22" y2="52.1"/>
<path class="st1" d="M25,19.9V29c0,1.7-1.3,3-3,3l0,0l0,0c-1.7,0-3-1.3-3-3l0,0v-9.1"/>
</svg>
