<?xml version="1.0" encoding="utf-8"?>
<!-- Generator: Adobe Illustrator 25.4.1, SVG Export Plug-In . SVG Version: 6.00 Build 0)  -->
<svg version="1.1" id="Layer_1" xmlns="http://www.w3.org/2000/svg" xmlns:xlink="http://www.w3.org/1999/xlink" x="0px" y="0px"
	 viewBox="0 0 76 62" style="enable-background:new 0 0 76 62;" xml:space="preserve">
<style type="text/css">
	.st0{fill:none;stroke:#000000;stroke-width:3;stroke-linecap:round;stroke-miterlimit:10;}
</style>
<path class="st0" d="M48.9,46c4.9-0.5,9.6-1.5,14.3-3c0.9-0.3,1.8-0.9,2.4-1.7c0.6-0.8,0.9-1.8,0.9-2.8V10.3c0-2-1.3-3.8-3.3-4.4
	l0,0c-21.8-6.7-42.5-2.2-50.3,0c-2,0.6-3.4,2.4-3.4,4.5v28.1c0,2.1,1.4,3.9,3.4,4.5c5.1,1.4,9.6,3.1,14.8,3.7"/>
<path class="st0" d="M25.2,39.8c-3.3-0.5-6.6-1.2-9.8-2.2V11.3c7.7-2,15.5-3,23.5-3c7.4,0,14.7,1,21.8,3v26.3
	c-3.2,1.1-6.5,1.8-9.8,2.3"/>
<polyline class="st0" points="30.2,36.9 30.2,26.4 45.8,26.4 45.8,36.9 "/>
<line class="st0" x1="24.1" y1="36.9" x2="51.9" y2="36.9"/>
<polyline class="st0" points="24.4,37.3 32.7,59.4 38.7,50.8 44.8,59.6 51.5,37.3 "/>
<line class="st0" x1="29.3" y1="37.2" x2="38.5" y2="51.5"/>
<line class="st0" x1="37.5" y1="37.1" x2="46.8" y2="51.3"/>
<line class="st0" x1="47.5" y1="37.2" x2="39.6" y2="50"/>
<line class="st0" x1="38.5" y1="37.1" x2="30" y2="50.6"/>
</svg>
