<?xml version="1.0" encoding="utf-8"?>
<!-- Generator: Adobe Illustrator 25.4.1, SVG Export Plug-In . SVG Version: 6.00 Build 0)  -->
<svg version="1.1" id="Layer_1" xmlns="http://www.w3.org/2000/svg" xmlns:xlink="http://www.w3.org/1999/xlink" x="0px" y="0px"
	 viewBox="0 0 76 62" style="enable-background:new 0 0 76 62;" xml:space="preserve">
<style type="text/css">
	.st0{fill:none;stroke:#000000;stroke-width:3;stroke-linecap:round;stroke-miterlimit:10;}
</style>
<path class="st0" d="M17.3,2.5h41.5c4.3,0,7.8,3.5,7.8,7.8v41.5c0,4.3-3.5,7.8-7.8,7.8H17.3c-4.3,0-7.8-3.5-7.8-7.8V10.3
	C9.5,6,13,2.5,17.3,2.5z"/>
<line class="st0" x1="29.1" y1="6.4" x2="29.1" y2="54.9"/>
<line class="st0" x1="46.9" y1="6.4" x2="46.9" y2="54.9"/>
<line class="st0" x1="62.6" y1="22.1" x2="14.1" y2="22.1"/>
<line class="st0" x1="62.6" y1="39.9" x2="14.1" y2="39.9"/>
<line class="st0" x1="33" y1="25.7" x2="43" y2="35.6"/>
<line class="st0" x1="43" y1="25.7" x2="33" y2="35.6"/>
<circle class="st0" cx="21.6" cy="46.7" r="3.9"/>
<circle class="st0" cx="54.4" cy="14.6" r="3.9"/>
</svg>
