<?xml version="1.0" encoding="utf-8"?>
<!-- Generator: Adobe Illustrator 26.0.1, SVG Export Plug-In . SVG Version: 6.00 Build 0)  -->
<svg version="1.1" id="Layer_1" xmlns="http://www.w3.org/2000/svg" xmlns:xlink="http://www.w3.org/1999/xlink" x="0px" y="0px"
	 viewBox="0 0 76 62" style="enable-background:new 0 0 76 62;" xml:space="preserve">
<style type="text/css">
	.st0{fill:none;stroke:#000000;stroke-width:3;stroke-linecap:round;stroke-linejoin:round;}
</style>
<path class="st0" d="M17.7,2.5h40.6c4.5,0,8.2,3.7,8.2,8.2v40.6c0,4.5-3.7,8.2-8.2,8.2H17.7c-4.5,0-8.2-3.7-8.2-8.2V10.7
	C9.5,6.2,13.2,2.5,17.7,2.5z"/>
<path class="st0" d="M48.2,20.4V7.5V7.4l0,0c0,0-0.1,0-0.2,0h-1.6h-0.1l0,0l0,0l-0.1,0.1v12.9"/>
<g>
	<path d="M58.8,47.3C58.9,47.3,58.9,47.3,58.8,47.3c0.1,0.1,0.1,0.1,0.2,0.1c0,0,0,0,0,0.1c0,0,0,0.1-0.1,0.2c0,0,0,0-0.1,0
		c-0.1,0-0.1,0-0.1,0c0,0,0,0-0.1-0.1c0,0,0-0.2,0-0.2C58.7,47.4,58.7,47.4,58.8,47.3C58.7,47.3,58.8,47.3,58.8,47.3 M58.8,44.3
		c-0.8,0-1.6,0.3-2.2,0.9c-1.3,1.2-1.3,3.3-0.1,4.5c0.6,0.7,1.5,1,2.3,1c0.8,0,1.6-0.3,2.2-0.9c0.6-0.6,1-1.4,1-2.3
		c0-0.8-0.3-1.6-0.9-2.2C60.5,44.6,59.6,44.3,58.8,44.3L58.8,44.3z"/>
</g>
<polyline class="st0" points="35.5,51.5 35.5,13.9 18.5,13.9 18.5,51.5 "/>
<line class="st0" x1="27" y1="13.9" x2="27" y2="51.7"/>
<path class="st0" d="M43.2,21.1v28.4v0.1l0,0l0,0h0.1h7.5h0.1l0,0l0,0v-0.1V21.1"/>
<line class="st0" x1="43.6" y1="21" x2="50.8" y2="21"/>
</svg>
