<?xml version="1.0" encoding="utf-8"?>
<!-- Generator: Adobe Illustrator 25.4.1, SVG Export Plug-In . SVG Version: 6.00 Build 0)  -->
<svg version="1.1" id="Layer_1" xmlns="http://www.w3.org/2000/svg" xmlns:xlink="http://www.w3.org/1999/xlink" x="0px" y="0px"
	 viewBox="0 0 76 62" style="enable-background:new 0 0 76 62;" xml:space="preserve">
<style type="text/css">
	.st0{fill:none;stroke:#000000;stroke-width:3;stroke-linecap:round;stroke-miterlimit:10;}
	.st1{fill:none;stroke:#000000;stroke-width:2;stroke-linecap:round;stroke-miterlimit:10;}
</style>
<path class="st0" d="M2.7,48.1h70.6c0.1,0,0.2,0.1,0.2,0.2v4c0,0.1-0.1,0.2-0.2,0.2H2.7c-0.1,0-0.2-0.1-0.2-0.2v-4
	C2.5,48.2,2.6,48.1,2.7,48.1z"/>
<path class="st1" d="M9.2,40.1h40.4c0.1,0,0.2,0.1,0.2,0.2V43c0,0.1-0.1,0.2-0.2,0.2H9.2C9.1,43.2,9,43.1,9,43v-2.7
	C9,40.2,9.1,40.1,9.2,40.1z"/>
<path class="st1" d="M22.1,33.3h14.4c0.1,0,0.2,0.1,0.2,0.2v3.4c0,0.1-0.1,0.2-0.2,0.2H22.1c-0.1,0-0.2-0.1-0.2-0.2v-3.4
	C21.9,33.4,22,33.3,22.1,33.3z"/>
<path class="st1" d="M12.3,43.2h5.3c0.1,0,0.2,0.1,0.2,0.2l0,0V46c0,0.9-0.8,1.7-1.7,1.6c0,0,0,0,0,0h-2.2c-0.9,0-1.6-0.7-1.7-1.6
	v-2.7C12.1,43.2,12.2,43.2,12.3,43.2C12.3,43.2,12.3,43.2,12.3,43.2z"/>
<path class="st1" d="M41.2,43.4h5.3c0.1,0,0.2,0.1,0.2,0.2l0,0v2.6c0,0.9-0.7,1.6-1.6,1.7h-2.3c-0.9,0-1.7-0.7-1.7-1.7c0,0,0,0,0,0
	v-2.6C41,43.5,41.1,43.4,41.2,43.4L41.2,43.4z"/>
<path class="st1" d="M25.6,13.1h7.6c0.1,0,0.2,0.1,0.2,0.2v2.7c0,0.1-0.1,0.2-0.2,0.2h-7.6c-0.1,0-0.2-0.1-0.2-0.2v-2.7
	C25.5,13.2,25.5,13.1,25.6,13.1z"/>
<path class="st0" d="M13.9,29.9h30.9c1.7,0,3.1,1.4,3.1,3.1v7.2l0,0H10.8l0,0V33C10.8,31.3,12.1,29.9,13.9,29.9
	C13.9,29.9,13.9,29.8,13.9,29.9z"/>
<path class="st0" d="M45.3,29.9H13.5l1.5-8.7c0-0.6,0.1-1.1,0.4-1.6c0.8-1.5,2.3-2.4,4-2.4H40c1.9,0.2,3.4,1.7,3.6,3.6L45.3,29.9z"
	/>
<circle class="st1" cx="16.5" cy="35.1" r="2.2"/>
<circle class="st1" cx="42.3" cy="35.1" r="2.2"/>
<path class="st1" d="M10.3,30.3H8.6c-0.1,0-0.3-0.1-0.3-0.3v-1.2c0-1.3,1.1-2.4,2.4-2.4l0,0h2.1"/>
<path class="st1" d="M48.5,30.3H50c0.1,0,0.3-0.1,0.3-0.3c0,0,0,0,0,0v-1.2c0-1.3-1-2.4-2.3-2.4h-2"/>
<line class="st0" x1="63.9" y1="25.4" x2="63.9" y2="48"/>
<path class="st0" d="M55.1,9.5h17.6c0.3,0,0.5,0.2,0.5,0.5v14.9c0,0.3-0.2,0.5-0.5,0.5H55.1c-0.3,0-0.5-0.2-0.5-0.5V10
	C54.6,9.7,54.9,9.5,55.1,9.5z"/>
<line class="st0" x1="61.7" y1="14.2" x2="61.7" y2="21.4"/>
<path class="st0" d="M62,13.5h3.8c0.1,0,0.3,0.1,0.3,0.3v3.8c0,0.1-0.1,0.3-0.3,0.3H62c-0.1,0-0.3-0.1-0.3-0.3v-3.8
	C61.7,13.6,61.8,13.5,62,13.5z"/>
</svg>
