<?xml version="1.0" encoding="utf-8"?>
<!-- Generator: Adobe Illustrator 25.4.1, SVG Export Plug-In . SVG Version: 6.00 Build 0)  -->
<svg version="1.1" id="Layer_1" xmlns="http://www.w3.org/2000/svg" xmlns:xlink="http://www.w3.org/1999/xlink" x="0px" y="0px"
	 viewBox="0 0 76 62" style="enable-background:new 0 0 76 62;" xml:space="preserve">
<style type="text/css">
	.st0{fill:none;stroke:#000000;stroke-width:3;stroke-linecap:round;stroke-miterlimit:10;}
</style>
<rect x="6.7" y="16" class="st0" width="23.6" height="19.8"/>
<path class="st0" d="M13.7,57.5V46.3c0-1.5,1.2-2.7,2.7-2.7h4c1.5,0,2.7,1.2,2.7,2.7v11.3"/>
<polyline class="st0" points="6.7,57.7 6.7,35.9 30.3,35.9 30.3,57.7 "/>
<circle class="st0" cx="18.7" cy="25.9" r="4"/>
<line class="st0" x1="7.7" y1="13.4" x2="18.5" y2="2.5"/>
<line class="st0" x1="18.5" y1="2.5" x2="29.3" y2="13.4"/>
<path class="st0" d="M30.4,27.4c6.3,0.6,12.2,3.7,16.2,8.6l6.7,8.4c0,0,6,7.6,12.9,8.1c1.7,0.1,3.2,1.4,3.3,3.1c0,0,0.6,4.3-3.5,3.8
	c-2.5-0.2-4.9-0.8-7.3-1.7c-2.1-0.9-4-2-5.8-3.5c-2.3-2-3.9-4.6-5.7-7c-3.5-4.8-8-10.3-13.9-12.3c-0.6-0.2-1.3-0.4-1.9-0.5
	c-0.4-0.1-0.9-0.1-1.3,0"/>
<line class="st0" x1="6.4" y1="14.7" x2="30.6" y2="14.7"/>
<line class="st0" x1="7.6" y1="57.7" x2="13" y2="57.7"/>
<line class="st0" x1="23.1" y1="57.7" x2="28.5" y2="57.7"/>
</svg>
