<?xml version="1.0" encoding="utf-8"?>
<!-- Generator: Adobe Illustrator 25.4.1, SVG Export Plug-In . SVG Version: 6.00 Build 0)  -->
<svg version="1.1" id="Layer_1" xmlns="http://www.w3.org/2000/svg" xmlns:xlink="http://www.w3.org/1999/xlink" x="0px" y="0px"
	 viewBox="0 0 76 62" style="enable-background:new 0 0 76 62;" xml:space="preserve">
<style type="text/css">
	.st0{fill:none;stroke:#000000;stroke-width:3;stroke-linecap:round;stroke-linejoin:round;}
</style>
<path class="st0" d="M55.8,49.3h7.3c1.6,0,2.9-1.3,2.9-2.9l0,0V5.4c0-1.6-1.3-2.9-2.9-2.9H36c-1.6,0-2.9,1.3-2.9,2.9v0.8"/>
<path class="st0" d="M19.5,12.8l-7.7,3.1c-1.5,0.6-2.2,2.3-1.6,3.8c0,0,0,0,0,0l15.1,38c0.6,1.5,2.3,2.2,3.8,1.6L52.5,50l0,0"/>
<path class="st0" d="M55.8,49.3L52.5,50l0,0L31,54.4c-1.6,0.3-3.1-0.7-3.5-2.3l-8-39.3L19.3,12C19,10.4,20,8.9,21.6,8.5c0,0,0,0,0,0
	L33,6.2v40.1c0,1.6,1.3,2.9,2.9,2.9c0,0,0,0,0,0H55.8z"/>
<path class="st0" d="M49.4,34.4c0,0-11.2-5.1-8.3-12.6c0.8-2.1,3.1-3.4,5.3-2.8c1.3,0.4,2.4,1.4,3,2.6"/>
<path class="st0" d="M49.5,34.4c0,0,11.2-5.1,8.3-12.6c-0.8-2.1-3.1-3.4-5.3-2.8c-1.3,0.4-2.4,1.4-3,2.6"/>
<path class="st0" d="M58,13.1c0,0-4.3-1.9-3.1-4.8c0.3-0.8,1.2-1.3,2-1.1c0.5,0.2,0.9,0.5,1.1,1"/>
<path class="st0" d="M58,13.1c0,0,4.3-1.9,3.1-4.8c-0.3-0.8-1.2-1.3-2-1.1c-0.5,0.2-0.9,0.5-1.1,1"/>
<path class="st0" d="M40.8,38.4c0,0-4.3,1.9-3.1,4.8c0.3,0.8,1.2,1.3,2,1.1c0.5-0.2,0.9-0.5,1.1-1"/>
<path class="st0" d="M40.8,38.4c0,0,4.3,1.9,3.2,4.8c-0.3,0.8-1.2,1.3-2,1.1c-0.5-0.2-0.9-0.5-1.1-1"/>
</svg>
