<?xml version="1.0" encoding="utf-8"?>
<!-- Generator: Adobe Illustrator 25.4.1, SVG Export Plug-In . SVG Version: 6.00 Build 0)  -->
<svg version="1.1" id="Layer_1" xmlns="http://www.w3.org/2000/svg" xmlns:xlink="http://www.w3.org/1999/xlink" x="0px" y="0px"
	 viewBox="0 0 76 62" style="enable-background:new 0 0 76 62;" xml:space="preserve">
<style type="text/css">
	.st0{fill:none;stroke:#000000;stroke-width:3;stroke-linecap:round;stroke-linejoin:round;}
</style>
<path class="st0" d="M40.9,24.1c0,1.1,0.9,2.1,2,2.1c0,0,0,0,0.1,0h9.8c2.6,0,4.6-2.1,4.6-4.6v0V7.7c0-2.6-2.1-4.6-4.6-4.6l0,0H43
	c-1.1,0-2.1,0.9-2.1,2c0,0,0,0,0,0.1v18.8"/>
<path class="st0" d="M57.7,32.7v2.7c0,4.7-3.8,8.4-8.4,8.4H26.7c-4.7,0-8.4-3.8-8.4-8.4v-2.7H57.7z"/>
<path class="st0" d="M49.8,43.8l4.1,9.6c0.8,2-0.2,4.3-2.2,5.1c-0.2,0.1-0.4,0.1-0.6,0.2c-0.5,0.1-1,0.2-1.6,0.2H26.1
	c-3.1-0.2-5.1-3.1-3.9-5.6l4.2-9.5"/>
<line class="st0" x1="42.1" y1="27.2" x2="42.1" y2="31.4"/>
<line class="st0" x1="54" y1="27" x2="54" y2="31.3"/>
</svg>
