<?xml version="1.0" encoding="utf-8"?>
<!-- Generator: Adobe Illustrator 25.4.1, SVG Export Plug-In . SVG Version: 6.00 Build 0)  -->
<svg version="1.1" id="Layer_1" xmlns="http://www.w3.org/2000/svg" xmlns:xlink="http://www.w3.org/1999/xlink" x="0px" y="0px"
	 viewBox="0 0 76 62" style="enable-background:new 0 0 76 62;" xml:space="preserve">
<style type="text/css">
	.st0{fill:none;stroke:#000000;stroke-width:3;stroke-linecap:round;stroke-linejoin:round;}
</style>
<path class="st0" d="M20.2,2.9V49"/>
<path class="st0" d="M16.2,54.5v-1.3c0-1.7,1.4-3.1,3.1-3.1H21c1.7,0,3.1,1.3,3.1,3.1v1.3"/>
<line class="st0" x1="27.8" y1="53.4" x2="24.2" y2="53.4"/>
<path class="st0" d="M27.9,53.4h1c0.1,0,0.2,0.1,0.2,0.2l1.2,5.2c0,0.1,0,0.3-0.1,0.3c0,0-0.1,0-0.1,0H10.4c-0.1,0-0.3-0.1-0.3-0.3
	c0,0,0,0,0-0.1l1.1-5.2c0-0.1,0.1-0.2,0.2-0.2h4.7"/>
<path class="st0" d="M20.4,5.4c0,0,3,20.4,16.7,27.2"/>
<circle class="st0" cx="58.3" cy="42.7" r="5.9"/>
<path class="st0" d="M32.8,41.8c0.6,4.9,4.8,7.1,9.2,6.8l13-1"/>
<path class="st0" d="M63.9,44.6L63.9,44.6c1.3-1.4,2-3.3,2-5.2c0-0.2,0-0.4,0-0.6c-0.5-6.2-5.9-10.9-12.2-10.4c0,0,0,0,0,0l-5.8,0.5
	"/>
<path class="st0" d="M47.8,28.7c-12.9,2-14.8,10.6-15,12.6c0,0.2,0.1,0.3,0.3,0.3c0,0,0.1,0,0.1,0l14.6-2.8l0,0
	c0.2,0,6.6-1.7,5.3-10.6"/>
<path class="st0" d="M41,29.8c-0.1-2,0.2-4.1,0.8-6c1.6-3.1,5.8-4.5,9.1-3.9c2.8,0.5,4.7,2.7,5.8,5.2c0.4,0.9,0.7,1.8,0.9,2.7"/>
</svg>
