<?xml version="1.0" encoding="utf-8"?>
<!-- Generator: Adobe Illustrator 25.4.1, SVG Export Plug-In . SVG Version: 6.00 Build 0)  -->
<svg version="1.1" id="Layer_1" xmlns="http://www.w3.org/2000/svg" xmlns:xlink="http://www.w3.org/1999/xlink" x="0px" y="0px"
	 viewBox="0 0 76 62" style="enable-background:new 0 0 76 62;" xml:space="preserve">
<style type="text/css">
	.st0{fill:none;stroke:#000000;stroke-width:3;stroke-linecap:round;stroke-linejoin:round;}
</style>
<line class="st0" x1="16.2" y1="17.4" x2="31.5" y2="17.4"/>
<polyline class="st0" points="69.7,31.7 58.4,31.7 58.4,52 69.8,52 69.8,31.7 "/>
<polyline class="st0" points="11.2,59.4 47.8,59.4 48.4,2.7 "/>
<line class="st0" x1="20.8" y1="59.5" x2="20.8" y2="45.9"/>
<line class="st0" x1="28.2" y1="59.5" x2="28.2" y2="45.9"/>
<circle class="st0" cx="59.3" cy="7.3" r="4.8"/>
<line class="st0" x1="64.1" y1="31.7" x2="64.1" y2="6.9"/>
<line class="st0" x1="59.3" y1="2.5" x2="32.4" y2="2.5"/>
<path class="st0" d="M23.7,17.4v-6.2c0-4.9,3.9-8.8,8.8-8.8l0,0"/>
<path class="st0" d="M37.3,20.9L37.3,20.9c-1.4-0.3-2.9,0.5-3.3,2c0,0,0,0,0,0l-3.6,15.5c-0.2,0.7-0.8,1.3-1.6,1.3H16
	c-0.8,0-1.5,0.3-2,0.8l-7.2,8C6,49.5,6,50.9,6.9,51.8c0,0,0,0,0.1,0l0.6,0.5c1,0.9,2.4,0.8,3.3-0.2c0,0,0,0,0,0l5.3-6
	c0.3-0.4,0.8-0.6,1.2-0.5H30c3.1,0,5.5-2.5,5.5-5.5c0,0,0,0,0,0l0,0c0-0.1,0-0.2,0-0.4l3.7-15.6C39.6,22.7,38.7,21.2,37.3,20.9z"/>
</svg>
