<?xml version="1.0" encoding="utf-8"?>
<!-- Generator: Adobe Illustrator 25.4.1, SVG Export Plug-In . SVG Version: 6.00 Build 0)  -->
<svg version="1.1" id="Layer_1" xmlns="http://www.w3.org/2000/svg" xmlns:xlink="http://www.w3.org/1999/xlink" x="0px" y="0px"
	 viewBox="0 0 76 62" style="enable-background:new 0 0 76 62;" xml:space="preserve">
<style type="text/css">
	.st0{fill:none;stroke:#000000;stroke-width:3;stroke-linecap:round;stroke-miterlimit:10;}
</style>
<line class="st0" x1="17.3" y1="26.5" x2="58.7" y2="26.5"/>
<line class="st0" x1="13.4" y1="58.8" x2="13.4" y2="26"/>
<line class="st0" x1="29.7" y1="58.7" x2="29.7" y2="27.4"/>
<line class="st0" x1="46.5" y1="59.1" x2="46.5" y2="27.4"/>
<line class="st0" x1="57.4" y1="59.1" x2="57.4" y2="27.4"/>
<line class="st0" x1="18.3" y1="59.1" x2="18.3" y2="27.4"/>
<line class="st0" x1="34.3" y1="41.6" x2="34.3" y2="43.8"/>
<path class="st0" d="M46,17.5c-0.4,0-0.8-0.1-1.2-0.4c-0.3-0.2-0.6-0.6-0.7-1L41.3,5.5c-0.3-1,0.3-2.1,1.4-2.3c0,0,0,0,0,0l2.2-0.6
	l0,0c1-0.2,2,0.4,2.3,1.4L50,14.6c0.1,0.5,0,1-0.2,1.4c-0.3,0.4-0.7,0.7-1.2,0.9l-2.2,0.6l0,0C46.3,17.5,46.1,17.5,46,17.5L46,17.5z
	"/>
<path class="st0" d="M28.3,22.1c-0.4,0-0.8-0.1-1.2-0.4c-0.3-0.2-0.6-0.6-0.7-1l-2.8-10.7c-0.1-0.5-0.1-1,0.2-1.4
	c0.3-0.4,0.7-0.7,1.2-0.9l2.2-0.6l0,0c0.5-0.1,1-0.1,1.5,0.2c0.4,0.3,0.8,0.7,0.9,1.2l2.8,10.6c0.1,0.5,0.1,1-0.2,1.5
	c-0.3,0.4-0.7,0.7-1.2,0.9l-2.2,0.6l0,0C28.7,22.1,28.5,22.1,28.3,22.1L28.3,22.1z"/>
<line class="st0" x1="42.2" y1="13.5" x2="31.9" y2="16.1"/>
<polyline class="st0" points="30.8,11.6 41,8.9 41,8.9 "/>
<path class="st0" d="M35.3,21.9h29.2c0.8,0,1.4-0.6,1.4-1.5v-5.8c0-0.8-0.6-1.5-1.4-1.5c0,0,0,0,0,0h-8.8"/>
<path class="st0" d="M22.5,21.9h-11c-0.8,0-1.4-0.6-1.4-1.5l0,0v-5.8c0-0.8,0.6-1.5,1.4-1.5c0,0,0,0,0,0h8.8"/>
<line class="st0" x1="63.6" y1="59" x2="63.6" y2="26"/>
<line class="st0" x1="8.3" y1="59.5" x2="67.7" y2="59.5"/>
</svg>
