<?xml version="1.0" encoding="utf-8"?>
<!-- Generator: Adobe Illustrator 25.4.1, SVG Export Plug-In . SVG Version: 6.00 Build 0)  -->
<svg version="1.1" id="Layer_1" xmlns="http://www.w3.org/2000/svg" xmlns:xlink="http://www.w3.org/1999/xlink" x="0px" y="0px"
	 viewBox="0 0 76 62" style="enable-background:new 0 0 76 62;" xml:space="preserve">
<style type="text/css">
	.st0{fill:none;stroke:#000000;stroke-width:3;stroke-linecap:round;stroke-linejoin:round;}
</style>
<path class="st0" d="M48.8,14.9c0-2.7,2.2-4.9,4.9-4.9c2.7,0,4.9,2.2,4.9,4.9s-2.2,4.9-4.9,4.9c0,0,0,0,0,0
	C51,19.8,48.8,17.6,48.8,14.9z"/>
<circle class="st0" cx="22.3" cy="14.9" r="3"/>
<path class="st0" d="M50.3,24.7c-0.1-0.2-0.2-0.4-0.4-0.5c-0.1,0-0.2-0.1-0.3-0.1c-0.1,0-0.3,0-0.4,0.1c-1.7,1-3.8,0.4-4.8-1.2
	c-0.7-1.1-0.7-2.5,0-3.6c0.1-0.2,0.1-0.5,0-0.7c-0.1-0.2-0.3-0.4-0.5-0.4c-1.9-0.5-3-2.4-2.5-4.3c0.3-1.2,1.3-2.2,2.5-2.5
	c0.2-0.1,0.4-0.2,0.5-0.4c0.1-0.2,0.1-0.4,0-0.6c-1-1.7-0.4-3.8,1.3-4.8c1.1-0.6,2.4-0.6,3.5,0c0.3,0.2,0.8,0.1,1-0.2
	c0-0.1,0.1-0.1,0.1-0.2c0.5-1.9,2.4-3,4.3-2.5c1.2,0.3,2.2,1.3,2.5,2.5c0.1,0.4,0.5,0.6,0.9,0.5c0.1,0,0.1,0,0.2-0.1
	c1.7-1,3.8-0.4,4.8,1.3c0.6,1.1,0.6,2.5,0,3.6c-0.1,0.2-0.1,0.4,0,0.6c0.1,0.2,0.3,0.4,0.5,0.4c1.9,0.5,3,2.4,2.5,4.3
	c-0.3,1.2-1.3,2.2-2.5,2.5c-0.4,0.1-0.6,0.5-0.5,0.9c0,0.1,0,0.1,0.1,0.2c1,1.7,0.4,3.8-1.2,4.8c-1.1,0.7-2.5,0.7-3.6,0
	c-0.2-0.1-0.5-0.1-0.7,0c-0.2,0.1-0.4,0.3-0.4,0.5c-0.5,1.9-2.4,3-4.3,2.5C51.7,26.9,50.7,26,50.3,24.7L50.3,24.7z"/>
<path class="st0" d="M18.9,24.7c-0.1-0.2-0.2-0.4-0.4-0.5c-0.1,0-0.2-0.1-0.3-0.1c-0.1,0-0.3,0-0.4,0.1c-1.7,1-3.8,0.4-4.8-1.3
	c-0.6-1.1-0.6-2.4,0-3.5c0.1-0.2,0.1-0.5,0-0.7c-0.1-0.2-0.3-0.4-0.5-0.4c-1.9-0.5-3-2.4-2.5-4.3c0.3-1.2,1.3-2.2,2.5-2.5
	c0.2-0.1,0.4-0.2,0.5-0.4c0.1-0.2,0.1-0.4,0-0.6c-1-1.7-0.4-3.8,1.3-4.8c1.1-0.6,2.4-0.6,3.5,0c0.3,0.2,0.8,0.1,1-0.2
	c0-0.1,0.1-0.1,0.1-0.2c0.5-1.9,2.4-3,4.3-2.5c1.2,0.3,2.2,1.3,2.5,2.5c0.1,0.2,0.2,0.4,0.4,0.5c0.2,0.1,0.4,0.1,0.6,0
	c1.7-1,3.8-0.4,4.8,1.3c0.6,1.1,0.6,2.5,0,3.6c-0.1,0.2-0.1,0.4,0,0.6c0.1,0.2,0.3,0.4,0.5,0.4c1.9,0.5,3,2.4,2.5,4.3
	c-0.3,1.2-1.3,2.2-2.5,2.5c-0.2,0.1-0.4,0.2-0.5,0.4c-0.1,0.2-0.1,0.5,0,0.7c1,1.7,0.4,3.8-1.3,4.8c-1.1,0.6-2.4,0.6-3.5,0
	c-0.4-0.2-0.8-0.1-1,0.3c0,0.1-0.1,0.1-0.1,0.2c-0.5,1.9-2.4,3-4.3,2.5C20.2,26.9,19.2,26,18.9,24.7L18.9,24.7z"/>
<line class="st0" x1="8.4" y1="59.5" x2="67.6" y2="59.5"/>
<line class="st0" x1="53.3" y1="57.1" x2="53.3" y2="27.5"/>
<line class="st0" x1="22.2" y1="59.4" x2="22.2" y2="27.6"/>
<line class="st0" x1="53.3" y1="59.4" x2="53.3" y2="27.8"/>
<path class="st0" d="M29.4,34.3c1-1.3,2.6-2,4.9-2.1c0.3,1.8-0.1,3.6-1,5.1c-1,1.2-2.6,1.8-4.8,1.9C28.1,37.5,28.5,35.8,29.4,34.3z"
	/>
<path class="st0" d="M16.3,41.5c-2.2-0.1-3.8-0.7-4.8-1.9c-1-1.5-1.4-3.3-1.1-5.1c2.3,0.2,3.9,0.9,4.9,2.1
	C16.3,38.1,16.6,39.8,16.3,41.5z"/>
<path class="st0" d="M22.4,43.5c0,0,4.8-1.8,6-4.2"/>
<path class="st0" d="M22.1,46.6c-2.1-1.4-4-3.1-5.6-5"/>
<path class="st0" d="M60.3,42.3c1-1.3,2.6-2,4.9-2.1c0.3,1.8-0.1,3.6-1.1,5.1c-1,1.2-2.5,1.8-4.8,1.9C59.1,45.5,59.4,43.7,60.3,42.3
	z"/>
<path class="st0" d="M47.2,49.5c-2.2-0.1-3.8-0.7-4.8-1.9c-1-1.5-1.3-3.3-1-5.1c2.3,0.2,3.9,0.9,4.9,2.1
	C47.3,46.1,47.6,47.8,47.2,49.5L47.2,49.5z"/>
<path class="st0" d="M53.3,51.5c0,0,4.8-1.8,6-4.2"/>
<path class="st0" d="M53,54.6c-2.1-1.4-4-3.1-5.6-5"/>
</svg>
