<?xml version="1.0" encoding="utf-8"?>
<!-- Generator: Adobe Illustrator 25.4.1, SVG Export Plug-In . SVG Version: 6.00 Build 0)  -->
<svg version="1.1" id="Layer_1" xmlns="http://www.w3.org/2000/svg" xmlns:xlink="http://www.w3.org/1999/xlink" x="0px" y="0px"
	 viewBox="0 0 76 62" style="enable-background:new 0 0 76 62;" xml:space="preserve">
<style type="text/css">
	.st0{fill:none;stroke:#000000;stroke-width:3;stroke-linecap:round;stroke-linejoin:round;}
</style>
<path class="st0" d="M63.7,5.7h7.7c0.2,0,0.4,0.2,0.4,0.4v50.3c0,0.2-0.2,0.4-0.4,0.4h-7.7c-0.2,0-0.4-0.2-0.4-0.4V6.1
	C63.3,5.9,63.5,5.7,63.7,5.7z"/>
<path class="st0" d="M4.6,5.7h7.7c0.2,0,0.4,0.2,0.4,0.4v50.3c0,0.2-0.2,0.4-0.4,0.4H4.6c-0.2,0-0.4-0.2-0.4-0.4V6.1
	C4.1,5.9,4.3,5.7,4.6,5.7z"/>
<line class="st0" x1="19.4" y1="11.9" x2="19.4" y2="40.9"/>
<line class="st0" x1="26.9" y1="8" x2="26.9" y2="41.6"/>
<line class="st0" x1="35.4" y1="4.4" x2="35.4" y2="42.6"/>
<line class="st0" x1="12.7" y1="40.9" x2="35.4" y2="42.9"/>
<line class="st0" x1="12.8" y1="47.4" x2="35" y2="50.5"/>
<line class="st0" x1="13" y1="52.3" x2="35" y2="56.3"/>
<line class="st0" x1="35.4" y1="42.9" x2="35.4" y2="57.6"/>
<line class="st0" x1="12.8" y1="36.3" x2="35.4" y2="25.4"/>
<line class="st0" x1="56.6" y1="11.9" x2="56.6" y2="40.9"/>
<line class="st0" x1="49.1" y1="8" x2="49.1" y2="41.6"/>
<line class="st0" x1="40.6" y1="4.4" x2="40.6" y2="42.6"/>
<line class="st0" x1="63.3" y1="40.9" x2="40.6" y2="42.9"/>
<line class="st0" x1="63.2" y1="47.4" x2="41" y2="50.5"/>
<line class="st0" x1="63.1" y1="52.3" x2="41.1" y2="56.3"/>
<line class="st0" x1="40.6" y1="42.9" x2="40.6" y2="57.6"/>
<line class="st0" x1="63.2" y1="36.3" x2="40.6" y2="25.4"/>
<line class="st0" x1="12.8" y1="25" x2="35.4" y2="14.1"/>
<line class="st0" x1="63.2" y1="25" x2="40.6" y2="14.1"/>
</svg>
