<?xml version="1.0" encoding="utf-8"?>
<!-- Generator: Adobe Illustrator 25.4.1, SVG Export Plug-In . SVG Version: 6.00 Build 0)  -->
<svg version="1.1" id="Layer_1" xmlns="http://www.w3.org/2000/svg" xmlns:xlink="http://www.w3.org/1999/xlink" x="0px" y="0px"
	 viewBox="0 0 76 62" style="enable-background:new 0 0 76 62;" xml:space="preserve">
<style type="text/css">
	.st0{fill:none;stroke:#000000;stroke-width:2;stroke-linecap:round;stroke-miterlimit:10;}
</style>
<path class="st0" d="M5.6,49.5c-0.5-4-1.4-8-2.9-11.8c0-0.1,0-0.2,0.1-0.2c0,0,0.1,0,0.1,0c1.2,0.9,5,3.8,5.9,6.7"/>
<path class="st0" d="M8.8,49.5c0,0,1.3-13.3-4.4-23.1c0-0.1,0-0.2,0.1-0.2c0,0,0.1,0,0.1,0c2.1,1.5,9.4,8,9.8,23.3"/>
<path class="st0" d="M69,49.5c0,0-1.3-13.3,4.4-23.1c0-0.1,0-0.1,0-0.2c-0.1,0-0.1,0-0.2,0c-2,1.5-9.4,8-9.8,23.3"/>
<path class="st0" d="M21.4,30.8c-1.9-4.3-4.6-8.1-7.9-11.5c0-0.1-0.1-0.1-0.2,0c-0.1,0-0.1,0.1,0,0.2c3.8,9.5,5.5,19.6,5,29.8"/>
<path class="st0" d="M29.2,22.5c2.5-3.9,5.5-7.6,8.9-10.8c0.1,0,0.2,0,0.2,0c0,0,0,0.1,0,0.1c-2.7,4.2-4.9,8.7-6.5,13.4"/>
<path class="st0" d="M29.9,32L29.9,32c-1.3,5.8-1.8,11.7-1.4,17.6"/>
<path class="st0" d="M21.8,49.5c0,0-1.5-10.5,5.3-23.5"/>
<path class="st0" d="M37.3,49.7c0,0-2.7-19.5,16.3-37.8c0.1,0,0.2,0,0.2,0c0,0,0,0.1,0,0.1C51.2,16,42.6,30.7,44,49.7"/>
<path class="st0" d="M44.4,37.7c1.8-4.5,4.7-8.4,8.5-11.5c0.1-0.1,0.1,0,0.2,0c0,0,0,0.1,0,0.2c-1.3,2.6-6.8,14.1-4.2,23.3"/>
<path class="st0" d="M58.8,49.5c0,0-3.8-18.3,11.3-31.1c0-0.1,0.1-0.1,0.2,0s0.1,0.1,0,0.2l0,0c-1.3,3.1-7.6,18.6-8,31"/>
<path class="st0" d="M54,49.5c0,0,0.8-6.8-1-11.6c0-0.1,0-0.1,0-0.2s0.1,0,0.2,0c1.2,1.1,4.3,4.2,5.2,6.6"/>
<path class="st0" d="M37.2,44.4c0,0-6.8-18.3-12.9-26.4c0-0.1,0-0.2,0-0.2c0,0,0.1,0,0.2,0c3.2,2.9,11.5,10.9,14.3,17.9"/>
<line class="st0" x1="2.5" y1="50.1" x2="73.5" y2="50.4"/>
<path class="st0" d="M32.4,50.1c-0.2-3.9-0.1-7.8,0.5-11.7"/>
<line class="st0" x1="29.9" y1="32" x2="29.9" y2="32"/>
</svg>
