<?xml version="1.0" encoding="utf-8"?>
<!-- Generator: Adobe Illustrator 25.4.1, SVG Export Plug-In . SVG Version: 6.00 Build 0)  -->
<svg version="1.1" id="Layer_1" xmlns="http://www.w3.org/2000/svg" xmlns:xlink="http://www.w3.org/1999/xlink" x="0px" y="0px"
	 viewBox="0 0 76 62" style="enable-background:new 0 0 76 62;" xml:space="preserve">
<style type="text/css">
	.st0{fill:none;stroke:#000000;stroke-width:3;stroke-linecap:round;stroke-linejoin:round;}
</style>
<path class="st0" d="M38,2.5l-8.9,7.1h17.8L38,2.5z"/>
<path class="st0" d="M9.5,52.4h57v7.1h-57V52.4z"/>
<path class="st0" d="M29.1,55.9h17.8v3.6H29.1V55.9z"/>
<path class="st0" d="M29.1,52.4h17.8v3.6H29.1V52.4z"/>
<path class="st0" d="M44.3,15H31.7L9.5,27.4h57L44.3,15z"/>
<path class="st0" d="M31.7,9.6h12.7V15H31.7V9.6z"/>
<path class="st0" d="M9.5,27.4h57V31h-57V27.4z"/>
<path class="st0" d="M13.1,31h3.6v21.4h-3.6V31z"/>
<path class="st0" d="M22,31h3.6v21.4H22V31z"/>
<path class="st0" d="M50.5,31H54v21.4h-3.5V31z"/>
<path class="st0" d="M59.4,31h3.6v21.4h-3.6V31z"/>
</svg>
