<?xml version="1.0" encoding="utf-8"?>
<!-- Generator: Adobe Illustrator 25.4.1, SVG Export Plug-In . SVG Version: 6.00 Build 0)  -->
<svg version="1.1" id="Layer_1" xmlns="http://www.w3.org/2000/svg" xmlns:xlink="http://www.w3.org/1999/xlink" x="0px" y="0px"
	 viewBox="0 0 76 62" style="enable-background:new 0 0 76 62;" xml:space="preserve">
<style type="text/css">
	.st0{fill:none;stroke:#000000;stroke-width:3;stroke-linecap:round;stroke-linejoin:round;}
	.st1{fill:none;stroke:#000000;stroke-width:2;stroke-linecap:round;stroke-linejoin:round;}
</style>
<polygon class="st0" points="32.3,21.5 32.6,41.8 32.6,59.5 69.5,59.5 69.5,30.6 60.2,30.6 60.2,2.5 42.5,2.5 42.5,21.5 33.2,21.5 
	"/>
<path class="st0" d="M49.4,13.5h3.8c0.5,0.1,0.9-0.3,1-0.8c0-0.1,0-0.1,0-0.2V8.7c0.1-0.5-0.3-0.9-0.8-1c-0.1,0-0.1,0-0.2,0h-3.8
	c-0.5,0-0.9,0.3-1,0.8c0,0.1,0,0.1,0,0.2v3.8C48.5,13,48.9,13.4,49.4,13.5z"/>
<path class="st0" d="M49.4,23.7h3.8c0.5,0.1,0.9-0.3,1-0.8c0-0.1,0-0.1,0-0.2v-3.8c0-0.5-0.3-0.9-0.8-0.9c-0.1,0-0.1,0-0.2,0h-3.8
	c-0.5,0-0.9,0.3-0.9,0.8c0,0,0,0.1,0,0.1v3.8C48.5,23.2,48.9,23.6,49.4,23.7z"/>
<path class="st0" d="M49.4,54.2h3.8c0.5,0.1,0.9-0.3,1-0.8c0-0.1,0-0.1,0-0.2v-3.8c0-0.5-0.3-0.9-0.8-1c-0.1,0-0.1,0-0.2,0h-3.8
	c-0.5,0-0.9,0.4-1,0.8c0,0,0,0.1,0,0.1v3.8C48.5,53.8,48.9,54.2,49.4,54.2z"/>
<path class="st0" d="M49.4,33.8h3.8c0.5,0.1,0.9-0.3,1-0.8c0-0.1,0-0.1,0-0.2v-3.8c0-0.5-0.3-0.9-0.8-0.9c-0.1,0-0.1,0-0.2,0h-3.8
	c-0.5,0-0.9,0.3-0.9,0.8c0,0,0,0.1,0,0.1v3.8C48.5,33.4,48.9,33.8,49.4,33.8z"/>
<path class="st0" d="M49.4,44h3.8c0.5,0.1,0.9-0.3,1-0.8c0-0.1,0-0.1,0-0.2v-3.8c0-0.5-0.3-0.9-0.8-1c-0.1,0-0.1,0-0.2,0h-3.8
	c-0.5,0-0.9,0.4-1,0.8c0,0,0,0.1,0,0.1v3.8C48.5,43.6,48.9,44,49.4,44z"/>
<path class="st0" d="M39.2,54.2H43c0.5,0.1,0.9-0.3,1-0.8c0-0.1,0-0.1,0-0.2v-3.8c0-0.5-0.3-0.9-0.8-1c-0.1,0-0.1,0-0.2,0h-3.8
	c-0.5-0.1-0.9,0.3-1,0.8c0,0.1,0,0.1,0,0.2v3.8C38.2,53.8,38.7,54.2,39.2,54.2z"/>
<path class="st0" d="M39.2,33.8H43c0.5,0.1,0.9-0.3,1-0.8c0-0.1,0-0.1,0-0.2v-3.8c0-0.5-0.3-0.9-0.8-0.9c-0.1,0-0.1,0-0.2,0h-3.8
	c-0.5-0.1-0.9,0.3-1,0.8c0,0.1,0,0.1,0,0.2v3.8C38.2,33.4,38.7,33.8,39.2,33.8z"/>
<path class="st0" d="M39.2,44H43c0.5,0.1,0.9-0.3,1-0.8c0-0.1,0-0.1,0-0.2v-3.8c0-0.5-0.3-0.9-0.8-1c-0.1,0-0.1,0-0.2,0h-3.8
	c-0.5-0.1-0.9,0.3-1,0.8c0,0.1,0,0.1,0,0.2v3.8C38.2,43.6,38.7,44,39.2,44z"/>
<path class="st0" d="M59.6,54.2h3.8c0.5,0,0.9-0.4,1-0.8c0,0,0-0.1,0-0.1v-3.8c0-0.5-0.4-0.9-0.8-1c0,0-0.1,0-0.1,0h-3.8
	c-0.5-0.1-0.9,0.3-1,0.8c0,0.1,0,0.1,0,0.2v3.8C58.6,53.8,59.1,54.2,59.6,54.2z"/>
<path class="st0" d="M59.6,44h3.8c0.5,0,0.9-0.3,0.9-0.8c0,0,0-0.1,0-0.1v-3.8c0-0.5-0.4-0.9-0.8-1c0,0-0.1,0-0.1,0h-3.8
	c-0.5-0.1-0.9,0.3-1,0.8c0,0.1,0,0.1,0,0.2v3.8C58.6,43.6,59.1,44,59.6,44z"/>
<path class="st1" d="M14.9,38.7c-4.7-0.7-8.4-5.9-8.4-12.2c0-5.7,7-19.4,9.5-24.3c2,3.7,6.6,12.6,8.6,19.2c0.5,1.6,0.9,3.3,1,5
	c0,1-0.1,2-0.3,3c-0.2,1-0.5,1.9-0.9,2.9c-0.1,0.3-0.3,0.6-0.4,0.8c-0.9,1.9-2.4,3.5-4.2,4.5c-0.8,0.4-1.7,0.7-2.6,0.8"/>
<line class="st1" x1="16" y1="23.7" x2="16" y2="59.7"/>
<polyline class="st1" points="11,27 16,32 21,27 "/>
</svg>
