<?xml version="1.0" encoding="utf-8"?>
<!-- Generator: Adobe Illustrator 25.4.1, SVG Export Plug-In . SVG Version: 6.00 Build 0)  -->
<svg version="1.1" id="Layer_1" xmlns="http://www.w3.org/2000/svg" xmlns:xlink="http://www.w3.org/1999/xlink" x="0px" y="0px"
	 viewBox="0 0 76 62" style="enable-background:new 0 0 76 62;" xml:space="preserve">
<style type="text/css">
	.st0{fill:none;stroke:#000000;stroke-width:3;stroke-linecap:round;stroke-linejoin:round;}
</style>
<path class="st0" d="M40.6,2.5h-5c-0.5,0-0.8,0.4-0.8,0.8l0,0V10c0,1.2-0.4,2.3-1.1,3.1L33,13.9l-0.6,0.7c-1.8,2.3-2.7,4.7-2.7,8.8
	c0,0.5,0.4,0.8,0.8,0.8c0,0,0,0,0,0h15c0.5,0,0.8-0.4,0.8-0.8c0,0,0,0,0,0c0-3.9-0.8-6.3-2.4-8.5l-0.4-0.5l-0.8-1
	c-0.9-0.9-1.4-2.2-1.4-3.4V3.3C41.4,2.9,41,2.5,40.6,2.5z"/>
<path class="st0" d="M60.6,8.8c-3-0.8-6.1,0.9-6.9,3.9l-3.2,11.5h11.8l2.3-8.6C65.4,12.7,63.6,9.6,60.6,8.8L60.6,8.8z"/>
<path class="st0" d="M22.4,9.4l-11.6,2c-0.5,0.1-0.8,0.5-0.7,1c0,0,0,0,0,0l2,11.2c0.1,0.4,0.4,0.7,0.8,0.7h11.9
	c0.5,0,0.8-0.4,0.8-0.8c0-0.1,0-0.1,0-0.2l-2.3-13.2C23.3,9.6,22.9,9.3,22.4,9.4C22.4,9.4,22.4,9.4,22.4,9.4L22.4,9.4z"/>
<path class="st0" d="M11.1,33.6l-1.2-8.3c-0.1-0.5,0.3-0.9,0.7-0.9c0,0,0,0,0,0h55c0.5,0,0.8,0.4,0.8,0.8v0.1L64.9,34"/>
<path class="st0" d="M63.7,44.3l-1.9,14.5c-0.1,0.4-0.4,0.7-0.8,0.7H15.1c-0.4-0.1-0.6-0.4-0.7-0.7l-2.2-14.5"/>
<path class="st0" d="M15.9,27.4c-1.2-0.4-2.4,0.2-2.9,1.3c0,0,0,0,0,0L4.4,52.5C4,53.7,4.6,55,5.8,55.4c1.1,0.4,2.4-0.2,2.8-1.3
	l8.7-23.8C17.7,29.1,17.1,27.8,15.9,27.4C15.9,27.4,15.9,27.4,15.9,27.4z"/>
<path class="st0" d="M25.5,29.3c-1.4,0-2.5,1.1-2.5,2.5V52c0.2,1.4,1.4,2.4,2.8,2.2c1.1-0.1,2-1,2.2-2.2V31.8
	C28,30.5,26.9,29.3,25.5,29.3C25.5,29.3,25.5,29.3,25.5,29.3z"/>
<path class="st0" d="M50.6,29.3c-1.4,0-2.5,1.1-2.5,2.5V52c0.2,1.4,1.4,2.4,2.8,2.2c1.1-0.1,2-1,2.2-2.2V31.8
	C53.1,30.5,52,29.3,50.6,29.3z"/>
<path class="st0" d="M38.1,29.3c-1.4,0-2.5,1.1-2.5,2.5c0,0,0,0,0,0V52c0.2,1.4,1.4,2.4,2.8,2.2c1.1-0.1,2-1,2.2-2.2V31.8
	C40.6,30.5,39.4,29.3,38.1,29.3z"/>
<path class="st0" d="M70.3,55.4c-1.2,0.4-2.4-0.2-2.9-1.3l-8.7-23.8c-0.5-1.1,0-2.5,1.2-2.9c1.1-0.5,2.5,0,2.9,1.2
	c0,0.1,0.1,0.2,0.1,0.2l8.7,23.8C72,53.7,71.4,55,70.3,55.4C70.3,55.4,70.3,55.4,70.3,55.4z"/>
<line class="st0" x1="34.7" y1="9.4" x2="41.1" y2="9.4"/>
</svg>
