<?xml version="1.0" encoding="utf-8"?>
<!-- Generator: Adobe Illustrator 25.4.1, SVG Export Plug-In . SVG Version: 6.00 Build 0)  -->
<svg version="1.1" id="Layer_1" xmlns="http://www.w3.org/2000/svg" xmlns:xlink="http://www.w3.org/1999/xlink" x="0px" y="0px"
	 viewBox="0 0 76 62" style="enable-background:new 0 0 76 62;" xml:space="preserve">
<style type="text/css">
	.st0{fill:none;stroke:#000000;stroke-miterlimit:10;}
	.st1{fill:none;stroke:#000000;stroke-width:3;stroke-linecap:round;stroke-linejoin:round;}
</style>
<path class="st0" d="M30.2,18.5c2.1,0,3.9-1.7,3.9-3.8c0-1.3-0.6-2.4-1.6-3.2l-0.1-0.1h-0.1l-0.2-0.1c-1.2-0.7-1.7-2.3-1-3.5
	c0.5-0.8,1.3-1.3,2.3-1.3"/>
<path class="st0" d="M36.5,14.5c2.1,0,3.9-1.7,3.9-3.9c0-1.2-0.6-2.4-1.6-3.1l-0.1-0.1h-0.1l-0.2-0.1c-1.2-0.7-1.6-2.3-0.9-3.5
	C38,3,38.8,2.5,39.8,2.5"/>
<path class="st0" d="M42.8,20.3c2.1,0,3.9-1.7,3.9-3.8c0-1.3-0.6-2.4-1.6-3.2L45,13.2h-0.1l-0.2-0.1c-1.2-0.7-1.7-2.3-1-3.5
	c0.5-0.8,1.3-1.3,2.3-1.3"/>
<polygon class="st1" points="7,53.3 17.3,59.4 58.7,59.5 69,53.5 68.8,30.9 58.8,36.7 17.6,37 7.3,30.5 "/>
<line class="st1" x1="17.6" y1="37" x2="17.6" y2="59.1"/>
<line class="st1" x1="58.5" y1="36.8" x2="58.5" y2="59.4"/>
<line class="st1" x1="24.8" y1="37" x2="24.8" y2="59.3"/>
<line class="st1" x1="41.5" y1="36.8" x2="41.5" y2="59"/>
<line class="st1" x1="24.8" y1="41" x2="40.6" y2="41"/>
<line class="st1" x1="24.8" y1="48" x2="41.4" y2="48"/>
<line class="st1" x1="24.9" y1="54.7" x2="41.2" y2="54.7"/>
<polyline class="st1" points="13.9,34.5 22,30 54.3,30 62.1,34.4 "/>
<path class="st1" d="M7.4,30.5c0.4-0.2,10.3-5.8,10.3-5.8h40.9l10.3,6.2"/>
</svg>
