<?xml version="1.0" encoding="utf-8"?>
<!-- Generator: Adobe Illustrator 25.4.1, SVG Export Plug-In . SVG Version: 6.00 Build 0)  -->
<svg version="1.1" id="Layer_1" xmlns="http://www.w3.org/2000/svg" xmlns:xlink="http://www.w3.org/1999/xlink" x="0px" y="0px"
	 viewBox="0 0 76 62" style="enable-background:new 0 0 76 62;" xml:space="preserve">
<style type="text/css">
	.st0{fill:none;stroke:#000000;stroke-width:3;stroke-linecap:round;stroke-linejoin:round;}
</style>
<line class="st0" x1="18.8" y1="10.8" x2="25.3" y2="35.4"/>
<line class="st0" x1="63.2" y1="10.8" x2="57.2" y2="26"/>
<line class="st0" x1="57.3" y1="10.8" x2="66.9" y2="10.8"/>
<polyline class="st0" points="8.5,3 13.8,10.8 22.8,10.8 "/>
<polyline class="st0" points="36.8,48.8 44.8,48.8 48,45.5 "/>
<line class="st0" x1="48.1" y1="59" x2="56.5" y2="59"/>
<line class="st0" x1="28.2" y1="59" x2="36.6" y2="59"/>
<circle class="st0" cx="53" cy="40" r="6.7"/>
<path class="st0" d="M27.6,53.7c0,0-6.4-0.8-7.7-8.5c0,0-1.1-6.8,6.2-9.4l25.1-8.6c4.6-1.5,9.6-0.2,12.9,3.3
	c6.8,7.4,2.8,21.7-7.6,23.2H28.2"/>
</svg>
