<?xml version="1.0" encoding="utf-8"?>
<!-- Generator: Adobe Illustrator 25.4.1, SVG Export Plug-In . SVG Version: 6.00 Build 0)  -->
<svg version="1.1" id="Layer_1" xmlns="http://www.w3.org/2000/svg" xmlns:xlink="http://www.w3.org/1999/xlink" x="0px" y="0px"
	 viewBox="0 0 76 62" style="enable-background:new 0 0 76 62;" xml:space="preserve">
<style type="text/css">
	.st0{fill:none;stroke:#000000;stroke-width:3;stroke-linecap:round;stroke-linejoin:round;}
</style>
<path class="st0" d="M9.6,29.8h56.8c0.5,0,0.8,0.4,0.8,0.8v7.5c0,0.5-0.4,0.8-0.8,0.8H9.6c-0.5,0-0.8-0.4-0.8-0.8v-7.5
	C8.8,30.2,9.1,29.8,9.6,29.8z"/>
<line class="st0" x1="57.4" y1="39.1" x2="57.4" y2="54.9"/>
<line class="st0" x1="18.4" y1="39.1" x2="18.4" y2="55.1"/>
<path class="st0" d="M15,55.2h6.7c0.3,0,0.5,0.2,0.5,0.5V59c0,0.3-0.2,0.5-0.5,0.5H15c-0.3,0-0.5-0.2-0.5-0.5v-3.3
	C14.5,55.4,14.7,55.2,15,55.2z"/>
<path class="st0" d="M54.2,55.2h6.7c0.3,0,0.5,0.2,0.5,0.5V59c0,0.3-0.2,0.5-0.5,0.5h-6.7c-0.3,0-0.5-0.2-0.5-0.5v-3.3
	C53.7,55.4,53.9,55.2,54.2,55.2z"/>
<circle class="st0" cx="45.3" cy="17.7" r="3.5"/>
<line class="st0" x1="45.3" y1="14.2" x2="45.3" y2="2.6"/>
<circle class="st0" cx="30.6" cy="17.7" r="3.5"/>
<line class="st0" x1="30.7" y1="2.5" x2="30.7" y2="14.2"/>
</svg>
