<?xml version="1.0" encoding="utf-8"?>
<!-- Generator: Adobe Illustrator 25.4.1, SVG Export Plug-In . SVG Version: 6.00 Build 0)  -->
<svg version="1.1" id="Layer_1" xmlns="http://www.w3.org/2000/svg" xmlns:xlink="http://www.w3.org/1999/xlink" x="0px" y="0px"
	 viewBox="0 0 76 62" style="enable-background:new 0 0 76 62;" xml:space="preserve">
<style type="text/css">
	.st0{fill:none;stroke:#000000;stroke-width:3;stroke-linecap:round;stroke-linejoin:round;}
</style>
<path class="st0" d="M40,50.3c-4.2,6.3-12.7,7.9-18.9,3.7s-7.9-12.7-3.7-18.9c1-1.5,2.4-2.8,3.9-3.8"/>
<path class="st0" d="M30.4,2.5c2.7,0,4.9,2.2,4.9,4.9s-2.2,4.9-4.9,4.9s-4.9-2.2-4.9-4.9l0,0C25.5,4.7,27.7,2.5,30.4,2.5z"/>
<path class="st0" d="M66.3,59.5h-5.7c1.3-1.1,1.5-3.1,0.4-4.5c-0.6-0.7-1.5-1.1-2.4-1.1h-3.9l-5.7-13.3c-0.5-1.2-1.7-1.9-2.9-1.9
	H33.9V25.7l7.2,6.9c0.6,0.6,1.4,0.9,2.2,0.9c1.7,0,3.1-1.4,3.1-3.1c0-0.9-0.4-1.7-1-2.3L33.2,16.3C32,15,30,14.8,28.7,16
	c-0.7,0.6-1.1,1.5-1.1,2.4v23.5c0,1.7,1.4,3.2,3.1,3.2c0,0,0,0,0,0H44l5.6,13.2c0.2,0.5,0.5,1,1,1.4h-41"/>
<line class="st0" x1="61" y1="59.5" x2="50.4" y2="59.5"/>
</svg>
