<?xml version="1.0" encoding="utf-8"?>
<!-- Generator: Adobe Illustrator 25.4.1, SVG Export Plug-In . SVG Version: 6.00 Build 0)  -->
<svg version="1.1" id="Layer_1" xmlns="http://www.w3.org/2000/svg" xmlns:xlink="http://www.w3.org/1999/xlink" x="0px" y="0px"
	 viewBox="0 0 76 62" style="enable-background:new 0 0 76 62;" xml:space="preserve">
<style type="text/css">
	.st0{fill:none;stroke:#000000;stroke-width:3;stroke-linecap:round;stroke-linejoin:round;}
</style>
<rect x="6.8" y="38.7" class="st0" width="62.3" height="14.8"/>
<path class="st0" d="M2.5,34.6h71l0,0v20.9c0,1.1-0.9,2.1-2.1,2.1H4.6c-1.1,0-2.1-0.9-2.1-2.1V34.6L2.5,34.6z"/>
<path class="st0" d="M18.3,4.4h39.3c0.8,0,1.5,0.6,1.5,1.4v22.5c0,0.8-0.6,1.5-1.5,1.5H18.3c-0.8,0-1.5-0.6-1.5-1.5V5.8
	C16.9,5,17.5,4.4,18.3,4.4z"/>
<line class="st0" x1="32.4" y1="30.3" x2="32.4" y2="34.6"/>
<line class="st0" x1="43.6" y1="30.3" x2="43.6" y2="34.6"/>
<path class="st0" d="M4,14.1H9c0.8,0,1.4,0.6,1.4,1.4v19l0,0h-8l0,0v-19C2.4,14.8,3.1,14.1,4,14.1C3.9,14.1,3.9,14.1,4,14.1z"/>
<circle cx="6.5" cy="20.4" r="1.8"/>
<circle cx="6.5" cy="28.3" r="1.8"/>
<path class="st0" d="M67,14.1h5.1c0.8,0,1.4,0.6,1.4,1.4v19l0,0h-8l0,0v-19C65.5,14.8,66.2,14.1,67,14.1C67,14.1,67,14.1,67,14.1z"
	/>
<circle cx="69.5" cy="20.4" r="1.8"/>
<circle cx="69.5" cy="28.3" r="1.8"/>
</svg>
