<?xml version="1.0" encoding="utf-8"?>
<!-- Generator: Adobe Illustrator 25.4.1, SVG Export Plug-In . SVG Version: 6.00 Build 0)  -->
<svg version="1.1" id="Layer_1" xmlns="http://www.w3.org/2000/svg" xmlns:xlink="http://www.w3.org/1999/xlink" x="0px" y="0px"
	 viewBox="0 0 76 62" style="enable-background:new 0 0 76 62;" xml:space="preserve">
<style type="text/css">
	.st0{fill:none;stroke:#000000;stroke-width:3;stroke-linecap:round;stroke-miterlimit:10;}
</style>
<line class="st0" x1="38" y1="3.3" x2="38" y2="19"/>
<line class="st0" x1="32.5" y1="31.7" x2="43" y2="31.7"/>
<circle class="st0" cx="19.1" cy="42" r="11.2"/>
<circle class="st0" cx="56.8" cy="42" r="11.2"/>
<circle class="st0" cx="56.8" cy="36.7" r="2"/>
<circle class="st0" cx="56.8" cy="47.4" r="2"/>
<circle class="st0" cx="51.4" cy="42" r="2"/>
<circle class="st0" cx="62.3" cy="42" r="2"/>
<path class="st0" d="M17,39.6v-3.5c0-0.2,0.2-0.4,0.4-0.4l0,0h3.2c0.2,0,0.4,0.2,0.4,0.4l0,0v3.5"/>
<path class="st0" d="M21,43.6v3.5c0,0.2-0.2,0.4-0.4,0.4c0,0,0,0,0,0h-3.2c-0.2,0-0.4-0.2-0.4-0.4c0,0,0,0,0,0v-3.5"/>
<path class="st0" d="M21,39.6h3.5c0.2,0,0.4,0.2,0.4,0.4v3.2c0,0.2-0.2,0.4-0.4,0.4c0,0,0,0,0,0H21"/>
<path class="st0" d="M17,43.6h-3.5c-0.2,0-0.4-0.2-0.4-0.4l0,0V40c0-0.2,0.2-0.4,0.4-0.4c0,0,0,0,0,0H17"/>
<circle class="st0" cx="38" cy="39.1" r="2.6"/>
<path class="st0" d="M19.1,25.4C10,25.4,2.5,32.8,2.5,42c0,9.2,7.5,16.6,16.7,16.6c6.2,0,11.9-3.4,14.7-8.9"/>
<path class="st0" d="M35.5,38.8L35.5,38.8c0.1,0.5,0.2,0.9,0.2,1.4"/>
<path class="st0" d="M56.8,25.4c9.2,0,16.6,7.5,16.6,16.7S66,58.7,56.8,58.7c-6.2,0-11.9-3.4-14.7-8.9"/>
<line class="st0" x1="33.9" y1="49.8" x2="41.9" y2="49.8"/>
<polyline class="st0" points="56.8,25.4 45.6,25.4 30.4,25.4 19.1,25.4 "/>
<path class="st0" d="M30.4,25.4v-1.2c0-2.5,2-4.6,4.6-4.6c0,0,0,0,0,0h6c2.5,0,4.6,2,4.6,4.6c0,0,0,0,0,0v1.2"/>
</svg>
