<?xml version="1.0" encoding="utf-8"?>
<!-- Generator: Adobe Illustrator 25.4.1, SVG Export Plug-In . SVG Version: 6.00 Build 0)  -->
<svg version="1.1" id="Layer_1" xmlns="http://www.w3.org/2000/svg" xmlns:xlink="http://www.w3.org/1999/xlink" x="0px" y="0px"
	 viewBox="0 0 76 62" style="enable-background:new 0 0 76 62;" xml:space="preserve">
<style type="text/css">
	.st0{fill:none;stroke:#000000;stroke-width:3;stroke-linecap:round;stroke-linejoin:round;}
</style>
<path class="st0" d="M34.8,38.4c-1.6,1.6-3,3.4-4.8,4.9c-5.3,4.5-11.3,5.6-17.6,2.9c-5.8-2.3-9.7-7.8-10-14c0-7.8,4-13.8,10.2-16.4
	c6.3-2.6,13.6-1.1,18.3,3.8c4.9,4.9,9.7,9.9,14.6,14.9c2.2,2.3,4.3,4.6,6.7,6.6c5.3,4.4,13.1,3.9,17.8-1.2
	c4.7-5.2,4.6-13.1-0.4-18.1c-4.9-4.9-12.9-5-18-0.2c-1.5,1.4-2.9,3-4.3,4.4"/>
</svg>
