<?xml version="1.0" encoding="utf-8"?>
<!-- Generator: Adobe Illustrator 25.4.1, SVG Export Plug-In . SVG Version: 6.00 Build 0)  -->
<svg version="1.1" id="Layer_1" xmlns="http://www.w3.org/2000/svg" xmlns:xlink="http://www.w3.org/1999/xlink" x="0px" y="0px"
	 viewBox="0 0 76 62" style="enable-background:new 0 0 76 62;" xml:space="preserve">
<style type="text/css">
	.st0{fill:none;stroke:#000000;stroke-width:3;stroke-linecap:round;stroke-linejoin:round;}
</style>
<path class="st0" d="M6.5,24.1v-8.3c0-2.4,2-4.4,4.4-4.4c0,0,0,0,0.1,0h54c2.4,0,4.4,2,4.4,4.4c0,0,0,0,0,0v8.3"/>
<line class="st0" x1="65.7" y1="38" x2="10.3" y2="38"/>
<polyline class="st0" points="73.5,38 73.5,46 69.4,46 6.4,46 2.5,46 2.5,38 "/>
<line class="st0" x1="65.4" y1="38" x2="10.6" y2="38"/>
<path class="st0" d="M2.5,38V28c0-2.1,1.7-3.9,3.9-3.9h0.1c1,0,1.9,0.4,2.6,1.1C9.9,26,10.3,27,10.3,28v10"/>
<path class="st0" d="M65.7,38V28c0-2.1,1.6-3.8,3.7-3.9h0.2c2.1,0,3.9,1.7,3.9,3.9c0,0,0,0,0,0v10"/>
<line class="st0" x1="10.3" y1="33.3" x2="65" y2="33.3"/>
<line class="st0" x1="6.4" y1="46" x2="6.4" y2="50.6"/>
<line class="st0" x1="69.4" y1="46" x2="69.4" y2="50.6"/>
</svg>
