<?xml version="1.0" encoding="utf-8"?>
<!-- Generator: Adobe Illustrator 25.4.1, SVG Export Plug-In . SVG Version: 6.00 Build 0)  -->
<svg version="1.1" id="Layer_1" xmlns="http://www.w3.org/2000/svg" xmlns:xlink="http://www.w3.org/1999/xlink" x="0px" y="0px"
	 viewBox="0 0 76 62" style="enable-background:new 0 0 76 62;" xml:space="preserve">
<style type="text/css">
	.st0{fill:none;stroke:#000000;stroke-width:3;stroke-linecap:round;stroke-linejoin:round;}
	.st1{fill:none;stroke:#000000;stroke-width:1.5;stroke-linecap:round;stroke-linejoin:round;}
	.st2{fill:none;stroke:#000000;stroke-width:2.5;stroke-linecap:round;stroke-linejoin:round;}
</style>
<path class="st0" d="M9,5.3H67c3.6,0,6.5,2.9,6.5,6.5v38.3c0,3.6-2.9,6.5-6.5,6.5H9c-3.6,0-6.5-2.9-6.5-6.5V11.8
	C2.5,8.2,5.4,5.3,9,5.3z"/>
<path class="st0" d="M16.1,10.5h24.3c4.6,0,8.4,3.7,8.4,8.4v24.3c0,4.6-3.7,8.4-8.4,8.4H16.1c-4.6,0-8.4-3.7-8.4-8.4V18.9
	C7.7,14.3,11.5,10.5,16.1,10.5z"/>
<line class="st1" x1="56.2" y1="12.3" x2="66.4" y2="12.3"/>
<line class="st1" x1="54.5" y1="15.5" x2="68.1" y2="15.5"/>
<line class="st1" x1="56.2" y1="25.3" x2="66.4" y2="25.3"/>
<line class="st1" x1="54.5" y1="22" x2="68.1" y2="22"/>
<line class="st1" x1="51.9" y1="18.8" x2="70.7" y2="18.8"/>
<ellipse class="st1" cx="55.2" cy="38.4" rx="1.6" ry="1.7"/>
<ellipse class="st1" cx="61.7" cy="38.4" rx="1.6" ry="1.7"/>
<ellipse class="st1" cx="68.1" cy="38.3" rx="1.6" ry="1.7"/>
<ellipse class="st1" cx="55.2" cy="45" rx="1.6" ry="1.7"/>
<ellipse class="st1" cx="61.7" cy="45" rx="1.6" ry="1.7"/>
<ellipse class="st1" cx="68.1" cy="44.9" rx="1.6" ry="1.7"/>
<path class="st2" d="M10.9,50.6c0-2.5,1.5-4.7,3.8-5.6c2.5-0.8,4.4-1.2,6.3-1.9c1.5-0.6,2-1.9,2.2-3.4"/>
<path class="st2" d="M45.7,50.5c0-2.5-1.5-4.7-3.8-5.6c-2.4-0.7-4.1-1-5.9-1.7s-2.4-1.8-2.6-3.6"/>
<path class="st2" d="M22,43.3c-1.4-1.3,7.8,4.5,12.4,0"/>
<path class="st2" d="M21.9,25.2c-1.5,2.1-5.1,8,0.1,12.7c-1.5-1.4,7.6,4.1,12.4,0c0,0,6.2-6.3-0.5-13c-0.3-0.3-0.8-0.3-1.1,0
	c-1.5,1.4-5.8,4.7-9.8,0.2c-0.3-0.3-0.8-0.3-1.1-0.1C22,25.2,21.9,25.2,21.9,25.2z"/>
<path class="st2" d="M19.3,33.3c-0.7-2.2-1.1-4.5-1.2-6.9c-0.1-5.2,2.9-9.5,8-10.5c1.6-0.3,3.2,0.6,4.8,0.9c2.1,0.4,3.8,1.3,4.4,3.4
	c0,0.1,0,0.1,0.1,0.1c0.1,0,0.1,0,0.2,0c0.5,0,1,0.2,1.5,0.4c0.7,0.4,1.3,0.9,1.8,1.6c0.4,0.7,0.6,1.6,0.5,2.4c0.1,1,0,2-0.1,3
	c-0.3,1.7-1.1,3.4-2.3,4.7"/>
</svg>
