<?xml version="1.0" encoding="utf-8"?>
<!-- Generator: Adobe Illustrator 25.4.1, SVG Export Plug-In . SVG Version: 6.00 Build 0)  -->
<svg version="1.1" id="Layer_1" xmlns="http://www.w3.org/2000/svg" xmlns:xlink="http://www.w3.org/1999/xlink" x="0px" y="0px"
	 viewBox="0 0 76 62" style="enable-background:new 0 0 76 62;" xml:space="preserve">
<style type="text/css">
	.st0{fill:none;stroke:#000000;stroke-width:3;stroke-linecap:round;stroke-linejoin:round;}
	.st1{fill:none;stroke:#000000;stroke-width:2;stroke-linecap:round;stroke-linejoin:round;}
	.st2{fill:none;stroke:#000000;stroke-linecap:round;stroke-linejoin:round;}
</style>
<path class="st0" d="M38.7,30.3c0-0.2-0.1-0.4-0.1-0.6V5.2c-0.1-1.6-1.4-2.9-3-2.8c-1.6,0.1-2.9,1.4-2.8,3v24.2
	c0,0.5-0.1,0.7-0.4,0.7s-0.3-0.2-0.3-0.7V10.9c0-0.2,0-0.4,0-0.7c-0.2-1.5-1.7-2.5-3.2-2.3c-0.3,0-0.6,0.1-0.8,0.3
	c-1,0.5-1.6,1.5-1.5,2.5v21.9c0,0.3-0.1,0.5-0.3,0.5S26,32.9,26,32.7c0-0.1,0-0.1,0-0.2c0-4,0-8,0-11.9c0-0.5-0.1-0.9-0.3-1.4
	c-0.7-1.4-2.4-1.9-3.7-1.2c-1,0.5-1.6,1.5-1.5,2.6c0,7.8,0,15.7,0,23.5c0,3.3,1,6.5,3,9.1c3.6,5,10,7.4,16,5.9
	c4.9-1.2,8.9-4.7,10.7-9.4c0.4-1,0.7-2,1-3c0.1-0.3,0.1-0.5,0.2-0.8l0,0c0-0.5,0-1,0-1.5L51,36.2c-0.1-2.1-0.1-4.1,0.1-6.2
	c0.2-1.7,0.9-3.2,2-4.4c0.7-0.7,1.4-1.4,2.1-2.1c0.5-0.5,0.5-0.6-0.2-0.9c-2.3-0.9-5-0.4-6.9,1.2c-1.2,1.1-2.2,2.5-2.7,4
	c-0.1,0.2-0.1,0.4-0.1,0.6c0,1.4,0,2.8,0,4.1c0,0.3-0.1,0.5-0.3,0.5s-0.4-0.2-0.4-0.5v-3.1c0-5.6,0-11.3,0-16.9
	c0-1.5-1.2-2.8-2.7-2.8c-0.7,0-1.3,0.2-1.8,0.7c-0.5,0.3-0.8,0.9-0.7,1.5c0,5.9,0,11.8,0,17.7c0,0.2,0.1,0.4,0,0.5s-0.3,0.1-0.5,0.2
	L38.7,30.3z"/>
<circle class="st1" cx="35.8" cy="44.1" r="11.5"/>
<line class="st2" x1="38" y1="41.8" x2="41" y2="38.8"/>
<line class="st2" x1="36.6" y1="41" x2="37.7" y2="36.9"/>
<line class="st2" x1="38.9" y1="43.2" x2="43" y2="42.1"/>
<line class="st2" x1="38.9" y1="44.9" x2="43" y2="46"/>
<line class="st2" x1="38" y1="46.3" x2="41" y2="49.3"/>
<line class="st2" x1="36.6" y1="47.2" x2="37.7" y2="51.3"/>
<line class="st2" x1="33.5" y1="41.8" x2="30.5" y2="38.8"/>
<line class="st2" x1="34.9" y1="41" x2="33.8" y2="36.9"/>
<line class="st2" x1="32.6" y1="43.2" x2="28.5" y2="42.1"/>
<line class="st2" x1="32.6" y1="44.9" x2="28.5" y2="46"/>
<line class="st2" x1="33.5" y1="46.3" x2="30.5" y2="49.3"/>
<line class="st2" x1="34.9" y1="47.2" x2="33.8" y2="51.3"/>
</svg>
