<?xml version="1.0" encoding="utf-8"?>
<!-- Generator: Adobe Illustrator 25.4.1, SVG Export Plug-In . SVG Version: 6.00 Build 0)  -->
<svg version="1.1" id="Layer_1" xmlns="http://www.w3.org/2000/svg" xmlns:xlink="http://www.w3.org/1999/xlink" x="0px" y="0px"
	 viewBox="0 0 76 62" style="enable-background:new 0 0 76 62;" xml:space="preserve">
<style type="text/css">
	.st0{fill:none;stroke:#000000;stroke-width:3;stroke-linecap:round;stroke-linejoin:round;}
</style>
<path class="st0" d="M4.6,35.5h66.8c1.1,0,2.1,0.9,2.1,2.1v1.9c0,1.1-0.9,2.1-2.1,2.1H4.6c-1.1,0-2.1-0.9-2.1-2.1v-1.9
	C2.5,36.5,3.4,35.5,4.6,35.5z"/>
<path class="st0" d="M36.2,11.7H16.8c-5.2,0-9.5,4.2-9.5,9.5v14.4h62V21.2c0-5.2-4.2-9.5-9.5-9.5l0,0H40.1"/>
<path class="st0" d="M36.2,11.7h-7.9c-3.4,0-6.5,1.8-8.2,4.7c-0.9,1.5-1.3,3.1-1.3,4.8v14.4h38.5V21.2c0-1.7-0.4-3.3-1.3-4.8
	c-1.7-2.9-4.8-4.7-8.1-4.7h-7.9"/>
<line class="st0" x1="38" y1="3.4" x2="38" y2="34.5"/>
<line class="st0" x1="35.4" y1="43" x2="35.4" y2="51.1"/>
<line class="st0" x1="41.2" y1="43.3" x2="41.2" y2="51.4"/>
<line class="st0" x1="20.5" y1="58.6" x2="55.3" y2="58.6"/>
<path class="st0" d="M44.3,58.6H32v-5.3c0-0.5,0.3-0.9,0.7-1.1c3.4-1.8,7.6-1.8,11,0c0.4,0.2,0.7,0.6,0.7,1.1L44.3,58.6z"/>
</svg>
