<?xml version="1.0" encoding="utf-8"?>
<!-- Generator: Adobe Illustrator 25.4.1, SVG Export Plug-In . SVG Version: 6.00 Build 0)  -->
<svg version="1.1" id="Layer_1" xmlns="http://www.w3.org/2000/svg" xmlns:xlink="http://www.w3.org/1999/xlink" x="0px" y="0px"
	 viewBox="0 0 76 62" style="enable-background:new 0 0 76 62;" xml:space="preserve">
<style type="text/css">
	.st0{fill:none;stroke:#000000;stroke-width:2.72;stroke-linecap:round;stroke-linejoin:round;}
</style>
<rect x="5.8" y="45.1" class="st0" width="64.3" height="3.6"/>
<rect x="16.4" y="48.7" class="st0" width="7.2" height="10.8"/>
<rect x="52.2" y="48.7" class="st0" width="7.2" height="10.8"/>
<path class="st0" d="M14.9,4.1h10.6c0.3,0,0.6,0.3,0.6,0.6v0v40.4l0,0H14.2l0,0V4.7C14.2,4.4,14.5,4.1,14.9,4.1
	C14.8,4.1,14.8,4.1,14.9,4.1z"/>
<path class="st0" d="M26.1,4.2H38c0,0,0.1,0,0.1,0.1c0,0,0,0,0,0v41l0,0h-12l0,0L26.1,4.2L26.1,4.2z"/>
<path class="st0" d="M38.8,5.8l10.6-3.1c0.2-0.1,0.4,0.1,0.4,0.2c0,0,0,0,0,0l11.3,38.8c0,0.1,0,0.3-0.2,0.3l0,0l-10.7,3.1
	c-0.1,0-0.3,0-0.3-0.2l0,0L38.5,6.3C38.5,6.1,38.6,5.9,38.8,5.8L38.8,5.8z"/>
<line class="st0" x1="14.4" y1="9.5" x2="26.1" y2="9.5"/>
<line class="st0" x1="14.4" y1="19.8" x2="26.1" y2="19.8"/>
<line class="st0" x1="14.4" y1="27.9" x2="26.1" y2="27.9"/>
<line class="st0" x1="14.4" y1="38" x2="26.1" y2="38"/>
<line class="st0" x1="26.2" y1="7.9" x2="38" y2="7.9"/>
<line class="st0" x1="26.2" y1="13.9" x2="38" y2="13.9"/>
<line class="st0" x1="26.2" y1="35.6" x2="38" y2="35.6"/>
<line class="st0" x1="26.2" y1="41.2" x2="38" y2="41.2"/>
<line class="st0" x1="39.5" y1="9.6" x2="50.8" y2="6.3"/>
<line class="st0" x1="41.2" y1="15.2" x2="52.4" y2="11.8"/>
<line class="st0" x1="47.4" y1="36.1" x2="58.6" y2="32.8"/>
</svg>
