<?xml version="1.0" encoding="utf-8"?>
<!-- Generator: Adobe Illustrator 25.4.1, SVG Export Plug-In . SVG Version: 6.00 Build 0)  -->
<svg version="1.1" id="Layer_1" xmlns="http://www.w3.org/2000/svg" xmlns:xlink="http://www.w3.org/1999/xlink" x="0px" y="0px"
	 viewBox="0 0 76 62" style="enable-background:new 0 0 76 62;" xml:space="preserve">
<style type="text/css">
	.st0{fill:none;stroke:#000000;stroke-width:3;stroke-linecap:round;stroke-linejoin:round;}
</style>
<path class="st0" d="M46.8,47.6c-0.7-0.9-1.5-1.8-2.2-2.8c-1-1.4-1.3-3.3-0.7-4.9c0.3-0.9,0.6-1.9,0.8-2.8c0,0,0-0.1,0-0.2"/>
<path class="st0" d="M33.8,20.6c-0.9,1-2.1,1.7-3.3,2.1c-1.3,0.4-2.6,0.7-4,1c-0.5,0.1-0.8,0.5-0.9,0.9L25,26.9
	c-0.8,3.3-1.6,6.5-2.4,9.8c-0.1,0.3-0.2,0.6-0.3,1c4.9-1.4,5.8-1.9,10.7-3.3l3.9-4.8l5.9,4.9c4.9,1.4,5.7,1.9,10.7,3.3
	c-0.1-0.5-0.2-0.9-0.3-1.4c-0.4-1.8-0.8-3.5-1.2-5.3c-0.5-2.1-1-4.3-1.6-6.4c-0.1-0.5-0.5-0.9-1-1c-1.3-0.3-2.6-0.6-4-1
	c-1.3-0.4-2.4-1-3.3-2"/>
<path class="st0" d="M31.4,36.9l-0.1,0c0.1,0.4,0.3,0.8,0.4,1.3c0.2,0.9,0.5,1.7,0.7,2.6c0.2,1.5-0.2,3.1-1.1,4.3
	c-0.6,0.8-1.3,1.6-1.9,2.4"/>
<path class="st0" d="M38,59.5H23.6c-1,0-1.9,0-2.9-0.3c-2.8-0.8-4.7-3.5-4.5-6.4c0.2-2.5,2.1-4.5,4.6-4.8c0.9-0.1,1.8,0,2.7,0.3
	l7.5,1.7c2.3,0.5,4.5,1,6.8,1.5c0.4,0,0.9,0,1.3-0.2l9.3-2c2-0.4,3.9-0.8,5.9-1.2c0.7-0.1,1.4,0,2,0.2c2.8,0.9,4.3,3.9,3.3,6.7
	c0,0,0,0,0,0c-0.9,2.7-3.4,4.6-6.3,4.5L38,59.5L38,59.5z"/>
<path class="st0" d="M18.7,46.7c-0.2-0.1-0.3-0.3-0.4-0.5c-8.4-11-6.3-26.7,4.7-35c0.5-0.4,1-0.7,1.5-1c1.6-1.1,3.4-1.9,5.2-2.6"/>
<path class="st0" d="M46.5,7.6c5.3,1.9,9.9,5.6,12.8,10.5c1.5,2.5,2.6,5.3,3.2,8.2c1.4,7.2-0.4,14.6-5,20.3"/>
<path class="st0" d="M45.1,10.8c0,3.1-1.4,6.1-3.8,8.2c-0.9,0.9-2.2,1.3-3.4,1.4c-1.1,0-2.2-0.5-3.1-1.2c-2-1.6-3.4-3.9-3.8-6.4
	c-0.5-2.6,0.1-5.3,1.6-7.5c2.1-3,6.1-3.7,9.1-1.6c0.4,0.3,0.8,0.7,1.2,1.1c1.3,1.4,2,3.1,2.1,5C45.1,10.1,45.1,10.5,45.1,10.8z"/>
</svg>
