<?xml version="1.0" encoding="utf-8"?>
<!-- Generator: Adobe Illustrator 25.4.1, SVG Export Plug-In . SVG Version: 6.00 Build 0)  -->
<svg version="1.1" id="Layer_1" xmlns="http://www.w3.org/2000/svg" xmlns:xlink="http://www.w3.org/1999/xlink" x="0px" y="0px"
	 viewBox="0 0 76 62" style="enable-background:new 0 0 76 62;" xml:space="preserve">
<style type="text/css">
	.st0{fill:none;stroke:#000000;stroke-width:3;stroke-linecap:round;stroke-linejoin:round;}
</style>
<path class="st0" d="M72.4,59.5H3.6c-0.7,0-1.3-0.6-1.3-1.2c0,0,0,0,0,0V46.4c0-0.7,0.6-1.3,1.3-1.3h5.5V21.7H3.6
	c-0.7,0-1.3-0.6-1.3-1.3v-5.9c0-0.1,0-0.1,0-0.2c0-0.2,0.1-0.4,0.3-0.6c0.1-0.1,0.2-0.2,0.3-0.3c0.1-0.1,0.2-0.1,0.3-0.1L37.6,2.6
	c0.2-0.1,0.5-0.1,0.8,0l34.4,10.8c0.6,0.2,0.9,0.7,0.9,1.3v5.8c0,0.7-0.6,1.3-1.3,1.3l0,0h-5.5v23.4h5.5c0.7,0,1.3,0.6,1.3,1.3l0,0
	v11.8C73.7,58.9,73.1,59.5,72.4,59.5C72.4,59.5,72.4,59.5,72.4,59.5z"/>
<line class="st0" x1="2.6" y1="14.1" x2="73.7" y2="14.1"/>
<line class="st0" x1="8.3" y1="21.7" x2="67.4" y2="21.7"/>
<line class="st0" x1="8.3" y1="45.2" x2="67.4" y2="45.2"/>
<line class="st0" x1="9" y1="45.4" x2="9" y2="59.2"/>
<line class="st0" x1="17.2" y1="45.4" x2="17.2" y2="59.2"/>
<line class="st0" x1="25.5" y1="45.4" x2="25.5" y2="59.2"/>
<line class="st0" x1="33.7" y1="45.4" x2="33.7" y2="59.2"/>
<line class="st0" x1="41.9" y1="45.4" x2="41.9" y2="59.2"/>
<line class="st0" x1="50.1" y1="45.4" x2="50.1" y2="59.2"/>
<line class="st0" x1="58.3" y1="45.4" x2="58.3" y2="59.2"/>
<line class="st0" x1="66.9" y1="45.6" x2="66.9" y2="59.3"/>
</svg>
