<?xml version="1.0" encoding="utf-8"?>
<!-- Generator: Adobe Illustrator 25.4.1, SVG Export Plug-In . SVG Version: 6.00 Build 0)  -->
<svg version="1.1" id="Layer_1" xmlns="http://www.w3.org/2000/svg" xmlns:xlink="http://www.w3.org/1999/xlink" x="0px" y="0px"
	 viewBox="0 0 76 62" style="enable-background:new 0 0 76 62;" xml:space="preserve">
<style type="text/css">
	.st0{fill:none;stroke:#000000;stroke-width:2.75;stroke-linecap:round;stroke-miterlimit:10;}
</style>
<path class="st0" d="M12.7,31H7.1c-0.9,0-1.7-0.7-1.7-1.7V6.5c0-0.9,0.7-1.7,1.7-1.7l0,0h62.6c0.9,0,1.7,0.7,1.7,1.7c0,0,0,0,0,0
	v22.9c0,0.9-0.8,1.6-1.7,1.6h-6.1"/>
<line class="st0" x1="51.3" y1="31" x2="25.2" y2="31"/>
<ellipse class="st0" cx="33.2" cy="21.6" rx="1.9" ry="2"/>
<ellipse class="st0" cx="42.9" cy="20.5" rx="1.9" ry="2"/>
<polyline class="st0" points="35.1,21.1 35.1,11.6 44.8,10.3 44.8,21.1 "/>
<line class="st0" x1="35.1" y1="15.4" x2="44.8" y2="14.3"/>
<ellipse class="st0" cx="18.8" cy="26.6" rx="4.1" ry="4.4"/>
<line class="st0" x1="2.5" y1="46.5" x2="34.8" y2="46.5"/>
<line class="st0" x1="15.7" y1="52.6" x2="21.6" y2="52.6"/>
<path class="st0" d="M9.1,42.7v-2.5C9,39,9.8,38,10.9,37.7c1.3-0.6,2.6-1.2,3.9-1.8c1.3-0.4,2.6-0.5,3.9-0.3c1.3,0,2.7-0.3,3.9,0.3
	c0.9,0.4,1.7,0.8,2.5,1.2c0.8,0.3,1.5,0.7,2.2,1.1c0.7,0.4,1.2,1.1,1.2,1.9v2.5"/>
<line class="st0" x1="5.4" y1="46.5" x2="5.4" y2="57.2"/>
<line class="st0" x1="32.4" y1="46.5" x2="32.4" y2="57.2"/>
<ellipse class="st0" cx="57.5" cy="26.6" rx="4.1" ry="4.4"/>
<line class="st0" x1="41.2" y1="46.5" x2="73.5" y2="46.5"/>
<line class="st0" x1="54.4" y1="52.6" x2="60.3" y2="52.6"/>
<path class="st0" d="M47.8,42.7v-2.5c-0.1-1.1,0.6-2.2,1.7-2.5c1.3-0.6,2.6-1.2,3.9-1.8c1.3-0.4,2.6-0.5,3.9-0.3
	c1.3,0,2.7-0.3,3.9,0.3c0.8,0.4,1.7,0.8,2.5,1.2c0.8,0.3,1.5,0.7,2.2,1.1c0.7,0.4,1.2,1.1,1.2,1.9v2.5"/>
<line class="st0" x1="44.1" y1="46.5" x2="44.1" y2="57.2"/>
<line class="st0" x1="71.1" y1="46.5" x2="71.1" y2="57.2"/>
</svg>
