<?xml version="1.0" encoding="utf-8"?>
<!-- Generator: Adobe Illustrator 25.4.1, SVG Export Plug-In . SVG Version: 6.00 Build 0)  -->
<svg version="1.1" id="Layer_1" xmlns="http://www.w3.org/2000/svg" xmlns:xlink="http://www.w3.org/1999/xlink" x="0px" y="0px"
	 viewBox="0 0 76 62" style="enable-background:new 0 0 76 62;" xml:space="preserve">
<style type="text/css">
	.st0{fill:none;stroke:#000000;stroke-width:3;stroke-linecap:round;stroke-linejoin:round;}
	.st1{fill:none;stroke:#000000;stroke-width:2;stroke-linecap:round;stroke-linejoin:round;}
</style>
<rect x="11.6" y="38.5" class="st0" width="52.6" height="4"/>
<polyline class="st0" points="13,42.6 13,59.5 62.9,59.5 62.9,43.1 "/>
<path class="st0" d="M47.5,37.8v-4.6c0-1.2,0.9-2.1,2.1-2.1c0,0,0,0,0,0h7.3c1.2,0,2.1,1,2.1,2.1v4.6"/>
<polyline class="st0" points="16.9,38.5 16.9,25.7 41.8,25.7 41.8,38.6 "/>
<line class="st0" x1="16.8" y1="32" x2="41.9" y2="32"/>
<line class="st0" x1="65.1" y1="2.5" x2="10.9" y2="2.5"/>
<line class="st0" x1="28.1" y1="3.1" x2="28.1" y2="7.8"/>
<line class="st0" x1="47.4" y1="3.1" x2="47.4" y2="7.8"/>
<polyline class="st0" points="21.1,8.5 54.8,8.5 54.8,20.3 21.1,20.3 21.1,8.5 "/>
<line class="st1" x1="37.4" y1="12.8" x2="47.3" y2="12.8"/>
<line class="st1" x1="37.5" y1="16.3" x2="51.6" y2="16.3"/>
<polyline class="st1" points="31.4,17.1 34,14.4 31.4,11.7 "/>
<line class="st1" x1="32" y1="14.4" x2="25.3" y2="14.4"/>
</svg>
