<?xml version="1.0" encoding="utf-8"?>
<!-- Generator: Adobe Illustrator 25.4.1, SVG Export Plug-In . SVG Version: 6.00 Build 0)  -->
<svg version="1.1" id="Layer_1" xmlns="http://www.w3.org/2000/svg" xmlns:xlink="http://www.w3.org/1999/xlink" x="0px" y="0px"
	 viewBox="0 0 76 62" style="enable-background:new 0 0 76 62;" xml:space="preserve">
<style type="text/css">
	.st0{fill:none;stroke:#000000;stroke-width:3;stroke-linecap:round;stroke-linejoin:round;}
</style>
<path class="st0" d="M30.7,20.7h14.6c0.5,0,1,0.4,1,1V25c0,0.5-0.4,1-1,1H30.7c-0.5,0-1-0.4-1-1v-3.3C29.7,21.1,30.2,20.7,30.7,20.7
	z"/>
<path class="st0" d="M47.8,48.7c-2.8-9.3-3.6-22.5-3.6-22.5H31.9c0,0-0.8,13.3-3.6,22.5"/>
<path class="st0" d="M28.6,48.3h18.8c2.2,0,3.9,1.8,3.9,4l0,0V55H24.7v-2.7C24.7,50.1,26.4,48.4,28.6,48.3z"/>
<circle class="st0" cx="38" cy="5.4" r="2.9"/>
<circle class="st0" cx="49" cy="11.2" r="2.9"/>
<circle class="st0" cx="27" cy="11.2" r="2.9"/>
<polyline class="st0" points="28.8,13.5 31.8,20.5 38,20.5 44.3,20.5 47.2,13.4 "/>
<path class="st0" d="M46.8,13c-1,0.4-2.1,0.8-3.2,1.1c-3.6,1-7.4,1-11.1,0.1c-1.1-0.3-2.2-0.7-3.3-1.2"/>
<path class="st0" d="M42.4,14.6c0.9-2.4-0.4-5.1-2.8-5.9c-2.4-0.9-5.1,0.4-5.9,2.8c-0.4,1-0.4,2.1,0,3.1"/>
<path class="st0" d="M22,55.1h32c2,0,3.7,1.7,3.7,3.7l0,0l0,0v0.7H18.3v-0.7C18.3,56.8,20,55.1,22,55.1z"/>
</svg>
