<?xml version="1.0" encoding="utf-8"?>
<!-- Generator: Adobe Illustrator 25.4.1, SVG Export Plug-In . SVG Version: 6.00 Build 0)  -->
<svg version="1.1" id="Layer_1" xmlns="http://www.w3.org/2000/svg" xmlns:xlink="http://www.w3.org/1999/xlink" x="0px" y="0px"
	 viewBox="0 0 76 62" style="enable-background:new 0 0 76 62;" xml:space="preserve">
<style type="text/css">
	.st0{fill:none;stroke:#000000;stroke-width:3;stroke-linecap:round;stroke-linejoin:round;}
</style>
<line class="st0" x1="72" y1="47.3" x2="54.4" y2="47.3"/>
<path class="st0" d="M38.1,17.1h17l3.4-8c0.3-0.5,0.9-0.8,1.4-0.5c0.3,0.1,0.5,0.4,0.6,0.6l13,43.1"/>
<path class="st0" d="M56.4,53l-5.8-19.5l-2.4,5.7c-3.8,8.8-12.4,14.5-22,14.5H3.6c-0.6,0.1-1.1-0.4-1.2-1c-0.1-0.6,0.4-1.1,1-1.2
	c0.1,0,0.1,0,0.2,0H9c8.7,0,16.6-5.2,20-13.2L42.2,8.3"/>
<line class="st0" x1="65.5" y1="25.7" x2="52.9" y2="25.7"/>
<line class="st0" x1="68.7" y1="36.5" x2="51.4" y2="36.5"/>
<line class="st0" x1="56.2" y1="14.9" x2="50" y2="34.9"/>
</svg>
