<?xml version="1.0" encoding="utf-8"?>
<!-- Generator: Adobe Illustrator 25.4.1, SVG Export Plug-In . SVG Version: 6.00 Build 0)  -->
<svg version="1.1" id="Layer_1" xmlns="http://www.w3.org/2000/svg" xmlns:xlink="http://www.w3.org/1999/xlink" x="0px" y="0px"
	 viewBox="0 0 76 62" style="enable-background:new 0 0 76 62;" xml:space="preserve">
<style type="text/css">
	.st0{fill:none;stroke:#000000;stroke-width:3;stroke-linecap:round;stroke-linejoin:round;}
</style>
<path class="st0" d="M23.3,2.5h2.9c0.3,0,0.6,0.3,0.6,0.6v55.8c0,0.3-0.3,0.6-0.6,0.6h-2.9c-0.3,0-0.6-0.3-0.6-0.6V3.1
	C22.8,2.8,23,2.5,23.3,2.5z"/>
<path class="st0" d="M49.8,2.5h2.9c0.3,0,0.6,0.3,0.6,0.6v55.8c0,0.3-0.3,0.6-0.6,0.6h-2.9c-0.3,0-0.6-0.3-0.6-0.6V3.1
	C49.2,2.8,49.4,2.5,49.8,2.5z"/>
<line class="st0" x1="26.8" y1="48.2" x2="49.2" y2="48.2"/>
<line class="st0" x1="49.2" y1="8.3" x2="43.8" y2="8.3"/>
<line class="st0" x1="39.7" y1="8.3" x2="26.9" y2="8.3"/>
<path class="st0" d="M38,23.5h-5.4c-0.8,0-1.5-0.7-1.5-1.5c0,0,0,0,0,0v-6.7c0-0.8,0.7-1.5,1.5-1.5H39"/>
<path class="st0" d="M31.9,32.1h3.8c0.3,0,0.6,0.3,0.6,0.6v6.5c0,0.3-0.3,0.6-0.6,0.6h-3.8c-0.3,0-0.6-0.3-0.6-0.6v-6.5
	C31.3,32.3,31.5,32.1,31.9,32.1z"/>
<path class="st0" d="M37.6,25.8l2.2-18c0-0.3,0.1-0.6,0.3-0.8c0.6-0.9,1.9-1.1,2.8-0.5c0.2,0.1,0.3,0.3,0.5,0.5
	c0.2,0.2,0.4,0.5,0.4,0.8l1.9,17.4c-1.6,0.1-3.1,1-3.9,2.4C40.8,26.3,39.2,25.6,37.6,25.8z"/>
<line class="st0" x1="41.7" y1="23.7" x2="41.8" y2="27.6"/>
</svg>
