<?xml version="1.0" encoding="utf-8"?>
<!-- Generator: Adobe Illustrator 25.4.1, SVG Export Plug-In . SVG Version: 6.00 Build 0)  -->
<svg version="1.1" id="Layer_1" xmlns="http://www.w3.org/2000/svg" xmlns:xlink="http://www.w3.org/1999/xlink" x="0px" y="0px"
	 viewBox="0 0 76 62" style="enable-background:new 0 0 76 62;" xml:space="preserve">
<style type="text/css">
	.st0{fill:none;stroke:#000000;stroke-width:3;stroke-linecap:round;stroke-linejoin:round;}
	.st1{fill:none;stroke:#000000;stroke-width:2.45;stroke-linecap:round;stroke-linejoin:round;}
	.st2{fill:none;stroke:#000000;stroke-width:1.24;stroke-linecap:round;stroke-linejoin:round;}
</style>
<path class="st0" d="M29.9,2.5h16.4c0.2,0,0.4,0.2,0.4,0.4v11.4c0,0.2-0.2,0.4-0.4,0.4H29.9c-0.2,0-0.4-0.2-0.4-0.4V2.9
	C29.5,2.7,29.7,2.5,29.9,2.5z"/>
<polyline class="st0" points="61.9,59 61.9,53.3 61.9,43.4 61.9,29.1 "/>
<line class="st0" x1="14.8" y1="29.1" x2="14.8" y2="59"/>
<path class="st0" d="M64.7,59.3c0,0.1-0.1,0.2-0.2,0.2H12c-0.1,0-0.2-0.1-0.2-0.2"/>
<line class="st0" x1="31.1" y1="14.6" x2="31.1" y2="20.6"/>
<line class="st0" x1="45" y1="14.6" x2="45" y2="20.6"/>
<path class="st0" d="M64.9,28.6H11.1 M11.1,28.6l6.3-8h41l6.4,8H11.1z"/>
<path class="st0" d="M21.3,58.6V42.2c0-0.1,0.1-0.2,0.2-0.2h13.2c0.1,0,0.2,0.1,0.2,0.2v16.5"/>
<line class="st0" x1="26.1" y1="48.8" x2="26.1" y2="51"/>
<line class="st1" x1="21.7" y1="27.9" x2="21.8" y2="21.2"/>
<line class="st1" x1="32.3" y1="27.9" x2="32.4" y2="21.2"/>
<line class="st1" x1="43.3" y1="27.9" x2="43.4" y2="21.2"/>
<line class="st1" x1="53.6" y1="27.9" x2="53.7" y2="21.2"/>
<circle class="st2" cx="47.5" cy="52.7" r="1.3"/>
<circle class="st2" cx="54.1" cy="52.7" r="1.3"/>
<path class="st2" d="M35.5,33.6h1.1c0.3,0,0.5,0.2,0.5,0.5v0c0,0.3-0.2,0.5-0.5,0.5h-1.1c-0.3,0-0.5-0.2-0.5-0.5v0
	C34.9,33.8,35.2,33.6,35.5,33.6z"/>
<line class="st2" x1="57.4" y1="41.2" x2="41.3" y2="41.2"/>
<path class="st2" d="M40.7,39.2h15.3c0.8,0,1.5,0.7,1.5,1.5"/>
<line class="st2" x1="46.1" y1="43" x2="46.1" y2="47"/>
<line class="st2" x1="49.3" y1="43" x2="49.3" y2="47"/>
<line class="st2" x1="52.5" y1="43" x2="52.5" y2="47"/>
<path class="st2" d="M37.1,34.1h1c0.6,0.1,1.2,0.4,1.4,1L43.8,52l0.2,0.8h2.2"/>
<line class="st2" x1="49" y1="52.7" x2="52.8" y2="52.7"/>
<line class="st2" x1="55.4" y1="52.7" x2="57.1" y2="52.7"/>
<polyline class="st2" points="43.4,48.9 55.4,48.9 57.5,40.7 "/>
</svg>
