<?xml version="1.0" encoding="utf-8"?>
<!-- Generator: Adobe Illustrator 25.4.1, SVG Export Plug-In . SVG Version: 6.00 Build 0)  -->
<svg version="1.1" id="Layer_1" xmlns="http://www.w3.org/2000/svg" xmlns:xlink="http://www.w3.org/1999/xlink" x="0px" y="0px"
	 viewBox="0 0 76 62" style="enable-background:new 0 0 76 62;" xml:space="preserve">
<style type="text/css">
	.st0{fill:none;stroke:#000000;stroke-width:2;stroke-linecap:round;stroke-linejoin:round;}
</style>
<g>
	<path class="st0" d="M12.9,17.5L12.9,17.5c4.3,0,7.7,3.4,7.7,7.7v12.3l0,0H5.2l0,0V25.2C5.2,20.9,8.7,17.5,12.9,17.5L12.9,17.5z"/>
	<path class="st0" d="M20.6,30.7h2.7l0,0v6.7l0,0H2.5l0,0v-6.7 M2.5,30.7h2.7"/>
	<line class="st0" x1="6" y1="34.4" x2="19.6" y2="34.4"/>
	<line class="st0" x1="13" y1="37.5" x2="13" y2="44.5"/>
	<line class="st0" x1="9.4" y1="44.5" x2="16.7" y2="44.5"/>
	<path class="st0" d="M38,17.5L38,17.5c4.3,0,7.7,3.4,7.7,7.7v12.3l0,0H30.4l0,0V25.2C30.4,20.9,33.8,17.5,38,17.5L38,17.5z"/>
	<path class="st0" d="M45.8,30.7h2.7l0,0v6.7l0,0H27.7 M27.6,37.4v-6.7 M27.7,30.7h2.7"/>
	<line class="st0" x1="31.2" y1="34.4" x2="44.7" y2="34.4"/>
	<line class="st0" x1="38.1" y1="37.5" x2="38.1" y2="44.5"/>
	<line class="st0" x1="34.5" y1="44.5" x2="41.8" y2="44.5"/>
	<path class="st0" d="M63.1,17.5L63.1,17.5c4.3,0,7.7,3.4,7.7,7.7v12.3l0,0H55.4l0,0V25.2C55.4,20.9,58.8,17.5,63.1,17.5z"/>
	<path class="st0" d="M55.4,30.7h-2.7 M52.7,30.8v6.7l0,0h20.8l0,0v-6.7 M73.5,30.7h-2.7"/>
	<line class="st0" x1="56.2" y1="34.4" x2="69.8" y2="34.4"/>
	<line class="st0" x1="63.1" y1="37.5" x2="63.1" y2="44.5"/>
	<line class="st0" x1="59.5" y1="44.5" x2="66.8" y2="44.5"/>
	<line class="st0" x1="24.4" y1="34.9" x2="26.6" y2="34.9"/>
	<line class="st0" x1="49.4" y1="34.9" x2="51.7" y2="34.9"/>
</g>
</svg>
