<?xml version="1.0" encoding="utf-8"?>
<!-- Generator: Adobe Illustrator 25.4.1, SVG Export Plug-In . SVG Version: 6.00 Build 0)  -->
<svg version="1.1" id="Layer_1" xmlns="http://www.w3.org/2000/svg" xmlns:xlink="http://www.w3.org/1999/xlink" x="0px" y="0px"
	 viewBox="0 0 76 62" style="enable-background:new 0 0 76 62;" xml:space="preserve">
<style type="text/css">
	.st0{fill:none;stroke:#000000;stroke-width:3;stroke-linecap:round;stroke-linejoin:round;}
</style>
<path class="st0" d="M52.3,11c-0.2,8.1-4.7,9-4.7,9c-5,2-14.7,0.7-14.7,0.7C23,18.9,24,11,24,11"/>
<path class="st0" d="M38.1,2.5L20.8,5.3c0,0-4.5,2.1-2.4,3.8c0,0,1.6,2.1,5.6,1.3c9.2,3,19.1,3,28.2,0c0,0,3.9-0.4,5.6-2.1
	c0,0,1.8-1.7-2.3-3L38.1,2.5z"/>
<path class="st0" d="M49.4,19v7.3c0,5.6-4.6,10.2-10.2,10.2c0,0,0,0,0,0h-2.4c-5.7,0-10.2-4.6-10.2-10.2v0v-8.6"/>
<path class="st0" d="M60.4,59.5H15.6v-6.9c0-7.1,5.8-12.9,12.9-12.9c5.8,3.6,13.2,3.6,19,0c3.4,0,6.7,1.4,9.1,3.8
	c2.4,2.4,3.8,5.7,3.8,9.1L60.4,59.5z"/>
<polygon class="st0" points="53.4,50.6 50.2,53 46.9,50.6 46.9,45.2 53.4,45.2 "/>
</svg>
