<?xml version="1.0" encoding="utf-8"?>
<!-- Generator: Adobe Illustrator 25.4.1, SVG Export Plug-In . SVG Version: 6.00 Build 0)  -->
<svg version="1.1" id="Layer_1" xmlns="http://www.w3.org/2000/svg" xmlns:xlink="http://www.w3.org/1999/xlink" x="0px" y="0px"
	 viewBox="0 0 76 62" style="enable-background:new 0 0 76 62;" xml:space="preserve">
<style type="text/css">
	.st0{fill:none;stroke:#000000;stroke-width:3;stroke-linecap:round;stroke-linejoin:round;}
</style>
<path class="st0" d="M6.5,12.5h29.7c0.2,0,0.4,0.2,0.4,0.4v3.7c0,0.2-0.2,0.4-0.4,0.4H6.5c-0.2,0-0.4-0.2-0.4-0.4V13
	C6.1,12.7,6.3,12.5,6.5,12.5z"/>
<path class="st0" d="M14.5,23.4h13.7c0.2,0,0.3,0.1,0.3,0.3v10c0,0.2-0.1,0.3-0.3,0.3H14.5c-0.2,0-0.3-0.1-0.3-0.3v-10
	C14.2,23.6,14.3,23.4,14.5,23.4z"/>
<path class="st0" d="M62.9,42.5H38.7c-0.1,0-0.2-0.1-0.2-0.3v-3.6c0-0.2,0.1-0.3,0.2-0.3h24.2c0.2,0,0.4,0.2,0.4,0.5V42
	C63.3,42.3,63.1,42.5,62.9,42.5z"/>
<path class="st0" d="M64.2,36.6h3.1c0.4,0,0.8,0.3,0.8,0.8v12.1l0,0h-4.6l0,0V37.3C63.5,36.9,63.8,36.6,64.2,36.6z"/>
<line class="st0" x1="8.7" y1="17.7" x2="8.7" y2="49.4"/>
<line class="st0" x1="34.2" y1="17.5" x2="34.2" y2="49.3"/>
<line class="st0" x1="2.5" y1="49.5" x2="73.5" y2="49.5"/>
</svg>
