<?xml version="1.0" encoding="utf-8"?>
<!-- Generator: Adobe Illustrator 25.4.1, SVG Export Plug-In . SVG Version: 6.00 Build 0)  -->
<svg version="1.1" id="Layer_1" xmlns="http://www.w3.org/2000/svg" xmlns:xlink="http://www.w3.org/1999/xlink" x="0px" y="0px"
	 viewBox="0 0 76 62" style="enable-background:new 0 0 76 62;" xml:space="preserve">
<style type="text/css">
	.st0{fill:none;stroke:#000000;stroke-width:3;stroke-linecap:round;stroke-linejoin:round;}
	.st1{fill:#FFFFFF;stroke:#000000;stroke-width:3;stroke-linecap:round;stroke-linejoin:round;}
	.st2{fill:none;stroke:#000000;stroke-width:2;stroke-linecap:round;stroke-linejoin:round;}
</style>
<polyline class="st0" points="10.3,48.5 10.3,56.6 17.3,56.6 17.3,48.5 "/>
<polyline class="st0" points="58.7,48.5 58.7,56.6 65.7,56.6 65.7,48.5 "/>
<polyline class="st0" points="73.5,47.9 2.5,48.2 2.5,42 7.5,34.8 68.5,34.8 73.2,42 73.5,47.6 "/>
<line class="st0" x1="2.5" y1="42" x2="73.1" y2="42"/>
<polyline class="st0" points="17.3,34.8 17.6,5.4 24.4,5.4 24.6,34.8 "/>
<polyline class="st0" points="51.8,34.8 52.1,5.4 58.8,5.4 59.1,34.8 "/>
<polyline class="st1" points="66.5,28.6 9.5,28.6 9.5,21.6 66.5,21.6 66.5,28.6 "/>
<polyline class="st1" points="66.5,16.2 9.5,16.2 9.5,9.2 66.5,9.2 66.5,16.2 "/>
<circle class="st2" cx="21" cy="12.7" r="0.4"/>
<circle class="st2" cx="21" cy="24.7" r="0.4"/>
<circle class="st2" cx="55.5" cy="12.7" r="0.3"/>
<circle class="st2" cx="55.5" cy="24.7" r="0.3"/>
</svg>
