<?xml version="1.0" encoding="utf-8"?>
<!-- Generator: Adobe Illustrator 25.4.1, SVG Export Plug-In . SVG Version: 6.00 Build 0)  -->
<svg version="1.1" id="Layer_1" xmlns="http://www.w3.org/2000/svg" xmlns:xlink="http://www.w3.org/1999/xlink" x="0px" y="0px"
	 viewBox="0 0 76 62" style="enable-background:new 0 0 76 62;" xml:space="preserve">
<style type="text/css">
	.st0{fill:none;stroke:#000000;stroke-width:3;stroke-linecap:round;stroke-linejoin:round;}
</style>
<path class="st0" d="M2.7,26.8l3.9,13.6c0.4,3.1,3.3,5.2,6.4,4.8c0,0,0.1,0,0.1,0h50.4c0,0,3.7,0.3,5-2.7l5-17.2c0,0,0.4-2-2.2-1.9
	h-3c-2.8,0-3.2,3.9-3.8,6l-1.8,5.8c-0.2,1.2-1.2,2-2.4,1.9l-44.8,0c-0.9,0.2-1.9-0.3-2.1-1.3c0-0.1,0-0.2,0-0.3l-3-9.5
	c0,0-0.4-2.6-2.8-2.5H4.3C4.3,23.4,1.8,23.6,2.7,26.8z"/>
<path class="st0" d="M10.7,25.8c0,0,0-15.3,11.8-15.3h30.7c0,0,12.6-1.1,12.1,16.2"/>
<path class="st0" d="M12.1,31.7h21c0,0,4.7,0.2,4.9,4.9"/>
<path class="st0" d="M63.4,31.7H42.7c-2.7,0.1-4.8,2.3-4.8,4.9"/>
<path class="st0" d="M15.6,51.5H13c-0.2,0-0.4-0.2-0.4-0.4c0,0,0,0,0-0.1l1.1-5.9h4.3L16,51.3C15.9,51.4,15.8,51.5,15.6,51.5z"/>
<path class="st0" d="M60,51.5h2.7c0.2,0,0.4-0.2,0.4-0.4c0,0,0,0,0-0.1l-1.1-5.9h-4.3l2.1,6.1C59.7,51.4,59.8,51.5,60,51.5z"/>
</svg>
