<?xml version="1.0" encoding="utf-8"?>
<!-- Generator: Adobe Illustrator 25.4.1, SVG Export Plug-In . SVG Version: 6.00 Build 0)  -->
<svg version="1.1" id="Layer_1" xmlns="http://www.w3.org/2000/svg" xmlns:xlink="http://www.w3.org/1999/xlink" x="0px" y="0px"
	 viewBox="0 0 76 62" style="enable-background:new 0 0 76 62;" xml:space="preserve">
<style type="text/css">
	.st0{fill:none;stroke:#000000;stroke-width:3;stroke-linecap:round;stroke-linejoin:round;}
	.st1{fill:none;stroke:#000000;stroke-width:2;stroke-linecap:round;stroke-linejoin:round;}
</style>
<path class="st0" d="M49.2,2.5H26.8c-2.3,0-4.2,1.9-4.2,4.2v48.5c0,2.3,1.9,4.2,4.2,4.2h22.5c2.3,0,4.2-1.9,4.2-4.2V6.7
	C53.5,4.4,51.6,2.5,49.2,2.5z"/>
<line class="st0" x1="23.2" y1="11.1" x2="52.8" y2="11.1"/>
<line class="st0" x1="23.2" y1="51" x2="52.8" y2="51"/>
<line class="st1" x1="35.2" y1="7.2" x2="40.8" y2="7.2"/>
<circle class="st1" cx="38" cy="26.9" r="11.1"/>
<path class="st1" d="M31,35.3c1.3-2.8,4-4.6,7-4.7c3,0.1,5.7,2,7,4.7"/>
<circle class="st1" cx="38" cy="24.2" r="3.2"/>
<polyline class="st1" points="39.8,44.3 41.8,46.2 45.7,42.3 "/>
<line class="st1" x1="30.3" y1="46.3" x2="34.3" y2="42.3"/>
<line class="st1" x1="30.3" y1="42.3" x2="34.3" y2="46.3"/>
<line class="st1" x1="36.9" y1="55.3" x2="39.1" y2="55.3"/>
</svg>
