<?xml version="1.0" encoding="utf-8"?>
<!-- Generator: Adobe Illustrator 25.4.1, SVG Export Plug-In . SVG Version: 6.00 Build 0)  -->
<svg version="1.1" id="Layer_1" xmlns="http://www.w3.org/2000/svg" xmlns:xlink="http://www.w3.org/1999/xlink" x="0px" y="0px"
	 viewBox="0 0 76 62" style="enable-background:new 0 0 76 62;" xml:space="preserve">
<style type="text/css">
	.st0{fill:none;stroke:#000000;stroke-width:3;stroke-linecap:round;stroke-linejoin:round;}
</style>
<line class="st0" x1="24.7" y1="4.6" x2="38.8" y2="44.6"/>
<line class="st0" x1="40.9" y1="4.3" x2="55" y2="44.3"/>
<path class="st0" d="M72.1,44.9H22.2c-0.6,0-1.1-0.4-1.4-0.9L7,5.8C6.8,5.1,7.1,4.4,7.9,4.1c0.1,0,0.3-0.1,0.4-0.1h50.1
	c0.6,0,1.1,0.4,1.4,0.9l13.6,38.1c0.2,0.7-0.2,1.5-0.9,1.7C72.4,44.9,72.2,44.9,72.1,44.9z"/>
<line class="st0" x1="11.2" y1="17.6" x2="64.3" y2="17.6"/>
<line class="st0" x1="16.7" y1="32.6" x2="69.6" y2="32.6"/>
<path class="st0" d="M12.2,20.2H3.4c-0.5,0-0.9,0.4-0.9,0.9v7.1c0,0.5,0.4,0.9,0.9,0.9c0,0,0,0,0,0h12"/>
<path class="st0" d="M60.5,44.9v8.7c0,2.4-1.9,4.3-4.3,4.3c0,0,0,0,0,0H9.5c-2.4,0-4.3-1.9-4.3-4.3V29.8"/>
</svg>
