<?xml version="1.0" encoding="utf-8"?>
<!-- Generator: Adobe Illustrator 25.4.1, SVG Export Plug-In . SVG Version: 6.00 Build 0)  -->
<svg version="1.1" id="Layer_1" xmlns="http://www.w3.org/2000/svg" xmlns:xlink="http://www.w3.org/1999/xlink" x="0px" y="0px"
	 viewBox="0 0 76 62" style="enable-background:new 0 0 76 62;" xml:space="preserve">
<style type="text/css">
	.st0{fill:none;stroke:#000000;stroke-width:3;stroke-linecap:round;stroke-linejoin:round;}
</style>
<path class="st0" d="M27.5,44.3H30c1.1,0,1.9,0.9,1.9,1.9v13.3l0,0h-6.4l0,0V46.2C25.6,45.1,26.4,44.3,27.5,44.3z"/>
<line class="st0" x1="20.4" y1="59.5" x2="37.2" y2="59.5"/>
<path class="st0" d="M28.7,44.3v-39c0,0,0.2-2.6,2.4-2.8H45c0,0,2.7,0,2.7,1.9v6.3"/>
<path class="st0" d="M47.2,11h0.9c4.2,0,7.5,3.4,7.5,7.5l0,0l0,0c0,0.1-0.1,0.2-0.2,0.2H39.9c-0.1,0-0.2-0.1-0.2-0.2l0,0
	C39.7,14.4,43.1,11,47.2,11L47.2,11z"/>
<path class="st0" d="M44.3,19.7c0.1,1.9,1.8,3.3,3.6,3.1c1.7-0.1,3-1.5,3.1-3.1"/>
</svg>
