<?xml version="1.0" encoding="utf-8"?>
<!-- Generator: Adobe Illustrator 25.4.1, SVG Export Plug-In . SVG Version: 6.00 Build 0)  -->
<svg version="1.1" id="Layer_1" xmlns="http://www.w3.org/2000/svg" xmlns:xlink="http://www.w3.org/1999/xlink" x="0px" y="0px"
	 viewBox="0 0 76 62" style="enable-background:new 0 0 76 62;" xml:space="preserve">
<style type="text/css">
	.st0{fill:none;stroke:#000000;stroke-width:3;stroke-linecap:round;stroke-miterlimit:10;}
</style>
<line class="st0" x1="58.5" y1="21.5" x2="35.6" y2="21.5"/>
<line class="st0" x1="58.3" y1="33.5" x2="35.4" y2="33.5"/>
<path class="st0" d="M35.4,42.4l0.2-31.4c0,0,0.3-7,8.9-6.1c3.1,0.5,5.6,3,6,6.1"/>
<path class="st0" d="M58.4,42.4l0.2-31.4c0,0,0.3-7,8.9-6.1c3.1,0.5,5.6,3,6,6.1"/>
<path class="st0" d="M2.5,44.1c3.6-0.2,6,1.8,8.9,3.4c3.8,2.2,7.2-0.6,10.4-2.4c2.7-1.7,6.1-1.7,8.9-0.1l2.5,1.4c0,0,4,3.1,8,0.4
	l2.2-1.6c0,0,4.3-3.7,9-0.6l2.4,1.8c0,0,4.3,3.2,8.1,0.9l4-2.5c1.5-0.8,3.2-1.2,4.9-1"/>
<path class="st0" d="M7.2,53.6c2.5-0.4,5.1,0.5,6.8,2.3c2.5,1.6,5.8,1.6,8.3,0c0,0,5.4-4.5,10.2-1c0,0,4.9,4.3,8.6,0.4
	c0,0,4.7-4.3,10-0.9c0,0,5.4,4.6,10.2,0.7c1.7-1.5,3.9-2.1,6.1-1.7"/>
</svg>
