<?xml version="1.0" encoding="utf-8"?>
<!-- Generator: Adobe Illustrator 25.4.1, SVG Export Plug-In . SVG Version: 6.00 Build 0)  -->
<svg version="1.1" id="Layer_1" xmlns="http://www.w3.org/2000/svg" xmlns:xlink="http://www.w3.org/1999/xlink" x="0px" y="0px"
	 viewBox="0 0 76 62" style="enable-background:new 0 0 76 62;" xml:space="preserve">
<style type="text/css">
	.st0{fill:none;stroke:#000000;stroke-width:3;stroke-linecap:round;stroke-linejoin:round;}
</style>
<path class="st0" d="M63.3,33c-3.4,0-6.2-2.8-6.2-6.2c0-3.4,2.8-6.2,6.2-6.2s6.2,2.8,6.2,6.2S66.8,33,63.3,33
	C63.4,33,63.3,33,63.3,33z"/>
<path class="st0" d="M60.8,33.2c-1,1.8-2.2,3.5-3.7,4.9c-5.4,5.1-12.5,7.9-19.9,8l0,0c-3.7,0-9-0.8-12.9-4.7s-5.4-9.6-4.5-16.3
	c0.8-6.2,3.5-12,7.7-16.5C35.8,0.4,49,0.4,57.1,8.5c3.1,3.1,5.2,7.1,5.9,11.5"/>
<polyline class="st0" points="14.5,57.8 14.5,57.8 27.8,44.4 "/>
<polyline class="st0" points="21.5,37.5 7.8,51.8 7.8,51.8 "/>
<path class="st0" d="M7.8,51.8L7.6,52c-1.7,1.9-1.5,4.7,0.4,6.4s4.7,1.5,6.4-0.4l0.2-0.2"/>
<line class="st0" x1="10.1" y1="48.9" x2="16.9" y2="55.6"/>
<line class="st0" x1="13.9" y1="45.1" x2="20.5" y2="51.7"/>
</svg>
