<?xml version="1.0" encoding="utf-8"?>
<!-- Generator: Adobe Illustrator 25.4.1, SVG Export Plug-In . SVG Version: 6.00 Build 0)  -->
<svg version="1.1" id="Layer_1" xmlns="http://www.w3.org/2000/svg" xmlns:xlink="http://www.w3.org/1999/xlink" x="0px" y="0px"
	 viewBox="0 0 76 62" style="enable-background:new 0 0 76 62;" xml:space="preserve">
<style type="text/css">
	.st0{fill:none;stroke:#000000;stroke-width:3;stroke-linecap:round;stroke-linejoin:round;}
</style>
<path class="st0" d="M50.7,2.5h13C65.5,2.5,67,4,67,5.8v50.3c0,1.9-1.5,3.4-3.3,3.4c0,0,0,0-0.1,0h-13l0,0L50.7,2.5L50.7,2.5z"/>
<path class="st0" d="M50,59.5L9.5,41.1C9.2,41,9,40.8,9,40.5V21.3c0-0.3,0.2-0.5,0.4-0.7L50,2.5c0.1,0,0.1,0,0.2,0.1c0,0,0,0,0,0
	v56.7C50.2,59.4,50.1,59.5,50,59.5z"/>
<line class="st0" x1="20.9" y1="15.5" x2="20.9" y2="45.5"/>
<line class="st0" x1="33.7" y1="10.6" x2="33.7" y2="52.2"/>
<line class="st0" x1="9" y1="31" x2="50.7" y2="31"/>
</svg>
