<?xml version="1.0" encoding="utf-8"?>
<!-- Generator: Adobe Illustrator 25.4.1, SVG Export Plug-In . SVG Version: 6.00 Build 0)  -->
<svg version="1.1" id="Layer_1" xmlns="http://www.w3.org/2000/svg" xmlns:xlink="http://www.w3.org/1999/xlink" x="0px" y="0px"
	 viewBox="0 0 76 62" style="enable-background:new 0 0 76 62;" xml:space="preserve">
<style type="text/css">
	.st0{fill:none;stroke:#000000;stroke-width:3;stroke-linecap:round;stroke-linejoin:round;}
</style>
<path class="st0" d="M9.5,2.6L9.4,59.5h57.1V2.6C66.6,2.6,9.5,2.4,9.5,2.6z"/>
<polyline class="st0" points="9.6,2.6 24,17 24,45.9 9.8,59.2 "/>
<polyline class="st0" points="9.6,16.2 16.6,21.2 16.6,40.7 9.4,45.3 "/>
<polyline class="st0" points="24,17 52.2,16.7 52.3,45.9 57.2,49.8 57.2,23.2 62.2,19.2 62.3,55.4 66.4,59.4 "/>
<polyline class="st0" points="24,45.9 30.4,45.9 30.4,23.3 46,23.3 46,46.1 52.3,46.1 "/>
<line class="st0" x1="66.4" y1="2.6" x2="52.2" y2="16.7"/>
</svg>
