<?xml version="1.0" encoding="utf-8"?>
<!-- Generator: Adobe Illustrator 25.4.1, SVG Export Plug-In . SVG Version: 6.00 Build 0)  -->
<svg version="1.1" id="Layer_1" xmlns="http://www.w3.org/2000/svg" xmlns:xlink="http://www.w3.org/1999/xlink" x="0px" y="0px"
	 viewBox="0 0 76 62" style="enable-background:new 0 0 76 62;" xml:space="preserve">
<style type="text/css">
	.st0{fill:none;stroke:#000000;stroke-width:1.5;stroke-linecap:round;stroke-miterlimit:10;}
	.st1{fill:none;stroke:#000000;stroke-width:3;stroke-linecap:round;stroke-miterlimit:10;}
	.st2{fill:none;stroke:#000000;stroke-linecap:round;stroke-miterlimit:10;}
</style>
<path class="st0" d="M40.8,43.9c0-2-1.6-3.6-3.6-3.6c-2,0-3.6,1.6-3.6,3.6c0,2,1.6,3.6,3.6,3.6c0,0,0,0,0,0
	C39.2,47.5,40.8,45.9,40.8,43.9z"/>
<path class="st0" d="M33.9,49.5c-0.1-1-0.7-2-1.6-2.5c-0.9-0.6-2-0.7-3-0.3L24,48.5c-0.8,0.3-1.5,0.9-1.9,1.6
	c-0.4,0.8-0.3,1.7,0.1,2.5l1.1,2.2H20c-1-0.1-1.9,0.7-2,1.7s0.7,1.9,1.7,2c0.1,0,0.2,0,0.3,0h6.2c0.6,0,1.2-0.3,1.5-0.9
	c0.3-0.5,0.4-1.2,0.1-1.8l-1-2.1l4.2-0.8l0.6,4c0.1,0.8,0.8,1.4,1.6,1.4h0.3c0.9-0.1,1.5-0.9,1.4-1.8c0,0,0,0,0,0L33.9,49.5z"/>
<path class="st0" d="M44.4,54.4h-2.3c-0.5,0-0.9,0.4-0.9,0.8c0,0,0,0,0,0v2.3c0,0.5,0.4,0.9,0.8,0.9c0,0,0,0,0,0h2.3
	c0.5,0,0.9-0.4,0.9-0.8c0,0,0,0,0,0v-2.3C45.2,54.8,44.9,54.4,44.4,54.4z"/>
<path class="st0" d="M50.4,54.4h-2.3c-0.5,0-0.9,0.4-0.9,0.8c0,0,0,0,0,0v2.3c0,0.5,0.4,0.9,0.8,0.9c0,0,0,0,0,0h2.3
	c0.5,0,0.9-0.4,0.9-0.8c0,0,0,0,0,0v-2.3C51.3,54.8,50.9,54.4,50.4,54.4z"/>
<path class="st0" d="M45.1,48.3c-0.5,0-0.9,0.4-0.9,0.8c0,0,0,0,0,0v2.3c0,0.5,0.4,0.9,0.8,0.9c0,0,0,0,0,0h2.3
	c0.5,0,0.9-0.4,0.9-0.8c0,0,0,0,0-0.1v-2.3c0-0.5-0.4-0.9-0.8-0.9c0,0,0,0-0.1,0H45.1z"/>
<path class="st1" d="M66.8,58.1V30.4l2.7,1.9c1.1,0.8,2.6,0.6,3.4-0.4c0.4-0.5,0.7-1.2,0.6-2l0,0c-0.1-0.7-0.4-1.3-1-1.7l-12.6-9.1
	V9.5c0-0.6-0.5-1.1-1.1-1.1h-2.9c-0.6,0-1.1,0.5-1.1,1.1v6L39.2,4.3C38.8,4,38.4,3.9,38,3.9c-0.4,0-0.8,0.1-1.2,0.4L3.6,28.2
	c-0.6,0.4-0.9,1-1,1.7c-0.1,0.7,0.1,1.4,0.6,1.9c0.8,1.1,2.4,1.3,3.4,0.5l2.7-1.9v27.8"/>
<path class="st2" d="M41.4,29.1c0.2-0.2,0.3-0.5,0.1-0.8c-0.1-0.1-0.2-0.2-0.4-0.2L39.5,28c-0.2,0-0.2-0.1-0.3-0.2l-0.7-1.5
	c-0.2-0.3-0.5-0.4-0.8-0.2c-0.1,0.1-0.2,0.1-0.2,0.2l-0.7,1.5c-0.1,0.1-0.2,0.2-0.3,0.2L35,28.1c-0.3,0-0.5,0.3-0.5,0.6
	c0,0.2,0.1,0.3,0.2,0.4l1.2,1.1c0.1,0.1,0.1,0.2,0.1,0.4l-0.3,1.6c-0.1,0.3,0.1,0.6,0.4,0.7c0.1,0,0.3,0,0.4-0.1l1.4-0.8
	c0.1-0.1,0.3-0.1,0.4,0l1.4,0.8c0.3,0.1,0.6,0,0.8-0.2c0.1-0.1,0.1-0.2,0.1-0.4l-0.3-1.6c0-0.1,0-0.3,0.1-0.4L41.4,29.1z"/>
<path class="st2" d="M31.7,33.8c0.2-0.2,0.3-0.5,0.1-0.8c-0.1-0.1-0.2-0.2-0.4-0.2l-1.6-0.2c-0.1,0-0.2-0.1-0.3-0.2L28.8,31
	c-0.2-0.3-0.5-0.4-0.8-0.2c-0.1,0.1-0.2,0.1-0.2,0.2L27,32.5c-0.1,0.2-0.1,0.2-0.3,0.2l-1.5,0.2c-0.3,0-0.5,0.3-0.5,0.6
	c0,0.2,0.1,0.3,0.2,0.4l1.2,1.1c0.1,0.1,0.1,0.2,0.1,0.4l-0.3,1.6c-0.1,0.3,0.1,0.6,0.4,0.7c0.1,0,0.3,0,0.4-0.1l1.4-0.8
	c0.1-0.1,0.2-0.1,0.4,0l1.5,0.8c0.3,0.1,0.6,0.1,0.8-0.2c0.1-0.1,0.1-0.3,0.1-0.4l-0.4-1.6c0-0.1,0-0.3,0.1-0.4L31.7,33.8z"/>
<path class="st2" d="M51.1,33.8c0.2-0.2,0.3-0.5,0.1-0.8c-0.1-0.1-0.2-0.2-0.4-0.2l-1.6-0.2c-0.2,0-0.2-0.1-0.3-0.2L48.2,31
	c-0.2-0.3-0.5-0.4-0.8-0.2c-0.1,0.1-0.2,0.1-0.2,0.2l-0.7,1.5c-0.1,0.2-0.2,0.2-0.3,0.2l-1.6,0.2c-0.3,0-0.5,0.3-0.5,0.6
	c0,0.2,0.1,0.3,0.2,0.4l1.1,1.1c0.1,0.1,0.1,0.2,0.1,0.4l-0.3,1.6c-0.1,0.3,0.2,0.6,0.5,0.7c0.1,0,0.3,0,0.4-0.1l1.4-0.8
	c0.1-0.1,0.2-0.1,0.4,0l1.4,0.8c0.3,0.1,0.6,0.1,0.8-0.2c0.1-0.1,0.1-0.3,0.1-0.4l-0.4-1.6c0-0.1,0-0.3,0.1-0.4L51.1,33.8z"/>
<path class="st1" d="M49.1,24.2c-2.7-2.5-6.2-4-9.9-4.1h-2.5c-3.7,0.2-7.2,1.6-9.9,4.1"/>
<line class="st1" x1="38" y1="15.8" x2="38" y2="19.3"/>
</svg>
