<svg width="692" height="692" viewBox="0 0 692 692" fill="none" xmlns="http://www.w3.org/2000/svg">
<path fill-rule="evenodd" clip-rule="evenodd" d="M645.082 504.311C652.183 490.708 658.588 476.753 664.274 462.501H402.676C375.409 462.501 349.258 451.669 329.977 432.388C310.696 413.107 299.864 386.956 299.864 359.689V7.16016C282.668 8.83941 265.702 12.3629 249.258 17.6698V357.861C249.258 385.129 238.426 411.279 219.146 430.56C199.865 449.841 173.714 460.673 146.447 460.673H27.6426C33.3054 474.972 39.7112 488.966 46.834 502.597H645.082V504.311Z" fill="#E1A019"/>
<path fill-rule="evenodd" clip-rule="evenodd" d="M86.918 561.88C95.5998 572.389 104.396 581.071 113.078 589.753H580.527C589.727 580.925 598.459 571.621 606.687 561.88H86.918Z" fill="#E1A019"/>
<path fill-rule="evenodd" clip-rule="evenodd" d="M524.79 631.677C540.716 621.624 555.978 610.559 570.484 598.549H121.77C135.834 611.118 151.144 622.218 167.464 631.677H524.79Z" fill="#E1A019"/>
<path fill-rule="evenodd" clip-rule="evenodd" d="M57.1191 521.784C62.8483 531.491 69.2216 540.803 76.1964 549.658H613.1C620.738 541.158 627.37 531.805 632.863 521.784H57.1191Z" fill="#E1A019"/>
<path fill-rule="evenodd" clip-rule="evenodd" d="M172.357 634.88C224.677 665.769 284.323 682.063 345.081 682.063C405.838 682.063 465.484 665.769 517.804 634.88H172.357Z" fill="#E1A019"/>
<path fill-rule="evenodd" clip-rule="evenodd" d="M341.559 359.582C341.529 367.842 343.133 376.025 346.28 383.662C349.427 391.298 354.054 398.236 359.894 404.077C365.734 409.917 372.672 414.544 380.309 417.691C387.945 420.837 396.129 422.442 404.388 422.412H678.552C684.269 396.601 687.217 370.254 687.348 343.818C687.227 254.056 651.492 168.01 587.989 104.571C524.485 41.132 438.404 5.48428 348.642 5.4541H343.387V359.582H341.559Z" fill="#E8D7B2"/>
<path fill-rule="evenodd" clip-rule="evenodd" d="M146.212 420.579C154.466 420.624 162.647 419.034 170.283 415.899C177.919 412.765 184.858 408.149 190.7 402.318C196.541 396.487 201.17 389.556 204.318 381.926C207.466 374.296 209.072 366.118 209.041 357.864V33.3223C148.605 59.5586 97.2105 102.974 61.2426 158.175C25.2746 213.376 6.3191 277.929 6.73119 343.813C7.0286 370.233 9.93669 396.559 15.413 422.406H146.212V420.579Z" fill="#E8D7B2"/>
<path fill-rule="evenodd" clip-rule="evenodd" d="M207.321 312.514L205.608 265.335H200.467V249.685H186.302V272.532H181.161V358.094V352.839L179.334 358.094V361.521H177.62L175.907 363.234V342.101L168.938 340.387H133.982V303.603H127.014C127.014 298.349 125.3 293.208 125.3 287.953C123.587 284.412 123.587 279.157 121.759 275.73C119.931 272.303 118.332 265.221 114.791 267.048C113.077 267.048 111.364 272.189 111.364 274.017C106.455 284.758 104.071 296.481 104.395 308.287C104.395 310.001 102.682 315.255 102.682 316.969V343.129L90.4588 346.67V357.18H81.6627V333.419H79.9492V324.623L78.2357 322.909H71.2673L69.4396 324.623V329.877H67.7261V328.164H57.1022V321.196C57.1022 321.196 51.8474 310.686 48.3061 310.686C44.7648 310.686 39.6243 317.654 37.9107 319.482V331.705L34.2552 333.419V340.387H6.72461V345.642C7.01609 372.024 9.92429 398.313 15.4065 424.121H146.205C154.465 424.152 162.648 422.547 170.285 419.4C177.921 416.253 184.859 411.627 190.7 405.786C196.54 399.946 201.167 393.008 204.314 385.371C207.46 377.735 209.065 369.551 209.035 361.292V312.514H207.321Z" fill="#FEFEFE"/>
<path fill-rule="evenodd" clip-rule="evenodd" d="M676.496 359.581L674.782 352.613H671.241V305.433H669.527V303.606H662.559V298.351H655.591V301.892H650.336V350.67H639.712V333.421H629.431V329.88H616.865V340.389H599.73V343.816H592.761V354.326L587.507 350.785V347.358H578.825V349.3H577.111V331.707L575.398 329.88V324.625H568.315V314.23H561.347V321.198H556.206V324.625H554.379L552.665 328.166L550.951 321.198H542.155V315.943L540.442 312.516V302.006H538.728V312.516L535.187 315.943V321.198H531.76L530.047 329.88L528.219 326.453V308.975H515.996L514.054 307.261H502.63V300.293L500.917 314.23H499.203V322.911H495.662V345.758L492.235 347.472V329.88H493.948V321.198H490.407V312.516L488.693 308.975V300.293C487.503 295.162 485.116 290.387 481.725 286.356L478.184 284.529V280.759H476.47V263.623L474.757 261.91V256.655L473.043 254.942V246.488C473.043 246.488 471.216 243.061 471.216 244.775C469.502 246.488 471.216 246.488 471.216 246.488V255.284L469.502 256.998V260.425L467.788 263.966V277.903L466.075 279.616V283.158C464.723 283.271 463.462 283.882 462.534 284.871C460.82 286.699 458.992 288.412 458.992 290.126C457.064 294.542 455.905 299.256 455.565 304.063L453.852 307.604V317.999H450.311L448.597 326.795H450.311V335.477H435.803C435.803 335.477 432.261 335.477 432.261 342.446V345.987H425.293V340.732H406.102V344.159H390.451V340.732H379.942V356.382H371.26C369.546 356.382 367.719 354.669 366.005 352.955H360.75V351.127H355.61V354.669L345.1 361.637V354.669L343.387 351.127H341.559V361.637C341.529 369.896 343.133 378.08 346.28 385.716C349.427 393.353 354.054 400.291 359.894 406.131C365.734 411.972 372.672 416.598 380.309 419.745C387.945 422.892 396.129 424.496 404.388 424.466H678.552C683.342 404.405 686.286 383.948 687.348 363.351H676.838L676.496 359.581Z" fill="#FEFEFE"/>
</svg>
