<svg width="294" height="294" viewBox="0 0 294 294" fill="none" xmlns="http://www.w3.org/2000/svg">
<path d="M274.293 213.281H274.067H20.0492C17.1119 207.649 14.4629 201.871 12.1124 195.969H62.2188C73.8698 195.969 85.0435 191.341 93.282 183.103C101.52 174.864 106.149 163.69 106.149 152.039V7.68924C112.976 5.49919 120.015 4.03404 127.149 3.31797V152.816C127.149 164.467 131.777 175.641 140.016 183.879C148.254 192.118 159.428 196.746 171.079 196.746H281.851C279.594 202.374 277.071 207.892 274.293 213.281Z" stroke="#D7D7D7" stroke-width="0.5"/>
<path d="M48.1452 250.31C47.9654 250.13 47.7855 249.95 47.6055 249.771C44.2293 246.397 40.8256 242.996 37.4603 238.968H257.215C253.849 242.925 250.286 246.71 246.539 250.31H48.1452Z" stroke="#D7D7D7" stroke-width="0.5"/>
<path d="M52.3922 254.547H241.677C235.702 259.457 229.427 263.991 222.888 268.122H71.2151C64.5078 264.229 58.2028 259.682 52.3922 254.547Z" stroke="#D7D7D7" stroke-width="0.5"/>
<path d="M32.4942 233.275C29.6574 229.665 27.0562 225.877 24.7066 221.933H268.452C266.186 226.001 263.475 229.805 260.368 233.275H32.4942Z" stroke="#D7D7D7" stroke-width="0.5"/>
<path d="M146.609 291.756C121.147 291.756 96.1458 285.009 74.1475 272.209H219.07C197.072 285.009 172.071 291.756 146.609 291.756Z" stroke="#D7D7D7" stroke-width="0.5"/>
<path d="M171.807 178.964H171.805C168.362 178.977 164.95 178.308 161.767 176.996C158.584 175.684 155.691 173.755 153.257 171.321C150.822 168.886 148.893 165.994 147.582 162.81C146.333 159.781 145.667 156.544 145.616 153.271H145.89H146.39V152.771V2.81738L148.122 2.81738C148.122 2.81738 148.122 2.81738 148.123 2.81738C186.126 2.83021 222.571 17.9227 249.457 44.7815C276.343 71.6398 291.472 108.069 291.524 146.071C291.469 157.133 290.249 168.158 287.885 178.964H171.807Z" stroke="#EBEBEB"/>
<path d="M62.122 178.185L61.6192 178.182V178.685V178.962H6.95423C4.68841 168.14 3.48456 157.123 3.36002 146.066C3.1858 118.174 11.211 90.8447 26.4384 67.4747C41.5272 44.3175 63.0287 26.0592 88.3126 14.9216V152.04V152.042C88.3252 155.483 87.656 158.892 86.3437 162.073C85.0314 165.253 83.1019 168.142 80.6668 170.573C78.2316 173.004 75.339 174.928 72.156 176.235C68.973 177.541 65.5626 178.204 62.122 178.185Z" stroke="#EBEBEB"/>
<path fill-rule="evenodd" clip-rule="evenodd" d="M88.0818 132.773L87.3538 112.729H85.1698V106.08H79.1516V115.787H76.9676V152.138V149.906L76.1911 152.138V153.594H75.4631L74.7351 154.322V145.344L71.7746 144.616H56.9234V128.988H53.9628C53.9628 126.755 53.2348 124.571 53.2348 122.339C52.5068 120.834 52.5068 118.602 51.7303 117.146C50.9538 115.69 50.2743 112.681 48.7698 113.457C48.0418 113.457 47.3138 115.641 47.3138 116.418C45.2281 120.981 44.2154 125.962 44.3532 130.978C44.3532 131.706 43.6252 133.938 43.6252 134.666V145.78L38.4322 147.285V151.75H34.6951V141.655H33.9671V137.918L33.2391 137.19H30.2786L29.502 137.918V140.15H28.774V139.422H24.2604V136.462C24.2604 136.462 22.0279 131.997 20.5234 131.997C19.0188 131.997 16.8348 134.957 16.1068 135.734V140.927L14.5538 141.655V144.616H2.85724V146.848C2.98108 158.057 4.21664 169.226 6.54577 180.19H62.1164C65.6255 180.203 69.1023 179.522 72.3467 178.185C75.5911 176.848 78.5388 174.882 81.0201 172.401C83.5014 169.92 85.4671 166.972 86.804 163.727C88.1409 160.483 88.8226 157.006 88.8098 153.497V132.773H88.0818Z" fill="#EBEBEB"/>
<path fill-rule="evenodd" clip-rule="evenodd" d="M287.413 152.77L286.685 149.809H285.181V129.765H284.453V128.989H281.492V126.756H278.532V128.261H276.299V148.984H271.785V141.656H267.417V140.151H262.079V144.616H254.799V146.072H251.838V150.537L249.606 149.033V147.577H245.917V148.402H245.189V140.928L244.461 140.151V137.919H241.452V133.502H238.492V136.463H236.308V137.919H235.531L234.803 139.423L234.075 136.463H230.338V134.23L229.61 132.774V128.309H228.882V132.774L227.377 134.23V136.463H225.921L225.193 140.151L224.417 138.695V131.27H219.224L218.399 130.542H213.545V127.581L212.817 133.502H212.089V137.191H210.585V146.897L209.129 147.625V140.151H209.857V136.463H208.352V132.774L207.624 131.27V127.581C207.119 125.401 206.104 123.372 204.664 121.66L203.159 120.883V119.282H202.431V112.002L201.703 111.274V109.041L200.975 108.313V104.722C200.975 104.722 200.199 103.266 200.199 103.994C199.471 104.722 200.199 104.722 200.199 104.722V108.459L199.471 109.187V110.643L198.743 112.147V118.069L198.015 118.797V120.301C197.44 120.349 196.904 120.609 196.51 121.029C195.782 121.806 195.006 122.534 195.006 123.262C194.186 125.138 193.694 127.14 193.55 129.183L192.822 130.687V135.104H191.317L190.589 138.841H191.317V142.529H185.153C185.153 142.529 183.649 142.529 183.649 145.49V146.994H180.688V144.762H172.535V146.218H165.886V144.762H161.421V151.411H157.732C157.004 151.411 156.228 150.683 155.5 149.955H153.267V149.178H151.083V150.683L146.618 153.644V150.683L145.89 149.178H145.113V153.644C145.101 157.153 145.782 160.629 147.119 163.874C148.456 167.118 150.422 170.066 152.903 172.547C155.384 175.028 158.332 176.994 161.577 178.331C164.821 179.668 168.298 180.35 171.807 180.337H288.287C290.322 171.814 291.573 163.122 292.024 154.371H287.559L287.413 152.77Z" fill="#EBEBEB"/>
</svg>
