<svg width="20" height="17" viewBox="0 0 20 17" fill="none" xmlns="http://www.w3.org/2000/svg">
<path d="M2.50065 14.8335V3.75018C2.5006 3.57911 2.55319 3.41218 2.65129 3.27204C2.74939 3.1319 2.88824 3.02535 3.04898 2.96684L11.1082 0.0368439C11.1711 0.0139321 11.2387 0.00653797 11.3051 0.0152884C11.3715 0.0240389 11.4348 0.0486759 11.4897 0.0871106C11.5446 0.125545 11.5894 0.176644 11.6203 0.236075C11.6512 0.295507 11.6673 0.361517 11.6673 0.428511V4.55601L16.9307 6.31018C17.0967 6.36547 17.241 6.47161 17.3434 6.61355C17.4457 6.7555 17.5007 6.92604 17.5007 7.10101V14.8335H19.1673V16.5002H0.833984V14.8335H2.50065ZM4.16732 14.8335H10.0007V2.21268L4.16732 4.33434V14.8335ZM15.834 14.8335V7.70184L11.6673 6.31268V14.8335H15.834Z" fill="black"/>
</svg>
