<svg width="44" height="44" viewBox="0 0 44 44" fill="none" xmlns="http://www.w3.org/2000/svg">
<rect x="0.25" y="0.25" width="43.5" height="43.5" rx="21.75" stroke="white" stroke-width="0.5"/>
<path d="M14.89 14H29.12C29.61 14 30 14.39 30 14.88V29.12C30 29.6 29.61 30 29.12 30H25.04V23.8H27.12L27.43 21.39H25.04V19.85C25.04 19.15 25.24 18.67 26.24 18.67H27.52V16.51C27.3 16.48 26.54 16.42 25.66 16.42C23.81 16.42 22.55 17.54 22.55 19.61V21.39H20.46V23.8H22.55V30H14.89C14.6557 30 14.4308 29.9076 14.2642 29.7429C14.0976 29.5781 14.0026 29.3543 14 29.12V14.88C14 14.39 14.4 14 14.89 14Z" fill="white"/>
</svg>
