<svg width="152" height="52" viewBox="0 0 152 52" fill="none" xmlns="http://www.w3.org/2000/svg">
<path fill-rule="evenodd" clip-rule="evenodd" d="M39.1525 40.6086C39.5835 39.783 39.9723 38.936 40.3173 38.071H24.44C22.785 38.071 21.1979 37.4135 20.0276 36.2433C18.8574 35.0731 18.2 33.4859 18.2 31.831V10.4347C17.1563 10.5366 16.1265 10.7505 15.1285 11.0726V31.72C15.1285 33.375 14.4711 34.9621 13.3009 36.1324C12.1306 37.3026 10.5435 37.96 8.88852 37.96H1.67786C2.02155 38.8279 2.41035 39.6772 2.84266 40.5046H39.1525V40.6086Z" fill="white"/>
<path fill-rule="evenodd" clip-rule="evenodd" d="M5.27539 44.1025C5.80232 44.7404 6.33619 45.2673 6.86312 45.7943H35.2343C35.7927 45.2584 36.3227 44.6938 36.8221 44.1025H5.27539Z" fill="white"/>
<path fill-rule="evenodd" clip-rule="evenodd" d="M31.8514 48.3388C32.818 47.7287 33.7443 47.0571 34.6248 46.3281H7.39062C8.24424 47.091 9.1735 47.7647 10.164 48.3388H31.8514Z" fill="white"/>
<path fill-rule="evenodd" clip-rule="evenodd" d="M3.4668 41.6689C3.81452 42.2581 4.20134 42.8233 4.62466 43.3607H37.2113C37.6749 42.8448 38.0774 42.2771 38.4108 41.6689H3.4668Z" fill="white"/>
<path fill-rule="evenodd" clip-rule="evenodd" d="M10.4609 48.5333C13.6364 50.4081 17.2565 51.397 20.9441 51.397C24.6317 51.397 28.2519 50.4081 31.4273 48.5333H10.4609Z" fill="white"/>
<path fill-rule="evenodd" clip-rule="evenodd" d="M20.7305 31.8244C20.7287 32.3257 20.826 32.8224 21.017 33.2859C21.208 33.7493 21.4888 34.1704 21.8433 34.5249C22.1978 34.8794 22.6189 35.1602 23.0824 35.3512C23.5458 35.5422 24.0425 35.6396 24.5438 35.6377H41.1838C41.5308 34.0712 41.7098 32.4721 41.7177 30.8676C41.7103 25.4196 39.5415 20.1972 35.6872 16.3468C31.833 12.4965 26.6083 10.3329 21.1604 10.3311H20.8414V31.8244H20.7305Z" fill="white"/>
<path fill-rule="evenodd" clip-rule="evenodd" d="M8.8742 35.5265C9.37516 35.5292 9.8717 35.4327 10.3351 35.2425C10.7986 35.0522 11.2198 34.7721 11.5743 34.4181C11.9289 34.0642 12.2098 33.6436 12.4009 33.1805C12.5919 32.7174 12.6894 32.221 12.6875 31.7201V12.0225C9.01946 13.6148 5.90012 16.2499 3.7171 19.6003C1.53407 22.9506 0.383591 26.8685 0.408602 30.8673C0.426654 32.4708 0.603156 34.0686 0.935536 35.6374H8.8742V35.5265Z" fill="white"/>
<path fill-rule="evenodd" clip-rule="evenodd" d="M12.5831 28.9675L12.4791 26.104H12.1671V25.1542H11.3074V26.5408H10.9954V31.7339V31.415L10.8845 31.7339V31.9419H10.7805L10.6765 32.0459V30.7632L10.2535 30.6592H8.13194V28.4267H7.709C7.709 28.1078 7.605 27.7958 7.605 27.4768C7.501 27.2619 7.501 26.943 7.39007 26.735C7.27914 26.527 7.18207 26.0971 6.96714 26.208C6.86314 26.208 6.75914 26.52 6.75914 26.631C6.46119 27.2829 6.31651 27.9944 6.3362 28.711C6.3362 28.815 6.2322 29.1339 6.2322 29.2379V30.8256L5.49034 31.0406V31.6784H4.95647V30.2363H4.85247V29.7024L4.74847 29.5984H4.32554L4.2146 29.7024V30.0214H4.1106V29.9174H3.4658V29.4944C3.4658 29.4944 3.14687 28.8566 2.93194 28.8566C2.717 28.8566 2.405 29.2795 2.301 29.3904V30.1323L2.07914 30.2363V30.6592H0.408203V30.9782C0.425894 32.5794 0.602403 34.175 0.935137 35.7414H8.8738C9.37509 35.7432 9.87179 35.6458 10.3353 35.4548C10.7988 35.2638 11.2199 34.983 11.5743 34.6286C11.9288 34.2741 12.2096 33.853 12.4006 33.3895C12.5916 32.926 12.689 32.4293 12.6871 31.928V28.9675H12.5831Z" fill="#FEFEFE"/>
<path fill-rule="evenodd" clip-rule="evenodd" d="M41.059 31.8243L40.955 31.4013H40.7401V28.5379H40.6361V28.4269H40.2132V28.108H39.7902V28.3229H39.4713V31.2835H38.8265V30.2365H38.2025V30.0216H37.4398V30.6595H36.3998V30.8675H35.9769V31.5053L35.658 31.2904V31.0824H35.131V31.2003H35.027V30.1325L34.923 30.0216V29.7027H34.4932V29.0717H34.0702V29.4947H33.7582V29.7027H33.6473L33.5433 29.9176L33.4393 29.4947H32.9054V29.1757L32.8014 28.9677V28.3299H32.6974V28.9677L32.4825 29.1757V29.4947H32.2745L32.1705 30.0216L32.0596 29.8136V28.7528H31.3177L31.1998 28.6488H30.5065V28.2259L30.4025 29.0717H30.2985V29.5987H30.0836V30.9853L29.8756 31.0893V30.0216H29.9796V29.4947H29.7646V28.9677L29.6606 28.7528V28.2259C29.5884 27.9145 29.4435 27.6246 29.2377 27.38L29.0228 27.2691V27.0403H28.9188V26.0003L28.8148 25.8963V25.5773L28.7108 25.4733V24.9603C28.7108 24.9603 28.5998 24.7523 28.5998 24.8563C28.4958 24.9603 28.5998 24.9603 28.5998 24.9603V25.4941L28.4958 25.5981V25.8061L28.3918 26.0211V26.8669L28.2878 26.9709V27.1859C28.2058 27.1928 28.1292 27.2298 28.0729 27.2899C27.9689 27.4008 27.858 27.5048 27.858 27.6088C27.7409 27.8768 27.6706 28.1629 27.65 28.4547L27.546 28.6696V29.3005H27.331L27.227 29.8344H27.331V30.3613H26.4505C26.4505 30.3613 26.2356 30.3613 26.2356 30.7843V30.9992H25.8126V30.6803H24.6478V30.8883H23.698V30.6803H23.0601V31.6301H22.5332C22.4292 31.6301 22.3182 31.5261 22.2142 31.4221H21.8953V31.3112H21.5833V31.5261L20.9454 31.9491V31.5261L20.8414 31.3112H20.7305V31.9491C20.7287 32.4504 20.826 32.9471 21.017 33.4105C21.208 33.874 21.4888 34.2951 21.8433 34.6496C22.1978 35.0041 22.6189 35.2849 23.0824 35.4759C23.5458 35.6669 24.0425 35.7642 24.5438 35.7624H41.1838C41.4745 34.5448 41.6532 33.3032 41.7177 32.0531H41.0798L41.059 31.8243Z" fill="#FEFEFE"/>
<path d="M24.4203 35.6759C24.4201 35.6759 24.4198 35.6759 24.4196 35.6759H24.4195L24.4203 35.6759ZM24.4203 35.6759L41.0152 35.6759L44.4694 37.9135H24.4344C22.8261 37.8905 21.2902 37.2414 20.1528 36.104C19.0155 34.9667 18.3664 33.4307 18.3434 31.8225V1.11842L20.4562 4.54869V31.7193V31.7195H20.6062C20.6043 32.2205 20.7018 32.7169 20.8928 33.18C21.0839 33.6431 21.3648 34.0637 21.7194 34.4176C22.0739 34.7715 22.4951 35.0517 22.9585 35.2419C23.422 35.4322 23.9185 35.5287 24.4195 35.5259L24.4203 35.6759Z" fill="#1E1E1E" stroke="white" stroke-width="0.3"/>
<path fill-rule="evenodd" clip-rule="evenodd" d="M57.1511 12.3418V31.4015H68.9031V34.6671H53.5527V12.3418H57.1511Z" fill="white"/>
<path fill-rule="evenodd" clip-rule="evenodd" d="M87.7489 30.0218H75.678L73.5633 34.6671H69.75L79.8103 12.3418H83.7276L93.7809 34.6671H89.9745L87.7489 30.0218ZM81.7169 16.1551L76.9607 26.7423H86.3761L81.7169 16.1551Z" fill="white"/>
<path fill-rule="evenodd" clip-rule="evenodd" d="M110.295 12.3418H114.212V12.5567L106.697 23.3519L114.531 34.577V34.6671H110.51L104.478 25.8826L98.3351 34.6671H94.293V34.5631L102.128 23.3381L94.6258 12.5567V12.3418H98.5431L104.478 21.0223L110.295 12.3418Z" fill="white"/>
<path fill-rule="evenodd" clip-rule="evenodd" d="M137.086 17.6389L129.46 28.2261H128.718L121.202 17.6389V34.785H117.604V12.4805H121.729L129.141 22.9567L136.448 12.4805H140.574V34.785H136.975V17.6389H137.086Z" fill="white"/>
<path d="M149.684 12.3418H146.189V34.681H149.684V12.3418Z" fill="white"/>
<path fill-rule="evenodd" clip-rule="evenodd" d="M57.6796 46.4534V44.6507H61.597V48.991C61.1181 49.4902 60.5424 49.8865 59.9052 50.1558C59.2417 50.4693 58.5234 50.6507 57.7906 50.6896C56.9691 50.698 56.1627 50.4693 55.4679 50.031C54.78 49.5463 54.2322 48.8886 53.8802 48.1243C53.4593 47.1562 53.2422 46.1119 53.2422 45.0563C53.2422 44.0007 53.4593 42.9564 53.8802 41.9883C54.2322 41.224 54.78 40.5662 55.4679 40.0816C56.1901 39.6315 57.0316 39.4104 57.8817 39.4475C58.7319 39.4847 59.5509 39.7782 60.2311 40.2896C60.8969 40.9069 61.3425 41.725 61.4999 42.6192L59.7042 43.0422C59.5775 42.553 59.3098 42.1118 58.9346 41.7734C58.7621 41.6194 58.5599 41.5025 58.3405 41.4298C58.1211 41.357 57.8891 41.33 57.6588 41.3504C57.3016 41.3563 56.9491 41.4343 56.6227 41.5797C56.2963 41.725 56.0025 41.9347 55.7591 42.1963C55.2325 43.0224 54.9734 43.9909 55.0172 44.9696C54.9279 46.0137 55.1889 47.0579 55.7591 47.9371C55.96 48.218 56.2306 48.4418 56.5442 48.5865C56.8579 48.7312 57.2038 48.7917 57.5479 48.7622C57.9204 48.7425 58.2876 48.6654 58.6364 48.5334C59.0033 48.3462 59.3576 48.1354 59.6972 47.9024V46.5158H57.6796V46.4534ZM76.5244 50.4747V39.52H80.3378C81.0593 39.4805 81.7813 39.589 82.4594 39.839C82.9087 40.0826 83.2755 40.4542 83.5132 40.9067C83.7661 41.4366 83.9099 42.0119 83.9362 42.5984C83.9714 43.3223 83.7477 44.0351 83.3052 44.6091C83.1013 44.875 82.8457 45.0968 82.5538 45.2612C82.2618 45.4257 81.9396 45.5293 81.6066 45.5659C81.9988 45.799 82.3274 46.1253 82.5634 46.5158C82.9506 47.0949 83.3025 47.6969 83.6172 48.3184L84.678 50.3984H82.598L81.3292 48.0688C81.0767 47.5023 80.7553 46.9691 80.3724 46.4811C80.2238 46.3094 80.0453 46.1661 79.8455 46.0582C79.5367 45.9598 79.2114 45.9244 78.8887 45.9542H78.4658V50.5094H76.5591L76.5244 50.4747ZM78.3271 44.2347H79.7138C80.2452 44.2793 80.7804 44.2443 81.3015 44.1307C81.5187 44.043 81.6996 43.8841 81.8146 43.68C81.9444 43.4165 82.0154 43.1279 82.0226 42.8342C82.0163 42.5403 81.9453 42.2515 81.8146 41.9883C81.6913 41.7922 81.5057 41.6433 81.2876 41.5654C80.7953 41.5023 80.3001 41.4653 79.8039 41.4544H78.4172V44.2278L78.3271 44.2347ZM98.3367 45.0667C98.3204 43.9852 98.4989 42.9095 98.8636 41.8912C99.1792 41.1366 99.6916 40.4805 100.347 39.9915C101.007 39.5575 101.783 39.335 102.573 39.3536C103.166 39.3411 103.753 39.469 104.287 39.7269C104.821 39.9848 105.286 40.3653 105.644 40.8374C106.49 41.7872 106.802 43.167 106.802 44.9627C106.885 46.4794 106.437 47.9776 105.533 49.199C105.149 49.6332 104.677 49.981 104.148 50.2191C103.619 50.4572 103.046 50.5804 102.465 50.5804C101.885 50.5804 101.312 50.4572 100.783 50.2191C100.254 49.981 99.782 49.6332 99.3975 49.199C98.6389 47.9483 98.2696 46.5002 98.3367 45.039V45.0667ZM100.243 44.9627C100.243 46.2315 100.451 47.1883 100.985 47.736C101.178 48.036 101.444 48.2815 101.758 48.449C102.073 48.6165 102.425 48.7005 102.781 48.6928C103.136 48.6893 103.485 48.6005 103.799 48.434C104.113 48.2675 104.382 48.0281 104.584 47.736C105.106 46.8772 105.364 45.8838 105.325 44.8795C105.413 43.9108 105.189 42.9395 104.688 42.1062C104.489 41.8198 104.218 41.5909 103.903 41.4424C103.588 41.2939 103.239 41.2311 102.892 41.2603C102.537 41.2636 102.189 41.3516 101.875 41.5168C101.562 41.682 101.292 41.9197 101.089 42.2102C100.451 42.848 100.243 43.6939 100.243 44.9835V44.9627ZM121.626 39.52H123.415V45.344C123.374 45.9469 123.409 46.5525 123.519 47.1467C123.608 47.5369 123.789 47.9004 124.045 48.2075C124.387 48.4542 124.79 48.6007 125.21 48.6304C125.588 48.6367 125.959 48.5252 126.271 48.3115C126.506 48.1117 126.687 47.8568 126.798 47.5696C126.915 46.8712 126.952 46.1618 126.909 45.455V39.4438H128.705V45.1638C128.718 46.226 128.648 47.2878 128.497 48.3392C128.349 48.9747 127.977 49.5358 127.45 49.92C126.847 50.3577 126.115 50.5822 125.37 50.5579C124.593 50.5854 123.824 50.4008 123.144 50.024C122.648 49.6643 122.248 49.1881 121.979 48.6374C121.709 47.5286 121.602 46.3866 121.66 45.247L121.626 39.52ZM143.965 50.4262V39.52H146.821C147.531 39.4768 148.242 39.5141 148.943 39.631C149.474 39.8264 149.922 40.1984 150.212 40.6848C150.574 41.3324 150.755 42.0649 150.739 42.8064C150.775 43.502 150.629 44.195 150.316 44.8171C150.078 45.2946 149.713 45.6975 149.262 45.9819C148.515 46.2464 147.723 46.355 146.932 46.3008H145.768V50.4608L143.965 50.4262ZM145.768 41.4128V44.4843H146.717C147.182 44.5217 147.65 44.4866 148.104 44.3803C148.363 44.2725 148.583 44.0887 148.735 43.8534C148.879 43.555 148.952 43.2277 148.95 42.8966C148.929 42.5706 148.856 42.25 148.735 41.9467C148.603 41.6932 148.376 41.5016 148.104 41.4128C147.618 41.3031 147.117 41.268 146.62 41.3088H145.775L145.768 41.4128Z" fill="white"/>
</svg>
