<svg width="44" height="44" viewBox="0 0 44 44" fill="none" xmlns="http://www.w3.org/2000/svg">
<rect x="0.25" y="0.25" width="43.5" height="43.5" rx="21.75" stroke="white" stroke-width="0.5"/>
<path d="M21.998 19.3322C20.529 19.3322 19.3302 20.531 19.3302 22C19.3302 23.469 20.529 24.6678 21.998 24.6678C23.467 24.6678 24.6658 23.469 24.6658 22C24.6658 20.531 23.467 19.3322 21.998 19.3322ZM29.9994 22C29.9994 20.8953 30.0094 19.8005 29.9474 18.6978C29.8853 17.4169 29.5931 16.2801 28.6565 15.3435C27.7179 14.4049 26.5831 14.1147 25.3022 14.0526C24.1975 13.9906 23.1027 14.0006 22 14.0006C20.8953 14.0006 19.8005 13.9906 18.6978 14.0526C17.4169 14.1147 16.2801 14.4069 15.3435 15.3435C14.4049 16.2821 14.1147 17.4169 14.0526 18.6978C13.9906 19.8025 14.0006 20.8973 14.0006 22C14.0006 23.1027 13.9906 24.1995 14.0526 25.3022C14.1147 26.5831 14.4069 27.7199 15.3435 28.6565C16.2821 29.5951 17.4169 29.8853 18.6978 29.9474C19.8025 30.0094 20.8973 29.9994 22 29.9994C23.1047 29.9994 24.1995 30.0094 25.3022 29.9474C26.5831 29.8853 27.7199 29.5931 28.6565 28.6565C29.5951 27.7179 29.8853 26.5831 29.9474 25.3022C30.0114 24.1995 29.9994 23.1047 29.9994 22ZM21.998 26.1048C19.7265 26.1048 17.8932 24.2715 17.8932 22C17.8932 19.7285 19.7265 17.8952 21.998 17.8952C24.2695 17.8952 26.1028 19.7285 26.1028 22C26.1028 24.2715 24.2695 26.1048 21.998 26.1048ZM26.2709 18.6858C25.7405 18.6858 25.3122 18.2575 25.3122 17.7271C25.3122 17.1968 25.7405 16.7685 26.2709 16.7685C26.8012 16.7685 27.2295 17.1968 27.2295 17.7271C27.2297 17.853 27.205 17.9778 27.1569 18.0942C27.1088 18.2105 27.0382 18.3163 26.9491 18.4053C26.8601 18.4944 26.7543 18.565 26.6379 18.6131C26.5216 18.6612 26.3968 18.6859 26.2709 18.6858Z" fill="white"/>
</svg>
