<svg width="44" height="44" viewBox="0 0 44 44" fill="none" xmlns="http://www.w3.org/2000/svg">
<rect x="0.25" y="0.25" width="43.5" height="43.5" rx="21.75" stroke="white" stroke-width="0.5"/>
<path d="M14 15.146C14 14.513 14.526 14 15.175 14H28.825C29.474 14 30 14.513 30 15.146V28.854C30 29.487 29.474 30 28.825 30H15.175C14.526 30 14 29.487 14 28.854V15.146ZM18.943 27.394V20.169H16.542V27.394H18.943ZM17.743 19.182C18.58 19.182 19.101 18.628 19.101 17.934C19.086 17.225 18.581 16.686 17.759 16.686C16.937 16.686 16.4 17.226 16.4 17.934C16.4 18.628 16.921 19.182 17.727 19.182H17.743ZM22.651 27.394V23.359C22.651 23.143 22.667 22.927 22.731 22.773C22.904 22.342 23.299 21.895 23.963 21.895C24.832 21.895 25.179 22.557 25.179 23.529V27.394H27.58V23.25C27.58 21.03 26.396 19.998 24.816 19.998C23.542 19.998 22.971 20.698 22.651 21.191V21.216H22.635L22.651 21.191V20.169H20.251C20.281 20.847 20.251 27.394 20.251 27.394H22.651Z" fill="white"/>
</svg>
