<svg width="16" height="18" viewBox="0 0 16 18" fill="none" xmlns="http://www.w3.org/2000/svg">
<path d="M2.86951 2.8069C4.23029 1.44612 6.07591 0.681641 8.00034 0.681641C9.92478 0.681641 11.7704 1.44612 13.1312 2.8069C14.492 4.16768 15.2564 6.0133 15.2564 7.93774C15.2564 9.86217 14.492 11.7078 13.1312 13.0686L12.142 14.0469C11.4131 14.7619 10.467 15.6819 9.30368 16.8069C8.95403 17.145 8.4867 17.334 8.00034 17.334C7.51398 17.334 7.04665 17.145 6.69701 16.8069L3.78784 13.9769C3.42173 13.618 3.11562 13.3152 2.86951 13.0686C2.19569 12.3948 1.66118 11.5949 1.29651 10.7145C0.931836 9.83419 0.744141 8.89063 0.744141 7.93774C0.744141 6.98484 0.931836 6.04128 1.29651 5.16093C1.66118 4.28058 2.19569 3.48067 2.86951 2.8069ZM12.247 3.69023C11.6892 3.1325 11.027 2.69009 10.2983 2.38827C9.5695 2.08645 8.78843 1.93112 7.99963 1.93116C7.21084 1.9312 6.42977 2.0866 5.70104 2.38849C4.9723 2.69039 4.31016 3.13286 3.75243 3.69065C3.19469 4.24844 2.75228 4.91062 2.45046 5.63939C2.14864 6.36816 1.99331 7.14923 1.99335 7.93803C1.99339 8.72682 2.14879 9.50789 2.45068 10.2366C2.75258 10.9654 3.19505 11.6275 3.75284 12.1852L4.99284 13.4086C5.67506 14.0758 6.53284 14.9091 7.56618 15.9086C7.6827 16.0211 7.83836 16.084 8.00034 16.084C8.16233 16.084 8.31799 16.0211 8.43451 15.9086L11.2637 13.1586C11.6553 12.7747 11.9831 12.4502 12.247 12.1852C13.3733 11.0589 14.006 9.53137 14.006 7.93857C14.006 6.34577 13.3733 4.81821 12.247 3.6919M8.00034 5.66607C8.32887 5.66607 8.65417 5.73078 8.95769 5.8565C9.26121 5.98222 9.53699 6.16649 9.76929 6.39879C10.0016 6.63109 10.1859 6.90687 10.3116 7.21039C10.4373 7.51391 10.502 7.83921 10.502 8.16774C10.502 8.49626 10.4373 8.82157 10.3116 9.12508C10.1859 9.4286 10.0016 9.70438 9.76929 9.93668C9.53699 10.169 9.26121 10.3533 8.95769 10.479C8.65417 10.6047 8.32887 10.6694 8.00034 10.6694C7.34488 10.6574 6.7203 10.3887 6.26098 9.92088C5.80167 9.45311 5.54433 8.82373 5.54433 8.16815C5.54433 7.51258 5.80167 6.8832 6.26098 6.41542C6.7203 5.94765 7.34488 5.67887 8.00034 5.6669M8.00034 6.9169C7.66838 6.9169 7.35001 7.04877 7.11528 7.28351C6.88055 7.51824 6.74868 7.83661 6.74868 8.16857C6.74868 8.50053 6.88055 8.8189 7.11528 9.05363C7.35001 9.28836 7.66838 9.42023 8.00034 9.42023C8.3266 9.41181 8.63667 9.27629 8.86446 9.04256C9.09224 8.80882 9.21972 8.49536 9.21972 8.16898C9.21972 7.84261 9.09224 7.52915 8.86446 7.29542C8.63667 7.06168 8.3266 6.92616 8.00034 6.91774" fill="black"/>
</svg>
