<?xml version="1.0" encoding="utf-8"?>
<!-- Generator: Adobe Illustrator 26.0.1, SVG Export Plug-In . SVG Version: 6.00 Build 0)  -->
<svg version="1.1" id="Layer_1" xmlns="http://www.w3.org/2000/svg" xmlns:xlink="http://www.w3.org/1999/xlink" x="0px" y="0px"
	 viewBox="0 0 24 24" style="enable-background:new 0 0 24 24;" xml:space="preserve">
<style type="text/css">
	.st0{fill:none;stroke:#000000;stroke-linecap:round;stroke-linejoin:round;}
</style>
<path id="Fill-3" class="st0" d="M20.8,17.9l-5.4-5.4l5.5-5.4"/>
<path id="Fill-3-2" class="st0" d="M8.5,12.4l1.1,1c0.6,0.6,1.5,1,2.4,1c0.9,0,1.8-0.4,2.4-1l1-1"/>
<path id="Fill-4" class="st0" d="M19.4,18.8H4.6c-0.9,0-1.6-0.7-1.6-1.6V6.8c0-0.9,0.7-1.6,1.6-1.6h14.8c0.9,0,1.6,0.7,1.6,1.6v10.5
	C21,18.1,20.3,18.8,19.4,18.8z"/>
<path id="Fill-3-3" class="st0" d="M3.2,17.9l5.4-5.4L3.1,7.1"/>
</svg>
