<svg width="24" height="130" viewBox="0 0 24 130" fill="none" xmlns="http://www.w3.org/2000/svg">
<path d="M15.58 83.74C17.488 83.74 19.18 85.306 19.18 88.24C19.18 91.156 17.524 92.83 15.166 92.938V92.038C17.146 91.894 18.442 90.67 18.442 88.24C18.442 86.242 17.398 84.64 15.67 84.64C14.158 84.64 13.51 85.468 13.078 87.556L12.772 89.032C12.448 90.652 11.746 92.542 9.46 92.542C7.48 92.542 5.896 90.796 5.896 88.294C5.896 85.9 7.426 84.01 9.838 83.884V84.802C7.984 84.91 6.634 86.278 6.634 88.294C6.634 90.472 8.002 91.642 9.424 91.642C11.17 91.642 11.674 90.184 12.016 88.582L12.322 87.124C12.772 84.982 13.6 83.74 15.58 83.74ZM19.198 77.7151C19.198 80.1271 17.182 81.8191 14.266 81.8191C11.386 81.8191 9.388 80.1271 9.388 77.7151C9.388 75.6091 10.774 74.0971 13.078 73.7011V74.5291C11.206 74.8531 10.09 76.0411 10.09 77.6971C10.09 79.6411 11.8 80.9731 14.266 80.9731C16.768 80.9731 18.496 79.6411 18.496 77.6971C18.496 76.0231 17.38 74.8531 15.49 74.5111V73.7011C17.794 74.0611 19.198 75.5911 19.198 77.7151ZM13.78 70.673H19V71.501H9.568V70.709H11.836C10.36 70.097 9.388 68.711 9.388 67.145H10.27C10.252 69.107 11.728 70.673 13.78 70.673ZM19.18 61.8528C19.18 64.4268 17.164 66.2448 14.266 66.2448C11.422 66.2448 9.406 64.4268 9.406 61.8528C9.406 59.2788 11.422 57.4608 14.266 57.4608C17.164 57.4608 19.18 59.2788 19.18 61.8528ZM18.478 61.8528C18.478 59.8008 16.822 58.3068 14.266 58.3068C11.764 58.3068 10.108 59.8008 10.108 61.8528C10.108 63.9048 11.764 65.3988 14.266 65.3988C16.822 65.3988 18.478 63.9048 18.478 61.8528ZM19 54.4484V55.2764H6.076V54.4484H19ZM19 50.7042V51.5322H6.076V50.7042H19ZM19 40.6244V43.9724H6.076L6.076 40.6244C6.076 36.4664 8.704 34.2524 12.502 34.2524C16.21 34.2524 19 36.5564 19 40.6244ZM6.832 43.0904H18.244V40.6244C18.244 37.0964 15.886 35.1344 12.502 35.1344C9.1 35.1344 6.832 37.0604 6.832 40.6244V43.0904ZM19.18 28.3665C19.18 30.9405 17.164 32.7585 14.266 32.7585C11.422 32.7585 9.406 30.9405 9.406 28.3665C9.406 25.7925 11.422 23.9745 14.266 23.9745C17.164 23.9745 19.18 25.7925 19.18 28.3665ZM18.478 28.3665C18.478 26.3145 16.822 24.8205 14.266 24.8205C11.764 24.8205 10.108 26.3145 10.108 28.3665C10.108 30.4185 11.764 31.9125 14.266 31.9125C16.822 31.9125 18.478 30.4185 18.478 28.3665ZM19 14.0638L10.666 16.7638L19 19.4638V20.3458L9.568 23.1178V22.2718L17.812 19.8958L9.568 17.1778V16.3678L17.83 13.6498L9.568 11.2738V10.4098L19 13.2178V14.0638ZM13.384 7.81361H19V8.64161H9.568V7.84961H11.494C10.252 7.27361 9.388 6.06761 9.388 4.66361C9.388 2.66561 10.648 1.42361 12.862 1.42361H19V2.25161H13.168C11.206 2.25161 10.09 3.18761 10.09 4.86161C10.09 6.49961 11.53 7.81361 13.384 7.81361Z" fill="white"/>
<path d="M19 122C18.258 122 17.15 122.733 16.22 123.475C15.02 124.429 13.973 125.569 13.174 126.876C12.575 127.856 12 129.044 12 130M12 130C12 129.044 11.425 127.855 10.826 126.876C10.026 125.569 8.979 124.429 7.781 123.475C6.85 122.733 5.74 122 5 122M12 130L12 106" stroke="white"/>
</svg>
