<?xml version="1.0" encoding="utf-8"?>
<!-- Generator: Adobe Illustrator 26.0.1, SVG Export Plug-In . SVG Version: 6.00 Build 0)  -->
<svg version="1.1" id="Layer_1" xmlns="http://www.w3.org/2000/svg" xmlns:xlink="http://www.w3.org/1999/xlink" x="0px" y="0px"
	 viewBox="0 0 24 24" style="enable-background:new 0 0 24 24;" xml:space="preserve">
<style type="text/css">
	.st0{fill:none;stroke:#000000;stroke-linecap:round;stroke-linejoin:round;}
	.st1{stroke:#000000;stroke-width:0.25;stroke-miterlimit:10;}
</style>
<path class="st0" d="M3.5,21.5c-0.1,0-0.1,0-0.2-0.1c-0.1-0.1-0.1-0.2-0.1-0.3l1.3-4c-0.9-1.4-1.3-3-1.3-4.7c0-5,4-9,9-9s9,4,9,9
	s-4,9-9,9c-1.6,0-3.3-0.5-4.7-1.3L3.5,21.5C3.6,21.5,3.5,21.5,3.5,21.5z"/>
<path class="st1" d="M8.8,8.6c-0.1,0-0.1,0-0.1,0.1c-0.6,0.4-1,1.1-0.9,1.9c0.1,0.7,0.3,1.4,0.7,2c0.8,1.3,2,2.4,3.4,3.1
	c1,0.5,2.1,0.8,3.2,0.7c0.7-0.2,1.3-0.7,1.6-1.4c0-0.1,0-0.1,0-0.1l-0.1-0.5c0-0.1-0.1-0.2-0.2-0.2l-2.1-0.3c-0.1,0-0.2,0-0.2,0.1
	l-0.4,0.6c-0.2,0.3-0.6,0.4-0.9,0.3c-0.1,0-0.3-0.1-0.4-0.1c-1-0.4-1.8-1.1-2.5-2c-0.1-0.1-0.2-0.2-0.2-0.3c-0.2-0.3-0.1-0.7,0.1-1
	l0.5-0.5c0.1-0.1,0.1-0.2,0.1-0.3L9.6,8.8c0-0.1-0.1-0.2-0.2-0.1L8.8,8.6z"/>
</svg>
