<svg width="44" height="44" viewBox="0 0 44 44" fill="none" xmlns="http://www.w3.org/2000/svg">
<rect x="0.25" y="0.25" width="43.5" height="43.5" rx="21.75" stroke="white" stroke-width="0.5"/>
<path fill-rule="evenodd" clip-rule="evenodd" d="M22 16C22.684 16 23.3856 16.0176 24.0656 16.0464L24.8688 16.0848L25.6376 16.1304L26.3576 16.1792L27.0152 16.2304C27.7288 16.285 28.4004 16.5896 28.9116 17.0904C29.4229 17.5913 29.7411 18.2564 29.8104 18.9688L29.8424 19.3088L29.9024 20.0368C29.9584 20.7912 30 21.6136 30 22.4C30 23.1864 29.9584 24.0088 29.9024 24.7632L29.8424 25.4912C29.832 25.608 29.8216 25.7208 29.8104 25.8312C29.7411 26.5437 29.4227 27.2089 28.9113 27.7098C28.3999 28.2107 27.7282 28.5152 27.0144 28.5696L26.3584 28.62L25.6384 28.6696L24.8688 28.7152L24.0656 28.7536C23.3775 28.7835 22.6888 28.799 22 28.8C21.3112 28.799 20.6225 28.7835 19.9344 28.7536L19.1312 28.7152L18.3624 28.6696L17.6424 28.62L16.9848 28.5696C16.2712 28.515 15.5996 28.2104 15.0884 27.7096C14.5771 27.2087 14.2589 26.5436 14.1896 25.8312L14.1576 25.4912L14.0976 24.7632C14.0364 23.9769 14.0039 23.1887 14 22.4C14 21.6136 14.0416 20.7912 14.0976 20.0368L14.1576 19.3088C14.168 19.192 14.1784 19.0792 14.1896 18.9688C14.2588 18.2566 14.577 17.5915 15.0881 17.0907C15.5992 16.5898 16.2705 16.2852 16.984 16.2304L17.6408 16.1792L18.3608 16.1304L19.1304 16.0848L19.9336 16.0464C20.622 16.0165 21.311 16.001 22 16ZM20.4 20.46V24.34C20.4 24.7096 20.8 24.94 21.12 24.756L24.48 22.816C24.5531 22.7739 24.6138 22.7133 24.6561 22.6403C24.6983 22.5672 24.7205 22.4844 24.7205 22.4C24.7205 22.3156 24.6983 22.2328 24.6561 22.1597C24.6138 22.0867 24.5531 22.0261 24.48 21.984L21.12 20.0448C21.047 20.0027 20.9642 19.9805 20.8799 19.9805C20.7956 19.9805 20.7128 20.0027 20.6399 20.0449C20.5669 20.087 20.5063 20.1477 20.4642 20.2207C20.4221 20.2937 20.3999 20.3757 20.4 20.46Z" fill="white"/>
</svg>
